<svg xmlns="http://www.w3.org/2000/svg" id="Sponsors" viewBox="0 0 96.6 30.28"><defs><style>.cls-1{fill:#e41f2b}</style></defs><g id="Coca_Cola" data-name="Coca Cola"><path d="M554.75,87.39a2.52,2.52,0,0,1,.29-.67,6.93,6.93,0,0,0,.61-1.46c.05-.22.14-.49-.06-.66s-.48,0-.68.09a10.52,10.52,0,0,0-1.56,1.16,30.59,30.59,0,0,0-4.05,4.23,75,75,0,0,0-6.1,9,18.26,18.26,0,0,0-1.06,2,.94.94,0,0,0,.6-.28c.89-.68,1.74-1.38,2.56-2.13,1.32-1.2,2.6-2.46,3.83-3.76.93-1,1.81-2,2.64-3a1.18,1.18,0,0,1,1.4-.48,5,5,0,0,1-.79,1.19,65.12,65.12,0,0,1-5.45,5.93,42,42,0,0,1-5.39,4.39,2.05,2.05,0,0,0-.79.93,33.73,33.73,0,0,0-1.31,3.38,9.13,9.13,0,0,0-.31,1.25,2,2,0,0,0,0,.84c.14.53.5.71,1,.42a5.24,5.24,0,0,0,1.3-1.23,45.82,45.82,0,0,0,2.68-3.77A28.71,28.71,0,0,1,548,99.93,13.59,13.59,0,0,1,550.6,98a3.41,3.41,0,0,1,1.66-.45,1.76,1.76,0,0,1,1.64.84s.07.06.1.08h.06c.25-.6.74-.66,1.3-.63s1.23,0,1.84,0c.35,0,.39.07.21.38l-2.33,3.94c-1.31,2.23-2.63,4.45-3.88,6.72-.12.21-.3.46-.08.68s.47.05.68-.08a7.12,7.12,0,0,0,1.51-1.28,34.64,34.64,0,0,0,2.36-2.95,1,1,0,0,1,1.1-.34c.12,0,.15.13.1.23a1.83,1.83,0,0,1-.16.26,31.72,31.72,0,0,1-3.59,4.51,11.87,11.87,0,0,1-2.4,2,4.52,4.52,0,0,1-1.56.62,1.37,1.37,0,0,1-1.76-1.27c0-.28-.06-.55-.09-.84-.24,0-.33.18-.46.3a10.16,10.16,0,0,1-2.28,1.6,2.33,2.33,0,0,1-1.4.22,1.7,1.7,0,0,1-1.41-1.53,8.8,8.8,0,0,1,0-1.27,1.16,1.16,0,0,0-.44.37,11.54,11.54,0,0,1-2.25,1.94,3.83,3.83,0,0,1-1.25.49,2,2,0,0,1-2.23-1.78,6,6,0,0,1,.17-2.27c.25-1.06.63-2.1,1-3.13,0-.11.08-.22.11-.33.12-.4.1-.41-.33-.36l-.15,0c-1.15.08-.93,0-1.51.92a24.89,24.89,0,0,1-3.08,4.09,12.6,12.6,0,0,1-3.09,2.39,4,4,0,0,1-1.52.47A1.85,1.85,0,0,1,525,111a5.57,5.57,0,0,1,.22-2.89,16,16,0,0,1,2.09-4.33,22,22,0,0,1,3.22-3.85,10.79,10.79,0,0,1,3.31-2.15,3.54,3.54,0,0,1,1.36-.26,1.7,1.7,0,0,1,1.89,1.84,6,6,0,0,1-.42,2.52,14.8,14.8,0,0,1-.61,1.42c-.06.11-.18.24-.1.37s.28,0,.42,0a1.86,1.86,0,0,0,.34-.06,1.35,1.35,0,0,0,1-.82,66.91,66.91,0,0,1,4.74-8A45.16,45.16,0,0,1,550,86.4a16.19,16.19,0,0,1,3.8-2.7,3.78,3.78,0,0,1,1.77-.42,1,1,0,0,1,1.12,1.12,4,4,0,0,1-.29,1.6c-.1.26-.23.52-.35.76a1.1,1.1,0,0,1-1.31.63Zm-8.49,22.2a1.37,1.37,0,0,0,.77-.44,12.86,12.86,0,0,0,2.25-2.84c1.27-2,2.48-4,3.72-6.06a2.65,2.65,0,0,0,.27-.53c.12-.37-.1-.62-.49-.56a1.78,1.78,0,0,0-.95.42,18.54,18.54,0,0,0-1.46,1.34,24.14,24.14,0,0,0-2.13,2.62,18.79,18.79,0,0,0-2.41,4.34,3.58,3.58,0,0,0-.25,1,.59.59,0,0,0,.68.71Zm-14.53-7.13a3.78,3.78,0,0,0-.59.79,17.49,17.49,0,0,0-2.21,4,4.27,4.27,0,0,0-.28,1.2c-.07.89.53,1.35,1.36,1a3.52,3.52,0,0,0,1.08-.7A15.36,15.36,0,0,0,534,105c.26-.44.25-.45-.23-.7a4.54,4.54,0,0,1-1.7-1.41,1.31,1.31,0,0,0-.34-.45Zm4.33-2.33v-.2c0-.84-.56-1.16-1.35-.86a3,3,0,0,0-1.21.84,2.25,2.25,0,0,0-.59,1.34,2.34,2.34,0,0,0,1.66,2.28c.22.09.34,0,.43-.21a9.31,9.31,0,0,0,.71-1.58,5,5,0,0,0,.35-1.61ZM508.61,91c.15-.44.49-.48.89-.46.62,0,1.26,0,1.89,0s.62.05.31.57c-.69,1.16-1.39,2.3-2.09,3.46l-4,6.65a1.33,1.33,0,0,0-.2.51c0,.37.16.54.51.4a3,3,0,0,0,.52-.3,12.63,12.63,0,0,0,2.49-2.41c.36-.43.7-.88,1.06-1.32a1.19,1.19,0,0,1,1.17-.31.13.13,0,0,1,.07.2l-.23.33a36.33,36.33,0,0,1-3.15,3.84,12.31,12.31,0,0,1-3.48,2.77,2.42,2.42,0,0,1-1.38.31,1.43,1.43,0,0,1-1.25-1.39c0-.21,0-.43,0-.69-.24.08-.33.25-.46.37a7.4,7.4,0,0,1-1.94,1.37,3.26,3.26,0,0,1-1.54.32,1.56,1.56,0,0,1-1.61-1.6,6.14,6.14,0,0,1,.14-1.54.65.65,0,0,0,0-.46c-.52.46-1,1-1.52,1.38a12.73,12.73,0,0,1-2.57,1.7,4.56,4.56,0,0,1-2.69.51,2.77,2.77,0,0,1-2.31-2.46,7.12,7.12,0,0,1,.57-3.29,15.09,15.09,0,0,1,1.35-2.74l-1.29.3c-.17,0-.23.18-.3.31a25.25,25.25,0,0,1-3.69,4.85,14.38,14.38,0,0,1-2.26,2,6.05,6.05,0,0,1-1.9,1,2.18,2.18,0,0,1-2.92-2.06,7.29,7.29,0,0,1,.36-2.75,17.51,17.51,0,0,1,3-5.34,17.72,17.72,0,0,1,3.1-3.08,9.27,9.27,0,0,1,2.86-1.56,3.09,3.09,0,0,1,1.38-.16,1.92,1.92,0,0,1,1.77,1.93,6.94,6.94,0,0,1-.69,3.13.82.82,0,0,0-.16.53,1.33,1.33,0,0,0,.71-.2A10.21,10.21,0,0,0,491.45,94c.81-.7,1.51-1.48,2.35-2.14a8.41,8.41,0,0,1,2.61-1.51,3.45,3.45,0,0,1,1.91-.07,2,2,0,0,1,1.37,2.52,5.08,5.08,0,0,1-1.28,2.38,1.83,1.83,0,0,1-.74.48.86.86,0,0,1-1.17-1,2.19,2.19,0,0,1,1.78-1.85c.25-.06.45-.1.44-.42a.58.58,0,0,0-.49-.6,1.49,1.49,0,0,0-.83.11,5.19,5.19,0,0,0-1.53,1.1,18.69,18.69,0,0,0-4.69,7.06,3.48,3.48,0,0,0-.3,1.56,1.3,1.3,0,0,0,1.85,1.32,5.47,5.47,0,0,0,2.09-1.3,32.7,32.7,0,0,0,4.27-4.91,29.42,29.42,0,0,1,3.55-4.09,9.29,9.29,0,0,1,3.22-2.2,3.4,3.4,0,0,1,.78-.18,1.84,1.84,0,0,1,1.55.5c.12.08.2.22.42.28Zm-1.32.73a1.34,1.34,0,0,0-.58.16A4.25,4.25,0,0,0,505.47,93a33.72,33.72,0,0,0-4.55,6.26,6.88,6.88,0,0,0-.91,2.3c-.09.6.25.88.82.66a3,3,0,0,0,1.18-.87,25.51,25.51,0,0,0,2.15-2.92c1.24-1.94,2.42-3.92,3.55-5.92.29-.48.14-.74-.42-.74ZM483.78,95s-.07,0-.08,0a21.56,21.56,0,0,0-2.55,4.35,4.37,4.37,0,0,0-.41,1.83.85.85,0,0,0,1.15.88,2.85,2.85,0,0,0,1.33-.75,16.92,16.92,0,0,0,2.88-3.65c.1-.15.2-.3.29-.46s.16-.35-.15-.47l-.14,0A4.41,4.41,0,0,1,484,95.14a.28.28,0,0,0-.17-.11Zm1.16-.88a1.09,1.09,0,0,0,.19.64,2.59,2.59,0,0,0,1.77,1.07.37.37,0,0,0,.43-.26,6.82,6.82,0,0,0,.8-2.74c.05-.78-.3-1.27-1-1.18a2.84,2.84,0,0,0-2.15,2.47Z" class="cls-1" transform="translate(-466.63 -82.9)"/><path d="M533.6,84.49a1.3,1.3,0,0,0-1-.12,5.81,5.81,0,0,0-2.13.81,23,23,0,0,0-4.63,3.51,40.15,40.15,0,0,0-5,5.63,37.1,37.1,0,0,0-4.19,7.15,19.67,19.67,0,0,0-1.44,5.1,3.59,3.59,0,0,0,.52,2.53,2.47,2.47,0,0,0,2.6,1.06,4.87,4.87,0,0,0,1.56-.65,12.88,12.88,0,0,0,3.34-3.16,14.2,14.2,0,0,0,2.11-3.76,7.83,7.83,0,0,0,.46-2.08,1.5,1.5,0,0,0,0-.3c-.06-1-.73-1.36-1.6-.81a5.13,5.13,0,0,0-1.56,1.65,8.12,8.12,0,0,0-1.06,2.56.69.69,0,0,1-.41.51,13.17,13.17,0,0,0-3.4,2.47l-.15.13s-.06,0-.09,0-.07-.18-.06-.27a12.23,12.23,0,0,1,1.68-4.9A9.37,9.37,0,0,1,523,98a3.39,3.39,0,0,1,2.31-.39,1.86,1.86,0,0,1,1.34,1.17,4.64,4.64,0,0,1,.18,2.06,9.66,9.66,0,0,1-1.25,3.65,18.31,18.31,0,0,1-2.17,3.33,14.64,14.64,0,0,1-5.14,4.16,5.56,5.56,0,0,1-3.68.46,4.38,4.38,0,0,1-3.21-3,8.12,8.12,0,0,1,.05-5.33,35.14,35.14,0,0,1,3.1-6.71,35.46,35.46,0,0,1,9.71-10.8,25.48,25.48,0,0,1,5-2.86A9,9,0,0,1,532.8,83a2.92,2.92,0,0,1,1.8.61.57.57,0,0,0,.63.09,10.18,10.18,0,0,1,3.4-.67,9,9,0,0,1,4.68,1.13c1.6.86,3.2,1.75,4.8,2.62a1,1,0,0,1,.17.1c.26.18.26.21,0,.45-.63.64-1.27,1.27-1.89,1.92a.4.4,0,0,1-.6.06L543.56,88c-1-.6-2-1.21-3-1.78a11.63,11.63,0,0,0-3.52-1.33,2.88,2.88,0,0,0-1.24,0,.33.33,0,0,0-.31.36,11.84,11.84,0,0,1-1.74,5.6,9.67,9.67,0,0,1-3,3.34A6.5,6.5,0,0,1,529,95a1.53,1.53,0,0,1-2.08-1.48,4.82,4.82,0,0,1,.4-2.08,13.76,13.76,0,0,1,3.42-4.72,16.92,16.92,0,0,1,2.59-2,1.11,1.11,0,0,1,.29-.23Zm.77,1.64c0-.78,0-.81-.54-.51a12.48,12.48,0,0,0-2.73,2.13,14.35,14.35,0,0,0-2.93,4.11,3.14,3.14,0,0,0-.34,1.24A.82.82,0,0,0,529,94a5.48,5.48,0,0,0,2-1.25,11.41,11.41,0,0,0,2.4-3.33,8.89,8.89,0,0,0,1-3.24Zm-25.93,27.05c-.51-.28-.94-.53-1.38-.74a12.53,12.53,0,0,0-6.16-1.38,4.65,4.65,0,0,0-3,1.18c-.13.12-.25.26-.37.39-.35.42-.36.43-.66,0a5.64,5.64,0,0,0-1.95-1.74,9,9,0,0,0-3.66-1,22.27,22.27,0,0,0-7,.76c-2.53.62-5.05,1.24-7.62,1.69a11,11,0,0,1-3.62.16,7.43,7.43,0,0,1-5.22-3.11,6.44,6.44,0,0,1-.94-2.65,13,13,0,0,1,.58-6.27,25.38,25.38,0,0,1,3.6-7,34,34,0,0,1,4.7-5.25,22.63,22.63,0,0,1,7.14-4.63,9.4,9.4,0,0,1,3.44-.71,2.35,2.35,0,0,1,2.56,2.87,4.74,4.74,0,0,1-1.35,2.71,1.88,1.88,0,0,1-1,.53.88.88,0,0,1-1.06-.72,2.08,2.08,0,0,1,1-2.15,2.68,2.68,0,0,1,1-.35c.24,0,.33-.18.35-.41a.84.84,0,0,0-.86-1,3.34,3.34,0,0,0-1.22.17,12.32,12.32,0,0,0-4,2.4,39.46,39.46,0,0,0-7.05,8.2,22.46,22.46,0,0,0-3,6.48,13.19,13.19,0,0,0-.59,4.47,4.52,4.52,0,0,0,3.38,4.25,8.57,8.57,0,0,0,1.91.32,22.07,22.07,0,0,0,6.11-.66l7.84-1.85a22.92,22.92,0,0,1,5.81-.74,16.75,16.75,0,0,1,9.27,2.86,17.22,17.22,0,0,1,2.74,2.3A1.09,1.09,0,0,1,508.44,113.18Zm54.78-30a.39.39,0,0,1-.09.36,15.55,15.55,0,0,1-5.89,5.72A13.08,13.08,0,0,1,552.08,91a7.94,7.94,0,0,1-2.28-.13c-.38-.08-.41-.15-.18-.44.58-.73,1.18-1.44,1.82-2.11a.66.66,0,0,1,.55-.16,16.08,16.08,0,0,0,2.19-.07,14.12,14.12,0,0,0,4.67-1.63,20.34,20.34,0,0,0,4.11-3l.15-.13s0,0,.11,0Zm-47.6,7.37c.38,0,.76,0,1.14,0s.3.09.16.31L515.59,93a.46.46,0,0,1-.45.23c-.75,0-1.49,0-2.24,0-.34,0-.39-.09-.21-.38.42-.7.85-1.39,1.27-2.08a.46.46,0,0,1,.46-.24Z" class="cls-1" transform="translate(-466.63 -82.9)"/></g></svg>