<svg xmlns="http://www.w3.org/2000/svg" xmlns:xlink="http://www.w3.org/1999/xlink" id="Sponsors" viewBox="0 0 68.96 67.52"><defs><style>.cls-1{fill:none}.cls-2{clip-path:url(#clip-path)}.cls-3{fill:url(#linear-gradient)}.cls-4{opacity:.36}.cls-5{clip-path:url(#clip-path-2)}.cls-6{clip-path:url(#clip-path-3)}.cls-7{fill:url(#linear-gradient-2)}.cls-8{clip-path:url(#clip-path-4)}.cls-9{fill:url(#linear-gradient-3)}.cls-10{clip-path:url(#clip-path-5)}.cls-11{fill:url(#linear-gradient-4)}.cls-12{clip-path:url(#clip-path-6)}.cls-13{fill:url(#linear-gradient-5)}.cls-14{clip-path:url(#clip-path-7)}.cls-15{fill:url(#linear-gradient-6)}.cls-16{fill:url(#linear-gradient-7)}.cls-17{clip-path:url(#clip-path-8)}.cls-18{fill:url(#linear-gradient-8)}.cls-19{fill:#ee5143;fill-rule:evenodd}</style><clipPath id="clip-path" transform="translate(-340.33 -543.58)"><path d="M348.3,561.29a36,36,0,0,1,6.34-1.2c5.07,0,14.08,7.35,19.77,11,8.54,5.49,11.48,7.46,17.17,7.46,7.77,0,10.25-4.45,10.25-4.45s-1.32,1.59-5.73,1.59c-6.07,0-10.63-3.71-17.25-8.47s-14.23-9.52-20.42-9.52c-7.42,0-10.13,3.6-10.13,3.6" class="cls-1"/></clipPath><linearGradient id="linear-gradient" x1="-3822.54" x2="-3819.74" y1="90.67" y2="90.67" gradientTransform="translate(73154.2 -1710.49) scale(19.14)" gradientUnits="userSpaceOnUse"><stop offset="0" stop-color="#f9ad4f"/><stop offset=".1" stop-color="#f9a94f"/><stop offset=".22" stop-color="#f79b4e"/><stop offset=".33" stop-color="#f5854c"/><stop offset=".45" stop-color="#f2674b"/><stop offset=".53" stop-color="#ef4e49"/><stop offset=".61" stop-color="#f15d48"/><stop offset=".76" stop-color="#f47645"/><stop offset=".89" stop-color="#f58644"/><stop offset="1" stop-color="#f68b43"/></linearGradient><clipPath id="clip-path-2" transform="translate(-340.33 -543.58)"><rect width="9.2" height="12.61" x="373.4" y="563.53" class="cls-1"/></clipPath><clipPath id="clip-path-3" transform="translate(-340.33 -543.58)"><path d="M373.4,570.42l1,.66c3.48,2.24,6,3.86,8.2,5.06V570c-1.2-.85-2.44-1.74-3.76-2.7-1.74-1.28-3.59-2.52-5.45-3.72Z" class="cls-1"/></clipPath><linearGradient id="linear-gradient-2" x1="-2784.45" x2="-2781.65" y1="242.97" y2="242.97" gradientTransform="translate(9196.4 -773.33) scale(3.29)" gradientUnits="userSpaceOnUse"><stop offset="0" stop-color="#fff"/><stop offset=".04" stop-color="#e7e7e7"/><stop offset=".14" stop-color="#a7a9a9"/><stop offset=".24" stop-color="#727575"/><stop offset=".33" stop-color="#494c4d"/><stop offset=".42" stop-color="#2b2f30"/><stop offset=".49" stop-color="#191d1e"/><stop offset=".54" stop-color="#131718"/><stop offset=".61" stop-color="#171b1c"/><stop offset=".67" stop-color="#222626"/><stop offset=".72" stop-color="#343839"/><stop offset=".78" stop-color="#4f5253"/><stop offset=".84" stop-color="#717374"/><stop offset=".89" stop-color="#9a9c9c"/><stop offset=".95" stop-color="#cacbcc"/><stop offset="1" stop-color="#fff"/></linearGradient><clipPath id="clip-path-4" transform="translate(-340.33 -543.58)"><path d="M375.37,570.69v16c0,5.49,5.5,4.76,5.5,4.76s0-10,0-15.9.28-12.1,9.67-16.36a5,5,0,0,1,2.44-.31c.31,0,.62,0,.93,0a16.91,16.91,0,0,1,7,1.43,15.48,15.48,0,0,0-11.14-4.56,14.7,14.7,0,0,0-14.43,14.89" class="cls-1"/></clipPath><linearGradient id="linear-gradient-3" x1="-4085.75" x2="-4082.95" y1="383.67" y2="383.67" gradientTransform="translate(-4836.67 -51967.86) rotate(-90) scale(12.73)" gradientUnits="userSpaceOnUse"><stop offset="0" stop-color="#ee5143"/><stop offset=".24" stop-color="#f37c48"/><stop offset=".54" stop-color="#fab04d"/><stop offset=".69" stop-color="#f7954a"/><stop offset="1" stop-color="#ee5243"/><stop offset="1" stop-color="#ee5143"/></linearGradient><clipPath id="clip-path-5" transform="translate(-340.33 -543.58)"><path d="M357.16,549.3s9.9,5.76,10.67,7.5a10.3,10.3,0,0,1,.85,4.53c0,10-9,14.66-14.19,14.66a9.42,9.42,0,0,1-6.69-2.67,17.21,17.21,0,0,0,11.87,5.18c9.13,0,14.62-7.93,14.62-13.73a15.56,15.56,0,0,0-4.06-10.09c-4-4.95-10.13-5.42-12.3-5.42a6.65,6.65,0,0,0-.77,0" class="cls-1"/></clipPath><linearGradient id="linear-gradient-4" x1="-3980.89" x2="-3978.09" y1="-331.93" y2="-331.93" gradientTransform="translate(-3471.86 41892.52) rotate(90) scale(10.52)" xlink:href="#linear-gradient-3"/><clipPath id="clip-path-6" transform="translate(-340.33 -543.58)"><path d="M347.84,551.7a10.55,10.55,0,0,0,.62,2.47c.61,1.74,1.19,2.17,1.62,2.17s2.71-2.09,7.74-2.09a25.63,25.63,0,0,1,10,2.59,13.27,13.27,0,0,0-3.87-5,12.91,12.91,0,0,0-6.84-2.51,20.75,20.75,0,0,0-9.28,2.36" class="cls-1"/></clipPath><linearGradient id="linear-gradient-5" x1="-3448.79" x2="-3445.99" y1="342.08" y2="342.08" gradientTransform="matrix(6.06, -1.9, 1.9, 6.06, 20272.23, -8629.47)" gradientUnits="userSpaceOnUse"><stop offset="0" stop-color="#5a4498"/><stop offset=".1" stop-color="#604b9c"/><stop offset=".25" stop-color="#715da7"/><stop offset=".42" stop-color="#8d7cb9"/><stop offset=".5" stop-color="#9c8cc3"/><stop offset=".62" stop-color="#8472b3"/><stop offset=".76" stop-color="#6d59a4"/><stop offset=".89" stop-color="#5f499b"/><stop offset="1" stop-color="#5a4498"/></linearGradient><clipPath id="clip-path-7" transform="translate(-340.33 -543.58)"><path d="M348.34,561.25c-1,.58-2.71,3.72-2.71,6.27,0,2.12,1.05,6.8,6,8.08,4.13,1.08,6.57-.27,6.57-.27s-5.8-.89-5.8-7.81c0-4.45,3.94-7.2,3.94-7.2a10.3,10.3,0,0,0-3.09-.27,10.09,10.09,0,0,0-5,1.2" class="cls-1"/></clipPath><linearGradient id="linear-gradient-6" x1="-3932.82" x2="-3930.02" y1="-656.72" y2="-656.72" gradientTransform="translate(-3757.81 22590.01) rotate(90) scale(5.74)" gradientUnits="userSpaceOnUse"><stop offset="0" stop-color="#292b66"/><stop offset=".08" stop-color="#34346f"/><stop offset=".22" stop-color="#504c86"/><stop offset=".4" stop-color="#7f73ab"/><stop offset=".5" stop-color="#9c8cc3"/><stop offset=".64" stop-color="#7268a1"/><stop offset=".8" stop-color="#4a4781"/><stop offset=".92" stop-color="#32336d"/><stop offset="1" stop-color="#292b66"/></linearGradient><linearGradient id="linear-gradient-7" x1="-3134.52" x2="-3131.73" y1="191.91" y2="191.91" gradientTransform="translate(14599.86 -304.68) scale(4.55)" gradientUnits="userSpaceOnUse"><stop offset="0" stop-color="#292b66"/><stop offset=".08" stop-color="#2e2f6a"/><stop offset=".18" stop-color="#3d3c76"/><stop offset=".29" stop-color="#56518b"/><stop offset=".4" stop-color="#796ea7"/><stop offset=".5" stop-color="#9c8cc3"/><stop offset=".52" stop-color="#9586be"/><stop offset=".62" stop-color="#6f669e"/><stop offset=".72" stop-color="#504c86"/><stop offset=".82" stop-color="#3a3a74"/><stop offset=".91" stop-color="#2d2f6a"/><stop offset="1" stop-color="#292b66"/></linearGradient><clipPath id="clip-path-8" transform="translate(-340.33 -543.58)"><path d="M390.42,559.28s7,1,7,7.85c0,6.27-4.83,8.12-4.83,8.12a14.66,14.66,0,0,0,7.77-.15c2.09-.66,3.67-3.87,3.67-7.5,0-2-1-5.54-2.93-7.12a9.21,9.21,0,0,0-5.65-1.9c-3.79,0-5,.7-5,.7" class="cls-1"/></clipPath><linearGradient id="linear-gradient-8" x1="-3939.63" x2="-3936.83" y1="-615.74" y2="-615.74" gradientTransform="translate(-3718.46 24170.43) rotate(90) scale(6.13)" xlink:href="#linear-gradient-6"/></defs><g id="Asian_Paints" data-name="Asian Paints"><g class="cls-2"><rect width="53.53" height="20.81" x="7.97" y="14.12" class="cls-3"/></g><g class="cls-4"><g class="cls-5"><g class="cls-6"><rect width="9.2" height="12.61" x="33.07" y="19.96" class="cls-7"/></g></g></g><g class="cls-8"><rect width="25.56" height="36.36" x="35.04" y="12.22" class="cls-9"/></g><g class="cls-10"><rect width="26.49" height="29.24" x="7.46" y="5.69" class="cls-11"/></g><g class="cls-12"><polygon points="5.38 6.38 25.72 0 29.66 12.57 9.28 18.95 5.38 6.38" class="cls-13"/></g><g class="cls-14"><rect width="12.61" height="16.67" x="5.3" y="16.48" class="cls-15"/></g><path d="M345.63,567.52h0c0-2.55,1.67-5.69,2.71-6.27a10.44,10.44,0,0,1,5-1.2,8.71,8.71,0,0,1,3.06.31s-4,2.75-4,7.2c0,6.92,5.8,7.81,5.8,7.81a7.5,7.5,0,0,1-3.44.7,12.52,12.52,0,0,1-3.13-.43c-4.95-1.32-6-6-6-8.12h0c0,2.12,1.05,6.8,6,8.08a12.46,12.46,0,0,0,3.13.43,7.5,7.5,0,0,0,3.44-.7s-5.8-.89-5.8-7.81c0-4.45,3.94-7.2,3.94-7.2a8.89,8.89,0,0,0-3.05-.31,10.44,10.44,0,0,0-4.95,1.2c-1.08.62-2.75,3.76-2.75,6.31Z" class="cls-16" transform="translate(-340.33 -543.58)"/><g class="cls-17"><rect width="13.58" height="17.83" x="50.09" y="14.97" class="cls-18"/></g><path d="M347.82,605.26h-1.77c-.43-.1-.65-.43-.7-1a2.24,2.24,0,0,1-.74.7,3.65,3.65,0,0,1-3.05.12,2.07,2.07,0,0,1-1.13-2.46,2.5,2.5,0,0,1,2.16-1.58,15.89,15.89,0,0,1,2.71-.12,1.36,1.36,0,0,0-.34-1.07,2.46,2.46,0,0,0-2.27-.35,3.47,3.47,0,0,0-1.38.64l-.08-1.59a7.26,7.26,0,0,1,2.45-.48,3.51,3.51,0,0,1,2.85,1,2.46,2.46,0,0,1,.47,1.41c.05.72,0,1.52,0,2.26v1.44s0,.08,0,.13c.08.56.33.85.77.9m-2.52-3.16a2,2,0,0,1-.8,1.77c-.68.44-2,.46-2.18-.5a.91.91,0,0,1,.35-.87,4.63,4.63,0,0,1,2.63-.4" class="cls-19" transform="translate(-340.33 -543.58)"/><path d="M364.31,605.26h-1.76a.94.94,0,0,1-.71-1,2.24,2.24,0,0,1-.74.7,3.67,3.67,0,0,1-3.06.12,2.07,2.07,0,0,1-1.14-2.46,2.52,2.52,0,0,1,2.17-1.58,15.89,15.89,0,0,1,2.71-.12,1.39,1.39,0,0,0-.34-1.07,2.46,2.46,0,0,0-2.27-.35,3.47,3.47,0,0,0-1.38.64l-.05-1.59a7.31,7.31,0,0,1,2.45-.48,3.51,3.51,0,0,1,2.85,1,2.46,2.46,0,0,1,.47,1.41c.05.72,0,1.52,0,2.26v1.44s0,.08,0,.13c.08.56.33.85.75.9m-2.5-3.16a2,2,0,0,1-.8,1.77c-.67.44-2,.46-2.18-.5a.91.91,0,0,1,.35-.87,4.6,4.6,0,0,1,2.63-.4" class="cls-19" transform="translate(-340.33 -543.58)"/><path d="M354.15,598.19h1.94v7c-1.19.07-2-.51-1.94-1.44Z" class="cls-19" transform="translate(-340.33 -543.58)"/><path d="M354.24,595.21c-.08,0-.16-.06-.19,0s-.06.08-.11.13.05.34,0,.5,0,0,.06.06a.11.11,0,0,1,0,.11s.06,0,0,.08,0,.08,0,.13a.29.29,0,0,0,.11.16c.12.07.16,0,.29.13a.46.46,0,0,1,.11.21c0,.27.28.26.42.21s0-.07,0-.1l.11,0c.15-.06.15,0,.15-.16s0,0,.08,0,0-.06.09-.05.08,0,.08,0,.08-.08.16-.07.05-.06.13-.06.18,0,.31-.23a.3.3,0,0,0,0-.16c0-.09.05-.06.05-.14a.28.28,0,0,0-.07-.21,1.18,1.18,0,0,1-.11-.19.59.59,0,0,0-.14-.27,2.27,2.27,0,0,0-.31-.31.67.67,0,0,1-.14-.16s0,0,0,0-.18,0-.24,0-.06,0-.1,0,0,0-.09,0-.08.05-.12.08,0,0-.06,0,0,.09-.11.09-.07,0-.1.08,0,.1-.09.1,0,0-.08.05h-.07s0,.1-.05.1" class="cls-19" transform="translate(-340.33 -543.58)"/><path d="M348.07,605.1a1.17,1.17,0,0,1,.74-1.14,2,2,0,0,1,.8,0,2.55,2.55,0,0,0,1.36-.14.6.6,0,0,0,0-1.12c-.58-.34-1.72-.44-2.42-1.06a1.75,1.75,0,0,1-.6-1.44,2.06,2.06,0,0,1,1.46-1.81,5.88,5.88,0,0,1,3.54,0l-.11,1.36c-1-.35-2.23-.42-2.72,0a.5.5,0,0,0,.08.88c.83.45,1.87.37,2.63,1.17a2.05,2.05,0,0,1-.1,2.74,3.11,3.11,0,0,1-2,.79,8.42,8.42,0,0,1-2.71-.29" class="cls-19" transform="translate(-340.33 -543.58)"/><path d="M371.2,598.64a2.28,2.28,0,0,1,.84,2.08c0,1.54,0,3.07,0,4.6-1.42.1-1.82-.48-1.87-1l0-2.48a3.69,3.69,0,0,0-.21-1.58,1.26,1.26,0,0,0-1.26-.65,1.65,1.65,0,0,0-1.53,1.34,4.19,4.19,0,0,0-.09,1l0,3.28h-1.93v-7h1.81v1.09a2.74,2.74,0,0,1,1.48-1,3.21,3.21,0,0,1,2.8.35" class="cls-19" transform="translate(-340.33 -543.58)"/><path d="M388.44,605.26h-1.77c-.43-.1-.65-.43-.7-1a2.24,2.24,0,0,1-.74.7,3.68,3.68,0,0,1-3.06.12,2.06,2.06,0,0,1-1.14-2.46,2.51,2.51,0,0,1,2.16-1.58,15.94,15.94,0,0,1,2.71-.12,1.39,1.39,0,0,0-.33-1.07,2.48,2.48,0,0,0-2.28-.35,3.54,3.54,0,0,0-1.38.64l-.05-1.59a7.37,7.37,0,0,1,2.46-.48,3.54,3.54,0,0,1,2.85,1,2.38,2.38,0,0,1,.46,1.41c.05.72,0,1.52,0,2.26v1.44s0,.08,0,.13c.07.56.34.85.76.9m-2.5-3.16a2,2,0,0,1-.81,1.77c-.67.44-2,.46-2.18-.5a.92.92,0,0,1,.36-.87,4.6,4.6,0,0,1,2.63-.4" class="cls-19" transform="translate(-340.33 -543.58)"/><path d="M388.63,598.19h1.94v7c-1.19.07-2-.51-1.94-1.44Z" class="cls-19" transform="translate(-340.33 -543.58)"/><path d="M388.72,595.21c-.08,0-.16-.06-.19,0s-.06.08-.11.13.05.34,0,.5,0,0,.06.06a.11.11,0,0,1,0,.11s.06,0,0,.08,0,.08,0,.13a.29.29,0,0,0,.11.16c.12.07.16,0,.29.13a.46.46,0,0,1,.11.21c0,.27.28.26.42.21s0-.07,0-.1l.11,0c.15-.06.15,0,.15-.16s0,0,.08,0,0-.06.09-.05.08,0,.08,0,.08-.08.16-.07.05-.06.13-.06.18,0,.31-.23a.3.3,0,0,0,0-.16c0-.09,0-.06,0-.14a.28.28,0,0,0-.07-.21,1.18,1.18,0,0,1-.11-.19.59.59,0,0,0-.14-.27,2.27,2.27,0,0,0-.31-.31.67.67,0,0,1-.14-.16s0,0-.05,0-.18,0-.24,0-.06,0-.1,0,0,0-.09,0-.08.05-.11.08l-.07,0c-.06.06,0,.09-.11.09s-.07,0-.1.08,0,.1-.09.1,0,0-.08.05h-.07s0,.1,0,.1" class="cls-19" transform="translate(-340.33 -543.58)"/><path d="M404,605.1a1.16,1.16,0,0,1,.73-1.14,2,2,0,0,1,.81,0,2.56,2.56,0,0,0,1.36-.14.6.6,0,0,0,0-1.12c-.58-.34-1.71-.44-2.42-1.06a1.74,1.74,0,0,1-.59-1.44,2,2,0,0,1,1.46-1.81,5.88,5.88,0,0,1,3.54,0l-.11,1.36c-1-.35-2.23-.42-2.73,0a.5.5,0,0,0,.08.88c.83.45,1.88.37,2.63,1.17a2,2,0,0,1-.1,2.74,3.08,3.08,0,0,1-2,.79,8.42,8.42,0,0,1-2.71-.29" class="cls-19" transform="translate(-340.33 -543.58)"/><path d="M397.88,598.56a2.27,2.27,0,0,1,.83,2.08l0,3.34a1.24,1.24,0,0,0,1.08,1.25h-1.91c-.79-.13-1-.56-1.06-1v-2.49a3.81,3.81,0,0,0-.21-1.57,1.28,1.28,0,0,0-1.27-.66,1.64,1.64,0,0,0-1.52,1.35,4.06,4.06,0,0,0-.1,1l0,3.29h-1.92v-7h1.81v1.09a2.79,2.79,0,0,1,1.47-1,3.2,3.2,0,0,1,2.81.34" class="cls-19" transform="translate(-340.33 -543.58)"/><path d="M401.44,596.15c-1.08-.06-1.9.55-1.9,1.4l0,5.13c0,1.51.52,2.26,1.46,2.53a4.64,4.64,0,0,0,2.34,0l-.05-1.44c-1.1.27-1.81,0-1.81-1.06v-3.09h1.73v-1.38h-1.73v-2.06Z" class="cls-19" transform="translate(-340.33 -543.58)"/><path d="M378.06,600.34a3.1,3.1,0,0,1-.11,2.9,1.59,1.59,0,0,1-2.45.21,2.77,2.77,0,0,1-.24-3,1.61,1.61,0,0,1,2.8-.13m-3,4.1c0,1-.08,2.17-.06,3.24v.14c0,.15-.08.1-.16.18a.38.38,0,0,0-.1.24c0,.74-.08,1.17-.06,1.89,0,.29-.2.26-.21.42a.33.33,0,0,1-.08.26v-.73c-.05,0,0,.17-.07.31a1.22,1.22,0,0,1,0,.27c0,.11,0,.27-.05.39s-.08.08-.1,0v-.28s-.08-.11-.09-.25v-.74c-.12-.08-.12-.18-.08-.58s0-1,.06-1.44a.19.19,0,0,0-.08-.13c0,.4-.14.69-.14,1.16a.24.24,0,0,1,.06.2.63.63,0,0,0-.05.26.2.2,0,0,1-.11.19,9,9,0,0,1,0-1V607c-.09,0-.05.18-.09.29s0,.24-.08.29c-.08-.74,0-1.22,0-2.47,0,0,0-.13-.1-.13a27.39,27.39,0,0,1-.08,2.9,2.48,2.48,0,0,1,0,.47c0,.06.05.26-.07.21s-.08-.08,0-.13.06,0,0-.18,0-.17,0-.25,0-.15,0-.26a.39.39,0,0,0,0-.3c0-.05,0-.05,0-.16.07-.58-.14-.26-.09-.84,0-.13,0-.24,0-.38,0-.68,0-1.41,0-2.1,0-.08-.05-.11-.08-.05-.16.24-.11-.37-.11-.43a13.27,13.27,0,0,1,.08-2.38c0-.56,0-1.13,0-1.69-.08-.07-.1.12-.1.17v.07c0,.06-.09.08-.09,0s0,0,0-.08c0-.29,0-.72.05-.7,0-.48,0-.82.16-.9s.23,0,.26.06,0,.1.08.1a.27.27,0,0,0,.13,0s0-.06.11,0,0,.24.22.24.19-.14.21-.25.16-.07.19,0,0,.09.16.09c.45,0,.53.26.52.47v.59a3,3,0,0,1,4.82.19,4.8,4.8,0,0,1-.14,4.86,3.07,3.07,0,0,1-4.62.19" class="cls-19" transform="translate(-340.33 -543.58)"/></g></svg>