<svg xmlns="http://www.w3.org/2000/svg" id="Sponsors" viewBox="0 0 109.89 24.81"><defs><style>.cls-1{fill:#fcfcfc}.cls-2{fill:#d82b23}.cls-3{fill:#07287f}</style></defs><g id="DTDC"><path d="M34,271.36h79.32a18.41,18.41,0,0,1,5.75,4,9.19,9.19,0,0,1,2.14,3.35,7.13,7.13,0,0,1-.11,4.14,16,16,0,0,1-3,5.27,59.77,59.77,0,0,1-8.57,8c1,0,2.09,0,3.14,0,.46,0,.92,0,1.38,0a11.64,11.64,0,0,0,1.08-.76,55.88,55.88,0,0,0,8.65-7.13,18.62,18.62,0,0,0,3-4.16,9.49,9.49,0,0,0,1.13-4.42,6.44,6.44,0,0,1,.17,3.48,11.9,11.9,0,0,1-2.43,4.64c-2.67,3.29-6.12,5.81-9.47,8.36h27.73v.07H34V271.36Z" class="cls-1" transform="translate(-33.97 -271.36)"/><path d="M113.29,271.36h5.23a2.63,2.63,0,0,0,.83.39c.42.18.85.32,1.25.53l.25.07.09.1.33.08.1.12.21,0,.38.18.05.09.26,0,.07.1a15.44,15.44,0,0,1,2.17,1.31,6.92,6.92,0,0,1,2.52,3.24v-.16a7.16,7.16,0,0,1,.29,3.15,11.44,11.44,0,0,1-2,4.57,30.37,30.37,0,0,1-6.11,6.19c-1.74,1.38-3.57,2.64-5.43,3.86a8.24,8.24,0,0,1-.8.5.57.57,0,0,0-.11.11l-.19,0a1.29,1.29,0,0,0-.06.21c-1,0-2.09,0-3.14,0a59.77,59.77,0,0,0,8.57-8,16,16,0,0,0,3-5.27,7.13,7.13,0,0,0,.11-4.14,9.19,9.19,0,0,0-2.14-3.35,18.41,18.41,0,0,0-5.75-4Z" class="cls-2" transform="translate(-33.97 -271.36)"/><path d="M118.52,271.36h25.34v24.75H116.13c3.35-2.55,6.8-5.07,9.47-8.36a11.9,11.9,0,0,0,2.43-4.64,6.44,6.44,0,0,0-.17-3.48,9.49,9.49,0,0,1-1.13,4.42,18.62,18.62,0,0,1-3,4.16,55.88,55.88,0,0,1-8.65,7.13,11.64,11.64,0,0,1-1.08.76c-.46,0-.92,0-1.38,0a1.29,1.29,0,0,1,.06-.21l.19,0a.57.57,0,0,1,.11-.11,8.24,8.24,0,0,0,.8-.5c1.86-1.22,3.69-2.48,5.43-3.86a30.37,30.37,0,0,0,6.11-6.19,11.44,11.44,0,0,0,2-4.57,7.16,7.16,0,0,0-.29-3.15v.16a6.92,6.92,0,0,0-2.52-3.24,15.44,15.44,0,0,0-2.17-1.31l-.07-.1-.26,0-.05-.09-.38-.18-.21,0-.1-.12-.33-.08-.09-.1-.25-.07c-.4-.21-.83-.35-1.25-.53a2.63,2.63,0,0,1-.83-.39Z" class="cls-3" transform="translate(-33.97 -271.36)"/><path d="M101.55,272.56a3.07,3.07,0,0,1,2-.21c.34.07.72.39.58.77a1.5,1.5,0,0,0-.07.73l.44.68-.29.18a1.6,1.6,0,0,1,.11.48c0,.14.13.3,0,.44-.25.3-.75.12-1,.42a2.33,2.33,0,0,1,1,1.13c.37.85.52,1.78.83,2.66l2.67-.88a.86.86,0,0,1,1.06-.42.78.78,0,0,1,.39,1,.65.65,0,0,1-.73.26.83.83,0,0,0-.65.12l-2.66,1.55a1.16,1.16,0,0,1-1,.14,1.32,1.32,0,0,1-.57-.62c-.27-.51-.55-1-.82-1.51-.25.73-.53,1.45-.78,2.18a.58.58,0,0,0,.25.67c.72.6,1.66.88,2.32,1.55a2.34,2.34,0,0,1,.46,1.54c.09,1.28.18,2.56.29,3.84h-.33l.09.33c.43.15.81.44,1.24.6a3.19,3.19,0,0,1,.55.16c.15.19,0,.49-.22.56a5,5,0,0,1-1.53-.15,11.5,11.5,0,0,1-1.31.07.39.39,0,0,1-.28-.51c.07-.31.22-.66,0-.94l-.21,0c-.08-.36-.19-.71-.24-1.08-.14-.78-.1-1.58-.27-2.36,0-.26-.3-.39-.52-.49a14.73,14.73,0,0,1-2.07-.79,20.82,20.82,0,0,1-2.82,2.89,7.16,7.16,0,0,1-1.64.93,15.11,15.11,0,0,0-1.69.89l-.43-.29a13.5,13.5,0,0,0-2.36,1.38c-.25.23-.41.63-.79.64s-.44-.32-.39-.56a1.19,1.19,0,0,1,.51-.83,3.66,3.66,0,0,0,.82-1.35c.27-.49.9-.54,1.39-.62,0-.11,0-.22,0-.33a5.68,5.68,0,0,1,1.2-.55,1.24,1.24,0,0,0-.24-.42,6.39,6.39,0,0,1,.87-.18,2.31,2.31,0,0,0-.39-.31,2.37,2.37,0,0,1,1.09-.15,1.05,1.05,0,0,0-.62-.33,1.88,1.88,0,0,1,1.08-.14c-.06-.31-.41-.34-.66-.39a2.56,2.56,0,0,1,1.12-.26,1.56,1.56,0,0,0-.66-.25,1.28,1.28,0,0,1,1-.32,1.33,1.33,0,0,0-.61-.26,1.64,1.64,0,0,1,1-.27,1.19,1.19,0,0,0-.58-.17l.15-.25a9,9,0,0,1-2.5-1.38,1.12,1.12,0,0,1-.42-1.07,1.77,1.77,0,0,0,.72.61,20,20,0,0,0,3.5,1.33,3.8,3.8,0,0,0,2.11-.12,2,2,0,0,0,1-1.33,2.24,2.24,0,0,0-.09-1.51,2.91,2.91,0,0,0-1.59-.8c-.13-.06-.32,0-.39-.18l.36.06v-.23a6.94,6.94,0,0,1-.79,0c-.13,0-.16-.18-.24-.27.34,0,.69,0,1,0v-.22h-1c0-.09,0-.18,0-.28h1.07v-.21H98.26c0-.12,0-.23-.05-.35h1.16c0-.06,0-.17,0-.22a13.86,13.86,0,0,1-1.44-.05,19.4,19.4,0,0,1-2,0l.12-.31h3.34a1.55,1.55,0,0,1,0-.22c-1.07,0-2.14,0-3.21,0a1.86,1.86,0,0,1,1.54-.81l3.73-.24a.47.47,0,0,0-.05-.4,2.3,2.3,0,0,1-.52-1.23,1.23,1.23,0,0,1,.69-1.22Z" class="cls-3" transform="translate(-33.97 -271.36)"/><path d="M95.74,277.58c0-.12.07-.23.1-.35h1.63c-.06.12-.11.24-.17.35Z" class="cls-3" transform="translate(-33.97 -271.36)"/><path d="M95.72,277.93a6.78,6.78,0,0,1,1,0c.18,0,.4-.06.53.1a4.89,4.89,0,0,0,2,1.27,2.71,2.71,0,0,1,1.32.54,1.42,1.42,0,0,1,.17,1.38,1.61,1.61,0,0,1-.78,1.1,2.94,2.94,0,0,1-1.83.19A14.13,14.13,0,0,1,94.31,281a.91.91,0,0,1-.36-1.18,4.27,4.27,0,0,1,1.77-1.92Z" class="cls-3" transform="translate(-33.97 -271.36)"/><path d="M95.78,278.57a3.14,3.14,0,0,1,.79.36c.17.19,0,.43-.12.61a6,6,0,0,1-.73,1c-.36.1-.7-.15-1-.26.37-.58.74-1.17,1.1-1.76Z" class="cls-1" transform="translate(-33.97 -271.36)"/><path d="M96,279l.11.07c-.17.32-.37.63-.57.93a.52.52,0,0,1-.28.22c.21-.43.49-.81.74-1.22Z" class="cls-3" transform="translate(-33.97 -271.36)"/><path d="M96.81,279.4c.07-.12.14-.24.22-.36l1,.38c-.08.11-.15.23-.22.35l-.26-.1c-.31.45-.57.94-.88,1.39-.15,0-.3-.1-.45-.14.29-.48.59-.95.88-1.42l-.26-.1Z" class="cls-1" transform="translate(-33.97 -271.36)"/><path d="M98.22,279.51a2.85,2.85,0,0,1,.79.37c.15.14,0,.34-.05.48a10.46,10.46,0,0,1-.7,1.08.34.34,0,0,1-.39.11,5.17,5.17,0,0,1-.75-.27l1.1-1.77Z" class="cls-1" transform="translate(-33.97 -271.36)"/><path d="M98.18,280.46c.11-.17.2-.39.39-.49a3.37,3.37,0,0,1-.79,1.25,2.92,2.92,0,0,1,.4-.76Z" class="cls-3" transform="translate(-33.97 -271.36)"/><path d="M99.36,280.27a.65.65,0,0,1,1,.13c.08.29-.15.53-.28.76l-.44-.17a3.35,3.35,0,0,0,.31-.55c-.21,0-.28.21-.38.35a4.83,4.83,0,0,0-.53.94c.22-.05.3-.27.42-.44l.45.17c-.16.22-.3.5-.58.56a.61.61,0,0,1-.74-.34,1.4,1.4,0,0,1,.27-.64,5.77,5.77,0,0,1,.52-.77Z" class="cls-1" transform="translate(-33.97 -271.36)"/><path d="M52.43,280.53c.46-.06.9-.25,1.36-.29h8.6l-1,2.76c-.81,0-1.63,0-2.45,0-.91,2.59-1.85,5.16-2.77,7.75-1.24,0-2.49,0-3.74,0a.48.48,0,0,1-.11-.09,3,3,0,0,1-.9-.16,5.44,5.44,0,0,0-1.66-.14.53.53,0,0,0,0-.12,6,6,0,0,0,1.7-.14,3.23,3.23,0,0,1,1.15-.19c0-.08,0-.16.08-.24a2.91,2.91,0,0,1-1-.15,6.38,6.38,0,0,0-1.69-.16.3.3,0,0,1,.23-.11,5.47,5.47,0,0,0,1.46-.11A3.15,3.15,0,0,1,53,288.9l.08-.2a3.92,3.92,0,0,1-1-.2,9.87,9.87,0,0,0-1.63-.14.4.4,0,0,1,.25-.09,7,7,0,0,0,1.37-.09,5.65,5.65,0,0,1,1.28-.23l.09-.19a9.4,9.4,0,0,1-1-.21,6.89,6.89,0,0,0-1.51-.09s0-.1,0-.13a5.63,5.63,0,0,0,1.64-.13,3.05,3.05,0,0,1,1.12-.17,2.41,2.41,0,0,1,.08-.25,9.13,9.13,0,0,1-1.23-.29c-.41,0-.84,0-1.26,0l0-.12c.32,0,.64,0,1,0v-.1l0,.11a14.11,14.11,0,0,1,1.72-.33l.09-.15a2.33,2.33,0,0,1-.77-.18,9.07,9.07,0,0,0-1.73-.18.82.82,0,0,1,.51-.08,3.74,3.74,0,0,0,1.2-.12,3.62,3.62,0,0,1,1-.2s.07-.12.09-.17a10.67,10.67,0,0,0-1.35-.34c-.35,0-.71,0-1.06,0a.94.94,0,0,1,.1-.1,5.48,5.48,0,0,0,1.62-.17,3,3,0,0,1,1-.2l.08-.21a6.48,6.48,0,0,1-1.05-.27c-.45-.08-.91,0-1.37-.09a.43.43,0,0,1,.28-.09,4.83,4.83,0,0,0,1.56-.17c.3-.12.63-.11.93-.22-.83-.07-1.66,0-2.49-.06a5.53,5.53,0,0,0-1.12-.33c-.39,0-.77,0-1.16,0,.26-.19.62-.07.92-.12a7.79,7.79,0,0,0,1.5-.29,2.6,2.6,0,0,0,.1-.25l-.69-.23a12.08,12.08,0,0,0-1.35-.08l-.1-.08c.45-.05.9,0,1.35-.06s.68-.2,1-.26c0-.09.06-.18.1-.28a4.76,4.76,0,0,0-.9-.23c-.41,0-.82,0-1.22-.07.07-.05.14-.13.24-.1.33,0,.66,0,1,0Z" class="cls-3" transform="translate(-33.97 -271.36)"/><path d="M38.32,280.58a16.61,16.61,0,0,0,2.1-.31h5.31a5.64,5.64,0,0,1,2.12.33,3.61,3.61,0,0,1,1.69,1.31,3.36,3.36,0,0,1,.42,1.38,9.92,9.92,0,0,1-.86,3.78,5.84,5.84,0,0,1-2.28,2.61,7.74,7.74,0,0,1-4,1c-2,0-4,0-6,0a4.06,4.06,0,0,1-1.29-.22,10,10,0,0,0-1.45-.12l-.09-.09a7.5,7.5,0,0,0,1.71-.13,3.63,3.63,0,0,1,1.08-.21l.08-.23a3.62,3.62,0,0,1-1-.19,8.93,8.93,0,0,0-1.55-.13l0-.09a6.78,6.78,0,0,0,1.63-.14A4,4,0,0,1,37.1,289l.09-.18a5.59,5.59,0,0,1-.92-.21,8.71,8.71,0,0,0-1.62-.13c.09-.13.24-.09.37-.1a5.22,5.22,0,0,0,1.19-.08,7.57,7.57,0,0,1,1.24-.25,1.34,1.34,0,0,1,.07-.18c-.32-.06-.64-.13-1-.21a7.22,7.22,0,0,0-1.47-.09l0-.13a8.09,8.09,0,0,0,1.39-.06,3.91,3.91,0,0,1,1.26-.24,2.6,2.6,0,0,0,.1-.25,10,10,0,0,1-1.08-.27,12.37,12.37,0,0,0-1.36-.05.53.53,0,0,0,.06-.1,7.61,7.61,0,0,0,1.58-.14,4.74,4.74,0,0,1,1.06-.21l.08-.15a5.11,5.11,0,0,1-1-.27c-.47-.06-.94,0-1.4-.07l.12-.09a5.93,5.93,0,0,0,1.52-.12,3.29,3.29,0,0,1,1-.19l.07-.18c-.38-.08-.72-.26-1.1-.33s-.83,0-1.25-.06l0-.11a5.29,5.29,0,0,0,1.64-.17,3,3,0,0,1,1-.2l.07-.21a6,6,0,0,1-1-.27c-.46-.07-.92,0-1.37-.08l.13-.08a6.39,6.39,0,0,0,1.69-.18,3.5,3.5,0,0,1,.84-.18,1.51,1.51,0,0,0,.1-.17,6,6,0,0,1-.83-.22,10.13,10.13,0,0,0-1.55-.13c.09-.11.25-.09.38-.1a4.38,4.38,0,0,0,1.3-.12,3.48,3.48,0,0,1,1-.19,2.09,2.09,0,0,1,.08-.23,11.78,11.78,0,0,0-1.28-.29c-.36,0-.72,0-1.08-.05.27-.16.61-.06.92-.09a14.67,14.67,0,0,0,1.71-.32A1.72,1.72,0,0,1,40,281c-.31-.06-.61-.17-.92-.25s-.94,0-1.4-.1c.18-.18.46-.07.69-.09Z" class="cls-3" transform="translate(-33.97 -271.36)"/><path d="M64.34,280.57c.72.07,1.39-.3,2.1-.3h5.48a4.67,4.67,0,0,1,2.63.71,2.6,2.6,0,0,1,1.08,1.17,3,3,0,0,1,.3,1.13,8.35,8.35,0,0,1-.42,2.58,7.09,7.09,0,0,1-1.2,2.47,5.94,5.94,0,0,1-2.82,1.95,8.47,8.47,0,0,1-2.87.43c-1.64,0-3.28,0-4.91,0a6.36,6.36,0,0,1-2-.17,5.14,5.14,0,0,0-1.66-.14s0-.1,0-.13c.42,0,.84,0,1.26,0a6.56,6.56,0,0,1,1.45-.3,1.55,1.55,0,0,0,.08-.23,4,4,0,0,1-1-.19,7.64,7.64,0,0,0-1.59-.12.24.24,0,0,1,.21-.12,5.39,5.39,0,0,0,1.39-.09,3.66,3.66,0,0,1,1.22-.23,1.59,1.59,0,0,0,.07-.2,10.83,10.83,0,0,1-1.23-.27c-.43-.06-.87,0-1.3-.07l.14-.08a8.76,8.76,0,0,0,1.45-.09,7.34,7.34,0,0,1,1.22-.25c0-.05,0-.14.06-.18l-1-.21a11.1,11.1,0,0,0-1.52-.11l.12-.09a7.33,7.33,0,0,0,1.55-.14,2.74,2.74,0,0,1,1.06-.17c0-.09.07-.18.11-.26a8.87,8.87,0,0,0-1.68-.31c-.26,0-.58.1-.79-.11a8.43,8.43,0,0,0,1.67-.14,5.23,5.23,0,0,1,1-.21l.12-.14a8,8,0,0,1-1.07-.28c-.4-.05-.8,0-1.19-.05a.37.37,0,0,1-.19-.09,11.08,11.08,0,0,0,1.63-.13,3.84,3.84,0,0,1,1.06-.21,1,1,0,0,0,.06-.18,8.3,8.3,0,0,0-1.28-.33l-1,0,0-.15h.79c.61,0,1.14-.38,1.76-.35,0-.05.05-.16.06-.21a3.94,3.94,0,0,1-.88-.23c-.5-.17-1,0-1.54-.17a8.88,8.88,0,0,1,1.15-.07c.54,0,1-.33,1.56-.31a1.89,1.89,0,0,1,.06-.18,11.25,11.25,0,0,0-1.37-.31,5.65,5.65,0,0,1-1-.06.45.45,0,0,1,.28-.07,5.11,5.11,0,0,0,1.46-.15,3.18,3.18,0,0,1,.92-.17,2,2,0,0,1,.07-.23c-.43-.05-.81-.27-1.24-.29l-1.05,0v-.1a6.34,6.34,0,0,0,1.63-.12c.3-.1.62-.15.93-.22l.1-.2c-.33,0-.64-.18-1-.26s-.92,0-1.38-.1c.21-.16.5-.06.74-.09Z" class="cls-3" transform="translate(-33.97 -271.36)"/><path d="M83.19,280.57a19.89,19.89,0,0,1,5.28-.2,3.07,3.07,0,0,1,2.84,3.84H87.74a1.48,1.48,0,0,0-.21-1,1.67,1.67,0,0,0-1.43-.59,3.44,3.44,0,0,0-2.91,1.54,7,7,0,0,0-.92,2.13,2.34,2.34,0,0,0,0,1.48,1.35,1.35,0,0,0,1.11.69,3.44,3.44,0,0,0,2.2-.42,4.56,4.56,0,0,0,1.3-1.29h3.56a13.68,13.68,0,0,1-1.14,1.6,7.32,7.32,0,0,1-4.62,2.43,13.11,13.11,0,0,1-3.13,0,8.7,8.7,0,0,0-1.14-.17c-.55,0-1.06-.26-1.61-.27-.39,0-.78,0-1.17,0a.19.19,0,0,1,.2-.11,8.06,8.06,0,0,0,1.7-.12c-.18-.14-.32-.3-.49-.44s-.38,0-.57,0a11.59,11.59,0,0,0-1.45-.27,2.76,2.76,0,0,1-.91-.07c.53-.16,1.1,0,1.62-.16.28-.08.56-.16.85-.22l-.11-.21a3.26,3.26,0,0,1-1-.16,7.52,7.52,0,0,0-1.71-.17c.16-.17.43-.08.65-.1a6.86,6.86,0,0,0,1.9-.31l0-.19a6.75,6.75,0,0,1-1.19-.22,10.84,10.84,0,0,0-1.51-.1.23.23,0,0,1,.21-.11,5.16,5.16,0,0,0,1.52-.14,3.19,3.19,0,0,1,1-.17c0-.06,0-.18.07-.25a5.76,5.76,0,0,1-1.3-.26,12.74,12.74,0,0,0-1.38-.06.61.61,0,0,1,0-.12,5.81,5.81,0,0,0,1.76-.15,4.88,4.88,0,0,1,1-.18l.11-.13a3.71,3.71,0,0,1-.93-.22c-.55-.2-1.16,0-1.72-.17.5-.16,1,0,1.53-.12a4.6,4.6,0,0,1,1.37-.25,1.08,1.08,0,0,1,.08-.19c-.35-.09-.69-.24-1-.31s-.92,0-1.38-.08l.12-.09a6,6,0,0,0,1.68-.17,3.21,3.21,0,0,1,1.06-.2l.15-.23c-.47,0-.89-.29-1.37-.29s-.75,0-1.12,0c0-.05.08-.12.16-.11a6.84,6.84,0,0,0,1.75-.16A3.33,3.33,0,0,1,80,283.1l.19-.22a5.61,5.61,0,0,0-1.22-.24l-1.2,0v-.1a8.68,8.68,0,0,0,2.1-.17,4.77,4.77,0,0,1,1.06-.16l.5-.39a12.73,12.73,0,0,0-2.69-.19,1.1,1.1,0,0,1,.14-.09c.59,0,1.17,0,1.75,0s1-.18,1.47-.24a7.65,7.65,0,0,0,1.37-.47c-1-.06-1.91,0-2.86-.09a.38.38,0,0,1,.29-.1c.75,0,1.5,0,2.25,0Z" class="cls-3" transform="translate(-33.97 -271.36)"/><path d="M43.11,282.92a6.52,6.52,0,0,1,3,.36,7.3,7.3,0,0,1-1.12.27c-.43,0-.86,0-1.29,0l-.14.1c.52.06,1.06,0,1.58.08a4.76,4.76,0,0,0,1.34.27v.2a3,3,0,0,0-1,.21,5.94,5.94,0,0,1-1.58.17l-.12.09a8.37,8.37,0,0,1,1.67.17,3.48,3.48,0,0,0,.78.22l-.06.18a3.59,3.59,0,0,0-1.13.21,14.91,14.91,0,0,1-1.64.15c.5.18,1,0,1.56.16a3.34,3.34,0,0,0,.93.23l-.11.17a3.41,3.41,0,0,0-1.14.19,6.74,6.74,0,0,1-1.62.13s0,.09,0,.12h1a8.79,8.79,0,0,1,1.35.3l-.26.27a3,3,0,0,0-1.16.16,6.5,6.5,0,0,1-1.59.15l-.1.1a6.8,6.8,0,0,1,1.85.18,5.73,5.73,0,0,1-1.54.17c-.43,0-.85,0-1.28,0,.63-1.7,1.24-3.39,1.88-5.08Z" class="cls-1" transform="translate(-33.97 -271.36)"/><path d="M69.08,282.92a6.71,6.71,0,0,1,3,.35,6.7,6.7,0,0,1-2.48.32s0,.09,0,.11l1,0c.64,0,1.2.33,1.84.31,0,0,0,.15,0,.2a3,3,0,0,0-.89.19,5,5,0,0,1-1.69.18l0,.1a7.13,7.13,0,0,1,1.67.19,3.76,3.76,0,0,0,.73.2l0,.18a3.51,3.51,0,0,0-1.11.2,8.2,8.2,0,0,1-1.64.14c.11.13.29.09.44.1a3.48,3.48,0,0,1,1.24.13,3.68,3.68,0,0,0,.81.19l-.13.14a4.21,4.21,0,0,0-1.06.19,5.13,5.13,0,0,1-1.51.14.25.25,0,0,0-.24.11c.43,0,.87,0,1.3.05s.69.2,1,.27l-.26.27a2.9,2.9,0,0,0-.78.05,4.23,4.23,0,0,1-1,.23,8.28,8.28,0,0,0-1,0l-.1.09a5.94,5.94,0,0,1,1.84.19,6.19,6.19,0,0,1-1.55.16,10.26,10.26,0,0,1-1.24,0l1.87-5.07Z" class="cls-1" transform="translate(-33.97 -271.36)"/><path d="M73.4,293l.62,0c-.35.8-.75,1.59-1.12,2.39h-.65c.37-.8.75-1.61,1.15-2.41Z" class="cls-2" transform="translate(-33.97 -271.36)"/><path d="M75.08,293c.21,0,.42,0,.62,0l-.18.43h-.66a2.89,2.89,0,0,1,.22-.43Z" class="cls-2" transform="translate(-33.97 -271.36)"/><path d="M84.82,293h.63a1.44,1.44,0,0,1-.18.4,2.32,2.32,0,0,1-.65,0l.2-.44Z" class="cls-2" transform="translate(-33.97 -271.36)"/><path d="M100.41,293H101c-.35.81-.74,1.61-1.13,2.4H99.3c.32-.82.75-1.6,1.11-2.4Z" class="cls-2" transform="translate(-33.97 -271.36)"/><path d="M65.49,295.41c.38-.8.74-1.62,1.15-2.41a8.51,8.51,0,0,1,2,.12.53.53,0,0,1,.38.64,2.05,2.05,0,0,1-1.82,1.62c-.56.05-1.12,0-1.67,0Z" class="cls-2" transform="translate(-33.97 -271.36)"/><path d="M94,293h.73c0,.6-.09,1.19-.16,1.79.54-.59,1-1.2,1.59-1.79h.68c-.69.83-1.48,1.58-2.2,2.39H94c0-.8,0-1.6,0-2.4Z" class="cls-2" transform="translate(-33.97 -271.36)"/><path d="M67.08,293.45c.38,0,.87-.14,1.16.18a1.2,1.2,0,0,1-.33,1c-.38.44-1,.39-1.54.4.21-.53.48-1,.71-1.54Z" class="cls-1" transform="translate(-33.97 -271.36)"/><path d="M69.66,294.24a1.78,1.78,0,0,1,1.85-.6.54.54,0,0,1,.37.32,1.12,1.12,0,0,1-.17.71c-.54,0-1.09,0-1.64,0V295a1.32,1.32,0,0,0,.48.06c.17,0,.31-.15.47-.17a3.25,3.25,0,0,1,.54,0,1.83,1.83,0,0,1-1.33.59.82.82,0,0,1-.82-.36,1,1,0,0,1,.25-.88Z" class="cls-2" transform="translate(-33.97 -271.36)"/><path d="M76.15,293.64h.72c0,.42-.06.84-.1,1.26.37-.42.74-.83,1.1-1.26h.67c-.55.59-1.12,1.18-1.69,1.76h-.67c0-.59,0-1.18,0-1.77Z" class="cls-2" transform="translate(-33.97 -271.36)"/><path d="M78.73,294.54a1.74,1.74,0,0,1,2.31-.78.86.86,0,0,1-.07.91c-.56,0-1.11,0-1.67,0a.73.73,0,0,0,.08.33.77.77,0,0,0,.66,0,1.54,1.54,0,0,1,.8-.09,2,2,0,0,1-1.51.6.78.78,0,0,1-.63-.3.72.72,0,0,1,0-.64Z" class="cls-2" transform="translate(-33.97 -271.36)"/><path d="M82.8,293.92a1.4,1.4,0,0,1,.94-.32c-.07.15-.14.31-.22.47a1,1,0,0,0-.85.28,8.73,8.73,0,0,0-.53,1.06h-.66c.28-.59.57-1.17.84-1.77h.6l-.12.28Z" class="cls-2" transform="translate(-33.97 -271.36)"/><path d="M86.75,293.83a1.5,1.5,0,0,1,1.27-.15c.19.08.15.33.09.48-.18.42-.4.82-.57,1.25h-.65a10.93,10.93,0,0,0,.56-1.37c-.3,0-.67-.07-.87.2A10.38,10.38,0,0,0,86,295.4h-.66c.27-.59.56-1.18.84-1.77h.62c0,.05,0,.14-.06.19Z" class="cls-2" transform="translate(-33.97 -271.36)"/><path d="M88.73,294.73a1.61,1.61,0,0,1,1.79-1.12c.14,0,.23.13.34.21l.09-.18h.61c-.26.58-.54,1.15-.82,1.73a1.18,1.18,0,0,1-.84.68,2.54,2.54,0,0,1-1.06.06.68.68,0,0,1-.53-.32c0-.06.07-.16.09-.21H89l.12.17a1.4,1.4,0,0,0,.7-.08,1.68,1.68,0,0,0,.36-.47,1.43,1.43,0,0,1-1.27.13.5.5,0,0,1-.22-.59Z" class="cls-2" transform="translate(-33.97 -271.36)"/><path d="M96.76,294.19a1.56,1.56,0,0,1,1.59-.59c.21,0,.53.06.56.32-.09.52-.56.94-.53,1.49h-.66l0-.18a1.4,1.4,0,0,1-1.25.17c-.19-.08-.17-.34-.09-.49a1.06,1.06,0,0,1,.85-.52,4.87,4.87,0,0,0,1-.19c0-.05,0-.14,0-.19a.75.75,0,0,0-.76.09c-.2.17-.47.09-.71.09Z" class="cls-2" transform="translate(-33.97 -271.36)"/><path d="M101.77,293.64h.62c-.15.47-.44.88-.56,1.35a.76.76,0,0,0,1-.28c.18-.35.34-.72.51-1.07h.65l-.84,1.77h-.62c0-.05,0-.14,0-.18a1.4,1.4,0,0,1-1.33.11c-.16-.15,0-.38,0-.55.18-.38.36-.77.55-1.15Z" class="cls-2" transform="translate(-33.97 -271.36)"/><path d="M104.3,294.88a1.65,1.65,0,0,1,2.45-1.06,1,1,0,0,1-.13.85H105V295a1,1,0,0,0,.69,0,1.31,1.31,0,0,1,.81-.11,1.88,1.88,0,0,1-1.63.58c-.29,0-.61-.25-.56-.58Z" class="cls-2" transform="translate(-33.97 -271.36)"/><path d="M74.76,293.64h.65c-.26.6-.56,1.18-.83,1.77h-.65c.27-.59.56-1.18.83-1.77Z" class="cls-2" transform="translate(-33.97 -271.36)"/><path d="M83.68,295.41c.28-.59.57-1.19.86-1.77h.64c-.28.59-.57,1.18-.84,1.77Z" class="cls-2" transform="translate(-33.97 -271.36)"/><path d="M70.24,294.33a.75.75,0,0,1,1-.25l-.06.27c-.32,0-.63,0-.94,0Z" class="cls-1" transform="translate(-33.97 -271.36)"/><path d="M79.48,294.34a.79.79,0,0,1,.89-.31c.14,0,.17.22.06.3a6,6,0,0,1-1,0Z" class="cls-1" transform="translate(-33.97 -271.36)"/><path d="M89.39,294.88a.84.84,0,0,1,1.15-.81.76.76,0,0,1-1.15.81Z" class="cls-1" transform="translate(-33.97 -271.36)"/><path d="M105.16,294.34a.71.71,0,0,1,.89-.3c.14,0,.06.2.07.31-.32,0-.64,0-1,0Z" class="cls-1" transform="translate(-33.97 -271.36)"/><path d="M97.15,294.74a6.71,6.71,0,0,1,.89-.19.86.86,0,0,1-1.06.52.27.27,0,0,1,.17-.33Z" class="cls-1" transform="translate(-33.97 -271.36)"/></g></svg>