<svg xmlns="http://www.w3.org/2000/svg" id="Sponsors" viewBox="0 0 93.5 30.28"><defs><style>.cls-1{fill:#ee2326}</style></defs><g id="Hero"><path d="M84.51,95.92h-7V90H73.14v16.13h4.41V99.65h7v6.46h4.4V90h-4.4Zm10.75.23c.36-2.17,1.57-3.31,3.52-3.31a3.24,3.24,0,0,1,3.38,3.31Zm3.54-6.59c-4.85,0-8.1,3.34-8.1,8.37,0,5.22,3.21,8.54,8.24,8.54,4,0,6.78-1.84,7.81-5.33H102A2.79,2.79,0,0,1,99,103.06a3.5,3.5,0,0,1-3.76-3.69h11.47c0-.57,0-.77,0-1,0-5.43-3.08-8.77-8-8.77m15.48.28c-1.56.31-5.57,1.51-5.57,7.62v8.64h4.46V99c0-2.64.37-3.88,1.47-4.68a4.46,4.46,0,0,1,2.79-.84,5.37,5.37,0,0,1,1.21.13V89.91a9.57,9.57,0,0,0-4.36-.07m13.18,13.28c-2.35,0-3.73-1.91-3.73-5.09s1.35-5.09,3.73-5.09,3.68,1.84,3.68,5-1.34,5.13-3.68,5.13m0-13.57c-5,0-8.22,3.32-8.22,8.48s3.22,8.44,8.22,8.44,8.17-3.32,8.17-8.44-3.22-8.48-8.17-8.48" class="cls-1" transform="translate(-42.13 -82.9)"/><path d="M61.07,88l-6.9-5.1V97.42l6.9-4.79Zm0,20.75v-10l-6.9,5Z" transform="translate(-42.13 -82.9)"/><path d="M42.13,108.17l6.9,5V92.43l-6.9-5.1Z" class="cls-1" transform="translate(-42.13 -82.9)"/></g></svg>