<svg xmlns="http://www.w3.org/2000/svg" id="Sponsors" viewBox="0 0 115.21 38.45"><defs><style>.cls-1{fill:#00a5ec}.cls-2,.cls-3{fill:#666}.cls-2{fill-rule:evenodd}</style></defs><g id="Internshala"><path d="M404.47,269l4.94,3.81V278l4-2.64,3.85,2.72,8.67-13.57Zm7.26,5.06-1.41,2.37v-4l12.88-6.2Z" class="cls-1" transform="translate(-314.47 -264.55)"/><path d="M314.47,283.35h2.22v11.13h-2.22Z" class="cls-1" transform="translate(-314.47 -264.55)"/><path d="M318.92,294.48V283.36h.74l7,7v-7h2.22v11.12H328l-6.9-6.9v6.9Z" class="cls-1" transform="translate(-314.47 -264.55)"/><path d="M340.23,283.36v2.07h-3.7v9.05H334.3v-9.05h-3.7v-2.07Z" class="cls-1" transform="translate(-314.47 -264.55)"/><path d="M341.86,294.48V283.37H350v2.07h-5.95v2.37h4.46v2.07h-4.46v2.52H350v2.08Z" class="cls-1" transform="translate(-314.47 -264.55)"/><path d="M359,289.63l2.77,4.85h-2.55l-2.66-4.6h-2v4.6h-2.22V283.36h4.84q3.9,0,3.9,3.2a2.9,2.9,0,0,1-.47,1.9A2.86,2.86,0,0,1,359,289.63Zm-4.47-1.82h3.12c.89,0,1.35-.43,1.37-1.23s-.47-1.11-1.35-1.14h-3.14v2.37Z" class="cls-1" transform="translate(-314.47 -264.55)"/><path d="M362.89,294.48V283.36h.74l7,7v-7h2.22v11.12H372l-6.9-6.9v6.9Z" class="cls-1" transform="translate(-314.47 -264.55)"/><path d="M392.54,282c5.32-.77,10.34-2.61,15.53-4.33C406.46,279,394.47,282.33,392.54,282Z" class="cls-2" transform="translate(-314.47 -264.55)"/><path d="M413.4,275.4l-4,2.64,2.34-4Z" class="cls-2" transform="translate(-314.47 -264.55)"/><path d="M381.15,283.73a5.06,5.06,0,0,1,1.59,1.11l-1.48,1.48a2.6,2.6,0,0,0-2.08-.89c-.88,0-1.45.21-1.7.63a.91.91,0,0,0-.19.54.87.87,0,0,0,.19.54,3,3,0,0,0,1.7.67,5.46,5.46,0,0,1,2.56.92,2.79,2.79,0,0,1,1.15,2.48,2.91,2.91,0,0,1-.33,1.3,3,3,0,0,1-.89,1,4.58,4.58,0,0,1-2.86,1,6.7,6.7,0,0,1-2.59-.45,5.62,5.62,0,0,1-1.78-1.19l1.48-1.47a3.54,3.54,0,0,0,2.52,1c1,0,1.6-.21,1.85-.63a1.19,1.19,0,0,0,.19-.63,1.14,1.14,0,0,0-.19-.63c-.25-.42-.86-.69-1.85-.78a5.93,5.93,0,0,1-2.45-.82,2.45,2.45,0,0,1-.87-1,2.48,2.48,0,0,1-.24-1.31,2.83,2.83,0,0,1,.33-1.34,2.64,2.64,0,0,1,.94-1,4.37,4.37,0,0,1,2.6-.89A6.15,6.15,0,0,1,381.15,283.73Z" class="cls-3" transform="translate(-314.47 -264.55)"/><path d="M384.88,294.48V283.36h2.22v4.45h5.19v-4.46h2.23v11.12h-2.23v-4.6H387.1v4.6Z" class="cls-3" transform="translate(-314.47 -264.55)"/><path d="M396.32,294.48l4.45-11.12H403l4.44,11.11h-2.36l-.67-1.7h-5l-.67,1.7Zm5.62-8.16-1.69,4.23h3.34Z" class="cls-3" transform="translate(-314.47 -264.55)"/><path d="M411.35,283.36v9h5.93v2.08h-8.16V283.36Z" class="cls-3" transform="translate(-314.47 -264.55)"/><path d="M418.52,294.48,423,283.36h2.23l4.44,11.11h-2.37l-.66-1.7h-5l-.67,1.7Zm5.62-8.16-1.69,4.23h3.34Z" class="cls-3" transform="translate(-314.47 -264.55)"/><path d="M359.82,297.14a.37.37,0,0,1-.4.39.38.38,0,0,1-.39-.39.39.39,0,0,1,.4-.4A.38.38,0,0,1,359.82,297.14Zm-.71,4.51v-3.52h.64v3.52Zm1.7-2.57c0-.36,0-.66,0-.95h.57l0,.58h0a1.29,1.29,0,0,1,1.16-.66c.49,0,1.24.29,1.24,1.5v2.1h-.63v-2c0-.57-.22-1-.82-1a.92.92,0,0,0-.86.65,1.28,1.28,0,0,0,0,.3v2.12h-.64Zm4.78-1.79v.84h.91v.49h-.91v1.89c0,.44.12.69.47.69a1.2,1.2,0,0,0,.38-.05l0,.48a1.52,1.52,0,0,1-.56.1.9.9,0,0,1-.69-.28,1.32,1.32,0,0,1-.25-.92v-1.91h-.54v-.49H365v-.65Zm1.94,2.71a1.13,1.13,0,0,0,1.21,1.22,2.17,2.17,0,0,0,1-.18l.11.46a2.82,2.82,0,0,1-1.17.23,1.64,1.64,0,0,1-1.73-1.78,1.71,1.71,0,0,1,1.65-1.9,1.49,1.49,0,0,1,1.45,1.66,1.85,1.85,0,0,1,0,.29Zm1.88-.45a.92.92,0,0,0-.89-1,1.05,1.05,0,0,0-1,1Zm1.41-.32c0-.42,0-.77,0-1.1h.56l0,.69h0a1.05,1.05,0,0,1,1-.77l.18,0v.6l-.21,0a.9.9,0,0,0-.86.82,1.39,1.39,0,0,0,0,.3v1.88h-.63Zm2.82-.24c0-.36,0-.66,0-.95h.57l0,.58h0a1.29,1.29,0,0,1,1.16-.66c.49,0,1.24.29,1.24,1.5v2.1H376v-2c0-.57-.21-1-.81-1a.92.92,0,0,0-.86.65.91.91,0,0,0,0,.3v2.12h-.64Zm3.95,1.91a1.61,1.61,0,0,0,.84.26c.46,0,.68-.24.68-.53s-.18-.47-.65-.64c-.63-.23-.93-.58-.93-1a1.09,1.09,0,0,1,1.21-1,1.74,1.74,0,0,1,.87.22l-.16.46a1.48,1.48,0,0,0-.72-.2c-.38,0-.59.22-.59.48s.21.42.67.6c.61.23.92.53.92,1.06s-.48,1.06-1.32,1.06a2,2,0,0,1-1-.25Zm3-4.5h.64v2.19h0a1.32,1.32,0,0,1,1.12-.63c.47,0,1.22.29,1.22,1.5v2.1h-.63v-2c0-.57-.22-1.05-.82-1.05a.91.91,0,0,0-.9.95v2.12h-.64Zm4.75.65a.38.38,0,0,1-.41.39.38.38,0,0,1-.39-.39.39.39,0,0,1,.4-.4A.39.39,0,0,1,385.3,297.05Zm-.72,4.51V298h.64v3.52Zm1.7-2.37c0-.45,0-.82,0-1.15h.57l0,.6h0a1.38,1.38,0,0,1,1.25-.68,1.59,1.59,0,0,1,1.49,1.79,1.67,1.67,0,0,1-1.6,1.89,1.24,1.24,0,0,1-1.08-.56h0V303h-.64Zm.64.94a1.09,1.09,0,0,0,0,.26,1,1,0,0,0,.95.75c.68,0,1.07-.56,1.07-1.36s-.37-1.31-1-1.31a1,1,0,0,0-1,.79,1.17,1.17,0,0,0,0,.26Zm3.41.77a1.64,1.64,0,0,0,.84.26c.47,0,.69-.24.69-.53s-.18-.47-.66-.64-.93-.58-.93-1a1.09,1.09,0,0,1,1.22-1,1.7,1.7,0,0,1,.86.22l-.16.46a1.44,1.44,0,0,0-.72-.2c-.38,0-.59.22-.59.48s.21.42.67.6.93.53.93,1.06-.48,1.06-1.32,1.06a2.1,2.1,0,0,1-1-.25Zm5.7-3.59v.84h.91v.48H396v1.9c0,.44.12.68.48.68a1.22,1.22,0,0,0,.37,0l0,.48a1.61,1.61,0,0,1-.57.09.89.89,0,0,1-.69-.27,1.32,1.32,0,0,1-.25-.92v-1.92h-.54v-.48h.54v-.65Zm1.63-.8h.64v2.19h0a1.17,1.17,0,0,1,.46-.45,1.26,1.26,0,0,1,.65-.18c.47,0,1.23.29,1.23,1.5v2.09H400v-2c0-.56-.21-1-.82-1a.91.91,0,0,0-.85.64.7.7,0,0,0-.05.3v2.12h-.64Zm6.73,4.31a4.3,4.3,0,0,0,.06.84h-.58l-.06-.44h0a1.28,1.28,0,0,1-1.07.52,1,1,0,0,1-1.08-1c0-.85.76-1.31,2.12-1.3v-.08a.72.72,0,0,0-.8-.81,1.77,1.77,0,0,0-.92.26l-.14-.42a2.16,2.16,0,0,1,1.15-.31c1.08,0,1.34.73,1.34,1.44Zm-.62-.95c-.7,0-1.49.11-1.49.79a.56.56,0,0,0,.6.61.87.87,0,0,0,.85-.59.45.45,0,0,0,0-.2Zm2.39-2.56v.84h.92v.48h-.92v1.9c0,.44.13.68.48.68a1.14,1.14,0,0,0,.37,0l0,.48a1.57,1.57,0,0,1-.57.09.93.93,0,0,1-.69-.27,1.32,1.32,0,0,1-.24-.92v-1.92H405v-.48h.55v-.65Zm3.4,1.79c0-.36,0-.66,0-1h.56l0,.56h0a1.21,1.21,0,0,1,1.1-.64,1,1,0,0,1,1,.7h0a1.36,1.36,0,0,1,.4-.45,1.19,1.19,0,0,1,.77-.25c.47,0,1.16.3,1.16,1.52v2.07H414v-2c0-.67-.24-1.08-.76-1.08a.82.82,0,0,0-.75.58,1.07,1.07,0,0,0-.06.32v2.17h-.62v-2.1c0-.56-.25-1-.73-1a.89.89,0,0,0-.8.64,1.06,1.06,0,0,0-.05.31v2.12h-.62Zm8.53,1.72a4.3,4.3,0,0,0,.06.84h-.58l-.05-.44h0a1.28,1.28,0,0,1-1.07.52,1,1,0,0,1-1.08-1c0-.85.76-1.31,2.12-1.3v-.08a.72.72,0,0,0-.8-.81,1.77,1.77,0,0,0-.92.26l-.14-.42a2.16,2.16,0,0,1,1.15-.31c1.08,0,1.34.73,1.34,1.44Zm-.62-.95c-.7,0-1.49.11-1.49.79a.57.57,0,0,0,.61.61.89.89,0,0,0,.85-.59.64.64,0,0,0,0-.2Zm2.61-2.56v.84H421v.48h-.92v1.9c0,.44.13.68.48.68a1.14,1.14,0,0,0,.37,0l0,.48a1.55,1.55,0,0,1-.56.09.89.89,0,0,1-.69-.27,1.27,1.27,0,0,1-.25-.92v-1.92h-.55v-.48h.55v-.65Zm2.63,0v.84h.92v.48h-.92v1.9c0,.44.12.68.48.68a1.18,1.18,0,0,0,.37,0l0,.48a1.57,1.57,0,0,1-.57.09.89.89,0,0,1-.69-.27,1.32,1.32,0,0,1-.25-.92v-1.92h-.54v-.48h.54v-.65Zm2,2.71a1.12,1.12,0,0,0,1.2,1.22,2.37,2.37,0,0,0,1-.18l.11.46a2.89,2.89,0,0,1-1.17.22,1.63,1.63,0,0,1-1.73-1.78,1.7,1.7,0,0,1,1.65-1.89,1.49,1.49,0,0,1,1.45,1.65c0,.14,0,.24,0,.3Zm1.87-.46a.91.91,0,0,0-.88-1,1.07,1.07,0,0,0-1,1Zm1.41-.31c0-.42,0-.77,0-1.1h.56l0,.69h0a1.06,1.06,0,0,1,1-.77l.18,0v.6l-.22,0a.9.9,0,0,0-.86.82,2.53,2.53,0,0,0,0,.3v1.87h-.63Z" class="cls-3" transform="translate(-314.47 -264.55)"/></g></svg>