<svg xmlns="http://www.w3.org/2000/svg" id="Sponsors" viewBox="0 0 116.69 36.24"><defs><style>.cls-1{fill:#e92233}.cls-2{fill:#1d3665}.cls-3{fill:#ea2031}.cls-4,.cls-5{fill:#fff}.cls-5{fill-rule:evenodd}</style></defs><g id="Kotak"><rect width="116.69" height="36.24" class="cls-1" rx=".31"/><path d="M322.79,388.75c0-7.17,6.76-13,15.09-13s15.08,5.81,15.08,13-6.75,13-15.08,13-15.09-5.81-15.09-13Z" class="cls-2" transform="translate(-316.53 -370.27)"/><polygon points="19.51 9.66 23.02 8.51 23.04 27.45 19.5 28.64 19.51 9.66 19.51 9.66" class="cls-3"/><path d="M349.22,390.05c-.33,2.71-1.85,5.45-5.17,5.45-1.93,0-3.45-1.32-4.5-2.94v-1.88a9.4,9.4,0,0,0,4,1.37,4.48,4.48,0,0,0,4.17-2Zm-11.09,1.7c-1.53,1.84-3,3.71-5.75,3.71-3.9,0-5.75-3.77-5.75-6.91s1.45-6.6,5.24-6.6a6,6,0,0,1,4.18,2.06v2.57a8.62,8.62,0,0,0-3.71-1.07c-2.4,0-4.52,1-4.49,3.38a3.09,3.09,0,0,0,3.26,2.75c2.47,0,4-2.26,5.21-4,.35-.45,1.34-1.76,1.49-2,1.39-1.94,3-3.72,5.75-3.72,3.25,0,5.07,2.62,5.59,5.32h-1.47a3.49,3.49,0,0,0-2.84-1.41c-2.55,0-4.08,2.35-5.35,4.08,0,0-1,1.35-1.35,1.78Z" class="cls-4" transform="translate(-316.53 -370.27)"/><polygon points="39 28.57 39.54 28.57 39.54 25.83 42.19 28.57 42.93 28.57 40.05 25.68 42.7 23.09 42 23.09 39.54 25.55 39.54 23.09 39 23.09 39 28.57 39 28.57" class="cls-4"/><path d="M359.89,396.83a1.88,1.88,0,1,0,1.86-2.08,1.87,1.87,0,0,0-1.86,2.08Zm.54,0c0-.92.46-1.66,1.32-1.66s1.33.74,1.33,1.66-.47,1.67-1.33,1.67-1.32-.74-1.32-1.67Z" class="cls-5" transform="translate(-316.53 -370.27)"/><path d="M366.27,394.84h-.91v-1.13l-.49.16v1h-.78v.42h.78v2.34c0,.72,0,1.33.91,1.33a1.69,1.69,0,0,0,.6-.11l0-.41a1.2,1.2,0,0,1-.45.09c-.4,0-.54-.29-.54-.65v-2.59h.91v-.42Z" class="cls-4" transform="translate(-316.53 -370.27)"/><path d="M369.45,398.84h.49a5.63,5.63,0,0,1,0-.84v-1.76c0-1.05-.42-1.49-1.4-1.49a3.13,3.13,0,0,0-1.18.27v.48a2.09,2.09,0,0,1,1.18-.33c.66,0,.91.34.91,1v.21h-.1c-1,0-2.46.06-2.46,1.4,0,.36.18,1.13,1.32,1.13a1.41,1.41,0,0,0,1.27-.74h0v.65Zm0-1.78c0,.43,0,1.44-1.19,1.44-.45,0-.83-.19-.83-.72,0-.87,1-1,1.87-1h.15v.24Z" class="cls-5" transform="translate(-316.53 -370.27)"/><polygon points="54.54 28.57 55.04 28.57 55.04 26.51 57.01 28.57 57.69 28.57 55.51 26.34 57.46 24.57 56.82 24.57 55.04 26.2 55.04 22.69 54.54 22.69 54.54 28.57 54.54 28.57" class="cls-4"/><polygon points="60.7 28.57 61.24 28.57 61.24 23.63 61.25 23.63 63.3 28.57 63.77 28.57 65.76 23.63 65.77 23.63 65.77 28.57 66.31 28.57 66.31 23.09 65.54 23.09 63.53 27.91 61.53 23.09 60.7 23.09 60.7 28.57 60.7 28.57" class="cls-4"/><path d="M386.44,398.84h.48a5.63,5.63,0,0,1,0-.84v-1.76c0-1.05-.41-1.49-1.4-1.49a3.08,3.08,0,0,0-1.17.27v.48a2.06,2.06,0,0,1,1.17-.33c.67,0,.91.34.91,1v.21h-.09c-1,0-2.46.06-2.46,1.4,0,.36.18,1.13,1.31,1.13a1.41,1.41,0,0,0,1.27-.74h0v.65Zm-.05-1.78c0,.43,0,1.44-1.18,1.44-.46,0-.83-.19-.83-.72,0-.87,1-1,1.87-1h.14v.24Z" class="cls-5" transform="translate(-316.53 -370.27)"/><path d="M388.06,398.84h.49v-2.15c0-.69.31-1.52,1.19-1.52s.94.59.94,1.28v2.39h.5v-2.39c0-1-.29-1.7-1.36-1.7a1.35,1.35,0,0,0-1.25.76h0V393h-.49v5.88Z" class="cls-4" transform="translate(-316.53 -370.27)"/><path d="M392.42,398.84h.49v-4h-.49v4Zm.49-5.73h-.49v.67h.49v-.67Z" class="cls-5" transform="translate(-316.53 -370.27)"/><path d="M394.16,398.84h.49v-2.21c0-.67.28-1.46,1.18-1.46.68,0,.95.48.95,1.23v2.44h.49v-2.56c0-.88-.37-1.53-1.36-1.53a1.26,1.26,0,0,0-1.29.8h0v-.71h-.48a7.47,7.47,0,0,1,0,.94v3.06Z" class="cls-4" transform="translate(-316.53 -370.27)"/><path d="M401.68,393h-.5v2.55h0a1.35,1.35,0,0,0-1.25-.76c-1.17,0-1.64.87-1.64,2.08s.55,2.1,1.64,2.1a1.29,1.29,0,0,0,1.25-.73h0v.64h.5V393Zm-2.86,3.87c0-.77.24-1.66,1.18-1.66s1.18.94,1.18,1.66-.3,1.67-1.18,1.67-1.18-.89-1.18-1.67Z" class="cls-5" transform="translate(-316.53 -370.27)"/><path d="M402.87,398.84h.49v-2c0-.72.21-1.6,1-1.6a1.36,1.36,0,0,1,.36.05v-.52a1.25,1.25,0,0,0-.35,0,1.17,1.17,0,0,0-1,.86h0v-.77h-.49a7.43,7.43,0,0,1,0,.89v3.11Z" class="cls-4" transform="translate(-316.53 -370.27)"/><path d="M407.77,398.84h.49a5.63,5.63,0,0,1,0-.84v-1.76c0-1.05-.42-1.49-1.4-1.49a3.13,3.13,0,0,0-1.18.27v.48a2.09,2.09,0,0,1,1.18-.33c.66,0,.9.34.9,1v.21h-.09c-1,0-2.46.06-2.46,1.4,0,.36.18,1.13,1.32,1.13a1.41,1.41,0,0,0,1.27-.74h0v.65Zm0-1.78c0,.43,0,1.44-1.18,1.44-.45,0-.83-.19-.83-.72,0-.87,1-1,1.87-1h.14v.24Z" class="cls-5" transform="translate(-316.53 -370.27)"/><path d="M411.58,398.84h1.09c1.14,0,2.11-.38,2.11-1.56a1.29,1.29,0,0,0-1.16-1.31h0a1.13,1.13,0,0,0,1-1.25c0-1-.83-1.35-1.73-1.35h-1.3v5.48Zm.54-2.62h.48c.8,0,1.64.11,1.64,1.08s-.83,1.06-1.55,1.06h-.57v-2.14Zm0-2.39h.74c.46,0,1.19.11,1.19.91s-.76,1-1.33,1h-.6v-1.92Z" class="cls-5" transform="translate(-316.53 -370.27)"/><path d="M418.23,398.84h.48a5.63,5.63,0,0,1,0-.84v-1.76c0-1.05-.41-1.49-1.4-1.49a3.18,3.18,0,0,0-1.18.27v.48a2.11,2.11,0,0,1,1.18-.33c.67,0,.91.34.91,1v.21h-.09c-1,0-2.46.06-2.46,1.4,0,.36.17,1.13,1.31,1.13a1.4,1.4,0,0,0,1.27-.74h0v.65Zm-.05-1.78c0,.43,0,1.44-1.18,1.44-.46,0-.83-.19-.83-.72,0-.87,1-1,1.87-1h.14v.24Z" class="cls-5" transform="translate(-316.53 -370.27)"/><path d="M419.85,398.84h.49v-2.21c0-.67.29-1.46,1.19-1.46.68,0,.94.48.94,1.23v2.44h.5v-2.56c0-.88-.38-1.53-1.37-1.53a1.27,1.27,0,0,0-1.29.8h0v-.71h-.48c0,.32,0,.63,0,.94v3.06Z" class="cls-4" transform="translate(-316.53 -370.27)"/><polygon points="107.67 28.57 108.17 28.57 108.17 26.51 110.14 28.57 110.82 28.57 108.64 26.34 110.59 24.57 109.95 24.57 108.17 26.2 108.17 22.69 107.67 22.69 107.67 28.57 107.67 28.57" class="cls-4"/><path d="M369.19,391c3,0,5.21-1.72,5.21-4.67s-2.25-4.69-5.21-4.69-5.2,1.72-5.2,4.69,2.25,4.67,5.2,4.67Zm0-2.17c-1.42,0-2-1.18-2-2.5s.59-2.53,2-2.53,2,1.19,2,2.53-.58,2.5-2,2.5Z" class="cls-5" transform="translate(-316.53 -370.27)"/><path d="M374.11,384h1.77v3.64c0,2.13.67,3.35,3.43,3.35a14.44,14.44,0,0,0,1.94-.17l-.1-2a5.06,5.06,0,0,1-.94.13c-1,0-1.24-.56-1.24-1.63V384h2.16v-2.16H379v-3.1l-3,1.09v2h-1.82V384Z" class="cls-4" transform="translate(-316.53 -370.27)"/><polygon points="75.41 20.51 78.5 20.51 78.5 16.08 78.54 16.08 81.01 20.51 84.75 20.51 81.39 15.67 84.5 11.56 81.11 11.56 78.54 15.32 78.5 15.32 78.5 8.48 75.41 9.55 75.41 20.51 75.41 20.51" class="cls-4"/><polygon points="39.23 20.51 42.32 20.51 42.32 16.08 42.35 16.08 44.83 20.51 48.57 20.51 45.2 15.67 48.31 11.56 44.93 11.56 42.35 15.32 42.32 15.32 42.32 8.48 39.23 9.5 39.23 20.51 39.23 20.51" class="cls-4"/><path d="M390.85,390.82a10.93,10.93,0,0,1-.17-2.13v-3.37c0-2.76-2-3.76-4.31-3.76a9.44,9.44,0,0,0-3.62.64l.06,2.12a5.93,5.93,0,0,1,2.88-.67c1.13,0,2.05.32,2.07,1.56a9.17,9.17,0,0,0-1.46-.12c-1.67,0-4.68.33-4.68,3.09,0,2,1.6,2.85,3.39,2.85a3.1,3.1,0,0,0,2.87-1.63h0c0,.47.06.93.07,1.42ZM384.54,388c0-.87.84-1.2,1.9-1.2.47,0,.92,0,1.32.05a2,2,0,0,1-1.93,2.14c-.73,0-1.29-.37-1.29-1Z" class="cls-5" transform="translate(-316.53 -370.27)"/></g></svg>