<svg xmlns="http://www.w3.org/2000/svg" id="Sponsors" viewBox="0 0 97.92 38.39"><defs><style>.cls-1{fill:#f27620}.cls-2{fill:#221f1f}</style></defs><g id="KTM"><path id="_Path_" d="M463.07,592.93H561V554.54H463.07Z" class="cls-1" data-name="&lt;Path&gt;" transform="translate(-463.07 -554.54)"/><path id="_Path_2" d="M467.52,587.59H480l3.13-7.64,5.75,7.64h26.8l8.28-7.72-1.38,7.72H533L541.7,580l-1.18,7.64h11.32l4.7-21.31H545.16l-9.22,8.12,1.78-8.12H526.81l-11.9,11.93,5-14.61h18.2l.84-3.72H491.19l-1.4,3.72h17.55L500,582.35l-5.84-7.66,10.08-8.41h-8.43l-10.34,8.27,3.48-8.27H476.57l-9.05,21.31" class="cls-2" data-name="&lt;Path&gt;" transform="translate(-463.07 -554.54)"/></g></svg>