<svg xmlns="http://www.w3.org/2000/svg" id="Sponsors" viewBox="0 0 89.21 44.19"><defs><style>.cls-1{fill:#1d4e9e}.cls-2{fill:#fbc707}.cls-3{fill:#fff}</style></defs><g id="LIC"><path d="M331.36,172.35a1.31,1.31,0,0,0-1.33,1.28V204a1.31,1.31,0,0,0,1.33,1.28h33.29V172.35H331.36" class="cls-1" transform="translate(-330.03 -172.35)"/><path d="M417.9,172.35H365.83v32.94H417.9a1.32,1.32,0,0,0,1.34-1.28V173.63a1.31,1.31,0,0,0-1.34-1.28" class="cls-2" transform="translate(-330.03 -172.35)"/><path d="M349.18,199.23v0h0" class="cls-3" transform="translate(-330.03 -172.35)"/><path d="M371.74,176.29H376v21.39h9v3.67H371.74V176.29m18,25.06H394V176.29h-4.32ZM409,192.49h4.29a12.33,12.33,0,0,1-1.66,6.88c-1.12,1.68-2.42,2.52-5.13,2.52-3.2,0-4.73-.8-6-2.39s-1.85-4.24-1.85-7.92v-5.31c0-4,.64-6.69,1.94-8.22s2.67-2.3,5.49-2.3c2.66,0,4.17.68,5.35,2s1.77,3.47,1.77,6.33h-4.41a9,9,0,0,0-.49-3.44,1.84,1.84,0,0,0-1.86-1.12c-2.3,0-3.44,1.73-3.44,5.21v8.13a6.84,6.84,0,0,0,.88,4,3,3,0,0,0,2.59,1.19,2,2,0,0,0,1.9-1.25,11.06,11.06,0,0,0,.61-4.34m-79,20.93h.62V216H332v.53H330v-3.06m2.5,3.06h.63v-3.06h-.63Zm1.43-3.06h2v.52h-1.32v.81h.76v.53h-.76v1.2H334v-3.06m2.48,0h2.14v.52h-1.51v.69H338v.45h-.92V216h1.51v.53h-2.14v-3.06m4.09,3.06h.63v-3.06h-.63Zm1.42-3.06h.67l1.29,2.05v-2.05h.63v3.06h-.63l-1.34-2.14v2.14H342v-3.06m3.72,2.2a1.07,1.07,0,0,0,.32.32.69.69,0,0,0,.36.09.6.6,0,0,0,.39-.11.38.38,0,0,0,.14-.28.34.34,0,0,0-.11-.25,1.26,1.26,0,0,0-.51-.21,2,2,0,0,1-.76-.33.75.75,0,0,1-.28-.6.81.81,0,0,1,.28-.64,1.13,1.13,0,0,1,.78-.25,1.36,1.36,0,0,1,.51.09,1.28,1.28,0,0,1,.37.23,1.11,1.11,0,0,1,.2.26l-.52.2a1,1,0,0,0-.28-.26.52.52,0,0,0-.3-.08.48.48,0,0,0-.34.11.34.34,0,0,0-.12.27.27.27,0,0,0,.1.22,1.53,1.53,0,0,0,.51.19,2.13,2.13,0,0,1,.62.23.81.81,0,0,1,.32.34.91.91,0,0,1,.11.42.95.95,0,0,1-.54.83,1.48,1.48,0,0,1-.61.12,1.42,1.42,0,0,1-.57-.1,1.18,1.18,0,0,1-.41-.29,1.8,1.8,0,0,1-.22-.31l.56-.21m2.39-2.2h.63v1.86a.72.72,0,0,0,.17.52.6.6,0,0,0,.46.18.88.88,0,0,0,.33-.07.51.51,0,0,0,.23-.23.79.79,0,0,0,.08-.4v-1.86h.64v2a1.14,1.14,0,0,1-.32.86,1.3,1.3,0,0,1-.93.3,2.09,2.09,0,0,1-.67-.1,1.07,1.07,0,0,1-.27-.16,1,1,0,0,1-.25-.33,1.39,1.39,0,0,1-.1-.55v-2m3.27,0h.86a3,3,0,0,1,1,.1.81.81,0,0,1,.42.33.93.93,0,0,1,.14.53.73.73,0,0,1-.13.45,1.05,1.05,0,0,1-.46.31l.57,1.34h-.62l-.53-1.23H352v1.23h-.63v-3.06Zm.63.53v.83h.5a.73.73,0,0,0,.47-.15.33.33,0,0,0,.13-.28.37.37,0,0,0-.14-.29.8.8,0,0,0-.46-.11H352m3.07-.53h.68l1,3.06h-.62l-.24-.72h-1l-.24.72H354l1-3.06Zm.34.83-.36,1.07h.72l-.36-1.07m1.82-.83h.67l1.29,2.05v-2.05h.63v3.06h-.63l-1.34-2.14v2.14h-.62v-3.06m5.74,2.18a1.21,1.21,0,0,1-.17.41,1.18,1.18,0,0,1-.42.38,1.22,1.22,0,0,1-.61.14,1.51,1.51,0,0,1-.7-.17,1.19,1.19,0,0,1-.51-.53,1.78,1.78,0,0,1-.17-.83,2.23,2.23,0,0,1,.17-.88,1.25,1.25,0,0,1,.52-.57,1.45,1.45,0,0,1,.71-.19,1.24,1.24,0,0,1,.53.12,1.09,1.09,0,0,1,.44.32,1.15,1.15,0,0,1,.19.4l-.58.15a.73.73,0,0,0-.23-.37.62.62,0,0,0-.38-.12.6.6,0,0,0-.53.3,1.62,1.62,0,0,0-.18.81,1.77,1.77,0,0,0,.08.55.73.73,0,0,0,.24.35.48.48,0,0,0,.32.11.67.67,0,0,0,.47-.18.73.73,0,0,0,.23-.36l.58.16m.53-2.18h2.14v.52h-1.51v.69H365v.45h-.92V216h1.51v.53h-2.14v-3.06m6.45,2.18a1.21,1.21,0,0,1-.17.41,1.13,1.13,0,0,1-.43.38,1.16,1.16,0,0,1-.6.14,1.51,1.51,0,0,1-.7-.17,1.14,1.14,0,0,1-.51-.53,1.78,1.78,0,0,1-.18-.83,2.07,2.07,0,0,1,.18-.88,1.25,1.25,0,0,1,.52-.57,1.44,1.44,0,0,1,.7-.19,1.25,1.25,0,0,1,.54.12,1,1,0,0,1,.62.72l-.58.15a.66.66,0,0,0-.22-.37.62.62,0,0,0-.38-.12.6.6,0,0,0-.53.3,1.62,1.62,0,0,0-.19.81,1.51,1.51,0,0,0,.09.55.73.73,0,0,0,.24.35.5.5,0,0,0,.32.11.69.69,0,0,0,.47-.18.73.73,0,0,0,.23-.36l.58.16m1.69-2.24a1.69,1.69,0,0,1,.73.14,1.36,1.36,0,0,1,.55.54,2.08,2.08,0,0,1,.18.93,1.62,1.62,0,0,1-.38,1.17,1.5,1.5,0,0,1-2,0,1.63,1.63,0,0,1-.39-1.18,2.06,2.06,0,0,1,.16-.84,1.17,1.17,0,0,1,.26-.38,1.22,1.22,0,0,1,.41-.27,1.29,1.29,0,0,1,.51-.1Zm.06.53a.68.68,0,0,0-.53.24,1.28,1.28,0,0,0-.21.82,1.25,1.25,0,0,0,.21.81.72.72,0,0,0,.55.24.68.68,0,0,0,.53-.24,1.62,1.62,0,0,0,0-1.68.68.68,0,0,0-.5-.19m2-.47h.86a3,3,0,0,1,1,.1.83.83,0,0,1,.41.33.94.94,0,0,1,.15.53.73.73,0,0,1-.14.45,1,1,0,0,1-.46.31l.58,1.34h-.63l-.53-1.23h-.58v1.23h-.62v-3.06Zm.62.53v.83h.51a.75.75,0,0,0,.47-.15.35.35,0,0,0,.12-.28.34.34,0,0,0-.14-.29.76.76,0,0,0-.45-.11h-.51m2.34-.53h1a3.2,3.2,0,0,1,.81.08.92.92,0,0,1,.43.29.81.81,0,0,1,.16.52,1,1,0,0,1-.09.43.71.71,0,0,1-.23.26,1.35,1.35,0,0,1-.29.18,1.85,1.85,0,0,1-.61.1h-.56v1.2h-.63v-3.06Zm.64.52v.84h.51a.71.71,0,0,0,.48-.16.37.37,0,0,0,0-.57.74.74,0,0,0-.45-.11h-.53m3.51-.58a1.62,1.62,0,0,1,.72.14,1.25,1.25,0,0,1,.55.54,2,2,0,0,1,.19.93,1.62,1.62,0,0,1-.38,1.17,1.5,1.5,0,0,1-2,0,1.63,1.63,0,0,1-.39-1.18,2.06,2.06,0,0,1,.16-.84,1,1,0,0,1,.26-.38,1.13,1.13,0,0,1,.41-.27A1.25,1.25,0,0,1,380.76,213.36Zm.06.53a.68.68,0,0,0-.53.24,1.28,1.28,0,0,0-.21.82,1.25,1.25,0,0,0,.21.81.72.72,0,0,0,.55.24.68.68,0,0,0,.53-.24,1.62,1.62,0,0,0-.05-1.68.68.68,0,0,0-.5-.19m2-.47h.87a3,3,0,0,1,1,.1.83.83,0,0,1,.41.33.94.94,0,0,1,.15.53.73.73,0,0,1-.14.45,1.05,1.05,0,0,1-.46.31l.58,1.34h-.63l-.53-1.23h-.58v1.23h-.62v-3.06Zm.63.53v.83h.51a.75.75,0,0,0,.47-.15.35.35,0,0,0,.12-.28.34.34,0,0,0-.14-.29.76.76,0,0,0-.45-.11h-.51m3.07-.53h.68l1,3.06h-.62l-.24-.72h-1l-.24.72h-.61Zm.34.83-.36,1.07h.72l-.36-1.07m1.23-.83h2.42v.52h-.9v2.54H389v-2.54h-.9v-.52m3,3.06h.63v-3.06h-.63Zm2.59-3.12a1.62,1.62,0,0,1,.72.14,1.25,1.25,0,0,1,.55.54,2,2,0,0,1,.19.93,1.66,1.66,0,0,1-.38,1.17,1.5,1.5,0,0,1-2,0,1.63,1.63,0,0,1-.39-1.18,2.06,2.06,0,0,1,.16-.84,1.22,1.22,0,0,1,.26-.38,1,1,0,0,1,.41-.27,1.25,1.25,0,0,1,.51-.1Zm.06.53a.68.68,0,0,0-.53.24,1.28,1.28,0,0,0-.21.82,1.25,1.25,0,0,0,.21.81.71.71,0,0,0,.55.24.68.68,0,0,0,.53-.24,1.28,1.28,0,0,0,.21-.8,1.22,1.22,0,0,0-.26-.88.68.68,0,0,0-.5-.19m2-.47h.67l1.3,2.05v-2.05h.62v3.06h-.63l-1.33-2.14v2.14h-.63v-3.06m5.83-.06a1.69,1.69,0,0,1,.73.14,1.36,1.36,0,0,1,.55.54,2.07,2.07,0,0,1,.19.93,1.66,1.66,0,0,1-.38,1.17,1.36,1.36,0,0,1-1,.39,1.37,1.37,0,0,1-1-.4,1.63,1.63,0,0,1-.39-1.18,2.24,2.24,0,0,1,.16-.84,1.23,1.23,0,0,1,.67-.65A1.32,1.32,0,0,1,401.5,213.36Zm.07.53a.68.68,0,0,0-.54.24,1.28,1.28,0,0,0-.21.82,1.19,1.19,0,0,0,.22.81.68.68,0,0,0,.54.24.66.66,0,0,0,.53-.24,1.65,1.65,0,0,0,0-1.68.69.69,0,0,0-.5-.19m2-.47h2v.52h-1.32v.81h.76v.53h-.76v1.2h-.64v-3.06m3.87,3.06H408v-3.06h-.63v3.06Zm1.42-3.06h.67l1.29,2.05v-2.05h.63v3.06h-.63l-1.34-2.14v2.14h-.62v-3.06m3.33,0h1.16a1.41,1.41,0,0,1,.74.19,1.19,1.19,0,0,1,.49.55,1.63,1.63,0,0,1,.17.76,1.78,1.78,0,0,1-.14.74,1.49,1.49,0,0,1-.38.52,1.15,1.15,0,0,1-.43.21,1.67,1.67,0,0,1-.55.09h-1.06v-3.06Zm.64.52v2h.43a.71.71,0,0,0,.41-.12.7.7,0,0,0,.28-.31,1.15,1.15,0,0,0,.14-.6,1,1,0,0,0-.26-.71.93.93,0,0,0-.69-.26h-.31m2.57,2.54H416v-3.06h-.63Zm2.15-3.06h.68l1,3.06h-.61l-.24-.72h-1l-.24.72h-.62l1-3.06Zm.34.83-.36,1.07h.72l-.36-1.07" class="cls-1" transform="translate(-330.03 -172.35)"/><path d="M348.7,187.85a3.23,3.23,0,0,0,1.71-2.19c0-.43-.71-.8-1.71-1v.17c.8.15,1.36.41,1.36.63s-.48.39-1.16.48h0a.34.34,0,0,0-.17,0v1.85Zm-1.19-3.25c.08-.24.18-.51.28-.82a2.89,2.89,0,0,0-.25-2.1c-.15-.29-.51-1.13-.51-1.13a8.5,8.5,0,0,1-1,2.5,1.54,1.54,0,0,0,.2,1l.33.53c-.24,0-.49.07-.73.12v.15a6.36,6.36,0,0,1,.83-.12s.08.07.1.12a1.15,1.15,0,0,1,.28.7c0,.43-.76.43-1.21.38v1.76a2.84,2.84,0,0,0,1.54.46,2.78,2.78,0,0,0,1.31-.34V186c-.48,0-1.14,0-1.31-.44a1.38,1.38,0,0,1,.07-.82,6.52,6.52,0,0,1,1.24.12v-.17a10.5,10.5,0,0,0-1.19-.09Zm-1.66.14c-.91.17-1.51.53-1.51.92a3.13,3.13,0,0,0,1.51,2.07V186c-.73-.09-1.21-.29-1.21-.48s.48-.46,1.21-.6v-.15" class="cls-3" transform="translate(-330.03 -172.35)"/><path d="M340.64,181.12a6.42,6.42,0,0,0,.15-.69c0-.15-.1-.58.38-.32a.58.58,0,0,1,.25.85c-.1.21-.35,1-.48,1.23l-.53,1.4-.07.16a4,4,0,0,0-.16,1.55l.11.91s0,.08.1,0,.1,0,0-.5c0,0,0-.94,0-1.14a5.89,5.89,0,0,1,.17-.89,4.29,4.29,0,0,0,.18-.41c.1-.29.43-1.11.43-1.11a9.7,9.7,0,0,0,.5-1.13,3,3,0,0,0,.18-1.14s0-.16,0-.24a.69.69,0,0,1,.56.1.75.75,0,0,1,.32.63,5.29,5.29,0,0,1-.37,1.32,3.63,3.63,0,0,1-.28.51,10.42,10.42,0,0,0-.53,1.16.75.75,0,0,1-.1.17,6.37,6.37,0,0,0-.25.87,6.79,6.79,0,0,0-.18,1,5,5,0,0,0,.15,1.16s0,.12.1.12.08-.26.08-.29,0-.29-.05-.41,0-.91,0-.91a4.31,4.31,0,0,1,.25-1c.07-.14.13-.38.23-.6s.3-.65.3-.65l.58-1.23a5.65,5.65,0,0,0,.32-1.13,2,2,0,0,1,.08-.58s-.05-.27.3-.12a.91.91,0,0,1,.58.69s.05.27-.05.29-.18,0-.25,0a.2.2,0,0,0-.08.17c0,.1-.1.41-.12.48a1.55,1.55,0,0,1-.08.49c-.1.26-.4,1.13-.43,1.18l-.22.63a.4.4,0,0,1-.08.16s-.28,1-.3,1.19a4.52,4.52,0,0,0-.08.84,3.68,3.68,0,0,0,.13.75.11.11,0,0,0,.13,0c.07,0-.08-.32,0-.75a10.14,10.14,0,0,1,.18-1.18c0-.17.32-1,.32-1s.31-.87.38-1,.3-.92.33-1.06,0-.54.43-.58c.43.12.4.84.35,1.11a4.9,4.9,0,0,1-.35,1.32c-.25.56-.23.56-.23.58a5.46,5.46,0,0,1,.05.82,2.5,2.5,0,0,1-.1.89c-.15.46-.05.51,0,.58a6.23,6.23,0,0,1,.37.63c.05.19.13.58.15.65a5.49,5.49,0,0,1,.46.56c.1.19.43.7.45.74s1.06,1.33,1.34,1.81a2.78,2.78,0,0,1,.5,1.35,2.16,2.16,0,0,1-.38,1,1.54,1.54,0,0,1-.38.34c-.07.05-.25.12-.3.24l-.2.87H342l.85-1.45s.28-.17-.32-.89a23.12,23.12,0,0,1-1.64-2.46s-.93-1.54-1.11-1.86a11.38,11.38,0,0,1-.23-3.11,3.59,3.59,0,0,1,.33-1.74c.43-1,.81-1.93.81-1.93m13.45,0-.16-.69c0-.15.11-.58-.37-.32a.62.62,0,0,0-.26.85c.11.21.36,1,.51,1.23l.53,1.4a.76.76,0,0,1,.05.16,4.32,4.32,0,0,1,.15,1.55l-.1.91s0,.08-.1,0-.1,0,0-.5c0,0,0-.94,0-1.14a4.11,4.11,0,0,0-.18-.89,4.29,4.29,0,0,1-.18-.41c-.07-.29-.42-1.11-.42-1.11A9.45,9.45,0,0,1,353,181a2.9,2.9,0,0,1-.17-1.14s.07-.16,0-.24a.63.63,0,0,0-.53.1.76.76,0,0,0-.35.63,7.2,7.2,0,0,0,.38,1.32,3.31,3.31,0,0,0,.27.51c.08.1.53,1.11.56,1.16a.61.61,0,0,0,.07.17,7.77,7.77,0,0,1,.26.87,4.31,4.31,0,0,1,.17,1,4.48,4.48,0,0,1-.15,1.16s0,.12-.1.12-.08-.26-.08-.29a3.09,3.09,0,0,1,.06-.41c0-.09,0-.91,0-.91a4.57,4.57,0,0,0-.26-1c-.05-.14-.12-.38-.22-.6a5.11,5.11,0,0,0-.31-.65l-.55-1.23a5.29,5.29,0,0,1-.35-1.13,2,2,0,0,0-.08-.58s.08-.27-.27-.12a.92.92,0,0,0-.61.69s0,.27.08.29.17,0,.22,0a.25.25,0,0,1,.1.17,3.12,3.12,0,0,0,.1.48,4,4,0,0,0,.08.49c.1.26.4,1.13.43,1.18s.2.58.23.63l.07.16a8.84,8.84,0,0,1,.3,1.19,7.16,7.16,0,0,1,.1.84,5.87,5.87,0,0,1-.12.75.13.13,0,0,1-.13,0c-.1,0,.05-.32,0-.75a6.33,6.33,0,0,0-.17-1.18c0-.17-.31-1-.33-1a8.94,8.94,0,0,0-.38-1c-.05-.15-.28-.92-.33-1.06s0-.54-.43-.58c-.42.12-.4.84-.35,1.11a4.9,4.9,0,0,0,.35,1.32c.28.56.23.56.23.58a7.25,7.25,0,0,0-.05.82,2.76,2.76,0,0,0,.1.89c.15.46.05.51,0,.58s-.31.44-.38.63a5.41,5.41,0,0,1-.15.65,4.56,4.56,0,0,0-.45.56c-.11.19-.43.7-.46.74s-1.06,1.33-1.33,1.81a2.55,2.55,0,0,0-.48,1.35,1.65,1.65,0,0,0,.38,1,1.62,1.62,0,0,0,.35.34c.1.05.25.12.3.24l.2.87h4l-.85-1.45s-.31-.17.3-.89a24.21,24.21,0,0,0,1.63-2.46s1-1.54,1.14-1.86a11.44,11.44,0,0,0,.2-3.11,3.59,3.59,0,0,0-.33-1.74c-.26-.64-.53-1.28-.8-1.93" class="cls-3" transform="translate(-330.03 -172.35)"/><path d="M347.39,202.45c.37,0,.73,0,.73,0a9.78,9.78,0,0,0,7.05-3.18,9.17,9.17,0,0,0,2.74-5.84V184a9.06,9.06,0,0,0-2.79-5.64,10,10,0,0,0-7.18-3.21h-.55v.29h.55c4.16,0,7.3,3,8.76,5.72a5.57,5.57,0,0,1,.36,2.84v9.36a6.41,6.41,0,0,1-.48,3.28,10.83,10.83,0,0,1-1.64,2.37,9.53,9.53,0,0,1-6.82,3.06s-.36,0-.73,0v.31Zm0-27.26h-.66a10,10,0,0,0-7.17,3.21,9,9,0,0,0-2.8,5.74v9.33a9.16,9.16,0,0,0,2.74,5.77,9.79,9.79,0,0,0,7.06,3.18s.4,0,.78,0h.05v-.31c-.41,0-.83,0-.83,0a9.55,9.55,0,0,1-6.83-3.06,11.33,11.33,0,0,1-1.69-2.32,8.7,8.7,0,0,1-.35-3.33V184a5.91,5.91,0,0,1,.61-3.52,10.25,10.25,0,0,1,8.43-5h.66v-.29" class="cls-3" transform="translate(-330.03 -172.35)"/><path d="M346.05,196.59a.16.16,0,0,1-.17.16.16.16,0,1,1,0-.31.16.16,0,0,1,.17.15m.18.46s-.43,0-.81-.08v.29c.08,0,.15,0,.2,0l0,.53h-.18v.43l.13,0,0,.6.38.05.15-1.59h.15l0-.29Zm-.81-.08-.22,0-.58-.12-.26-.41-.42-.1.25.41-.15,0L344,197a.27.27,0,0,0,.13,0l0,.24-.35-.07a.48.48,0,0,0,.2-.37.44.44,0,0,0-.46-.43v.34c.08,0,.1,0,.1.09a.11.11,0,0,1,0,.1h-.05v.53l.53.15-.22,1.06.4.07.35-1.62a1.72,1.72,0,0,0,.38.08l-.08.57a.21.21,0,0,0-.25.17c0,.2.2.39.3.49s.31-.13.31-.13v0l.27,0v-.43l-.22,0,.1-.55a.25.25,0,0,0,.12,0Zm-2,1.57v-.72a.21.21,0,0,1,.1,0l.18.22a.82.82,0,0,1-.2.17,1.46,1.46,0,0,0,0,.36Zm0-2.17a.45.45,0,0,0-.48.43.35.35,0,0,0,.11.27.4.4,0,0,0-.21.1c-.1.09-.35.31-.27.6a.76.76,0,0,0,.48.51h.05s0,.19,0,.19l.3.07v-.72a.65.65,0,0,1-.15.05.34.34,0,0,1-.28-.1c-.12-.19.16-.46.38-.36l.05,0v-.53a.1.1,0,1,1,0-.19v-.34m-.6.34.1-.27a14.47,14.47,0,0,1-1.51-.63l-.13-.53-.35-.17.1.54-1.11-.63v.72a.51.51,0,0,0,.13-.31,2.79,2.79,0,0,1,.33.19l-.36.56a.18.18,0,0,1-.1.07v.94l.83-1.38.23.12-.81,1.48.36.17.8-1.48.31.15c.15.48-.08.63-.08.63s-.25-.15-.25-.15a.27.27,0,0,0-.23.34c.05.29.33.48.66.19a1.21,1.21,0,0,0,.32-.84l.25.09-.6,1.55.38.14.58-1.54A.51.51,0,0,1,342.83,196.71Zm-2.9-1.69a1.59,1.59,0,0,0-.25-.17l-.2.22a1.08,1.08,0,0,1,.23.14s.05.39-.38.31h-.15a.89.89,0,0,0,0,.9.8.8,0,0,0,.63.19l-.27.43.35.2,0-.05v-.94a.44.44,0,0,1-.32-.05c-.21-.17-.08-.31-.08-.31a.45.45,0,0,0,.4-.15V195m15.82,1.35.27-.24-1-1.33.2-.14-.15-.15a3.19,3.19,0,0,1-.35.24v.36l.33.39-.28.22-.05-.05v.65h.15c.2,0,.15-.26.15-.26l.3-.22.46.53Zm-1.06-1.62a15.06,15.06,0,0,1-2.62,1.4v.32l.28.55a.35.35,0,0,1-.25.41l0,0v.39a.62.62,0,0,0,.55-.26l.23.41.35-.15-.73-1.57c.3-.12.58-.26.83-.38l.05.07a2.41,2.41,0,0,1-.27.19.38.38,0,0,0-.2.41c0,.22.35.36.35.36a.85.85,0,0,0,.07.49c.23.41.89.24.89.24l-.08-.29-.15,0a.31.31,0,0,1-.33-.34c0-.07.1-.33.35-.31s.15.34.15.34l.26.12a.76.76,0,0,0,.12-.17c.05-.58-.25-.63-.5-.68a.57.57,0,0,0-.48.15s-.13.07-.15,0,0-.09,0-.09l.53-.36-.25-.42a1.35,1.35,0,0,0,.3-.16,3.43,3.43,0,0,1,.36.48s-.08.07,0,.19.22.17.4.17v-.65l-.33-.44c.1,0,.2-.12.28-.16l.05,0v-.36Zm-2.62,1.4-.75.29a16.47,16.47,0,0,1-3.93.63v.24h.17v.17a.32.32,0,0,1-.12,0h-.05v.36h.05a.34.34,0,0,1,.17,0l0,.41a.65.65,0,0,1-.2,0h-.05v.36h.05a1.23,1.23,0,0,0,.25-.05l0,.31.41,0-.13-1.66c.3,0,.63,0,1-.1l0,.14-.37,0a.42.42,0,0,0-.33.32c-.08.19.2.45.2.45a.68.68,0,0,0-.1.49c.05.45.73.53.73.53l.05-.29-.18,0c-.3-.15-.2-.36-.17-.41s.22-.29.45-.19,0,.36,0,.36l.2.21a.61.61,0,0,0,.18-.12c.28-.53,0-.67-.23-.82a.6.6,0,0,0-.48,0s-.15,0-.17,0,.07-.1.07-.1l.61-.12-.08-.48a1.84,1.84,0,0,0,.25,0l.46,1.62.4-.07-.43-1.62.35-.07.23.62-.15.1s-.15.17.08.29a1.31,1.31,0,0,0,.42.19s.18,0,.18-.26l.25-.1-.25-.36-.15,0-.2-.63c.15,0,.3-.07.43-.12s.22.1.22.24a.23.23,0,0,1-.22.24l-.11.12a1.2,1.2,0,0,0,.63.49l.28,0v-.39a.27.27,0,0,1-.3-.17A.44.44,0,0,0,352,197a1.09,1.09,0,0,0-.13-.41.93.93,0,0,1,.25-.1v-.31Zm-4.68.92-.53,0,0,.24.51,0Zm0,.43a.68.68,0,0,0-.68.61.67.67,0,0,0,.68.6v-.36c-.15,0-.28-.12-.28-.24s.13-.22.28-.24v-.37m8.53-1.13.38-.22s.08-.05.13,0a.06.06,0,0,1,0,.1s-.28.26-.35.26-.1,0-.13,0-.05-.09,0-.14" class="cls-3" transform="translate(-330.03 -172.35)"/><path d="M378,208.16h-11l-.34-.39-.3-.31a3,3,0,0,0-.84-.57,1.91,1.91,0,0,0-.81-.19,1.25,1.25,0,0,0-1.23.63.68.68,0,0,0-.11.39l0,.17.08.16.08.11h-4.78v.49h5.24v.67h-2.65l.25.19.13.09.27.27a1.5,1.5,0,0,1,.28.38.71.71,0,0,1,.08.31.38.38,0,0,1-.12.29.61.61,0,0,1-.42.14,1.43,1.43,0,0,1-1-.45,2.91,2.91,0,0,1-.62-.82l-.18-.39v-.26l-.67.33.06.24.2.36a3.16,3.16,0,0,0,.78.94,2.21,2.21,0,0,0,1.38.51,2.23,2.23,0,0,0,.54-.06,1,1,0,0,0,.68-.48.78.78,0,0,0,.09-.37l0-.2-.11-.26-.19-.3h1.26v2.12h.75v-3.25h1.66v3.25h.75v-3.25h4.06v1.65a1,1,0,0,1-.44.24,1,1,0,0,1-.29.1l-.2,0h-.09a1.72,1.72,0,0,1-.39,0,.6.6,0,0,1-.47-.59.5.5,0,0,1,.05-.21.59.59,0,0,1,.37-.31,1.16,1.16,0,0,1,.35,0l.27,0,.26.06.08,0,.31.12-.19-.63h-.06l-.17,0-.15,0-.22,0h-.19a1.59,1.59,0,0,0-1,.32,1,1,0,0,0-.45.78.71.71,0,0,0,.13.43,1.4,1.4,0,0,0,.4.34,2.23,2.23,0,0,0,1.13.28l.32,0,.34-.08.25-.11.09,0v1H372v-3.25h4.52v.73h-2.85l-.11,0c-.21.09-.25.21-.25.3h0a.45.45,0,0,0,.14.23,2.07,2.07,0,0,0,.35.32l.38.27a.62.62,0,0,0,.29.11l.14,0,.11,0,.06-.11,0-.11v-.5h1.71v2h.75v-3.25h.85v-.49Zm-12.38,0h-1.17l0,0-.12-.16-.11-.18,0-.14v-.1a.55.55,0,0,1,.15-.24.61.61,0,0,1,.44-.14,1.47,1.47,0,0,1,.8.36,4.51,4.51,0,0,1,.73.64h-.66m-10.88,0v.49H354v3.25h-.75v-1a2.69,2.69,0,0,1-1.15.26,2.73,2.73,0,0,1-1.41-.35,1.18,1.18,0,0,1-.65-1v-.13l.21.05.08,0,.11,0h.07a1.17,1.17,0,0,0,.59-.13.37.37,0,0,0,.2-.36.67.67,0,0,0-.22-.4l-.23-.2h-2.25v3.25h-.75v-3.25h-1.66v3.25h-.75v-2.28h-1.81a1.06,1.06,0,0,0-.31,0,.36.36,0,0,0-.27.18l0,.13a1.29,1.29,0,0,0,.4.86,2.37,2.37,0,0,0,.74.59l.15,0,.25.06-.54.37v0l0,0-.2-.07-.29-.19-.41-.31-.2-.18-.15-.18a1.56,1.56,0,0,1-.44-1,.8.8,0,0,1,.27-.59.73.73,0,0,1,.34-.18,1.14,1.14,0,0,1,.41-.07h2.15v-.48h-4.38v.8q0,.53-.78.72a1.27,1.27,0,0,1-.43.05h-.09l.51.49.28.24.54.39.35.23-.55.34h-.05a2.1,2.1,0,0,1-.61-.39,12.2,12.2,0,0,1-1-.89l-.33-.32-.29-.33-.22-.25-.29-.34.62-.3.47.54a.69.69,0,0,0,.51.14.88.88,0,0,0,.46-.09.4.4,0,0,0,.15-.26v-.76h-3.39v3.25h-.75v-3.25h-1.75v3.25h-.74v-1.72h-1.42v.54l0,.1-.14.08-.14,0a.65.65,0,0,1-.31-.11,2.25,2.25,0,0,1-.47-.28l-.4-.32a.64.64,0,0,1-.16-.23v0l.06-.11.12-.08.12,0,.09,0h.52v-.84s0-.08-.09-.13a.54.54,0,0,0-.27-.07l-.17,0-.16.06-.07.07,0,.09s0,0,0,.06l0,.09,0,0,.17.22h-.78l-.08-.11v0l-.05-.11v-.11a.54.54,0,0,1,.33-.56,1.72,1.72,0,0,1,.8-.19,1.11,1.11,0,0,1,1,.41.61.61,0,0,1,.08.3v.82h1.42v-1h-1v-.49H345l-.08-.11-.08-.16,0-.17a.66.66,0,0,1,.1-.39,1.27,1.27,0,0,1,1.24-.63,1.84,1.84,0,0,1,.8.19,3,3,0,0,1,.85.57l.3.31.34.39Zm-7.06,0a4.86,4.86,0,0,0-.74-.64,1.41,1.41,0,0,0-.8-.36.6.6,0,0,0-.43.14.61.61,0,0,0-.15.24v.1l0,.14.1.19.13.15,0,0h1.83Zm5.56.49H351.8l.06.09.18.28.06.24h0c0,.34-.23.61-.68.79l-.26.07-.21,0,0,.05,0,0a1.22,1.22,0,0,0,1,.45,1.73,1.73,0,0,0,.73-.15,1.35,1.35,0,0,0,.3-.16l.2-.18c0-.08,0-1.38,0-1.56m43.55-.49h-8.49l-.34-.39-.31-.31a3,3,0,0,0-.84-.57,1.85,1.85,0,0,0-.81-.19,1.25,1.25,0,0,0-1.23.63.59.59,0,0,0-.1.39l0,.17.08.16.08.11h-2.82v.49h3.29v1.59l-1.41-.64.14,0,.22,0h.22l.26,0a.29.29,0,0,1,.14.05l.23.18-.15-.65-.15,0h0l-.29,0h-.23a1.79,1.79,0,0,0-.58.07,1.75,1.75,0,0,0-.5.23.93.93,0,0,0-.48.76.84.84,0,0,0,.12.45,1.14,1.14,0,0,0,.41.36,1.92,1.92,0,0,0,1.12.27h.3l.32-.07.27-.09.09-.06v1h.75v-3.25h1.65v3.25h.74v-3.25h2.05v1h-.34l-.12,0-.06,0-.15.08,0,0v0l0,.12v0a.42.42,0,0,0,.13.23l.54.43a.9.9,0,0,0,.48.2l.16,0,.1-.05a.58.58,0,0,0,.08-.1v0h0v-.45h1.65v1.72h.75v-3.25h1.49v3.25h.75v-3.25h1v-.49Zm-9.95,0h-1.11l-.05,0-.12-.16-.1-.18,0-.14v-.1a.82.82,0,0,1,.15-.24.61.61,0,0,1,.44-.14,1.47,1.47,0,0,1,.8.36,4.51,4.51,0,0,1,.73.64Zm6.07.49v1h-1.65v-1Zm-9.42,1.27v0l1.42.67-.05,0-.25.09-.11,0h-.15a1.48,1.48,0,0,1-.35-.05.73.73,0,0,1-.31-.14c-.18-.11-.26-.22-.26-.37V210l0-.11m35.6-1.76H407.07l-.26-.17-.3-.2-.75-.42A6.74,6.74,0,0,0,405,207a4.91,4.91,0,0,0-1.8-.41,2.93,2.93,0,0,0-.67.08,1.78,1.78,0,0,0-.76.4.79.79,0,0,0-.27.57v.19l.07.2,0,.12h-.88v.48h.9v3.24h.75v-3.24H407v.73h-2.85l-.12,0c-.2.09-.24.21-.24.3h0a.56.56,0,0,0,.15.23,1.7,1.7,0,0,0,.34.32l.38.27a.7.7,0,0,0,.29.11l.15,0,.1,0,.07-.11v-.61H407v2h.74v-3.25h2.36v.9h-.72l-.11.07h0l0,.14a.51.51,0,0,0,.14.29,2.54,2.54,0,0,0,.78.57,1.09,1.09,0,0,0,.36.09l.18,0h0a.29.29,0,0,0,.13-.16v-1.88h1.41v3.25H413v-3.25h2.32v1H415l-.12,0-.06,0-.16.08,0,0v0l0,.11v0a.42.42,0,0,0,.13.23s.54.43.54.43a.87.87,0,0,0,.47.2l.17,0,.1-.05.07-.1,0,0h0v-.45h1.65v1.72h.74v-3.25h.77v-.49Zm-15.94,0v0h-.82v0l-.06-.12,0-.12v-.15a.65.65,0,0,1,.06-.26.81.81,0,0,1,.51-.35,1.31,1.31,0,0,1,.39,0,3.28,3.28,0,0,1,.65.08,5,5,0,0,1,.74.24l.62.28.24.11.35.21.22.13Zm14.53.49v1h-1.65v-1h1.65" class="cls-1" transform="translate(-330.03 -172.35)"/></g></svg>