<svg xmlns="http://www.w3.org/2000/svg" xmlns:xlink="http://www.w3.org/1999/xlink" id="Sponsors" viewBox="0 0 104.55 44.23"><defs><style>.cls-1{fill:#060000}.cls-2{fill:#c7c9cc}.cls-3{fill:#fff}.cls-4{fill:#4ab854}.cls-5{fill:url(#linear-gradient)}.cls-6{fill:url(#linear-gradient-2)}.cls-7{fill:url(#linear-gradient-3)}</style><linearGradient id="linear-gradient" x1="-3504.18" x2="-3504.04" y1="143.76" y2="143.76" gradientTransform="translate(207865.53 -7937.87) scale(59.26)" gradientUnits="userSpaceOnUse"><stop offset="0" stop-color="#f2eb26"/><stop offset="1" stop-color="#4ab854"/></linearGradient><linearGradient id="linear-gradient-2" x1="-3501.3" x2="-3501.16" y1="144.09" y2="144.09" gradientTransform="translate(195085.23 -7439.62) scale(55.66)" xlink:href="#linear-gradient"/><linearGradient id="linear-gradient-3" x1="-3511.09" x2="-3510.95" y1="143.51" y2="143.51" gradientTransform="translate(237538.67 -9120.72) scale(67.6)" xlink:href="#linear-gradient"/></defs><g id="Monster_Energy" data-name="Monster Energy"><rect width="104.55" height="44.23" class="cls-1"/><path d="M219.36,574.36c-.28.32-.56.66-.85,1.06s-.63.88-.94,1.36c-.2-.28-.4-.57-.6-.82l-.54-.71c-.17-.23-.31-.43-.48-.63s-.31-.4-.48-.6-.35-.4-.46-.54-.23-.25-.28-.31l-.12-.11a1.16,1.16,0,0,0-.2-.12.6.6,0,0,0-.45.06l-.8.43a.51.51,0,0,0-.26.28.42.42,0,0,0-.08.57c.06.08.17.11.23.26a.58.58,0,0,1,0,.14.47.47,0,0,1,.06.2c0,.08,0,.17.06.28s0,.12,0,.2v.94a3.83,3.83,0,0,1,0,.57c0,.2,0,.4,0,.57s0,.28,0,.4,0,.17,0,.22,0,.23,0,.35-.2.39-.26.62a.68.68,0,0,0,.2.77c.06.09.14.11.23.2a1.86,1.86,0,0,1,.28.43.41.41,0,0,0,.31.17.59.59,0,0,0,.46-.2.24.24,0,0,0,.08-.17.63.63,0,0,0,.2-.46v-3.56l2,2.79a.76.76,0,0,0,.29.26.57.57,0,0,0,.57-.09l0,0a2,2,0,0,0,.34-.12l.12,0a.49.49,0,0,0,.23-.11.92.92,0,0,0,.14-.14.11.11,0,0,0,0-.09.43.43,0,0,0,.14-.2.44.44,0,0,0-.17-.45,1.14,1.14,0,0,1-.14-.12.25.25,0,0,1,0-.25l0,0c.43-.6.83-1.2,1.17-1.65a13.27,13.27,0,0,1,.88-1.05c0,2.27,0,4.55,0,6.8a.47.47,0,0,0,.2.4.45.45,0,0,0,.6-.06c.06,0,.14-.17.23-.23a.64.64,0,0,1,.14-.08l.51-.32a.8.8,0,0,0,.29-.25.19.19,0,0,0,0-.12.67.67,0,0,0,.17-.68l0-.06s0,0,0-.08l-.09-.29c0-.05,0-.11,0-.17s0-.14,0-.23a6.43,6.43,0,0,1,0-.65l0-4.18a.44.44,0,0,0,.17-.15.21.21,0,0,0,.08-.17.43.43,0,0,0,.17-.28.45.45,0,0,0-.22-.4c-.06,0-.12-.09-.17-.11s-.12,0-.17-.06a2.66,2.66,0,0,1-.72-.46l-.11-.08a.71.71,0,0,0-.2-.12.66.66,0,0,0-.74.06.68.68,0,0,0-.17.23.45.45,0,0,0-.17.37A3.37,3.37,0,0,1,219.36,574.36Zm12.84,3.9h0a1.56,1.56,0,0,0,.2-.57v-.25c.08-.71.14-1.45.23-2.16a.94.94,0,0,1,.22-.49.48.48,0,0,0-.08-.68.5.5,0,0,0-.17-.12.54.54,0,0,1-.14-.11,1.68,1.68,0,0,1-.29-.2l-.25-.14-.09-.06a.87.87,0,0,0-1,0,.22.22,0,0,1-.14,0,1.45,1.45,0,0,1-.51,0l-.88-.08c0-.52.08-1,.11-1.51a.72.72,0,0,0-.08-.4.59.59,0,0,0-.32-.26,1.14,1.14,0,0,0-.37,0,.78.78,0,0,1-.23.06s-.08,0-.11,0a.38.38,0,0,0-.54.06c-.06,0-.06.11-.09.14a.3.3,0,0,0-.14.23.6.6,0,0,0,.09.48,2.09,2.09,0,0,1,.17.37.92.92,0,0,1,0,.28l0,.52a7.13,7.13,0,0,0-.8,0,2.17,2.17,0,0,0-.37,0h-.31a.14.14,0,0,1-.09-.05,1.19,1.19,0,0,1-.22-.17.58.58,0,0,0-.4-.15.83.83,0,0,0-.4.17c-.12.09-.31.23-.46.32a1,1,0,0,1-.28.14c-.06,0-.09,0-.12.06a.4.4,0,0,0-.19.11.44.44,0,0,0-.18.23.39.39,0,0,0,0,.62.6.6,0,0,1,.15.37v.69a4.8,4.8,0,0,0,.85,2.5,4.58,4.58,0,0,0,.68.8l.4.37a1.18,1.18,0,0,1,.2.17c.06.06.14.09.17.14a1.86,1.86,0,0,0,.26.17.2.2,0,0,0,.11.06.41.41,0,0,1,.12.09c.08.08.11.17.22.25a1,1,0,0,0,.63.2v.68a.34.34,0,0,0-.17.23.41.41,0,0,0-.17.31.69.69,0,0,0,.6.69h.39a.86.86,0,0,0,.29,0,.74.74,0,0,0,.31-.17.61.61,0,0,0,.14-.2.65.65,0,0,0,.2-.54.47.47,0,0,0,0-.17.23.23,0,0,0,0-.12,5.72,5.72,0,0,1-.12-.62,1.67,1.67,0,0,1,0-.37,1.33,1.33,0,0,0,.29-.29l1.08-.48.68-.34.43-.23.2-.14a.91.91,0,0,0,.31-.4A.43.43,0,0,1,232.2,578.26Zm-2-.17h0a2.36,2.36,0,0,1-.35.23,3.93,3.93,0,0,1-.74.37c0-.43,0-.88,0-1.17a5.36,5.36,0,0,1,0-.62c0-.17,0-.37,0-.54v-.52a2.87,2.87,0,0,1,0-.51c0-.2,0-.48,0-.77l1.14.15a.5.5,0,0,1,.26.11.07.07,0,0,1,0,.06s0,0,0,.08.06.29.09.46a5.62,5.62,0,0,1,0,.71,4,4,0,0,1-.09.82c0,.09,0,.2-.06.32a2.24,2.24,0,0,1,0,.31,1.67,1.67,0,0,1-.06.2c0,.06,0,.09,0,.11A1.1,1.1,0,0,1,230.24,578.09Zm-2.91-.28h0c-.08-.12-.2-.23-.28-.37l-.29-.43a5,5,0,0,1-.42-.91c-.06-.14-.09-.28-.15-.43a3.41,3.41,0,0,0-.08-.37,1.82,1.82,0,0,1,0-.57.81.81,0,0,0,.74,0,2.17,2.17,0,0,0,.34-.22c.06,0,.09-.09.11-.09l.09,0h.28c0,.89-.08,1.77-.08,2.39s0,1,0,1.31A1.26,1.26,0,0,1,227.33,577.81Zm14,1.76h0a.79.79,0,0,0,.15-.59.76.76,0,0,0-.06-.26c0-.09-.09-.23-.14-.34v-5.67a.53.53,0,0,0,.2-.22l0-.06a.37.37,0,0,0,.09-.54l-.09-.09s-.08,0-.14-.08a3.79,3.79,0,0,1-.62-.46.64.64,0,0,0-.37-.22.48.48,0,0,0-.49.14.62.62,0,0,0-.11.17.5.5,0,0,0-.12.6,1.31,1.31,0,0,0,.18.2s0,.05,0,.08a.75.75,0,0,1,0,.28v3.76l-4.21-3.39a.36.36,0,0,0-.49,0,1.48,1.48,0,0,0-.14.11,2.21,2.21,0,0,1-.57.34s-.08,0-.11.06a.43.43,0,0,0-.23.14.49.49,0,0,0-.14.2.33.33,0,0,0-.06.54c.06.06.14.09.17.17a.56.56,0,0,1,.09.31c0,1.23,0,2.45,0,3.7a.76.76,0,0,1-.06.26.39.39,0,0,1-.06.14,1.06,1.06,0,0,0-.14.54.65.65,0,0,0,.09.32,1.91,1.91,0,0,0,.17.22l.08.09.12.14c.05.06.05.09.08.12s.06.17.17.28a.44.44,0,0,0,.54,0,.56.56,0,0,0,.2-.26.62.62,0,0,0,.2-.51l-.06-4.27,1.26.94c.4.29.74.57,1,.8s.54.45.8.65.48.43.68.57a2.21,2.21,0,0,1,.34.32c.06.05.12.08.12.11s0,.06,0,.11v.06a5.08,5.08,0,0,1,0,.68.56.56,0,0,1,0,.2v.26a.43.43,0,0,0,.17.28.4.4,0,0,0,.57,0c.17-.2.37-.42.51-.62a.15.15,0,0,0,0-.12Zm8.11-1.22h0a12.7,12.7,0,0,0,.77-1.65.74.74,0,0,0,.2-.51.51.51,0,0,0-.23-.43c-.14-.11-.28-.11-.45-.26s-.23-.22-.37-.34a.89.89,0,0,0-.88-.17c-.12,0-.2.09-.29.11s-.08,0-.11.06l-.09,0h-1.9c-.06,0-.17,0-.23,0l0,0s0,0-.06-.08-.11-.2-.17-.29l-.08-.17a1,1,0,0,1,.28,0,.22.22,0,0,1,.14,0c.06,0,.12,0,.2,0s.2,0,.32,0l.34,0a1.28,1.28,0,0,0,.48,0h.23l.23,0c.11,0,.2,0,.28-.06a.83.83,0,0,1,.29-.06s.11,0,.17,0a1,1,0,0,1,.34,0,1,1,0,0,0,.6.06.44.44,0,0,0,.31-.23s0-.08.08-.11.18-.26.15-.37a.36.36,0,0,0-.2-.31.84.84,0,0,0-.29-.12,3.29,3.29,0,0,1-.57-.2,3.41,3.41,0,0,1-.42-.28.3.3,0,0,1-.15-.12,1,1,0,0,0-.39-.22,1.3,1.3,0,0,0-1,.17l-.2.08-.11,0a4.86,4.86,0,0,1-.55.14l-.51.09a.56.56,0,0,0-.23,0l-.28.08s-.06,0-.11,0-.12,0-.15.06a.27.27,0,0,1-.14,0c-.06,0-.06,0-.11,0a.55.55,0,0,0-.66.06,1.44,1.44,0,0,1-.22.19c-.09.06-.18.09-.23.12a.67.67,0,0,0-.26.14.27.27,0,0,0-.08.17.45.45,0,0,0-.17.29.69.69,0,0,0,.14.39s0,.06.06.09a1.25,1.25,0,0,0,.14.2c.11.17.25.37.37.57s.11.2.2.34.2.31.25.43a1.55,1.55,0,0,1,.14.2c.06.05.06.08.09.11.31.26.63.17,1-.11a1.09,1.09,0,0,1,.57-.2h1.36a.37.37,0,0,1,.23,0s.09.06.06.09v.08s0,0,0,.12a1.86,1.86,0,0,0-.09.28,12.87,12.87,0,0,1-.94,2.39c0,.09-.08.17-.14.26a1.2,1.2,0,0,1-.11.2.8.8,0,0,1-.83.14s-.08,0-.11-.06,0,0-.11-.08l-.37-.26a4,4,0,0,1-.43-.31l-.31-.2c-.06,0-.09-.06-.12-.06a.65.65,0,0,0-.68.15.66.66,0,0,0-.14.2.53.53,0,0,0-.15.65s.06.09.09.11l.09.06a.61.61,0,0,0,.17.11c.08.06.19.18.34.29l.42.34a2.09,2.09,0,0,1,.23.2c.06.06.09.06.12.09s.05,0,.08.08,0,.23.17.31a.56.56,0,0,0,.23.12,2.14,2.14,0,0,0,.48,0,2.21,2.21,0,0,0,1.26-.31,3.66,3.66,0,0,0,.62-.43l.46-.39.22-.23c.09-.09.15-.17.23-.26a2.78,2.78,0,0,0,.23-.31c.09-.11.14-.2.31-.46A3.88,3.88,0,0,0,249.47,578.35Zm6,1.71h0a.37.37,0,0,0,.11-.26v-3.36a6,6,0,0,1,0-.79c0-.46.06-.89.09-1.31h.11l.51,0h.46a.42.42,0,0,1,.2,0,1.29,1.29,0,0,1,.4.08.83.83,0,0,1,.39.23,1.7,1.7,0,0,1,.23.34.49.49,0,0,0,.29.17.64.64,0,0,0,.57-.14.82.82,0,0,0,.11-.17.46.46,0,0,0,.17-.29v-.25a.77.77,0,0,0,0-.26.88.88,0,0,0-.05-.28,1.5,1.5,0,0,0-.32-.63A.8.8,0,0,0,258,573c-.05,0-.11,0-.17.06a2.19,2.19,0,0,1-.71.11l-4.7,0A1,1,0,0,1,252,573a.82.82,0,0,0-.8.11,1,1,0,0,0-.25.26.14.14,0,0,0-.06.11.88.88,0,0,0-.17.29,9.18,9.18,0,0,0-.31.88.46.46,0,0,0,.14.51.56.56,0,0,0,.4.11.55.55,0,0,0,.42-.2.83.83,0,0,0,.15-.19c.05-.06.08-.12.11-.15a.43.43,0,0,0,.09-.17,1,1,0,0,1,.42-.25l.26-.06a.34.34,0,0,0,.17,0h1.17a.2.2,0,0,1,0,.09v.91c0,.25,0,.51,0,.79s0,.57,0,.8,0,.46,0,.63,0,.31,0,.4a2,2,0,0,1,0,.22.27.27,0,0,1,0,.15,1.22,1.22,0,0,1-.11.34.79.79,0,0,0,0,.79.46.46,0,0,0,.17.17c.06,0,.09.06.14.06s.06,0,.12.06l.23.11a.77.77,0,0,1,.2.09.87.87,0,0,1,.14.08c.08.06.14.17.25.26a.48.48,0,0,0,.57,0,.56.56,0,0,0,.2-.26Zm4.61-6.24h0a.49.49,0,0,0-.06.63.51.51,0,0,0,.34.2h.06v2.16a7.14,7.14,0,0,1,0,.83,2.29,2.29,0,0,1,0,.51v.23s0,.08,0,.11,0,.06,0,.09l0,0s-.06.06-.09.12a1.09,1.09,0,0,0-.17.42.56.56,0,0,0,.17.43,1,1,0,0,0,.37.2,2.6,2.6,0,0,1,.54.2s.09,0,.12.06a.69.69,0,0,1,.25.2l.12.11a.6.6,0,0,0,.54,0,.47.47,0,0,0,.23-.23h.14c.08,0,.26,0,.45,0s.37,0,.57,0h.57a8.75,8.75,0,0,0,.94-.06c.14,0,.29,0,.4,0a.4.4,0,0,0,.2,0s0,0,.06,0l.2.12a.69.69,0,0,0,.76-.26,2,2,0,0,0,.52-1.28c0-.11,0-.14,0-.23v-.08c0-.09,0-.15,0-.2a.32.32,0,0,0-.17-.32.55.55,0,0,0-.59,0,.36.36,0,0,0-.17.22.34.34,0,0,0-.15.23.73.73,0,0,1-.05.2,1.4,1.4,0,0,1-.35.23s-.08,0-.11,0-.08,0-.14,0-.12,0-.2,0l-.66.09a8.29,8.29,0,0,1-1.65,0c-.11,0-.19,0-.25,0a.31.31,0,0,0-.14,0l-.06-.06a.07.07,0,0,1,0,0,.45.45,0,0,0,0-.17,4.65,4.65,0,0,1-.05-.69,4.27,4.27,0,0,1,0-.62,1.28,1.28,0,0,1,0-.29.42.42,0,0,1,0-.2,4.88,4.88,0,0,1,.57,0c.23,0,.51,0,.8,0,0,.11,0,.25.11.37a.53.53,0,0,0,.49.14,1,1,0,0,0,.28-.14l.09-.15a.46.46,0,0,0,.14-.19s0-.06,0-.12a1.6,1.6,0,0,1,.11-.4s0-.08,0-.14a.2.2,0,0,0,0-.11.4.4,0,0,0,0-.15.45.45,0,0,0-.18-.37.66.66,0,0,0-.68-.08.48.48,0,0,0-.2.2.23.23,0,0,1-.14.08h-.11c-.12,0-.32,0-.49,0h-.82a.11.11,0,0,1-.09,0c-.05,0-.05-.08-.05-.11V575c0-.11,0-.17,0-.23a.82.82,0,0,1,.06-.2l.09,0a.75.75,0,0,1,.17,0l.25,0,.29,0H264a1,1,0,0,1,.31,0c.09,0,.17,0,.23,0a1,1,0,0,1,.26.08c.08.06.19.12.28.2l.09.09c0,.11.14.22.19.31l.15.2a.43.43,0,0,0,.08.11.6.6,0,0,0,.54.15.59.59,0,0,0,.34-.23.23.23,0,0,0,.06-.12.54.54,0,0,0,.17-.31v-.08a.33.33,0,0,0,0-.15,3.46,3.46,0,0,0-.14-.62.56.56,0,0,1-.06-.2c0-.06,0-.12,0-.14a1.3,1.3,0,0,0-.14-.26,1,1,0,0,0-.57-.34.76.76,0,0,0-.6.08.46.46,0,0,1-.2,0h-.11c-.06,0-.15,0-.26,0l-.34,0h-.37c-.29,0-.6,0-.91.06a.72.72,0,0,0-.2-.37.6.6,0,0,0-.71,0s0,0-.06,0a.85.85,0,0,1-.14.09.81.81,0,0,0-.2.14.66.66,0,0,1-.2.11l-.14.09-.26.11a.24.24,0,0,1-.14,0,1.38,1.38,0,0,0-.34,0,.42.42,0,0,0-.23.17c0,.06-.06.09-.09.14Zm14.23.54h0a1,1,0,0,0,.14-.25.57.57,0,0,0-.17-.63l-.48-.45a.66.66,0,0,0-.8-.12,1,1,0,0,1-.48.15h-.15c-.08,0-.22,0-.42,0l-.51,0h-.26a2,2,0,0,0-1,.28.43.43,0,0,0-.11-.34.65.65,0,0,0-.43-.14.72.72,0,0,0-.39.11s0,0-.06,0a.41.41,0,0,1-.12.09s-.08.05-.14.08a.77.77,0,0,0-.17.12c-.08,0-.17.08-.25.14a2.36,2.36,0,0,1-.26.14l-.09,0-.17.06a.38.38,0,0,0-.25.14.24.24,0,0,0-.09.17.45.45,0,0,0-.17.37.5.5,0,0,0,.2.37.68.68,0,0,0,.26.11.32.32,0,0,1,0,.15c0,1.13,0,2.24,0,3.38a.65.65,0,0,1-.06.23,1.09,1.09,0,0,0-.2.57.69.69,0,0,0,.23.48.83.83,0,0,0,.23.15.53.53,0,0,1,.25.17l.09.08a3.6,3.6,0,0,1,.31.4.57.57,0,0,0,.71.14.43.43,0,0,0,.23-.23l0,0a.48.48,0,0,0,.17-.4v-3a1.71,1.71,0,0,1,.57-.23.45.45,0,0,1,.23,0,.26.26,0,0,1,.17.09l.05.06.09.08a3,3,0,0,1,.28.32c.06,0,.09.11.15.17s.08.14.14.22.23.37.34.57a3.29,3.29,0,0,0,.2.34l.31.57c.14.26.31.6.46.83s.2.34.25.45.12.2.17.29a.83.83,0,0,1,.15.23,5.48,5.48,0,0,0,.39.48c.06.06.12.09.15.14a.93.93,0,0,0,.25.2.55.55,0,0,0,.29.09.64.64,0,0,0,.42-.14,1.37,1.37,0,0,1,.26-.2,2.07,2.07,0,0,1,.46-.2c.05,0,.08,0,.14,0l.11,0a.35.35,0,0,0,.2-.14c0-.06.06-.09.09-.14a.62.62,0,0,0,.17-.26.51.51,0,0,0-.2-.46.64.64,0,0,1-.14-.08,1.49,1.49,0,0,1-.37-.17,1.09,1.09,0,0,1-.29-.23l-.14-.14a3.62,3.62,0,0,0-.34-.34,4.26,4.26,0,0,0-.34-.37,3,3,0,0,1-.29-.35c-.08-.11-.17-.19-.23-.28s-.22-.31-.34-.46a3.68,3.68,0,0,1-.28-.45l-.12-.2a.12.12,0,0,1,0-.06v0s0,0,0-.05,0-.12,0-.14a1.25,1.25,0,0,0-.06-.18,1.1,1.1,0,0,0-.34-.34l.2-.08.26-.09a.55.55,0,0,0,.42-.23.22.22,0,0,0,.09-.17.53.53,0,0,0,.17-.28c0-.09,0-.23.08-.37a1.34,1.34,0,0,1,.15-.29A.74.74,0,0,1,274.32,574.36Zm-4.24.18h0a2.54,2.54,0,0,1,.4-.32.65.65,0,0,0,.77.06,1.43,1.43,0,0,1,.65-.17h.34a.22.22,0,0,1,.14,0c0,.05,0,.11,0,.17s-.05.23-.08.31l0,.06a.42.42,0,0,1-.28.11l-.23.06-.6.14c-.48.14-1,.29-1.48.48a1.5,1.5,0,0,1,.17-.76C269.94,574.71,270,574.62,270.08,574.54Z" class="cls-2" transform="translate(-178.91 -558.81)"/><path d="M213.19,573.68a.2.2,0,0,0-.11.23c0,.06.08.14.14.17a.61.61,0,0,1,.22.37,2.34,2.34,0,0,1,.12.65.51.51,0,0,0,0,.2v.86a2.75,2.75,0,0,1,0,.48c0,.17,0,.37,0,.54s0,.32,0,.43,0,.2,0,.26,0,.25-.05.39,0,.15-.06.2a.36.36,0,0,1-.09.17,1.45,1.45,0,0,0-.14.46.51.51,0,0,0,.17.4s.06,0,.06,0,.17.18.26.26,0,.06,0,.09.09.14.14.22a.23.23,0,0,0,.26.09c.09,0,.23-.14.23-.26s0-.08,0-.14l0-4.64,2.61,3.53a.56.56,0,0,0,.26.2.27.27,0,0,0,.26-.06l.14-.08s.06,0,.08,0l.26-.09.11,0a.44.44,0,0,0,.29-.18c.06-.08,0-.17-.06-.25a1,1,0,0,1-.17-.14.53.53,0,0,1,0-.57c.48-.71,1-1.43,1.42-2a18,18,0,0,1,1.23-1.39c0,2.45,0,4.92,0,7.37a.25.25,0,0,0,.11.23.24.24,0,0,0,.34-.06l.09-.08a1.11,1.11,0,0,1,.28-.26l.51-.31a.6.6,0,0,0,.29-.32.54.54,0,0,0,0-.31v-.06l0,0a2.56,2.56,0,0,1-.09-.26c0-.06,0-.11,0-.14s0-.11,0-.17,0-.14,0-.23,0-.4,0-.63c0-1.48,0-3,0-4.41,0,0,.06,0,.09-.08a.28.28,0,0,1,.14-.06c.06,0,.14-.06.17-.14s0-.23-.11-.29l-.17-.08a3.44,3.44,0,0,1-.49-.26l-.34-.23-.08-.08s-.06-.06-.09-.06-.09-.05-.11-.08a.45.45,0,0,0-.54,0,.34.34,0,0,0-.09.37,8.26,8.26,0,0,0-.91.88c-.31.34-.63.74-1,1.22s-.74,1.05-1.08,1.62c-.2-.25-.37-.54-.54-.79s-.34-.49-.51-.71-.31-.43-.46-.6-.28-.37-.42-.54l-.43-.52c-.14-.17-.29-.34-.4-.45s-.17-.2-.23-.26l-.11-.11a.4.4,0,0,0-.37,0l-.8.43Z" class="cls-3" transform="translate(-178.91 -558.81)"/><path d="M232.68,574.25s0,0-.08-.06-.2-.14-.31-.2-.12-.08-.2-.11l-.23-.14a.37.37,0,0,1-.09-.06.46.46,0,0,0-.45-.11c-.17,0-.32.14-.49.17a2,2,0,0,1-.42,0c-.43,0-.86-.09-1.26-.15.06-.56.09-1.13.15-1.67a.42.42,0,0,0-.15-.4.37.37,0,0,0-.31-.06.18.18,0,0,0-.11,0s-.09,0-.14,0l-.09,0a.67.67,0,0,1-.2,0c-.08-.06-.2-.12-.28,0s0,.2,0,.34a1.65,1.65,0,0,1,.2.4.89.89,0,0,1,.06.39l-.06.94a6,6,0,0,0-.76,0c-.23,0-.37,0-.49,0a.8.8,0,0,0-.28,0h-.32a.65.65,0,0,1-.25-.12s-.06,0-.09,0a.48.48,0,0,0-.17-.12.45.45,0,0,0-.4.06l0,.06s0,0-.06,0a2.36,2.36,0,0,1-.31.2,1.56,1.56,0,0,1-.35.2l-.17.09c-.14-.14-.17-.14-.17-.12a.26.26,0,0,0-.14.15c0,.05,0,.11,0,.2a.62.62,0,0,1,.17.22,1.28,1.28,0,0,1,.09.32v.68a4.6,4.6,0,0,0,1.36,3.07,4.19,4.19,0,0,0,.54.49c.17.14.34.25.49.37a.87.87,0,0,1,.14.08c.11.09.2.09.28.2s.12.2.23.26a.47.47,0,0,0,.29.08l.39,0c0,.34,0,.69,0,1a.19.19,0,0,1-.14.2.41.41,0,0,0-.17.11c-.09.14,0,.23.06.4a.53.53,0,0,0,.28.17h.4A.71.71,0,0,0,229,582a.39.39,0,0,0,.19-.14.74.74,0,0,0,.06-.51s0,0,0-.09-.05-.23-.08-.31A3.1,3.1,0,0,1,229,580l.14-.09.12-.08a.85.85,0,0,0,.22-.26c.37-.17.72-.31,1-.45a5.94,5.94,0,0,0,.63-.32l.42-.22a.81.81,0,0,0,.2-.12l.23-.17a1,1,0,0,0,.29-.71v-.14c.08-.74.14-1.45.22-2.19a1.21,1.21,0,0,1,.2-.49c0-.06.09-.11.12-.17A.32.32,0,0,0,232.68,574.25Zm-4.61,4.5a3.61,3.61,0,0,1-.71-.54,5.07,5.07,0,0,1-1.08-1.6,3.89,3.89,0,0,1-.37-1.19,1.35,1.35,0,0,1,0-.49,3.19,3.19,0,0,1,.09-.42.31.31,0,0,1,.05-.12.23.23,0,0,1,.2-.08.61.61,0,0,0,.52.14,1.07,1.07,0,0,0,.34-.14l.22-.17,0,0c.06,0,.09-.06.15-.06s.08,0,.17,0h.2a.72.72,0,0,0,.25,0c-.06,1.14-.11,2.25-.11,3A10,10,0,0,0,228.07,578.75Zm3.05-2.42a1.67,1.67,0,0,1,0,.37,7.13,7.13,0,0,1-.14.77c0,.08,0,.14-.06.2s0,.08-.06.11a.39.39,0,0,1-.17.26.79.79,0,0,0-.14.11,1.53,1.53,0,0,1-.23.17A4.93,4.93,0,0,1,229,579c0-.51-.06-1-.06-1.42a5.49,5.49,0,0,1,0-.77c0-.23,0-.45,0-.68v-1a6.12,6.12,0,0,1,.08-.94l1.51.17a.91.91,0,0,1,.34.17.36.36,0,0,1,.11.2s0,.05,0,.14,0,.17.06.26A5.79,5.79,0,0,1,231.12,576.33Z" class="cls-3" transform="translate(-178.91 -558.81)"/><path d="M234.45,573.6h0a.22.22,0,0,0-.17.2.12.12,0,0,0,.11.11.42.42,0,0,1,.17.23,1.31,1.31,0,0,1,.09.34c0,1.22,0,2.45,0,3.7a1.14,1.14,0,0,1-.09.43,1.24,1.24,0,0,0-.14.37.44.44,0,0,0,.05.31l.09.11.09.09s0,0,0,.08l.06.06.08.09a.48.48,0,0,1,.12.17.7.7,0,0,0,.08.14.25.25,0,0,0,.35-.06.6.6,0,0,0,.08-.28l-.06-5,1,.71.86.66.71.54c.4.31.71.57,1.05.82l.51.43a4.46,4.46,0,0,1,.4.34l.2.17c.06,0,.06.06.09.09s.14.17.14.25v.54a.69.69,0,0,1,0,.26v.4a.25.25,0,0,0,.23.2.21.21,0,0,0,.17-.06c.17-.2.34-.4.48-.6a.69.69,0,0,0,.09-.6,1.78,1.78,0,0,0-.17-.39v-5.75a.3.3,0,0,1,.11-.29.6.6,0,0,0,.26-.23.13.13,0,0,0-.06-.17l-.11-.05a4,4,0,0,1-.49-.34,1.36,1.36,0,0,1-.17-.17c-.17-.18-.34-.26-.51-.09a.26.26,0,0,0,0,.37c0,.06.11.11.14.17a.78.78,0,0,1,.09.46v4.55c-1.6-1.28-3.16-2.56-4.76-3.81a.15.15,0,0,0-.19,0,.28.28,0,0,0-.09.05,4.24,4.24,0,0,1-.65.4c-.06,0-.09,0-.12.06Z" class="cls-3" transform="translate(-178.91 -558.81)"/><path d="M247.08,573.14h0a.08.08,0,0,1-.08,0c-.23.08-.54.17-.8.23l-.2,0a1.62,1.62,0,0,1-.31,0h-.11a.22.22,0,0,0-.15,0,.82.82,0,0,0-.22.06l-.23.08-.09,0a.3.3,0,0,1-.23,0l-.17-.08a.39.39,0,0,0-.34,0l-.08.09-.26.2-.06,0-.11,0a.44.44,0,0,0-.2.15.29.29,0,0,0,0,.22s.06.12.11.18a.23.23,0,0,1,.09.14c.08.11.23.37.37.6s.14.19.23.37.2.34.28.45.11.17.11.2a.23.23,0,0,0,.06.09.39.39,0,0,0,.51,0,.65.65,0,0,0,.17-.15,1.11,1.11,0,0,1,.69-.22l1.28,0a1.3,1.3,0,0,1,.43,0,.32.32,0,0,1,.17.2.25.25,0,0,1,0,.17.11.11,0,0,1,0,.09,1.2,1.2,0,0,1-.06.2c-.06.2-.14.48-.23.71a11.69,11.69,0,0,1-.57,1.42c-.05.12-.11.23-.17.37l-.17.34a.82.82,0,0,1-.14.23c0,.06-.06.09-.09.14a.43.43,0,0,1-.17.18,1,1,0,0,1-.91.17,1,1,0,0,1-.25-.12s0,0-.12-.08l-.34-.26a4,4,0,0,0-.45-.31c-.15-.09-.23-.17-.29-.2a.21.21,0,0,1-.08-.06c-.15-.06-.26,0-.43.12a.28.28,0,0,0-.06.39l0,0s0,0,.06.06a.47.47,0,0,0,.14.11c.09.06.2.17.37.32l.54.45.2.17c.06.06.09.09.09.12a.77.77,0,0,1,0,.17c0,.05.09.14.14.17l.12,0a1.51,1.51,0,0,0,.37.06,2,2,0,0,0,1.19-.31,4.62,4.62,0,0,0,1-.8.85.85,0,0,0,.17-.2,8.59,8.59,0,0,0,.71-.94,1.48,1.48,0,0,0,.17-.28c.06-.09.12-.2.18-.31a2,2,0,0,1,.19-.35,2.84,2.84,0,0,0,.2-.39,11.43,11.43,0,0,0,.6-1.34c.17-.2.29-.43.06-.63a.24.24,0,0,0-.17-.08.87.87,0,0,1-.37-.23l-.2-.2a.69.69,0,0,0-.4-.26.65.65,0,0,0-.46.09s-.05,0-.08,0a.22.22,0,0,1-.14,0c-.09,0-.12.06-.17.06h-1.74c-.14,0-.14,0-.2,0a.4.4,0,0,1-.45-.11s0,0-.06-.09l-.23-.37a4,4,0,0,1-.26-.57,1.32,1.32,0,0,1,.55-.08h.14a.52.52,0,0,1,.17,0c.06,0,.08,0,.11,0a.34.34,0,0,1,.14,0,2.57,2.57,0,0,0,.52.06l.25,0a2.78,2.78,0,0,0,.77,0c.06,0,.12,0,.17,0a1.67,1.67,0,0,0,.2-.06.67.67,0,0,1,.26-.05,2.8,2.8,0,0,1,.42-.06.76.76,0,0,1,.26.06.61.61,0,0,0,.48,0c.09-.06.18-.23.09-.32s-.14-.08-.23-.11-.11,0-.17-.06a2.13,2.13,0,0,1-.37-.14l-.14-.09a.41.41,0,0,1-.17-.11,2,2,0,0,0-.2-.11.28.28,0,0,1-.14-.12L248,573a.31.31,0,0,0-.14-.09.94.94,0,0,0-.85.12C247.14,573.11,247.11,573.14,247.08,573.14Z" class="cls-3" transform="translate(-178.91 -558.81)"/><path d="M251.1,573.55h0a.28.28,0,0,0,.06.28.39.39,0,0,0,.46,0s.14-.12.14-.17a1.15,1.15,0,0,1,.34-.49,1.44,1.44,0,0,1,.8-.28h1.28a.64.64,0,0,1,.17,0,.28.28,0,0,1,.11.26v.88c0,.46,0,1,0,1.48,0,.26,0,.49,0,.71s0,.37,0,.49,0,.17,0,.25,0,.26-.06.37,0,.12-.06.2-.11.23-.14.34a.44.44,0,0,0,.14.37s.06,0,.09.06l.09,0c.05,0,.11,0,.17.06l.22.08a.51.51,0,0,0,.15.06,1.73,1.73,0,0,1,.2.14.43.43,0,0,1,.17.2c.08.11.2.09.31.06a.4.4,0,0,0,.17-.17v-3.56a2.59,2.59,0,0,1,0-.51,2.8,2.8,0,0,1,0-.49c0-.17,0-.37,0-.54s0-.34,0-.42v-.15A.26.26,0,0,1,256,573a.7.7,0,0,1,.23-.11h.2c.11,0,.31,0,.48,0h.63a4,4,0,0,1,.54.09,1,1,0,0,1,.48.28.75.75,0,0,1,.2.31.27.27,0,0,0,.23.17.35.35,0,0,0,.34-.11.11.11,0,0,0,0-.09V573a1.13,1.13,0,0,0-.06-.31.91.91,0,0,0-.26-.43.5.5,0,0,0-.51-.11s0,0-.11,0a3.38,3.38,0,0,0-.34.11,3,3,0,0,1-.52.06l-4.69,0a1.57,1.57,0,0,1-.6-.14.7.7,0,0,0-.68.2.65.65,0,0,0-.17.26C251.3,573,251.19,573.27,251.1,573.55Z" class="cls-3" transform="translate(-178.91 -558.81)"/><path d="M261.24,574.6h0v1.54a4.09,4.09,0,0,1,0,.63,1,1,0,0,1,0,.34v.11a.89.89,0,0,1-.09.26.35.35,0,0,0,0,.08.74.74,0,0,0-.15.26.29.29,0,0,0,.09.37.6.6,0,0,0,.26.14,1.54,1.54,0,0,0,.28.09,2.86,2.86,0,0,1,.6.31c.05.06.11.08.14.14s.06.09.09.09a.38.38,0,0,0,.34-.06c.05,0,.05-.06.08-.09a.23.23,0,0,1,.17-.11h.15a.52.52,0,0,1,.17,0l.62,0h1.06a1.58,1.58,0,0,0,.37,0c.11,0,.22,0,.34,0l.25,0c.09,0,.17,0,.23,0h.14a.37.37,0,0,1,.2.09c.23.14.43.08.66-.14a1.18,1.18,0,0,0,.28-.83v-.6s-.08-.11-.14-.14a.23.23,0,0,0-.31.09l0,0a2.83,2.83,0,0,1-.17.42,1.27,1.27,0,0,1-.34.32,2.55,2.55,0,0,1-.35.14s-.05,0-.11,0l-.14,0a2.14,2.14,0,0,1-.46.06,7.15,7.15,0,0,1-2,0c-.09,0-.14,0-.2,0a1.06,1.06,0,0,1-.14,0l-.15-.05a.31.31,0,0,1-.14-.2s0,0,0-.09,0-.11,0-.17,0-.34-.06-.51a5.86,5.86,0,0,1,0-.71v-.4c0-.06,0-.11,0-.14s0-.09,0-.12a.6.6,0,0,1,.08-.2.29.29,0,0,1,.17-.08H263a.54.54,0,0,0,.2,0,1.32,1.32,0,0,0,.31,0,2.22,2.22,0,0,0,.43,0h.48a.14.14,0,0,1,.14.09.1.1,0,0,1,0,.08c0,.09,0,.15,0,.23s.09.12.14.12a.31.31,0,0,0,.34-.12l0,0v0a1.88,1.88,0,0,1,.06-.32c0-.05,0-.11.06-.17l.08-.25s0-.06,0-.09,0-.06,0-.09a.23.23,0,0,0-.11-.17.45.45,0,0,0-.46,0l-.06,0s-.11.15-.17.17-.08,0-.14.06h-1.54a.25.25,0,0,1-.14,0,.43.43,0,0,1-.2-.22v-.18a2.45,2.45,0,0,1,0-.42v-.17a1.15,1.15,0,0,1,.06-.34s0-.09,0-.12a.38.38,0,0,1,.14-.25c.05-.06.11-.06.17-.09l.06,0a.1.1,0,0,0,.08,0,6.87,6.87,0,0,1,1.34,0,.56.56,0,0,1,.23,0,.62.62,0,0,1,.2,0,1.21,1.21,0,0,1,.31.06,1.17,1.17,0,0,1,.57.37l.05.06.35.57a.38.38,0,0,0,.45.08.28.28,0,0,0,.17-.2v-.08a3.94,3.94,0,0,0,0-.4,2.3,2.3,0,0,0-.12-.43c0-.05,0-.08-.06-.14s0-.09-.05-.11a.9.9,0,0,0-.37-.35.63.63,0,0,0-.29-.08.39.39,0,0,0-.34.08.78.78,0,0,1-.37.06h-.06a.22.22,0,0,1-.11,0,3.08,3.08,0,0,0-.54,0h-.63a.49.49,0,0,0-.22,0,.32.32,0,0,0-.17,0,.22.22,0,0,0-.15,0h-.2a.14.14,0,0,1-.08-.11.37.37,0,0,0-.17-.32.44.44,0,0,0-.51,0,.09.09,0,0,0-.06,0c-.06,0-.17.14-.29.2l-.17.11a.53.53,0,0,0-.11.09,1.19,1.19,0,0,1-.57.2.42.42,0,0,0-.4.14.25.25,0,0,0,0,.37.45.45,0,0,0,.28.06c.06,0,.09,0,.12.08a.11.11,0,0,0,0,.09v.4A6.2,6.2,0,0,1,261.24,574.6Z" class="cls-3" transform="translate(-178.91 -558.81)"/><path d="M276.38,579.07l0,0a.6.6,0,0,1-.14,0,2.76,2.76,0,0,1-.46-.26l-.09-.09a.57.57,0,0,1-.14-.14c0-.06-.14-.14-.25-.28a5.2,5.2,0,0,1-.37-.43c-.15-.14-.26-.28-.35-.37a2.35,2.35,0,0,0-.25-.28,8.19,8.19,0,0,1-.51-.72,1,1,0,0,1-.15-.22,1.58,1.58,0,0,1-.11-.23l-.09-.17a.62.62,0,0,1,0-.17.89.89,0,0,0-.09-.26.71.71,0,0,0-.26-.23l-1.05-.42h.4a1.06,1.06,0,0,1,.26,0l.05,0a2.53,2.53,0,0,0,.4-.17l.29-.11a.88.88,0,0,1,.17-.06c.08,0,.14,0,.2-.06a.37.37,0,0,0,.28-.17.17.17,0,0,0,.06-.11.29.29,0,0,1,0-.14,1.33,1.33,0,0,1,.22-.57c.12-.2.29-.31.29-.48a.36.36,0,0,0-.12-.32c-.17-.17-.34-.34-.51-.48a.48.48,0,0,0-.54-.06,1.18,1.18,0,0,1-.4.14c-.08,0-.17,0-.28,0h-.2c-.09,0-.26,0-.4,0l-.4,0h-.17a2.1,2.1,0,0,0-1.14.34.18.18,0,0,1-.11,0l-.31.23c-.06,0-.09.09-.12.06v-.06l.09-.28a.37.37,0,0,0,.25-.29.31.31,0,0,0-.05-.2.53.53,0,0,0-.57,0s-.06,0-.09.06l-.2.14a.2.2,0,0,1-.11.06.47.47,0,0,1-.14.08,2.42,2.42,0,0,1-.23.12,1.52,1.52,0,0,1-.23.11c-.05,0-.05,0-.08,0a.82.82,0,0,1-.2.06l-.09,0a.16.16,0,0,0-.08,0c-.12.12-.09.23,0,.37s.19.12.25.12.14.08.17.17a.38.38,0,0,1,0,.2c0,1.13,0,2.24-.06,3.38a.55.55,0,0,1-.14.37.52.52,0,0,0,0,.71s.09.06.11.09a1.25,1.25,0,0,1,.34.2,1.38,1.38,0,0,1,.35.37,2.43,2.43,0,0,0,.14.2.35.35,0,0,0,.45,0,.3.3,0,0,0,.09-.2v-3.05a.24.24,0,0,1,.06-.2l.08-.08.34-.2a2.24,2.24,0,0,1,.46-.14.64.64,0,0,1,.62.17l.09.08a2.52,2.52,0,0,1,.26.29c0,.06.08.11.11.17a.78.78,0,0,1,.14.2,1,1,0,0,1,.14.23,2.27,2.27,0,0,1,.18.28,2.4,2.4,0,0,0,.22.37,2.8,2.8,0,0,1,.2.37c.06.11.14.26.26.46s.25.45.34.65.2.31.26.43a1.48,1.48,0,0,0,.17.28.78.78,0,0,0,.14.2,3.24,3.24,0,0,0,.37.46.57.57,0,0,0,.11.11l.12.09c.08.05.14.11.2.14a.43.43,0,0,0,.45,0s.06,0,.09-.09a.67.67,0,0,1,.31-.19l.2-.09.28-.09.15,0c.08,0,.11,0,.14-.09S276.55,579.18,276.38,579.07Zm-4.7-4.81c-.11,0-.26.06-.4.11s-.31.09-.45.15l-.46.17a1.47,1.47,0,0,1-.48.11,1.89,1.89,0,0,1,.08-1,1.54,1.54,0,0,1,.29-.43l.17-.17a2,2,0,0,1,.6-.43l.17.12a.48.48,0,0,0,.28.06,3.2,3.2,0,0,0,.37-.15l.11,0a2.94,2.94,0,0,1,.66-.05c.08,0,.17,0,.23,0h0a.27.27,0,0,1,.23.17.27.27,0,0,1,0,.22c0,.06,0,.09,0,.15a.85.85,0,0,1-.05.25,1,1,0,0,1-.09.2.83.83,0,0,0-.08.12.58.58,0,0,1-.26.19l-.17.06s-.12,0-.2.06a.82.82,0,0,0-.26.06Z" class="cls-3" transform="translate(-178.91 -558.81)"/><path d="M226.08,588.08v-.6h-2.73v-.76h1.56v-.54h-1.56v-.72h2.7v-.54h-3.5v3.16Zm5,0h0v-2a.69.69,0,0,0,0-.23.87.87,0,0,0,.23.2c.85.66,1.71,1.34,2.56,2h.54v-3.16h-.71v1.94a1.06,1.06,0,0,0,0,.28c-.14-.14-.26-.22-.4-.34l-2.39-1.85h-.54v3.16Zm11.21,0h0v-.6h-2.73v-.76h1.57v-.54h-1.57v-.72h2.71v-.54h-3.5v3.16Zm6.86-2.62h0a.11.11,0,0,1,.09,0,.35.35,0,0,1,.11.09.15.15,0,0,1,0,.11v.37a.22.22,0,0,1-.08.2l-.06,0a.54.54,0,0,1-.23,0H247.2v-.88H249A.36.36,0,0,0,249.13,585.46Zm-1.93,2.62h0v-1.19h.74l1.36,1.19h1.14l-1.56-1.19h.45a1,1,0,0,0,.29,0,.43.43,0,0,0,.2-.06l.11-.08a.41.41,0,0,0,.09-.12.26.26,0,0,0,0-.14.46.46,0,0,0,0-.2v-.74a.42.42,0,0,0,0-.2c0-.06,0-.11,0-.14s-.06-.09-.09-.11-.09-.06-.11-.09-.12,0-.2-.06-.17,0-.29,0H246.4v3.16h.8Zm10.58-2.25h0l.77-.11v-.09a.56.56,0,0,0,0-.22c0-.06,0-.12,0-.17s0-.09-.06-.12l-.06-.08-.08-.06s-.09,0-.12-.06a.38.38,0,0,0-.2,0l-.28,0h-2.36a1.42,1.42,0,0,0-.29,0c-.08,0-.14,0-.2,0s-.08,0-.11.06a.24.24,0,0,0-.14.14s0,.06-.06.12a.27.27,0,0,0,0,.17c0,.05,0,.14,0,.22v1.66a.49.49,0,0,0,0,.22c0,.06,0,.12,0,.17s0,.09.06.12a.35.35,0,0,1,.05.08s.06,0,.09.06.08,0,.11.06a.42.42,0,0,0,.2,0l.29,0h2.36a1.32,1.32,0,0,0,.28,0c.09,0,.15,0,.2,0s.09,0,.12-.06a.27.27,0,0,0,.14-.14s0-.06.06-.12a.39.39,0,0,0,0-.17s0-.14,0-.22V586.2h-2.07v.54h1.3v.72h-2.47v-2h2.47v.37Zm6.78,2.25h0v-1.42l1.76-1.74h-.94l-1.16,1.23-1.17-1.23H262l1.76,1.74v1.42Z" class="cls-4" transform="translate(-178.91 -558.81)"/><path d="M204,568.2h-.19a.28.28,0,0,1-.26-.07c-.23-.19,0-.78-.36-.88h-.22a.23.23,0,0,1-.11,0,.77.77,0,0,1-.34-.3.59.59,0,0,0-.35-.22h-.23c.1-.23,0-.31-.11-.34s-.29,0-.34-.15,0-.07,0-.14a.3.3,0,0,1,0-.11h-.64a.21.21,0,0,1-.06.23,1.06,1.06,0,0,1-.33.1.76.76,0,0,0-.33.08.17.17,0,0,0-.1.14l-.23,0-.33.06a3.43,3.43,0,0,0-.34.06l-.33.07a1.94,1.94,0,0,1-.33.07l-.33.08-.33.1-.33.11-.33.12-.13.06a.68.68,0,0,0-.2.07.16.16,0,0,0-.09.07h-.22s0,0,0,0-.19.11-.33.14-.24,0-.26.16l.39.58h.63c0,.14.12.19.27.21a2,2,0,0,0,.34,0l.33,0a1,1,0,0,1,.3,0s0,0,0,0c.13.19.17.45.35.59a.44.44,0,0,0,.24.1h.2a2.12,2.12,0,0,1-.05,1.35c-.17.53-.37.93,0,1.18h0a.85.85,0,0,1,.33.21.83.83,0,0,1,0,.71c-.12.46-.32.95,0,1.24l0,0a3.6,3.6,0,0,1,0,.81,2.82,2.82,0,0,0,0,1.25.53.53,0,0,0,.35.3h0s0,0,0,.06a7,7,0,0,0,.12,3.67c.11.51.23,1,.3,1.56-.14,0-.23,0-.22.19a.26.26,0,0,1,0,.08c-.08.3-.19.61-.3.9s-.2.52-.3.78-.22.59-.3.89a3.15,3.15,0,0,0,.06,2.16c.07.16.16.31.25.47a.57.57,0,0,0-.22.37.88.88,0,0,0,0,.32,2.54,2.54,0,0,0,.35.89s0,.05.05.06a4.36,4.36,0,0,1,0,.55,2.06,2.06,0,0,0,0,1.1v.55a5.4,5.4,0,0,0,.13,2.7,5.09,5.09,0,0,0,.36.69,4.43,4.43,0,0,0,.34.45s0,0,0,.07a1.15,1.15,0,0,1,0,.41c0,.41-.3.63-.23,1.17h-.07c-.36,0,0,.66-.15.92q0,.06.18,0a1.37,1.37,0,0,0,.33-.26,1.47,1.47,0,0,0,.31-.56.78.78,0,0,0,0-.26c.46-.21.08-1.16.22-1.64v-1.1h.19c0-.09.08-.18.12-.29.21-.5.43-1.27.09-1.54v.19a.15.15,0,0,1-.14-.08c0-.09,0-.21-.08-.31a7,7,0,0,1-.06-3.49.52.52,0,0,1,.06-.15v-.37a24.8,24.8,0,0,0,0-3.66.39.39,0,0,1,.12-.4.44.44,0,0,0,.1-.51.48.48,0,0,0,.22-.07c.29-.21.16-.77.29-1.11a.39.39,0,0,1,.31-.28c.17,0,.18-.08.19-.19l.13-.1a.89.89,0,0,0,.31-.37,1.45,1.45,0,0,0,0-1.2c-.11-.29-.24-.59-.35-.89a2.85,2.85,0,0,1-.25-1.46.34.34,0,0,0,.19-.18c.14-.36-.15-1.09.19-1.26l0,0s.05,0,.06-.07a1.08,1.08,0,0,0,.14-.66.21.21,0,0,1-.17,0,.24.24,0,0,1,0-.14v-.19c-.23-1.39-.2-2-.41-3.49a2.5,2.5,0,0,1,.26-1.37,4,4,0,0,1,.32-.48c.1-.13.21-.25.32-.37s.22-.24.31-.35a3,3,0,0,0,.22-.26h0s.07-.09.09-.13l0,0C203.92,568.27,204,568.24,204,568.2Z" class="cls-5" transform="translate(-178.91 -558.81)"/><path d="M211.1,570.21h0l-.07,0a.38.38,0,0,1-.22-.15.63.63,0,0,1-.08-.38c0-.06,0-.1,0-.16v-.19a1.88,1.88,0,0,1-.29-.52,8.08,8.08,0,0,0-.35-.8,1.41,1.41,0,0,0-.33-.44.89.89,0,0,0-.33-.19,1,1,0,0,0-.31-.08.93.93,0,0,0-.24,0h-.08a.36.36,0,0,0-.15,0h-.19l-.31-.14a1,1,0,0,0-.31-.07.22.22,0,0,0-.2.22.18.18,0,0,1-.11.17c-.11,0-.26.07-.3.19h0a.69.69,0,0,0-.32.07,1,1,0,0,0-.3.41.49.49,0,0,1-.32.25.75.75,0,0,1-.3,0h0a1.42,1.42,0,0,0-.31.06l-.32.08c-.11,0-.21.07-.32.09s-.2.07-.31.11-.21.07-.32.11l-.25.09H204a.53.53,0,0,0-.31.28l0,.06c-.18,0-.21.07-.22.2l.26,0a2.29,2.29,0,0,1,.31.09c.11,0,.22.07.33.11a1.42,1.42,0,0,0,.33.11,2.33,2.33,0,0,0,.32.1l.32.06h.31a1.83,1.83,0,0,0,.32-.07l.18-.09a.47.47,0,0,0,.14.14,1,1,0,0,0,.33.17l.31.09.33.11a1,1,0,0,1,.33.22v0a9.43,9.43,0,0,0-.26,1.76,8.21,8.21,0,0,0,0,1.68,1.17,1.17,0,0,0-.3.14,1.43,1.43,0,0,0-.32.28.45.45,0,0,0,0,.66.79.79,0,0,0,.33.17h.07a1.77,1.77,0,0,1-.06.28c-.15.7-.37,1.77.09,2.25a.62.62,0,0,0,.33.2h.07c.41.54.11,1.25,0,1.9a1.45,1.45,0,0,0,0,.72,1.78,1.78,0,0,0,.17.3c0,.09.11.14.16.22a.23.23,0,0,1,0,.15,3.36,3.36,0,0,0,.2,1.64,1,1,0,0,0-.18.34c-.22.83.25,2.28-.22,2.9l0,0v.19c-.64.39.2,1,0,1.64a1.27,1.27,0,0,0-.22.26,1.47,1.47,0,0,0-.29.83c0,.11,0,.22,0,.34a17,17,0,0,1,.3,2,.77.77,0,0,0-.22.45,1.36,1.36,0,0,0,0,.4,3.84,3.84,0,0,0,.35,1.07.73.73,0,0,0,0,.09c.46-.14.08-1,.22-1.48v0a5.56,5.56,0,0,1,.29-.71,4.4,4.4,0,0,1,.3-.52c.1-.14.19-.28.3-.42l.11-.12a1,1,0,0,0,.2-.39c.16-.64-.09-1.65,0-2.35v-.19c-.2-.69,0-1.35-.18-1.75l0-.08a.41.41,0,0,0,0-.08c.08-.17.22-.29.3-.44v0a.63.63,0,0,0,.09-.38v-.19c-.05-.12-.07-.25-.11-.37a2.32,2.32,0,0,1-.09-1.09.88.88,0,0,1,0-.29,3.37,3.37,0,0,1,.31-.46.78.78,0,0,0,.07-.53h.2s0,0,0,0a1.87,1.87,0,0,0-.07-1.88,1.23,1.23,0,0,0-.33-.35.75.75,0,0,0-.25-.09,1,1,0,0,0-.08-.14,1.27,1.27,0,0,1,0-.94c.09-.26.21-.52.29-.75s.2-.65,0-.88a.72.72,0,0,0-.33-.21h0v-.62l0-.15a7,7,0,0,1,.26-1.54,8.69,8.69,0,0,1,.29-.86q.14-.33.3-.66c.1-.19.19-.37.3-.56s.2-.35.31-.51l.3-.5c.09-.15.19-.3.3-.46v-.29Z" class="cls-6" transform="translate(-178.91 -558.81)"/><path d="M196.43,567.58a3.27,3.27,0,0,1-.35,0c0-.08-.25.25-.29.2a.58.58,0,0,0-.41-.18,2.68,2.68,0,0,0-.4,0l-.4,0h-.4a.5.5,0,0,1-.17,0,1.23,1.23,0,0,0-.26-.34,1.29,1.29,0,0,0-.37-.21h0l-.4.1a2.38,2.38,0,0,0-.4.16,2.27,2.27,0,0,0-.4.29v0c-.15,0-.19.18-.39.19h-.81a2.58,2.58,0,0,0-.4,0c-.14,0-.27,0-.4.06l-.4.08-.39.11-.4.12-.4.14-.4.14-.4.12-.34.1v.19H189c0,.12.16.18.33.21h.4l.4,0a1.33,1.33,0,0,1,.4,0,.36.36,0,0,1,.33.2.13.13,0,0,1,.08,0,.45.45,0,0,1,.41.24c.15.31-.05.8.13,1.21a1.43,1.43,0,0,0,.34.53l.41.42a.86.86,0,0,1,.26.53,3.55,3.55,0,0,1-.19,1.63c-.11.39-.25.76-.37,1.12a2.3,2.3,0,0,0,.07,2.08,2.69,2.69,0,0,0,.41.42s0,0,.07,0c0,.25,0,.53.22.55a4.73,4.73,0,0,0,.18.91.78.78,0,0,0,.23.37v2.19a3.87,3.87,0,0,1,.36,2.6,1.33,1.33,0,0,1-.15.32,1.31,1.31,0,0,1-.22.62,1.83,1.83,0,0,0-.39.73.53.53,0,0,0,0,.13.16.16,0,0,0,0,.09,1.57,1.57,0,0,0,.42.53.79.79,0,0,1,.17.84v.19c.23.76-.13,1.56.34,2.12a1.22,1.22,0,0,0,.29.25v.19a10.12,10.12,0,0,1,.17,1,9,9,0,0,0,.49,2.43,2.13,2.13,0,0,0,.37.58h.06c.37,0,0-.66.15-.92a.29.29,0,0,1-.19-.21,1.5,1.5,0,0,1,0-.68,2.79,2.79,0,0,0,0-.76v-.91c0-.74.36-1.16.22-2,.13-1.09-.37-1.64-.22-2.74h.22c-.05-.59.36-.77.21-1.47l.11-.08a1.42,1.42,0,0,0,.39-.62,1.92,1.92,0,0,0,0-1,2.59,2.59,0,0,0-.44-.82l0,0v-1.36c0-.25,0-.51.22-.55a.58.58,0,0,1,.14-.4.58.58,0,0,0,.07-.32c0-.11-.06-.22-.09-.33-.11-.33-.27-.71-.44-1.14s-.31-.78-.45-1.22a5.38,5.38,0,0,1-.26-1.88.75.75,0,0,1,.18-.7,2,2,0,0,0,.38-.48.71.71,0,0,0,.07-.27v-.38H195v-2l.06,0c.17,0,.26-.19.4-.27a.54.54,0,0,1,.39-.1l.18,0c.14,0,.25,0,.22-.19v0c.29-.81-.31-1.51.35-1.79a.38.38,0,0,0,.07-.19,2.18,2.18,0,0,1,0-.22C196.61,567.92,196.54,567.56,196.43,567.58Z" class="cls-7" transform="translate(-178.91 -558.81)"/></g></svg>