<svg xmlns="http://www.w3.org/2000/svg" id="Sponsors" viewBox="0 0 85.03 51.71"><defs><style>.cls-1{fill:#f8ee3f}.cls-2{fill:#cc2729}</style></defs><g id="Red_Bull" data-name="Red Bull"><path d="M87.2,584.34l.23,0Zm.62.1.26,0Zm.65.08.25,0Zm.35,0h0Zm.32,0h0Zm.34,0h0Zm.66,0h0Zm.35,0h0Zm.31,0,.25,0Zm.68-.07.19,0Zm11.74-21.58-.22-.1Zm-.7-.25-.27,0Zm16.7,13h0Zm-62.35-3.79a2.55,2.55,0,0,1-.68-1,3.53,3.53,0,0,1-.26-1.1,3.76,3.76,0,0,1,1.92-3.3,2.49,2.49,0,0,0,.69-.5.2.2,0,0,0-.11,0,2.81,2.81,0,0,1-2.38-1,2.45,2.45,0,0,1-.49-1.54,3.46,3.46,0,0,1,.12-.89c.38-.63.74-.46,1-.14a4,4,0,0,0,2.31,1,2.09,2.09,0,0,1,1.58.85,2.2,2.2,0,0,1,.39,1.27,1.58,1.58,0,0,1-.06.45c-.13.53-.69,1-1.47,1.62L59,568a2.48,2.48,0,0,0-1,1.73,1,1,0,0,0,.07.38l.06.14c.29.49,1.11.8,2.3.38a7.55,7.55,0,0,0,2.24-1.49,4.18,4.18,0,0,1,2.74-1,2.34,2.34,0,0,0,1.73-.68,4.1,4.1,0,0,1,3.1-1.47c.37,0,.39,0,.44-.12a4.07,4.07,0,0,1,1.58-1.31,5.35,5.35,0,0,1,1-.31l.34-.08.08,0A6.77,6.77,0,0,0,75.71,563l.05,0h0l0,0h0l0,0h0l.05,0h0l0,0h0l0,0h0l.05,0h0l0,0h0l0,0h0l0,0h0l.05,0,0,0h0l0,0H77.9l.19,0h0l.19.06h0l.36.13,0,0h0a13.62,13.62,0,0,1,10.33-5.53h1.45a13.6,13.6,0,0,1,10,5.4,4.08,4.08,0,0,1,1.06-.22h.55l.27,0h.22l0,0h0l0,0h0l0,0h0l0,0h0l.22.1h0l0,0h0l0,0h0l0,0h0l0,0h0l.05,0a8.27,8.27,0,0,0,1.57.89,4.75,4.75,0,0,0,.49.17l.09,0,.34.08c.19,0,.41.09.64.17a3.93,3.93,0,0,1,2,1.45c0,.07.07.1.44.13a4.08,4.08,0,0,1,3.1,1.46,2.33,2.33,0,0,0,1.72.68,4.19,4.19,0,0,1,2.75,1,7.43,7.43,0,0,0,2.24,1.49c1.19.42,2,.11,2.29-.38a.93.93,0,0,0,.12-.33,1.37,1.37,0,0,0,0-.19,2.51,2.51,0,0,0-1-1.73l-.08-.07-.37-.3c-.77-.61-1.33-1.09-1.47-1.62a2.06,2.06,0,0,1,0-.45,2.2,2.2,0,0,1,.39-1.27,2.09,2.09,0,0,1,1.58-.85,3.87,3.87,0,0,0,2.3-1c.23-.32.59-.49,1,.14a3.46,3.46,0,0,1,.12.89,2.51,2.51,0,0,1-.49,1.54,2.79,2.79,0,0,1-2.39,1,.19.19,0,0,0-.1,0,2.32,2.32,0,0,0,.69.5,3.8,3.8,0,0,1,1.92,3.3,3.53,3.53,0,0,1-.26,1.1,2.72,2.72,0,0,1-.57.93l-.11.1a4,4,0,0,1-3,.84l-.49-.05a5,5,0,0,1-.56,2.19.65.65,0,0,0-.11.29v.05l.69.4.11.06.08,0h.28c.43,0,1.07-.25,1.35.52.07.21.12.39.16.54a1.15,1.15,0,0,0,.44.78l.29-.26a3.81,3.81,0,0,0,.36-.33c.2-.2.56-.1.83,0a7.22,7.22,0,0,1,.82.46.83.83,0,0,1,.43.5.9.9,0,0,0,.48.46,1.38,1.38,0,0,1,.58,1.16.73.73,0,0,0,0,.25s0,.11.07.17c.34.67.07,1-.12,1.16a1.64,1.64,0,0,1-1.15.2v.11l-.63-.08a2.62,2.62,0,0,0-.76.07h0a1.3,1.3,0,0,1-1.37-.6l0-.06a2.06,2.06,0,0,0-.56-.64,2.13,2.13,0,0,1-.82.08,1.91,1.91,0,0,1-1.08-.47l-.19-.17a2.09,2.09,0,0,0-1.75-.6l-.27,0a2.63,2.63,0,0,1-1.93-.17,5.37,5.37,0,0,0-.63-.3c-.59-.26-1.21-.52-1.29-1.09a1.63,1.63,0,0,0-.21-.42,2.5,2.5,0,0,1-.23-.43,1.16,1.16,0,0,1-.12-.45,1.94,1.94,0,0,1-.59.06l-.22,0-.25,0a5.05,5.05,0,0,0-1.64-.12,8.68,8.68,0,0,1-2.89.19l-.36-.07a4,4,0,0,1-.54.47,7.7,7.7,0,0,1,.9,0l.46.12a2.73,2.73,0,0,1,.71,0l.53,0,.61.06c.3.06.61.19.56.77a1,1,0,0,1-.27.57,5.33,5.33,0,0,0-.47.7l0,0a.81.81,0,0,1-.84.51h-.21l-.06.12a1.86,1.86,0,0,1-.63.88l-.09.06a1.37,1.37,0,0,1-1.4.26l-.23-.08a17.52,17.52,0,0,1-2-.79l-.07,0c-.42-.23-.52-.28-.67-.26h-.09a1.2,1.2,0,0,1-1.36-.57l0-.06a13.53,13.53,0,0,1-8.51,5.37h0l-.36.06h0l-.17,0-.19,0-.12,0-.18,0h-.13l-.25,0H88.72l-.25,0h-.13l-.17,0h-.09l-.26,0h-.11l-.19,0-.09,0-.23,0-.16,0-.08,0-.34-.07h0l-.17,0-.09,0-.31-.08h0a13.62,13.62,0,0,1-7.43-5.36l-.23.35a1.22,1.22,0,0,1-1.36.58l-.09,0c-.15,0-.25,0-.67.26l-.06,0a16.45,16.45,0,0,1-2,.79l-.24.08a1.37,1.37,0,0,1-1.39-.25l-.1-.07a2,2,0,0,1-.63-.88l-.06-.12h-.2a.82.82,0,0,1-.85-.51l0,0a7.75,7.75,0,0,0-.47-.7,1,1,0,0,1-.27-.57.61.61,0,0,1,.55-.77l.61-.06.54,0a3.16,3.16,0,0,1,.7,0l.46-.12a7.8,7.8,0,0,1,.91,0,4.13,4.13,0,0,1-.55-.47l-.35.07A8.67,8.67,0,0,1,70,576a5.05,5.05,0,0,0-1.64.12l-.26,0a2.21,2.21,0,0,1-.81,0,1.93,1.93,0,0,1-.34.88,1.4,1.4,0,0,0-.21.43c-.08.56-.7.83-1.3,1.08a5.17,5.17,0,0,0-.62.3,2.64,2.64,0,0,1-1.93.17l-.28,0a2.1,2.1,0,0,0-1.75.6,2,2,0,0,1-2.08.56,1.94,1.94,0,0,0-.56.64,1.3,1.3,0,0,1-1.4.66h-.05a2.55,2.55,0,0,0-.75-.07l-.63.08v-.11a1.64,1.64,0,0,1-1.15-.2c-.19-.15-.46-.49-.12-1.16a.84.84,0,0,0,.1-.42,1.39,1.39,0,0,1,.58-1.16.84.84,0,0,0,.48-.46.93.93,0,0,1,.43-.5,6.59,6.59,0,0,1,.83-.46c.26-.1.62-.2.82,0s.66.6.66.6c.42-.33.38-.7.6-1.32.27-.78.92-.57,1.34-.53h.29l.07,0,.11-.06.69-.4v0a.63.63,0,0,0-.11-.3,5,5,0,0,1-.55-2.19l-.32,0a4,4,0,0,1-3.22-.83Z" class="cls-1" transform="translate(-45.8 -557.39)"/><path d="M61,572.11a5,5,0,0,0,.46,2.51s.44.63,0,1l-.92.53s-.12.1-.53.06c0,0-.57-.14-.76.12a8.35,8.35,0,0,1-.37.87,2.8,2.8,0,0,1-1.11,1.28,1.06,1.06,0,0,0-.73.6.66.66,0,0,1-.53.35s-.27.09-.44.68a3,3,0,0,0-.09.68,1.92,1.92,0,0,1,.75,0,.89.89,0,0,0,1.05-.36s.63-1.07,1.09-.91a1.64,1.64,0,0,0,1.6-.37,2.63,2.63,0,0,1,2.19-.79s1.45.29,1.9,0c0,0,.91-.48,1.25-.6a.69.69,0,0,0,.47-.58,4.31,4.31,0,0,1,.44-.86H66a3.35,3.35,0,0,1-1.69,1.36,3.63,3.63,0,0,1-1.74,0,3.49,3.49,0,0,0-3.15,1.2.43.43,0,0,1-.48.18,4,4,0,0,1,2.59-1.71,3.31,3.31,0,0,1,1.07-.05,4,4,0,0,0,3.51-2.29s-.12-2,.41-2.49c0,0,.21-.07.17.32,0,0-.37,2.11.32,2.52a1.54,1.54,0,0,0,1.13.2,5.91,5.91,0,0,1,2-.11,8.57,8.57,0,0,0,2.59.18,1.8,1.8,0,0,1-.25-1.05s.18-.41.37-.15a3.25,3.25,0,0,0,1.73,2,1.88,1.88,0,0,1,1.1,1.84,5.55,5.55,0,0,1-1.66.73s-.56.18-.74-.24c0,0-.72-1.54-1.35-1.49l-1.18.09s-.4.1-.1.43a8.78,8.78,0,0,1,.57.85s0,.28.42.22c0,0,.53-.26.83.71a1.55,1.55,0,0,0,.73.65,1.14,1.14,0,0,0,.83-.08,20.8,20.8,0,0,0,2.28-1,1.06,1.06,0,0,1,.75-.12.76.76,0,0,0,.83-.32l.6-.94a1,1,0,0,0,.11-.51.74.74,0,0,0-.18-.58,1.23,1.23,0,0,1-.27-.42l-.43-1a1.47,1.47,0,0,0-.36-.39l-.57,0a9.25,9.25,0,0,0,.68,1.42,2.22,2.22,0,0,1,.37,1,.75.75,0,0,1-.13.38l-.19.32a1.51,1.51,0,0,1-.31.46,2.06,2.06,0,0,1-.3.15s-.11,0,0-.16a3.12,3.12,0,0,0,.3-1,.69.69,0,0,0-.21-.6,10.44,10.44,0,0,1-.71-1.28,2.16,2.16,0,0,0-.3-.46.26.26,0,0,1,.13-.42,6.48,6.48,0,0,0,1-.31s.42-.13.7-1a6.55,6.55,0,0,0,.37-1.66,2.7,2.7,0,0,1-.44,2.87s.93.28,1.32,0c0,0,1.16-.17,1.39-.23,0,0,.29-.07.12.14a2.38,2.38,0,0,0-.38.83.59.59,0,0,1-.24.41s-.66.46-.72.9c0,0-.14.43.16.33,0,0,.39-.18.53,0,0,0,0,0-.11.19a1.35,1.35,0,0,0-.43.81,2.13,2.13,0,0,0,.22.71.45.45,0,0,0,.46.17.23.23,0,0,1,.21,0,1.76,1.76,0,0,0,.5-.13s.56-.15.74-.22a4,4,0,0,1,1-.23,1.73,1.73,0,0,1,.52,0,1.86,1.86,0,0,0,1.47-.55s.44-.35.6,0a2.9,2.9,0,0,0,2.8,1.06s-1.38-.57-1.74-1.34a3.12,3.12,0,0,0-.77-1.57s-.22-.3,0-.38c0,0,.12-.09.39.18a4.6,4.6,0,0,1,.93,1.26s.86,1.29,2.09.86a3.42,3.42,0,0,1-1.42-1.07,3.51,3.51,0,0,0-1.23-1.64,3.47,3.47,0,0,0-.47-1.65s-.23-1-.29-1.22a8.82,8.82,0,0,1-.23-1.12,3.12,3.12,0,0,0-.66-2,6.19,6.19,0,0,0-1.25-1.61s-.59-.72-1-1.16a10.37,10.37,0,0,0-1.81-1.54,8,8,0,0,1-1-.85s-2.19-1.57-3.78-.31a7.76,7.76,0,0,1-2,1,4,4,0,0,0-2.68,1.52s-.06.24-.82.33a3.32,3.32,0,0,0-2.88,1.43,3.11,3.11,0,0,1-1.69.69,3.75,3.75,0,0,0-3,1.22s-3,2.62-4.81.92c0,0-.93-.88.13-2.48a11.61,11.61,0,0,1,1.83-1.66,1.43,1.43,0,0,0,.5-1.68,1.52,1.52,0,0,0-1.62-1,5,5,0,0,1-2.47-1.22,2.07,2.07,0,0,0,2.32,2.74s.81.12.53.77a2.42,2.42,0,0,1-.93.75,2.82,2.82,0,0,0-1.36,1.78,2.5,2.5,0,0,0,1.36,3.31,5.8,5.8,0,0,0,2.84.06Zm-4.46,5.64a.58.58,0,0,1,.47-.12c.37.08.15.39.15.39a4.54,4.54,0,0,1-.64.75.55.55,0,0,1-.77-.06c-.32-.31.09-.47.09-.47A3.76,3.76,0,0,0,56.49,577.75Zm-.93,1.5a.25.25,0,0,1,.07.29,5.48,5.48,0,0,0-.33,1.26s-.76.14-.87-.24a.58.58,0,0,1,.11-.35,1.3,1.3,0,0,0,.16-.56s0-.9.57-.66a.91.91,0,0,1,.29.26Zm26.8-1.91c-.13,0-.17-.05-.15-.2a.94.94,0,0,1,.42-.59c.61-.37.69,0,.69,0,.11.66-.41.74-.41.74A3.24,3.24,0,0,1,82.36,577.34Zm1.86-2.94c0-.31,0-1-.28-1.24-.11-.09-.57-.59-.57-.59s-.12-.13-.12-.13-.22.21-.22.21c-.32.63-.65.55-.65.55a.62.62,0,0,1,.07-.24c.16-.31.32-.61.47-.92a2.13,2.13,0,0,0,.09-.25c.32-.49.61-.12.61-.12a13.39,13.39,0,0,0,.84,1.1.72.72,0,0,1,.17.39c.17,1.15-.41,1.24-.41,1.24Zm-6.5-7a.52.52,0,0,1,0-.51c.22-.34.43,0,.43,0a3.24,3.24,0,0,1,.19,2.62,3.71,3.71,0,0,0-.66-2.14Zm40.47,4.67a5,5,0,0,1-.46,2.51s-.45.63,0,1l.92.53s.12.1.53.06c0,0,.57-.14.76.12a6.45,6.45,0,0,0,.37.87,2.8,2.8,0,0,0,1.11,1.28,1,1,0,0,1,.72.6.69.69,0,0,0,.54.35s.27.09.44.68a3,3,0,0,1,.09.68,1.92,1.92,0,0,0-.75,0,.89.89,0,0,1-1-.36s-.63-1.07-1.09-.91a1.64,1.64,0,0,1-1.6-.37,2.63,2.63,0,0,0-2.19-.79s-1.45.29-1.9,0c0,0-.91-.48-1.25-.6a.69.69,0,0,1-.47-.58,4.31,4.31,0,0,0-.44-.86h.69a3.35,3.35,0,0,0,1.69,1.36,3.63,3.63,0,0,0,1.74,0,3.47,3.47,0,0,1,3.14,1.2s.21.29.49.18a4,4,0,0,0-2.59-1.71,3.31,3.31,0,0,0-1.07-.05,4,4,0,0,1-3.51-2.29s.12-2-.42-2.49c0,0-.2-.07-.16.32,0,0,.37,2.11-.32,2.52a1.56,1.56,0,0,1-1.14.2,5.84,5.84,0,0,0-2-.11,8.62,8.62,0,0,1-2.59.18,1.8,1.8,0,0,0,.25-1.05s-.18-.41-.37-.15a3.25,3.25,0,0,1-1.73,2,1.88,1.88,0,0,0-1.1,1.84,5.55,5.55,0,0,0,1.66.73s.56.18.74-.24c0,0,.72-1.54,1.35-1.49l1.18.09s.4.1.1.43a8.78,8.78,0,0,0-.57.85s0,.28-.42.22c0,0-.53-.26-.83.71a1.55,1.55,0,0,1-.73.65,1.15,1.15,0,0,1-.83-.08,20.8,20.8,0,0,1-2.28-1,1.06,1.06,0,0,0-.75-.12.76.76,0,0,1-.83-.32l-.6-.94a1,1,0,0,1-.11-.51.74.74,0,0,1,.18-.58,1.23,1.23,0,0,0,.27-.42l.43-1a1.47,1.47,0,0,1,.36-.39l.57,0a9.25,9.25,0,0,1-.68,1.42,2.22,2.22,0,0,0-.37,1,.75.75,0,0,0,.13.38l.19.32a1.51,1.51,0,0,0,.31.46,2.06,2.06,0,0,0,.3.15s.11,0,0-.16a3.12,3.12,0,0,1-.3-1,.71.71,0,0,1,.2-.6,10.23,10.23,0,0,0,.72-1.28,1.83,1.83,0,0,1,.3-.46.26.26,0,0,0-.13-.42,6.48,6.48,0,0,1-1-.31s-.42-.13-.7-1a6.55,6.55,0,0,1-.37-1.66,2.7,2.7,0,0,0,.44,2.87s-.93.28-1.32,0c0,0-1.16-.17-1.39-.23,0,0-.29-.07-.12.14a2.38,2.38,0,0,1,.38.83.59.59,0,0,0,.24.41s.66.46.71.9c0,0,.15.43-.15.33,0,0-.39-.18-.53,0,0,0,0,0,.11.19a1.35,1.35,0,0,1,.43.81,2.13,2.13,0,0,1-.22.71.45.45,0,0,1-.46.17.23.23,0,0,0-.21,0,1.76,1.76,0,0,1-.5-.13s-.56-.15-.74-.22a4,4,0,0,0-1.06-.23,1.67,1.67,0,0,0-.51,0,1.86,1.86,0,0,1-1.47-.55s-.45-.35-.6,0a2.9,2.9,0,0,1-2.8,1.06s1.38-.57,1.73-1.34a3.21,3.21,0,0,1,.78-1.57s.22-.3,0-.38c0,0-.12-.09-.39.18a4.6,4.6,0,0,0-.93,1.26s-.86,1.29-2.09.86a3.42,3.42,0,0,0,1.42-1.07,3.53,3.53,0,0,1,1.22-1.64,3.53,3.53,0,0,1,.48-1.65s.23-1,.29-1.22a8.82,8.82,0,0,0,.23-1.12,3.12,3.12,0,0,1,.66-2,6.19,6.19,0,0,1,1.25-1.61s.59-.72,1-1.16a10.37,10.37,0,0,1,1.81-1.54,8,8,0,0,0,1-.85s2.19-1.57,3.78-.31a7.76,7.76,0,0,0,2,1,3.93,3.93,0,0,1,2.67,1.52s.07.24.83.33a3.32,3.32,0,0,1,2.88,1.43,3.11,3.11,0,0,0,1.69.69,3.75,3.75,0,0,1,3,1.22s3,2.62,4.81.92c0,0,.93-.88-.13-2.48a11.61,11.61,0,0,0-1.83-1.66,1.44,1.44,0,0,1-.51-1.68,1.54,1.54,0,0,1,1.63-1A5,5,0,0,0,123,562.7a2.07,2.07,0,0,1-2.32,2.74s-.82.12-.53.77a2.42,2.42,0,0,0,.93.75,2.82,2.82,0,0,1,1.36,1.78,2.5,2.5,0,0,1-1.36,3.31,5.8,5.8,0,0,1-2.84.06Zm4.46,5.64a.58.58,0,0,0-.47-.12c-.37.08-.15.39-.15.39a4.54,4.54,0,0,0,.64.75.55.55,0,0,0,.77-.06c.32-.31-.1-.47-.1-.47A4,4,0,0,1,122.65,577.75Zm.93,1.5a.25.25,0,0,0-.07.29,5.48,5.48,0,0,1,.33,1.26s.76.14.87-.24a.58.58,0,0,0-.11-.35,1.3,1.3,0,0,1-.16-.56s0-.9-.57-.66a.91.91,0,0,0-.29.26Zm-26.8-1.91c.13,0,.17-.05.15-.2a.94.94,0,0,0-.42-.59c-.62-.37-.69,0-.69,0-.11.66.41.74.41.74a3.24,3.24,0,0,0,.55.05Zm-1.86-2.94c0-.31,0-1,.28-1.24.11-.09.57-.59.57-.59s.12-.13.12-.13.22.21.22.21c.32.63.65.55.65.55a.56.56,0,0,0-.08-.24l-.46-.92a1.25,1.25,0,0,1-.09-.25c-.32-.49-.62-.12-.62-.12a11.7,11.7,0,0,1-.83,1.1.63.63,0,0,0-.17.39c-.17,1.15.41,1.24.41,1.24Zm6.5-7a.52.52,0,0,0,0-.51c-.22-.34-.43,0-.43,0a3.24,3.24,0,0,0-.19,2.62,3.71,3.71,0,0,1,.66-2.14Z" class="cls-2" transform="translate(-45.8 -557.39)"/><path d="M45.8,589.22V608.5h3.89V592.9h1.83s2.86-.13,2.86,2.47a2.43,2.43,0,0,1-2.54,2.54h-.93v4.44l3.89,6.15h4.56l-5.43-7.89a5,5,0,0,0,4.47-5.24c0-4.85-3.38-6.15-7.88-6.15Zm56.87,9a5.08,5.08,0,0,0,1.7-3.84c0-2.51-1.82-4.78-5.71-4.78H92.15V608.5h8s5.74-.07,5.74-5.26C105.91,600.23,104.74,599.07,102.67,598.24Zm-3.14,7H96v-12.3h1.87s2.53-.19,2.53,2a1.83,1.83,0,0,1-2,2H97.27v3.31h2.26a2.37,2.37,0,0,1,2.49,2.47c0,2.17-2.49,2.48-2.49,2.48Zm27.66-16.37h3.64V608.5h-3.64V588.84Zm-6.25,0h3.68V608.5h-3.68V588.84ZM107,597h3.72v6.59s.13,2.22,2.22,2.22,2.06-2.22,2.06-2.22V597h3.76v6.79s.48,5.3-5.72,5.3-6-4.66-6-5.5V597Zm-24.72-8.14v8.91a7.23,7.23,0,0,0-3.86-1.38,5.58,5.58,0,0,0-5.53,6c0,4.57,3,6.3,5.5,6.3A5.42,5.42,0,0,0,82.35,607v1.49H86V588.84Zm-2.83,16.63c-.2,0-2.61,0-2.61-2.93a2.81,2.81,0,0,1,2.64-3,3,3,0,0,1,3,3A2.92,2.92,0,0,1,79.46,605.47Zm-13.89-9.1c6.24,0,6,6.08,6,6.08v1H63.09A2.64,2.64,0,0,0,65.83,606a3,3,0,0,0,2.38-1.51l3,1.48a6.07,6.07,0,0,1-5.33,2.93c-6.5,0-6.62-5.4-6.62-6.08s.09-6.43,6.33-6.43Zm-2.41,4.82h4.63A2.35,2.35,0,0,0,65.51,599,2.44,2.44,0,0,0,63.16,601.19Z" class="cls-2" transform="translate(-45.8 -557.39)"/></g></svg>