<svg xmlns="http://www.w3.org/2000/svg" id="Sponsors" viewBox="0 0 118.88 18.02"><defs><style>.cls-1{fill:#241f21}</style></defs><g id="The_Statesman" data-name="The Statesman"><path d="M171.74,185.57a8.06,8.06,0,0,1,5-.94c1.74.36,3.48,1.09,5.29.89a2.47,2.47,0,0,0,1.68-1,3.26,3.26,0,0,1-.46,2.24,4.22,4.22,0,0,1-2.64,1.5v8.33a6.06,6.06,0,0,0,3.31-5.19,7.29,7.29,0,0,1-.82,5.82,6.38,6.38,0,0,1-4.7,2.65,7,7,0,0,1-5.15-2.07,5.67,5.67,0,0,1-1.72-5.18,8.9,8.9,0,0,1,3.54-4.93,3.82,3.82,0,0,0-3.33,1,4,4,0,0,0-.92,2.63,3.66,3.66,0,0,1-.94-2.07v-.66a4.09,4.09,0,0,1,1.83-3m.34,1.74a3,3,0,0,0-1.35,2.33,3.72,3.72,0,0,1,2.83-2.17c2.36-.3,4.63.93,7,.57a2.91,2.91,0,0,0,1.42-.61c-2.39.43-4.67-.62-7-.71a4.88,4.88,0,0,0-2.86.59m3.65.59a5.88,5.88,0,0,0-2.17,4.94,4,4,0,0,0,1.81,3l1-.64c0-2.37,0-4.74,0-7.11,0-.33-.42-.39-.6-.18m1.05,0c0,2.34,0,4.68,0,7l.43-.31c0-2.13,0-4.25,0-6.38l-.41-.34m2.58.51c0,1.7,0,3.39,0,5.09L175.64,196a5.12,5.12,0,0,0,4.74.69v-8.36a8.69,8.69,0,0,1-1,0m-7.26,7a6.28,6.28,0,0,0,7.66,3.78,5.3,5.3,0,0,0,3.44-3,10.06,10.06,0,0,1-1,1.18,6,6,0,0,1-6.71,1.12,5.48,5.48,0,0,1-3.22-4.05,5.91,5.91,0,0,1,.84-4.38A5.54,5.54,0,0,0,172.1,195.39Z" class="cls-1" transform="translate(-169.91 -183.89)"/><path d="M184.6,186.63a25.61,25.61,0,0,0,2.24-1.77,16.28,16.28,0,0,0,1.92,1.79c-.18.26-.44.52-.42.87,0,1.17,0,2.35,0,3.52.73-.71,1.48-1.4,2.21-2.12.55.67,1.13,1.32,1.68,2,.19.17.16.43.16.66,0,2,0,4,0,6a4,4,0,0,1-1.29,2.88,6.19,6.19,0,0,1-2.79,1.45h-.72a5.65,5.65,0,0,1-2.66-1.31,2.65,2.65,0,0,1-.85-1.91,3,3,0,0,0,2.74,1.61,3.08,3.08,0,0,0,2.14-1,2.64,2.64,0,0,0,.53-1.85c0-1.63,0-3.27,0-4.9a.94.94,0,0,0-1.13-1V197a2.09,2.09,0,0,0,.33,1.11c-.6.61-1.24,1.18-1.85,1.77-.74-.63-1.48-1.27-2.26-1.85a3.48,3.48,0,0,0,.77-1.88c0-2.7,0-5.4,0-8.09a2,2,0,0,0-.72-1.46m.51.12a1.9,1.9,0,0,1,.5,1.06q0,4.4,0,8.79A2.16,2.16,0,0,1,185,198c.58.51,1.2,1,1.8,1.47l.35-.34a7.37,7.37,0,0,1-1.43-1.24c.07-.4.45-.69.44-1.11,0-3-.07-6-.1-8.94a1.91,1.91,0,0,0-.27-1c.43-.38.85-.77,1.29-1.14l-.3-.36c-.55.47-1.06,1-1.63,1.43m3.84,4.44c.28.33.72.61.78,1.07.09,2,0,4,0,6a2.44,2.44,0,0,1-1.06,1.85,4.26,4.26,0,0,1-2.72.45,2.31,2.31,0,0,0,2.24.09,2.79,2.79,0,0,0,2-2.4c-.11-2.12,0-4.24-.06-6.36a4.17,4.17,0,0,0-1-1Z" class="cls-1" transform="translate(-169.91 -183.89)"/><path d="M194.51,191.05a15.74,15.74,0,0,0,3.64-1.52c.8.87,1.62,1.71,2.42,2.58-1.12,1-2.49,1.86-3.35,3.16-.24.29-.16.67-.17,1a11.55,11.55,0,0,0,1.58,1.29c.57-.37,1.05-.86,1.58-1.28l.29.27c-1.28,1.1-2.53,2.24-3.82,3.34a33.48,33.48,0,0,0-2.58-2.33c0-2,0-4.09,0-6.13,0-.24.23-.31.4-.39m2.62.15c0,.28-.1.61.11.84.4.5.78,1,1.18,1.52.1-.09.19-.19.29-.29a14,14,0,0,0-1.58-2.07m-2.72.25c0,1.94,0,3.87,0,5.8.75.71,1.5,1.42,2.24,2.14l.29-.2c-.69-.73-1.39-1.43-2.08-2.15,0-1.88,0-3.77,0-5.65l-.43.06m2.74.89c0,.78,0,1.56,0,2.34.34-.32.7-.64,1-1C197.84,193.25,197.5,192.79,197.15,192.34Z" class="cls-1" transform="translate(-169.91 -183.89)"/><path d="M210.22,183.89h1.07a9,9,0,0,1,4.16,1.55c.55.42,1.09-.25,1.51-.56l.15.34a9.56,9.56,0,0,0-3.28,3.29,7.34,7.34,0,0,0-4.79-2.33,3.29,3.29,0,0,0-2.66.66c-.35.36,0,.8.35,1a6.8,6.8,0,0,0,2.82.88c1.52.21,3,.37,4.58.48a13,13,0,0,1,2.63-2.75c.2-.1.48-.4.65-.06a12.27,12.27,0,0,0-2.93,2.91,5.57,5.57,0,0,1,2.92,1.7,4.08,4.08,0,0,1,.44,4.34,9.88,9.88,0,0,1-3.41,3.3,11.12,11.12,0,0,0-2,1.9,30,30,0,0,0-2.58-1.9,17.65,17.65,0,0,1-2.87,2.3,3.43,3.43,0,0,1-2.11.51,1.89,1.89,0,0,1-1.59-1.65,2.74,2.74,0,0,1,1-2.14,8.41,8.41,0,0,1,6.61-1.87l.27-.5a9.68,9.68,0,0,1-4.94-1.73,4.56,4.56,0,0,1-1.47-3.38,3.26,3.26,0,0,1,.5-2,3,3,0,0,0,.21,1.26,4.62,4.62,0,0,0,2.21,2,13.16,13.16,0,0,0,4.78,1.12c.06-.09.16-.27.21-.37a14.31,14.31,0,0,1-4.91-1.27,3.63,3.63,0,0,1-2.05-3.41,3.34,3.34,0,0,1,1.07-2,5.54,5.54,0,0,1,3.51-1.61M207,186a7.93,7.93,0,0,1,2-.24c1.79.08,3.29,1.21,4.66,2.25l.3-.53a7.46,7.46,0,0,0-3.79-2.13A4.11,4.11,0,0,0,207,186m-.66,3.12A3.92,3.92,0,0,0,208.5,191a20,20,0,0,0,4.86,1,5.3,5.3,0,0,1,2.44.83,3.51,3.51,0,0,1,1.47,2,2,2,0,0,0-.63-2.2c-1.15-1.06-2.79-1.16-4.27-1.35-2.1-.3-4.34-.67-6-2.1m-1,2.6a3.63,3.63,0,0,0,1.74,2.05,12.5,12.5,0,0,0,5.47,1.33,3.32,3.32,0,0,1,2.64,1.35,1.58,1.58,0,0,0-.35-1.08,3.4,3.4,0,0,0-2.31-.77,12.5,12.5,0,0,1-5.09-1,7.12,7.12,0,0,1-2.1-1.84m7.51.48-.16.38a7,7,0,0,1,2.71,1,2.15,2.15,0,0,1,1,1.87,3.53,3.53,0,0,1-1.19,2,2.21,2.21,0,0,0-.89-1.47,4.19,4.19,0,0,0-2.82-.5c-.09.18-.19.36-.28.55a10.44,10.44,0,0,1,2.54,1.38c.45.28,1,.69,1.56.4a3.81,3.81,0,0,0,1.57-1.88,2.34,2.34,0,0,0-.91-2.72,5.5,5.5,0,0,0-3.09-1m-7.05,5.43a9.26,9.26,0,0,1,3.51.46,17.84,17.84,0,0,1,3.13,2l.48-.55a8.14,8.14,0,0,0-5-2.27,3.1,3.1,0,0,0-2.11.4m-1.23.72a1.48,1.48,0,0,0-.39,2.38,2.49,2.49,0,0,0,2.45,0,9,9,0,0,0,2.72-2.28A5.56,5.56,0,0,0,204.55,198.39Z" class="cls-1" transform="translate(-169.91 -183.89)"/><path d="M220,188.11c1-.75,2.06-1.48,3.1-2.19l.33.42-.39.37v2.82h2.35l-1.19,2.75H223c0,1.39,0,2.77,0,4.15.38.39.74.79,1.11,1.17l.81-.63.2.26c-.92.91-1.8,1.87-2.74,2.77a21.9,21.9,0,0,0-2.12-2.08c0-1.88,0-3.76,0-5.64h-1.6c-.08-.14-.17-.27-.25-.4.41-.76.8-1.53,1.18-2.31h.64c0-.5.13-1-.24-1.45m.56.08v1.36h.41v-1.68l-.41.31M219,191.48l-.15.47c.56,0,1.13.05,1.7.05,0,1.89,0,3.78,0,5.66.56.65,1.21,1.21,1.83,1.8,0-.07.11-.24.15-.32-.49-.62-1.14-1.09-1.61-1.72,0-2,0-4,0-5.95-.64,0-1.28,0-1.92,0m4,.06V192h.91c.06-.17.11-.34.17-.51Z" class="cls-1" transform="translate(-169.91 -183.89)"/><path d="M226,191.88a12.38,12.38,0,0,0,4.8-2.35c.72.73,1.43,1.47,2.14,2.21,0,1.81,0,3.61,0,5.42a.64.64,0,0,0,.61.64,1.39,1.39,0,0,0,.77-.47l.23.19c-.89.82-1.81,1.62-2.7,2.44a11.88,11.88,0,0,1-1.91-1.84c-.74.59-1.48,1.17-2.21,1.77a4.32,4.32,0,0,1-2-2.57,3.39,3.39,0,0,1,1.86-3.18c.8-.41,1.63-.76,2.44-1.14-.36-.54-.83-1-1.24-1.49l-2.49.73-.28-.36m3.2-.52a14.39,14.39,0,0,1,1,1.19c.06,1.72,0,3.44.06,5.16,0,.89.95,1.3,1.54,1.79l.27-.24a11.57,11.57,0,0,1-1.16-1,3.64,3.64,0,0,1-.14-1.47c0-1.49,0-3,0-4.46a12.61,12.61,0,0,0-1.31-1.22l-.31.3M228,194.22a1.26,1.26,0,0,0-.49,1.74,3.33,3.33,0,0,0,1.91,1.79.3.3,0,0,0,.42-.31c.09-1.33,0-2.67.06-4-.64.26-1.28.5-1.9.78m-2,3.36a3.7,3.7,0,0,0,1.62,1.91c.13-.14.25-.29.38-.44a4.17,4.17,0,0,1-1.86-2.93A2.23,2.23,0,0,0,226,197.58Z" class="cls-1" transform="translate(-169.91 -183.89)"/><path d="M235,188.09c1-.73,2-1.44,3.07-2.18a3.51,3.51,0,0,1,.29.36c0,.19-.22.29-.32.44,0,.94,0,1.88,0,2.82h2.34c-.4.91-.79,1.83-1.2,2.74H238v4.13l1.11,1.19a6.68,6.68,0,0,1,.8-.6l.25.2c-.93.93-1.83,1.87-2.76,2.79-.68-.74-1.43-1.42-2.12-2.14,0-1.86,0-3.72,0-5.58h-1.59l-.25-.33c.36-.81.79-1.58,1.18-2.38h.63a2,2,0,0,0-.23-1.47m.55.11c0,.45,0,.9,0,1.36H236c0-.55,0-1.11,0-1.67l-.41.32m-1.5,3.27c0,.16-.11.32-.17.48.56,0,1.13.05,1.69.05v5.69c.61.56,1.17,1.19,1.82,1.72l.23-.24c-.51-.61-1.14-1.12-1.64-1.73,0-2,0-4,0-6H234m4,.06c0,.17,0,.34,0,.51h.9c.06-.16.11-.33.17-.5Z" class="cls-1" transform="translate(-169.91 -183.89)"/><path d="M241.29,191a15.7,15.7,0,0,0,3.57-1.47q1.19,1.29,2.4,2.55c-1.08,1.07-2.45,1.85-3.31,3.12a1.56,1.56,0,0,0-.21,1.08,11.51,11.51,0,0,0,1.6,1.28,18.73,18.73,0,0,0,1.53-1.27l.33.24c-1.26,1.14-2.55,2.23-3.81,3.36-.84-.8-1.69-1.61-2.6-2.35,0-2,0-4.07,0-6.11,0-.26.29-.35.49-.43m2.53.21c0,.21,0,.42,0,.63l1.32,1.73.29-.3c-.33-.49-.68-1-1-1.45-.17-.22-.31-.5-.58-.61m-2.73.19c0,2,0,3.9,0,5.85.75.7,1.48,1.43,2.24,2.13l.28-.21L241.54,197c0-1.87,0-3.75,0-5.62h-.45m2.75.93v2.34c.35-.32.69-.65,1-1C244.53,193.25,244.19,192.79,243.84,192.34Z" class="cls-1" transform="translate(-169.91 -183.89)"/><path d="M247.8,190.9c1-.52,1.95-1,2.91-1.54a5.6,5.6,0,0,0,2.1,1.44,4.52,4.52,0,0,0,2.64-.81,12.67,12.67,0,0,1-2.71,2.29,2.74,2.74,0,0,1-2.14,0c0,.4,0,.8,0,1.19.34.21.69.4,1,.6.6-.62,1.18-1.25,1.79-1.85.66.33,1.31.67,2,1v4.88c-1.39.61-2.77,1.26-4.17,1.85-.43-.75-.94-1.64-1.84-1.87-.68-.13-1.15.43-1.55.88,0-.44.39-.74.68-1a3.76,3.76,0,0,1,3.95-.72c0-.78,0-1.55,0-2.33-.22-.15-.5-.43-.79-.26a16.85,16.85,0,0,0-1.74,1.94,17.65,17.65,0,0,1-2.14-1.26c0-1.48,0-3,0-4.44m.33.22c0,1.34,0,2.69,0,4,.59.33,1.17.69,1.75,1,.09-.13.19-.26.28-.4l-1.51-1c0-1.3,0-2.6,0-3.9l-.5.24m2.52.46V192a2.7,2.7,0,0,0,2.61-.26,4.63,4.63,0,0,1-2.61-.17M252,194.3c.38.16.91.4.88.9,0,1.22,0,2.45,0,3.67l.5-.21c0-1.24,0-2.48,0-3.72,0-.56-.62-.78-1.05-.95l-.31.31m-2,3.65a5.9,5.9,0,0,1,1.5,1.49l.43-.06C251.43,198.71,250.82,197.86,249.93,198Z" class="cls-1" transform="translate(-169.91 -183.89)"/><path d="M255.51,191.63c.78-.82,1.63-1.57,2.44-2.36.66.64,1.31,1.29,2,1.93.69-.63,1.4-1.24,2.11-1.84l2.1,1.94,2.26-2c.76.76,1.47,1.56,2.2,2.34.06,1.88,0,3.78,0,5.66a2.08,2.08,0,0,0,.25.8l.78-.8.28.18c-.74.79-1.49,1.56-2.25,2.32-.18.21-.48.09-.67,0a2.25,2.25,0,0,1-1.26-1.79c0-1.76,0-3.52,0-5.29l-1.26-1.28c0,2,0,4,0,6a1.62,1.62,0,0,0,.42.87c-.59.52-1.18,1-1.76,1.57-.68-.49-1.34-1-2-1.5a1.43,1.43,0,0,0,.42-.95c0-1.52,0-3,0-4.55-.45-.44-.89-.89-1.36-1.32.06,2,0,3.92.07,5.88a1.83,1.83,0,0,0,.31.9,14,14,0,0,0-1.69,1.57c-.67-.49-1.34-1-2-1.44a3.08,3.08,0,0,0,.48-1.45c0-1.42,0-2.84,0-4.26-.39-.42-.78-.84-1.21-1.23l-.34.29-.24-.2m.83-.27,1.19,1.09c0,1.71,0,3.42,0,5.13a2,2,0,0,1-.25.82l1.47,1.09a3.14,3.14,0,0,1,.18-.31c-.37-.29-.74-.59-1.1-.9a1.85,1.85,0,0,0,.25-.69c0-1.76,0-3.53,0-5.29-.46-.45-.92-.91-1.39-1.35l-.33.41m4.2-.05c.41.47.86.92,1.29,1.39,0,1.73,0,3.45,0,5.17l-.32.53,1.59,1.14.27-.32c-.44-.32-.9-.6-1.31-.95a1.6,1.6,0,0,0,.25-.69c0-1.66,0-3.31,0-5-.48-.56-1-1.1-1.45-1.67l-.35.36m4.21-.07c.42.44.85.86,1.27,1.29,0,1.73,0,3.46,0,5.19a1.94,1.94,0,0,0,.61,1.49c.27.23.67.63.94.18A1.6,1.6,0,0,1,266.5,198c0-1.89,0-3.77,0-5.65L265.11,191Z" class="cls-1" transform="translate(-169.91 -183.89)"/><path d="M270.69,191.85a11.82,11.82,0,0,0,4.79-2.32c.72.72,1.42,1.46,2.13,2.2,0,1.89,0,3.79,0,5.69a.78.78,0,0,0,1.36-.1l.23.18c-.85.87-1.8,1.63-2.69,2.46a11,11,0,0,1-1.89-1.85l-2.23,1.78a4.31,4.31,0,0,1-2-2.57,3.41,3.41,0,0,1,1.56-3c.87-.49,1.8-.87,2.72-1.28a13.53,13.53,0,0,0-1.22-1.52c-.84.26-1.68.52-2.53.74l-.24-.39m3.2-.51c.32.42.74.77,1,1.2.05,1.69,0,3.37,0,5.06,0,1,1,1.4,1.57,1.92l.24-.27c-.48-.5-1.34-.85-1.28-1.67,0-1.78.05-3.56,0-5.33-.44-.4-.87-.8-1.32-1.19l-.31.28m-1.43,3a1.41,1.41,0,0,0,0,1.82c.46.75,1.16,1.63,2.14,1.54.15-1.43.06-2.87.09-4.31a19.16,19.16,0,0,0-2.18.95m-1.7,3.32a3.83,3.83,0,0,0,1.57,1.78l.38-.43a4.26,4.26,0,0,1-1.86-2.94A2.24,2.24,0,0,0,270.76,197.71Z" class="cls-1" transform="translate(-169.91 -183.89)"/><path d="M278.41,191.56c.76-.77,1.58-1.51,2.38-2.24l2.2,2c.74-.65,1.5-1.29,2.24-1.95.74.73,1.47,1.47,2.2,2.2,0,1.8,0,3.61,0,5.42a3.06,3.06,0,0,0,.26,1c.28-.23.55-.47.82-.72l.25.17v0c-.81.8-1.58,1.64-2.44,2.39a2.28,2.28,0,0,1-1.83-2.32c.05-1.57,0-3.14,0-4.7-.47-.43-.94-.88-1.41-1.3,0,1.91-.07,3.81-.06,5.71a2.38,2.38,0,0,0,.29,1.07,19.3,19.3,0,0,0-1.7,1.55l-2-1.43a3.89,3.89,0,0,0,.43-1.6c0-1.35,0-2.71-.05-4a6,6,0,0,0-1.09-1.26l-.46.28c0-.08-.09-.23-.11-.3m1.06-.58-.25.33,1.23,1.25c0,1.63,0,3.25,0,4.88a1.94,1.94,0,0,1-.28.93c.47.38.95.74,1.43,1.12a3.71,3.71,0,0,1,.23-.32c-.4-.29-.78-.6-1.16-.9a2.46,2.46,0,0,0,.2-.84c0-1.69,0-3.38,0-5.07-.47-.47-.95-.92-1.43-1.38m4.07.29,1.34,1.32c0,1.8,0,3.61.05,5.42a1.77,1.77,0,0,0,1.22,1.63l.27-.3c-.45-.32-1-.71-1-1.33,0-1.9,0-3.8,0-5.69-.52-.46-1-.94-1.53-1.41Z" class="cls-1" transform="translate(-169.91 -183.89)"/></g></svg>