<svg xmlns="http://www.w3.org/2000/svg" id="Sponsors" viewBox="0 0 55.9 45.82"><defs><style>.cls-1,.cls-4{fill:#ed303b}.cls-1,.cls-2{fill-rule:evenodd}.cls-2{fill:#ffd300}.cls-3{isolation:isolate}</style></defs><g id="Vi"><path id="_path_" d="M383.51,490.44h10.65V460.51H383.51v29.93Zm-14.13-29.93-6.89,27.89-6.9-27.9H344.94l7.4,29.94h20.3L380,460.5H369.38Z" class="cls-1" data-name="&lt;path&gt;" transform="translate(-344.94 -459.7)"/><path id="_circle_" d="M394.64,499.72a5.8,5.8,0,1,1-5.8-5.8,5.8,5.8,0,0,1,5.8,5.8" class="cls-2" data-name="&lt;circle&gt;" transform="translate(-344.94 -459.7)"/><g class="cls-3"><path d="M396.62,462.42V460h-.9v-.32h2.16V460H397v2.4Z" class="cls-4" transform="translate(-344.94 -459.7)"/><path d="M398.24,462.42V459.7h.54l.65,1.93.13.4c0-.1.08-.24.14-.44l.66-1.89h.48v2.72h-.35v-2.28l-.79,2.28h-.32l-.79-2.32v2.32Z" class="cls-4" transform="translate(-344.94 -459.7)"/></g></g></svg>