<svg xmlns="http://www.w3.org/2000/svg" id="Sponsors" viewBox="0 0 46.79 46.41"><defs><style>.cls-1{fill:#006ad0}</style></defs><g id="Bajaj"><path id="path5888" d="M69.66,466.17l13.71,5.93s1.88-.83,3.7-1.61a.67.67,0,0,0,.35-.55.68.68,0,0,0-.45-.6s-6.16-2.67-12.33-5.29l11-4.74.94-.18.89.18,16.57,7.13s1.68.74,1.68,1.7c0,0,0,1-1.68,1.66l-13,5.57,13,5.56s1.68.69,1.68,1.75c0,0,0,.92-1.68,1.7l-16.57,7a1.53,1.53,0,0,1-.89.28l-.94-.28-11-4.69L87,481.48l.45-.59a.91.91,0,0,0-.35-.6l-3.7-1.57-13.71,5.94v-6.72l6-2.57-6-2.49v-6.71" class="cls-1" transform="translate(-64.32 -459.13)"/><g id="svg_1" data-name="svg 1"><path id="path5874" d="M92.5,497.28v5.85a2.35,2.35,0,0,1-2.33,2.41H86.39a.89.89,0,0,1-.73-.49L85,503.78h4.27s.94,0,.94-.88v-5.62H92.5" class="cls-1" transform="translate(-64.32 -459.13)"/><path id="path5876" d="M80.84,497.28l4.29,8.26H82.45l-.72-1.5H77.79l.63-1.26a.87.87,0,0,1,.73-.49h1.73l-1.52-3-3,6.29H73.63l4.29-8.26h2.92" class="cls-1" transform="translate(-64.32 -459.13)"/><path id="path5878" d="M99.49,497.28l4.25,8.26h-2.63l-.75-1.5h-4l.65-1.26a.92.92,0,0,1,.75-.49h1.73l-1.52-3-3.09,6.29H92.24l4.3-8.26h2.95" class="cls-1" transform="translate(-64.32 -459.13)"/><path id="path5880" d="M111.11,497.28v5.85a2.35,2.35,0,0,1-2.28,2.41H105a.89.89,0,0,1-.74-.49l-.65-1.27h4.29s1,0,1-.88v-5.62h2.24" class="cls-1" transform="translate(-64.32 -459.13)"/><path id="path5884" d="M64.32,497.28v8.26H66.6V499h3.94a.73.73,0,0,1,.81.71c0,.65-.81.65-.81.65H68a.93.93,0,0,0-.73.45L66.6,502h3.9a.85.85,0,0,1,.85.87.86.86,0,0,1-.85.88H68a.89.89,0,0,0-.73.47l-.67,1.29h3.94c3.35,0,3.35-2.25,3.35-2.25a2.27,2.27,0,0,0-1.58-2,2.09,2.09,0,0,0,1.58-1.92c0-2.15-3.35-2.13-3.35-2.13Z" class="cls-1" transform="translate(-64.32 -459.13)"/></g></g></svg>