<svg xmlns="http://www.w3.org/2000/svg" id="Sponsors" viewBox="0 0 64.84 64.84"><defs><style>.cls-1{fill:#de2939}.cls-2,.cls-4{fill:#fff}.cls-3{fill:#007bad}.cls-4{fill-rule:evenodd}</style></defs><g id="Dominos"><rect id="rect7" width="47.07" height="22.83" x="199.03" y="461.01" class="cls-1" rx="1.88" transform="translate(-467.5 -152.74) rotate(-45)"/><circle id="circle9" cx="9.54" cy="32.5" r="3.77" class="cls-2"/><circle id="circle11" cx="21.27" cy="32.58" r="3.77" class="cls-2"/><circle id="circle13" cx="32.58" cy="15.28" r="3.77" class="cls-2"/><rect id="rect15" width="1.41" height="22.83" x="222.36" y="460.51" class="cls-2" transform="translate(-467 -152.54) rotate(-45)"/><rect id="rect17" width="47.07" height="22.83" x="216.01" y="477.98" class="cls-3" rx="1.88" transform="translate(-474.53 -135.77) rotate(-45)"/><path id="path19" d="M223.82,503.62,218,497.8l2-2c2.83-2.16,7.82,2.83,5.82,5.83Zm-3-6,3,3c1-1.33-1.67-4-3-3m4.83-4.32c2.33-2.33,6.57,1.91,4.24,4.24S223.32,495.64,225.65,493.31Zm1.08,1.08c.58-.58,2.66,1.5,2.08,2.08S226.15,495,226.73,494.39Zm1.41-3.08,1.5-1.5.5.5a1.65,1.65,0,0,1,1.2-2,1.8,1.8,0,0,1,.8,0,1.64,1.64,0,0,1,1.2-2,1.51,1.51,0,0,1,.79,0l3.5,3.49-1.42,1.42-2.49-2.5c-.33-.15-.62,0-.65.26a.63.63,0,0,0,.06.32l2.5,2.5-1.5,1.5-2.49-2.5c-.33-.15-.62,0-.65.26a.63.63,0,0,0,.06.32l2.5,2.5-1.41,1.41Zm6.16-6.16,1.5-1.5,4,4-1.5,1.5Zm-1.58-3.08a1.22,1.22,0,1,0,1.73,0,1.22,1.22,0,0,0-1.73,0m3.74.92,1.42-1.42.66.67a1.48,1.48,0,0,1,2.33-1.66l3,3L242.45,485l-2.49-2.5c-.33-.15-.62,0-.65.26a.63.63,0,0,0,.06.32l2.5,2.5L240.46,487Zm5.49-6c2.33-2.33,6.58,1.91,4.25,4.24S239.62,479.33,242,477Zm1.09,1.08c.58-.58,2.66,1.5,2.08,2.08S242.45,478.66,243,478.08Zm.08-5.41,1.5-1.5,1.58,3.58-1.08,1.08Zm6.16-.5c-2.17.83-1,1.67.16.83a1.85,1.85,0,0,1,1.83,3.17,4.06,4.06,0,0,1-1.91.91l-.33-1.33c2.08-.75,1.08-1.75-.59-.75-2,.67-3.66-3,.34-4.33ZM232.8,509.28,231.14,511l-6-6,1.66-1.66a2.82,2.82,0,1,1,4,4ZM228,504.46a1.12,1.12,0,1,1,1.58,1.58Zm3.24-1.92,1.5-1.5,4.16,4.16-1.5,1.5Zm-1.35-2.84a1.22,1.22,0,1,0,1.73,0,1.23,1.23,0,0,0-1.73,0m3.42.77,3.16-3.16,1.58,4.24,1.25-1.24,1.25,1.24-3.25,3.25-1.66-4.33-1.16,1.17Zm3.74-3.74,3.17-3.16,1.58,4.24,1.25-1.25,1.24,1.25L241,501.13l-1.59-4.41L238.13,498Zm9.16-2.17c.28,1.34-.57,2.17-1.92,1.86a4.26,4.26,0,0,1-2.94-3,1.45,1.45,0,0,1,1.86-1.86l-.5-.5,1.58-1.58,4.16,4.16-1.58,1.58Zm-1-1c.26.47.12.76-.3.63a2.53,2.53,0,0,1-1.23-1.1c-.26-.48-.13-.76.3-.63a.89.89,0,0,1,.23.1Z" class="cls-4" transform="translate(-198.64 -448.49)"/></g></svg>