<svg xmlns="http://www.w3.org/2000/svg" xmlns:xlink="http://www.w3.org/1999/xlink" id="Sponsors" viewBox="0 0 66.35 41.29"><defs><style>.cls-1{mask:url(#mask)}.cls-10,.cls-12,.cls-14,.cls-16,.cls-18,.cls-2,.cls-20,.cls-22,.cls-24,.cls-4,.cls-6,.cls-8{mix-blend-mode:multiply}.cls-2{fill:url(#linear-gradient)}.cls-3{mask:url(#mask-2)}.cls-4{fill:url(#linear-gradient-2)}.cls-5{mask:url(#mask-3)}.cls-6{fill:url(#linear-gradient-3)}.cls-7{mask:url(#mask-4)}.cls-8{fill:url(#linear-gradient-4)}.cls-9{mask:url(#mask-5)}.cls-10{fill:url(#linear-gradient-5)}.cls-11{mask:url(#mask-6)}.cls-12{fill:url(#linear-gradient-6)}.cls-13{mask:url(#mask-7)}.cls-14{fill:url(#linear-gradient-7)}.cls-15{mask:url(#mask-8)}.cls-16{fill:url(#linear-gradient-8)}.cls-17{mask:url(#mask-9)}.cls-18{fill:url(#linear-gradient-9)}.cls-19{mask:url(#mask-10)}.cls-20{fill:url(#linear-gradient-10)}.cls-21{mask:url(#mask-11)}.cls-22{fill:url(#linear-gradient-11)}.cls-23{mask:url(#mask-12)}.cls-24{fill:url(#linear-gradient-12)}.cls-25{fill:none}.cls-26{fill:#002d74}.cls-27{fill:url(#radial-gradient)}.cls-28{fill:url(#radial-gradient-2)}.cls-29{fill:url(#radial-gradient-3)}.cls-30{fill:url(#radial-gradient-4)}.cls-31{fill:url(#radial-gradient-5)}.cls-32{clip-path:url(#clip-path)}.cls-33{clip-path:url(#clip-path-2)}.cls-34{clip-path:url(#clip-path-3)}.cls-35{fill:#fff}.cls-36{fill:url(#linear-gradient-13)}.cls-37{mask:url(#mask-13)}.cls-38{fill:url(#linear-gradient-14)}.cls-39{fill:url(#linear-gradient-15)}.cls-40{fill:url(#linear-gradient-16)}.cls-41{fill:url(#linear-gradient-17)}.cls-42{fill:url(#linear-gradient-18)}.cls-43{fill:url(#linear-gradient-19)}.cls-44{fill:url(#linear-gradient-20)}.cls-45{fill:url(#linear-gradient-21)}.cls-46{fill:url(#linear-gradient-22)}.cls-47{fill:url(#linear-gradient-23)}.cls-48{mask:url(#mask-14)}.cls-49{fill:url(#linear-gradient-24)}.cls-50{mask:url(#mask-15)}.cls-51{fill:url(#linear-gradient-25)}.cls-52{mask:url(#mask-16)}.cls-53{fill:url(#linear-gradient-26)}.cls-54{mask:url(#mask-17)}.cls-55{fill:url(#linear-gradient-27)}.cls-56{mask:url(#mask-18)}.cls-57{fill:url(#linear-gradient-28)}.cls-58{fill:url(#linear-gradient-29)}.cls-59{mask:url(#mask-19)}.cls-60{fill:url(#linear-gradient-30)}.cls-61{mask:url(#mask-20)}.cls-62{fill:url(#linear-gradient-31)}.cls-63{fill:url(#linear-gradient-32)}.cls-64{mask:url(#mask-21)}.cls-65{fill:url(#linear-gradient-33)}.cls-66{mask:url(#mask-22)}.cls-67{fill:url(#linear-gradient-34)}.cls-68{mask:url(#mask-23)}.cls-69{fill:url(#linear-gradient-35)}.cls-70{mask:url(#mask-24)}.cls-71{fill:url(#linear-gradient-36)}.cls-72{fill:url(#linear-gradient-37)}.cls-73{fill:url(#linear-gradient-38)}.cls-74{fill:url(#linear-gradient-39)}.cls-75{fill:url(#linear-gradient-40)}.cls-76{fill:url(#linear-gradient-41)}.cls-77{fill:url(#linear-gradient-42)}.cls-78{filter:url(#luminosity-noclip-24)}.cls-79{filter:url(#luminosity-noclip-23)}.cls-80{filter:url(#luminosity-noclip-22)}.cls-81{filter:url(#luminosity-noclip-21)}.cls-82{filter:url(#luminosity-noclip-20)}.cls-83{filter:url(#luminosity-noclip-19)}.cls-84{filter:url(#luminosity-noclip-18)}.cls-85{filter:url(#luminosity-noclip-17)}.cls-86{filter:url(#luminosity-noclip-16)}.cls-87{filter:url(#luminosity-noclip-15)}.cls-88{filter:url(#luminosity-noclip-14)}.cls-89{filter:url(#luminosity-noclip-13)}</style><filter id="luminosity-noclip" width="15.03" height="32766" x="512.27" y="-8613" color-interpolation-filters="sRGB" filterUnits="userSpaceOnUse"><feFlood flood-color="#fff" result="bg"/><feBlend in="SourceGraphic" in2="bg"/></filter><linearGradient id="linear-gradient" x1="518.84" x2="521.21" y1="288.46" y2="279.19" gradientUnits="userSpaceOnUse"><stop offset="0" stop-color="#fff"/><stop offset=".63" stop-color="#fff"/><stop offset=".73" stop-color="#aeaeae"/><stop offset=".86" stop-color="#515151"/><stop offset=".96" stop-color="#171717"/><stop offset="1"/></linearGradient><filter id="luminosity-noclip-2" width="9.05" height="32766" x="511.12" y="-8613" color-interpolation-filters="sRGB" filterUnits="userSpaceOnUse"><feFlood flood-color="#fff" result="bg"/><feBlend in="SourceGraphic" in2="bg"/></filter><linearGradient id="linear-gradient-2" x1="517.36" x2="514.12" y1="284.36" y2="288.8" gradientUnits="userSpaceOnUse"><stop offset="0"/><stop offset=".51" stop-color="#fff"/><stop offset=".57" stop-color="#fbfbfb"/><stop offset=".64" stop-color="#efefef"/><stop offset=".7" stop-color="#dadada"/><stop offset=".76" stop-color="#bebebe"/><stop offset=".82" stop-color="#999"/><stop offset=".88" stop-color="#6b6b6b"/><stop offset=".94" stop-color="#373737"/><stop offset="1"/></linearGradient><filter id="luminosity-noclip-3" width="3.83" height="32766" x="494.38" y="-8613" color-interpolation-filters="sRGB" filterUnits="userSpaceOnUse"><feFlood flood-color="#fff" result="bg"/><feBlend in="SourceGraphic" in2="bg"/></filter><linearGradient id="linear-gradient-3" x1="496.87" x2="495.06" y1="283.28" y2="284.61" gradientUnits="userSpaceOnUse"><stop offset="0"/><stop offset=".1" stop-color="#4a4a4a"/><stop offset=".19" stop-color="#8a8a8a"/><stop offset=".28" stop-color="#bdbdbd"/><stop offset=".35" stop-color="#e1e1e1"/><stop offset=".42" stop-color="#f7f7f7"/><stop offset=".45" stop-color="#fff"/><stop offset=".63" stop-color="#fff"/><stop offset=".64" stop-color="#fff"/><stop offset=".69" stop-color="#fbfbfb"/><stop offset=".74" stop-color="#f0f0f0"/><stop offset=".78" stop-color="#dedede"/><stop offset=".83" stop-color="#c4c4c4"/><stop offset=".87" stop-color="#a2a2a2"/><stop offset=".91" stop-color="#797979"/><stop offset=".95" stop-color="#494949"/><stop offset=".99" stop-color="#121212"/><stop offset="1"/></linearGradient><filter id="luminosity-noclip-4" width="5.26" height="32766" x="504" y="-8613" color-interpolation-filters="sRGB" filterUnits="userSpaceOnUse"><feFlood flood-color="#fff" result="bg"/><feBlend in="SourceGraphic" in2="bg"/></filter><linearGradient id="linear-gradient-4" x1="506.51" x2="507.1" y1="265.32" y2="266.48" gradientUnits="userSpaceOnUse"><stop offset="0" stop-color="#545454"/><stop offset=".07" stop-color="#585858"/><stop offset=".14" stop-color="#656565"/><stop offset=".22" stop-color="#797979"/><stop offset=".29" stop-color="#969696"/><stop offset=".36" stop-color="#bbb"/><stop offset=".44" stop-color="#e8e8e8"/><stop offset=".47" stop-color="#fff"/><stop offset=".57" stop-color="#fff"/><stop offset=".61" stop-color="#dbdbdb"/><stop offset=".72" stop-color="#7e7e7e"/><stop offset=".81" stop-color="#3a3a3a"/><stop offset=".88" stop-color="#101010"/><stop offset=".91"/></linearGradient><filter id="luminosity-noclip-5" width="9.24" height="32766" x="505.59" y="-8613" color-interpolation-filters="sRGB" filterUnits="userSpaceOnUse"><feFlood flood-color="#fff" result="bg"/><feBlend in="SourceGraphic" in2="bg"/></filter><linearGradient id="linear-gradient-5" x1="507.36" x2="512.14" y1="272.44" y2="276.75" gradientUnits="userSpaceOnUse"><stop offset=".07"/><stop offset=".1" stop-color="#252525"/><stop offset=".14" stop-color="#585858"/><stop offset=".18" stop-color="#848484"/><stop offset=".23" stop-color="#aaa"/><stop offset=".27" stop-color="#c9c9c9"/><stop offset=".32" stop-color="#e1e1e1"/><stop offset=".37" stop-color="#f2f2f2"/><stop offset=".43" stop-color="#fcfcfc"/><stop offset=".5" stop-color="#fff"/><stop offset=".57" stop-color="#fcfcfc"/><stop offset=".63" stop-color="#f2f2f2"/><stop offset=".68" stop-color="#e1e1e1"/><stop offset=".73" stop-color="#c9c9c9"/><stop offset=".78" stop-color="#aaa"/><stop offset=".82" stop-color="#848484"/><stop offset=".87" stop-color="#585858"/><stop offset=".91" stop-color="#252525"/><stop offset=".94"/></linearGradient><filter id="luminosity-noclip-6" width="11.12" height="32766" x="511.23" y="-8613" color-interpolation-filters="sRGB" filterUnits="userSpaceOnUse"><feFlood flood-color="#fff" result="bg"/><feBlend in="SourceGraphic" in2="bg"/></filter><linearGradient id="linear-gradient-6" x1="519.34" x2="514.93" y1="281.65" y2="276.01" gradientUnits="userSpaceOnUse"><stop offset="0"/><stop offset=".12" stop-color="#fff"/><stop offset=".44" stop-color="#fff"/><stop offset=".71" stop-color="#fff"/><stop offset="1"/></linearGradient><filter id="luminosity-noclip-7" width="3.36" height="32766" x="526.86" y="-8613" color-interpolation-filters="sRGB" filterUnits="userSpaceOnUse"><feFlood flood-color="#fff" result="bg"/><feBlend in="SourceGraphic" in2="bg"/></filter><linearGradient id="linear-gradient-7" x1="528.51" x2="528.6" y1="267.31" y2="268.08" gradientUnits="userSpaceOnUse"><stop offset="0"/><stop offset=".05" stop-color="#3b3b3b"/><stop offset=".1" stop-color="#6f6f6f"/><stop offset=".16" stop-color="#9b9b9b"/><stop offset=".21" stop-color="#bfbfbf"/><stop offset=".26" stop-color="#dbdbdb"/><stop offset=".32" stop-color="#efefef"/><stop offset=".37" stop-color="#fbfbfb"/><stop offset=".42" stop-color="#fff"/><stop offset=".58" stop-color="#fff"/><stop offset=".61" stop-color="#f7f7f7"/><stop offset=".67" stop-color="#e0e0e0"/><stop offset=".74" stop-color="#bcbcbc"/><stop offset=".82" stop-color="#888"/><stop offset=".91" stop-color="#484848"/><stop offset="1"/></linearGradient><filter id="luminosity-noclip-8" width="3.64" height="32766" x="518.55" y="-8613" color-interpolation-filters="sRGB" filterUnits="userSpaceOnUse"><feFlood flood-color="#fff" result="bg"/><feBlend in="SourceGraphic" in2="bg"/></filter><linearGradient id="linear-gradient-8" x1="520.01" x2="520.81" y1="277.47" y2="278.58" gradientUnits="userSpaceOnUse"><stop offset="0"/><stop offset=".07" stop-color="#0f0f0f"/><stop offset=".16" stop-color="#1c1c1c"/><stop offset=".27" stop-color="#242424"/><stop offset=".52" stop-color="#262626"/><stop offset=".73" stop-color="#242424"/><stop offset=".84" stop-color="#1b1b1b"/><stop offset=".94" stop-color="#0e0e0e"/><stop offset="1"/></linearGradient><filter id="luminosity-noclip-9" width="5.22" height="32766" x="518.68" y="-8613" color-interpolation-filters="sRGB" filterUnits="userSpaceOnUse"><feFlood flood-color="#fff" result="bg"/><feBlend in="SourceGraphic" in2="bg"/></filter><linearGradient id="linear-gradient-9" x1="520.98" x2="521.46" y1="286.94" y2="287.92" gradientUnits="userSpaceOnUse"><stop offset="0" stop-color="#333"/><stop offset=".08" stop-color="#6f6f6f"/><stop offset=".16" stop-color="#a2a2a2"/><stop offset=".23" stop-color="#cacaca"/><stop offset=".29" stop-color="#e7e7e7"/><stop offset=".35" stop-color="#f9f9f9"/><stop offset=".39" stop-color="#fff"/><stop offset=".44" stop-color="#fbfbfb"/><stop offset=".49" stop-color="#efefef"/><stop offset=".53" stop-color="#dbdbdb"/><stop offset=".58" stop-color="#bfbfbf"/><stop offset=".62" stop-color="#9b9b9b"/><stop offset=".67" stop-color="#6e6e6e"/><stop offset=".72" stop-color="#3b3b3b"/><stop offset=".76"/></linearGradient><filter id="luminosity-noclip-10" width="3.46" height="32766" x="497.73" y="-8613" color-interpolation-filters="sRGB" filterUnits="userSpaceOnUse"><feFlood flood-color="#fff" result="bg"/><feBlend in="SourceGraphic" in2="bg"/></filter><linearGradient id="linear-gradient-10" x1="499.37" x2="499.54" y1="284.87" y2="286.35" gradientUnits="userSpaceOnUse"><stop offset="0"/><stop offset=".06"/><stop offset=".15" stop-color="#565656"/><stop offset=".24" stop-color="#9f9f9f"/><stop offset=".31" stop-color="#d3d3d3"/><stop offset=".37" stop-color="#f3f3f3"/><stop offset=".4" stop-color="#fff"/><stop offset=".5" stop-color="#fff"/><stop offset=".53" stop-color="#eee"/><stop offset=".58" stop-color="#c3c3c3"/><stop offset=".66" stop-color="#7d7d7d"/><stop offset=".76" stop-color="#1e1e1e"/><stop offset=".79"/><stop offset="1"/></linearGradient><filter id="luminosity-noclip-11" width="3.25" height="32766" x="530.06" y="-8613" color-interpolation-filters="sRGB" filterUnits="userSpaceOnUse"><feFlood flood-color="#fff" result="bg"/><feBlend in="SourceGraphic" in2="bg"/></filter><linearGradient id="linear-gradient-11" x1="531.23" x2="532.27" y1="269.37" y2="268.73" gradientUnits="userSpaceOnUse"><stop offset="0"/><stop offset=".04" stop-color="#1e1e1e"/><stop offset=".18" stop-color="#7d7d7d"/><stop offset=".29" stop-color="#c3c3c3"/><stop offset=".38" stop-color="#eee"/><stop offset=".42" stop-color="#fff"/><stop offset=".52" stop-color="#fff"/><stop offset=".57" stop-color="#fafafa"/><stop offset=".63" stop-color="#ebebeb"/><stop offset=".69" stop-color="#d2d2d2"/><stop offset=".76" stop-color="#b0b0b0"/><stop offset=".83" stop-color="#848484"/><stop offset=".91" stop-color="#4e4e4e"/><stop offset=".98" stop-color="#0f0f0f"/><stop offset="1"/></linearGradient><filter id="luminosity-noclip-12" width="4.17" height="32766" x="508.95" y="-8613" color-interpolation-filters="sRGB" filterUnits="userSpaceOnUse"><feFlood flood-color="#fff" result="bg"/><feBlend in="SourceGraphic" in2="bg"/></filter><linearGradient id="linear-gradient-12" x1="511.79" x2="510.21" y1="264.82" y2="266.51" gradientUnits="userSpaceOnUse"><stop offset="0"/><stop offset=".03" stop-color="#1e1e1e"/><stop offset=".11" stop-color="#616161"/><stop offset=".19" stop-color="#999"/><stop offset=".25" stop-color="#c5c5c5"/><stop offset=".32" stop-color="#e5e5e5"/><stop offset=".37" stop-color="#f8f8f8"/><stop offset=".4" stop-color="#fff"/><stop offset=".46" stop-color="#f1f1f1"/><stop offset=".56" stop-color="#ccc"/><stop offset=".7" stop-color="#909090"/><stop offset=".88" stop-color="#3f3f3f"/><stop offset="1"/></linearGradient><radialGradient id="radial-gradient" cx="632.08" cy="288.48" r="25.25" gradientTransform="translate(-101.04 -13.3) scale(0.98)" gradientUnits="userSpaceOnUse"><stop offset="0" stop-color="#8b9394"/><stop offset="1" stop-color="#727a79"/></radialGradient><radialGradient id="radial-gradient-2" cx="632.58" cy="281.41" r="31.32" gradientTransform="translate(-103.69 -11.86) scale(0.98 0.98)" gradientUnits="userSpaceOnUse"><stop offset="0" stop-color="#969d9d"/><stop offset=".61" stop-color="#7a8182"/><stop offset="1" stop-color="#4b5050"/></radialGradient><radialGradient id="radial-gradient-3" cx="620.59" cy="287.4" r="25.89" gradientTransform="translate(-101.04 -13.3) scale(0.98)" gradientUnits="userSpaceOnUse"><stop offset="0" stop-color="#969d9d"/><stop offset=".46" stop-color="#828b8a"/><stop offset="1" stop-color="#c2c9c8"/></radialGradient><radialGradient id="radial-gradient-4" cx="631.75" cy="299.75" r="14.4" gradientTransform="translate(-101.04 -13.3) scale(0.98)" gradientUnits="userSpaceOnUse"><stop offset="0" stop-color="#969d9d"/><stop offset=".61" stop-color="#828b8a"/><stop offset="1" stop-color="#727a79"/></radialGradient><radialGradient id="radial-gradient-5" cx="649.58" cy="293.31" r="20.73" xlink:href="#radial-gradient-4"/><clipPath id="clip-path" transform="translate(-480.48 -263.12)"><path d="M514,289.79c14.31,0,25.91-5.92,25.91-13.22s-11.6-13.23-25.91-13.23-25.9,5.93-25.9,13.23S499.65,289.79,514,289.79Zm4.88-6.48c-.43,1-1.18,3.13-2.88,4a4.33,4.33,0,0,1-1.74.39H514A45.52,45.52,0,0,1,501.21,286c-.27-.08-.87-.23-.87-.59a.59.59,0,0,1,.21-.42l.24-.21a29.78,29.78,0,0,1,8.33-4.44,40.92,40.92,0,0,1,6.09-1.94C516.53,278.08,521.41,277.34,518.83,283.31ZM531.92,270a.51.51,0,0,1,.43-.31.83.83,0,0,1,.54.17c3,1.87,4.85,4.2,4.85,6.72,0,4.57-5.88,8.49-14.29,10.2-.54.11-.9.11-1,0a.33.33,0,0,1,0-.41,1.51,1.51,0,0,1,.22-.31c4.58-5.39,8.08-13.32,9.06-15.62C531.78,270.24,531.86,270.08,531.92,270Zm-22.76-.18c.43-1,1.17-3.12,2.88-4a4.33,4.33,0,0,1,1.73-.4H514a44.83,44.83,0,0,1,12.76,1.75c.27.08.86.18.86.56a.55.55,0,0,1-.22.42,1.24,1.24,0,0,1-.23.21,30,30,0,0,1-8.32,4.44,39.5,39.5,0,0,1-6.1,1.95C511.46,275,506.58,275.77,509.16,269.8Zm-4.69-3.42c.55-.11,1-.11,1.09,0a.32.32,0,0,1,0,.41l-.22.31c-4.59,5.38-8.07,13.32-9.06,15.61-.08.16-.15.32-.21.42a.56.56,0,0,1-.44.31,1,1,0,0,1-.53-.18c-3-1.87-4.92-4.2-4.92-6.72C490.18,272,496.07,268.08,504.47,266.38Z" class="cls-25"/></clipPath><clipPath id="clip-path-2" transform="translate(-480.48 -263.12)"><path d="M514,289.53c-14.14,0-25.64-5.82-25.64-13s11.5-13,25.64-13,25.65,5.81,25.65,13S528.09,289.53,514,289.53Zm2.9-11.62a8.75,8.75,0,0,0-1.69.19,41,41,0,0,0-6.09,1.93l-.05,0a29.6,29.6,0,0,0-8.4,4.49l-.12.1-.13.12a.83.83,0,0,0-.29.61c0,.54.65.72,1,.82l.06,0A45.94,45.94,0,0,0,514,287.94h.28a4.59,4.59,0,0,0,1.83-.41c1.64-.82,2.42-2.7,2.88-3.83l.12-.28c.87-2,1-3.49.38-4.43A2.89,2.89,0,0,0,516.85,277.91Zm15.56-8.51h-.09a.74.74,0,0,0-.63.45,4.24,4.24,0,0,0-.22.41c-1.6,3.73-4.88,10.7-9,15.57a1.43,1.43,0,0,0-.25.35.6.6,0,0,0,0,.72.76.76,0,0,0,.59.19,4.07,4.07,0,0,0,.68-.08c8.81-1.8,14.5-5.9,14.5-10.46,0-2.54-1.72-4.94-5-6.94A1.17,1.17,0,0,0,532.41,269.4ZM505.14,266a3.52,3.52,0,0,0-.72.09c-8.81,1.79-14.51,5.89-14.51,10.45,0,2.52,1.75,4.92,5,6.95a1.33,1.33,0,0,0,.67.21.8.8,0,0,0,.66-.43,2.81,2.81,0,0,0,.18-.35l0-.09c2.85-6.6,6-12,9-15.56a3.78,3.78,0,0,0,.24-.35.57.57,0,0,0,0-.72A.77.77,0,0,0,505.14,266Zm8.62-.86a4.49,4.49,0,0,0-1.84.42c-1.63.81-2.41,2.68-2.87,3.8l-.13.31c-.87,2-1,3.49-.38,4.42a2.88,2.88,0,0,0,2.6,1.09,8.75,8.75,0,0,0,1.69-.19,39.32,39.32,0,0,0,6.14-2,29.56,29.56,0,0,0,8.4-4.49,1.6,1.6,0,0,0,.26-.23.8.8,0,0,0,.28-.6c0-.53-.61-.7-.94-.79l-.1,0A45.45,45.45,0,0,0,514,265.17Z" class="cls-25"/></clipPath><clipPath id="clip-path-3" transform="translate(-480.48 -263.12)"><path d="M514,289.51c-14.12,0-25.61-5.8-25.61-12.94s11.49-12.95,25.61-12.95,25.61,5.81,25.61,12.95S528.08,289.51,514,289.51Zm2.9-11.6a8,8,0,0,0-1.69.19,40.81,40.81,0,0,0-6.08,1.93H509a30.06,30.06,0,0,0-8.4,4.49l-.11.1-.14.12a.86.86,0,0,0-.28.61c0,.53.64.72,1,.82l.06,0A45.92,45.92,0,0,0,514,287.93h.28a4.68,4.68,0,0,0,1.82-.42c1.65-.82,2.42-2.7,2.88-3.82l.12-.28c.87-2,1-3.49.39-4.42A2.9,2.9,0,0,0,516.85,277.91Zm15.54-8.5h-.09a.71.71,0,0,0-.63.45,3.32,3.32,0,0,0-.22.41c-1.6,3.73-4.88,10.69-9,15.55a1.85,1.85,0,0,0-.26.35.6.6,0,0,0,0,.71.76.76,0,0,0,.59.2,4.07,4.07,0,0,0,.68-.08c8.8-1.8,14.48-5.9,14.48-10.45,0-2.54-1.72-4.94-5-6.93A1.14,1.14,0,0,0,532.39,269.41Zm-27.24-3.36a3.43,3.43,0,0,0-.72.08c-8.8,1.79-14.49,5.88-14.49,10.44,0,2.51,1.74,4.91,5,6.94a1.4,1.4,0,0,0,.67.21.78.78,0,0,0,.66-.42,4,4,0,0,0,.18-.36l.05-.09c2.85-6.59,6-12,9-15.54a2.21,2.21,0,0,0,.24-.35.57.57,0,0,0,0-.72A.77.77,0,0,0,505.15,266.05Zm8.61-.87a4.74,4.74,0,0,0-1.83.42c-1.64.81-2.41,2.68-2.88,3.79l-.13.32c-.86,2-1,3.48-.38,4.42a2.9,2.9,0,0,0,2.6,1.08,8.66,8.66,0,0,0,1.69-.19,39.66,39.66,0,0,0,6.14-2,29.56,29.56,0,0,0,8.38-4.48,1.26,1.26,0,0,0,.26-.23.8.8,0,0,0,.29-.59c0-.54-.62-.71-.95-.8l-.1,0A45.62,45.62,0,0,0,514,265.18Z" class="cls-25"/></clipPath><linearGradient id="linear-gradient-13" x1="513.32" x2="514.6" y1="264.44" y2="288.87" gradientUnits="userSpaceOnUse"><stop offset="0" stop-color="#fff"/><stop offset=".4" stop-color="#fff"/><stop offset=".57" stop-color="#a4aaaa"/><stop offset=".63" stop-color="#8f9697"/><stop offset=".66" stop-color="#878f90"/><stop offset=".75" stop-color="#969d9d"/><stop offset=".81" stop-color="#fff"/></linearGradient><filter id="luminosity-noclip-13" width="15.03" height="12.47" x="512.27" y="276.88" color-interpolation-filters="sRGB" filterUnits="userSpaceOnUse"><feFlood flood-color="#fff" result="bg"/><feBlend in="SourceGraphic" in2="bg"/></filter><mask id="mask-13" width="15.03" height="12.47" x="31.79" y="13.75" maskUnits="userSpaceOnUse"><g class="cls-89"><g><g class="cls-1"><path d="M521.59,286.05a64.43,64.43,0,0,0,5.71-9.17l-6.67,2.24a10.62,10.62,0,0,1-4,8.72,13.27,13.27,0,0,1-3.72.44l-.62,1A44.16,44.16,0,0,0,525,288.13h0l.59-1.36C523.81,287.49,519.36,288.76,521.59,286.05Z" class="cls-2" transform="translate(-480.48 -263.12)"/></g></g></g></mask><linearGradient id="linear-gradient-14" x1="518.84" x2="521.21" y1="288.46" y2="279.19" gradientUnits="userSpaceOnUse"><stop offset="0" stop-color="#fff"/><stop offset=".63" stop-color="#fff"/><stop offset=".68" stop-color="#f1f2f2"/><stop offset=".9" stop-color="#b7bdbe"/><stop offset="1" stop-color="#a0a8aa"/></linearGradient><linearGradient id="linear-gradient-15" x1="511.47" x2="506.7" y1="275.68" y2="267.18" gradientUnits="userSpaceOnUse"><stop offset="0" stop-color="#e5eeed"/><stop offset=".28" stop-color="#cfd7d7"/><stop offset=".55" stop-color="#b6bcbd"/><stop offset="1" stop-color="#a0a8aa"/></linearGradient><linearGradient id="linear-gradient-16" x1="515.63" x2="519.66" y1="267.75" y2="273.52" xlink:href="#linear-gradient-15"/><linearGradient id="linear-gradient-17" x1="499.11" x2="499.11" y1="281.28" y2="268.11" gradientUnits="userSpaceOnUse"><stop offset="0" stop-color="#fff"/><stop offset=".06" stop-color="#f6f7f7"/><stop offset=".16" stop-color="#dfe1e1"/><stop offset=".29" stop-color="#b9bcbc"/><stop offset=".43" stop-color="#858a8a"/><stop offset=".53" stop-color="#5f6666"/><stop offset=".77" stop-color="#4b5050"/><stop offset="1" stop-color="#404444"/></linearGradient><linearGradient id="linear-gradient-18" x1="521.39" x2="506.84" y1="284.07" y2="280.35" gradientUnits="userSpaceOnUse"><stop offset="0" stop-color="#8b9394"/><stop offset=".18" stop-color="#7a8182"/><stop offset=".34" stop-color="#646a6b"/><stop offset=".57" stop-color="#404444"/><stop offset="1" stop-color="#333737"/></linearGradient><linearGradient id="linear-gradient-19" x1="497.75" x2="517.85" y1="287.14" y2="287.14" gradientUnits="userSpaceOnUse"><stop offset="0" stop-color="#fff"/><stop offset=".93" stop-color="#fff"/><stop offset="1" stop-color="#fff"/></linearGradient><linearGradient id="linear-gradient-20" x1="531.28" x2="520.86" y1="270.13" y2="286.24" gradientUnits="userSpaceOnUse"><stop offset="0" stop-color="#abb3b3"/><stop offset=".38" stop-color="#727a79"/><stop offset=".42" stop-color="#575d5c"/><stop offset=".45" stop-color="#464a4a"/><stop offset=".47" stop-color="#404444"/><stop offset="1" stop-color="#333737"/></linearGradient><linearGradient id="linear-gradient-21" x1="527.76" x2="512.05" y1="266.93" y2="264.81" gradientUnits="userSpaceOnUse"><stop offset="0" stop-color="#4b5050"/><stop offset=".11" stop-color="#434747"/><stop offset=".39" stop-color="#323534"/><stop offset=".68" stop-color="#282a2a"/><stop offset="1" stop-color="#252726"/></linearGradient><linearGradient id="linear-gradient-22" x1="532.68" x2="537.66" y1="267.53" y2="275.8" gradientUnits="userSpaceOnUse"><stop offset="0" stop-color="#252726"/><stop offset=".07" stop-color="#2b2e2d"/><stop offset=".33" stop-color="#404444"/><stop offset=".43" stop-color="#4a4f4f"/><stop offset=".69" stop-color="#5f6666"/><stop offset=".74" stop-color="#666d6d"/><stop offset=".82" stop-color="#798181"/><stop offset=".87" stop-color="#8b9394"/><stop offset="1" stop-color="#a0a8aa"/></linearGradient><linearGradient id="linear-gradient-23" x1="522.85" x2="538.39" y1="288.39" y2="278.68" gradientUnits="userSpaceOnUse"><stop offset="0" stop-color="#fff"/><stop offset=".77" stop-color="#fff"/><stop offset=".83" stop-color="#e8ebeb"/><stop offset=".9" stop-color="#ccd4d3"/><stop offset=".96" stop-color="#afb7b8"/><stop offset="1" stop-color="#a0a8aa"/></linearGradient><filter id="luminosity-noclip-14" width="3.36" height="2.52" x="526.86" y="266.43" color-interpolation-filters="sRGB" filterUnits="userSpaceOnUse"><feFlood flood-color="#fff" result="bg"/><feBlend in="SourceGraphic" in2="bg"/></filter><mask id="mask-14" width="3.36" height="2.52" x="46.38" y="3.3" maskUnits="userSpaceOnUse"><g class="cls-88"><g><g class="cls-13"><path d="M530.21,267.45c0-.13-.18-.24-.38-.33-.61-.25-1.23-.48-1.87-.69l-1.1.77.12,0a.46.46,0,0,1,.14,0c.34.11.51.26.53.44v0a.59.59,0,0,1-.22.43,1.81,1.81,0,0,1-.23.2l-.23.19,2.19.39a4.54,4.54,0,0,0,1-1.34A.31.31,0,0,0,530.21,267.45Z" class="cls-14" transform="translate(-480.48 -263.12)"/></g></g></g></mask><linearGradient id="linear-gradient-24" x1="528.51" x2="528.6" y1="267.31" y2="268.08" gradientUnits="userSpaceOnUse"><stop offset="0" stop-color="#4b5050"/><stop offset=".08" stop-color="#6d7373"/><stop offset=".17" stop-color="#888f8f"/><stop offset=".25" stop-color="#9ca3a3"/><stop offset=".34" stop-color="#a7afaf"/><stop offset=".42" stop-color="#abb3b3"/><stop offset=".58" stop-color="#abb3b3"/><stop offset=".92" stop-color="#a3abac"/><stop offset="1" stop-color="#a0a8aa"/></linearGradient><filter id="luminosity-noclip-15" width="3.46" height="2.64" x="497.73" y="284.02" color-interpolation-filters="sRGB" filterUnits="userSpaceOnUse"><feFlood flood-color="#fff" result="bg"/><feBlend in="SourceGraphic" in2="bg"/></filter><mask id="mask-15" width="3.46" height="2.64" x="17.25" y="20.9" maskUnits="userSpaceOnUse"><g class="cls-87"><g><g class="cls-19"><path d="M501,285.89c-.22-.08-.59-.18-.65-.46,0,0,0,0,0-.06a.59.59,0,0,1,.21-.42l.24-.21.27-.22L499,284a4.76,4.76,0,0,0-1.2,1.51.23.23,0,0,0,0,.2.67.67,0,0,0,.36.28c.56.23,1.14.45,1.73.65l1.35-.71Z" class="cls-20" transform="translate(-480.48 -263.12)"/></g></g></g></mask><linearGradient id="linear-gradient-25" x1="499.37" x2="499.54" y1="284.87" y2="286.35" gradientUnits="userSpaceOnUse"><stop offset="0" stop-color="#333737"/><stop offset=".02" stop-color="#494e4e"/><stop offset=".04" stop-color="#676e6d"/><stop offset=".06" stop-color="#727a79"/><stop offset=".22" stop-color="#808888"/><stop offset=".4" stop-color="#8b9394"/><stop offset=".48" stop-color="#9ba3a4"/><stop offset=".5" stop-color="#a0a8aa"/><stop offset=".79" stop-color="#abb3b3"/><stop offset=".85" stop-color="#c2c8c8"/><stop offset="1" stop-color="#fdfefe"/><stop offset="1" stop-color="#fff"/></linearGradient><filter id="luminosity-noclip-16" width="3.25" height="2.91" x="530.06" y="267.69" color-interpolation-filters="sRGB" filterUnits="userSpaceOnUse"><feFlood flood-color="#fff" result="bg"/><feBlend in="SourceGraphic" in2="bg"/></filter><mask id="mask-16" width="3.25" height="2.91" x="49.58" y="4.57" maskUnits="userSpaceOnUse"><g class="cls-86"><g><g class="cls-21"><path d="M531.86,268l-.61-.3a.46.46,0,0,0-.36,0,.37.37,0,0,0-.17.16l-.66,1.41,1.55,1.32.1-.22c.07-.15.15-.31.21-.41a.55.55,0,0,1,.31-.29l.12,0a.83.83,0,0,1,.54.17l.29.19.13-1.19C532.85,268.57,532.37,268.3,531.86,268Z" class="cls-22" transform="translate(-480.48 -263.12)"/></g></g></g></mask><linearGradient id="linear-gradient-26" x1="531.23" x2="532.27" y1="269.37" y2="268.73" gradientUnits="userSpaceOnUse"><stop offset="0" stop-color="#abb3b3"/><stop offset=".42" stop-color="#a0a8aa"/><stop offset=".52" stop-color="#a0a8aa"/><stop offset=".59" stop-color="#9ba3a5"/><stop offset=".68" stop-color="#8d9496"/><stop offset=".77" stop-color="#777d7d"/><stop offset=".88" stop-color="#575b5b"/><stop offset=".98" stop-color="#2e3030"/><stop offset="1" stop-color="#252726"/></linearGradient><filter id="luminosity-noclip-17" width="4.17" height="2.86" x="508.95" y="264.3" color-interpolation-filters="sRGB" filterUnits="userSpaceOnUse"><feFlood flood-color="#fff" result="bg"/><feBlend in="SourceGraphic" in2="bg"/></filter><mask id="mask-17" width="4.17" height="2.86" x="28.47" y="1.18" maskUnits="userSpaceOnUse"><g class="cls-85"><g><g class="cls-23"><path d="M511.21,264.37a2.71,2.71,0,0,0-1.12.24,1,1,0,0,0-.27.21c-.3.4-.6.81-.87,1.23l1.57,1.11a4.36,4.36,0,0,1,1.22-1.16l.3-.17a3.88,3.88,0,0,1,1.08-.33v-1.2C512.48,264.31,511.84,264.34,511.21,264.37Z" class="cls-24" transform="translate(-480.48 -263.12)"/></g></g></g></mask><linearGradient id="linear-gradient-27" x1="511.79" x2="510.21" y1="264.82" y2="266.51" gradientUnits="userSpaceOnUse"><stop offset="0" stop-color="#252726"/><stop offset=".02" stop-color="#2d302f"/><stop offset=".14" stop-color="#565b5b"/><stop offset=".25" stop-color="#73797a"/><stop offset=".34" stop-color="#858c8d"/><stop offset=".4" stop-color="#8b9394"/><stop offset=".81" stop-color="#98a0a2"/><stop offset="1" stop-color="#a0a8aa"/></linearGradient><filter id="luminosity-noclip-18" width="9.05" height="4.74" x="511.12" y="284.1" color-interpolation-filters="sRGB" filterUnits="userSpaceOnUse"><feFlood flood-color="#fff" result="bg"/><feBlend in="SourceGraphic" in2="bg"/></filter><mask id="mask-18" width="9.05" height="4.74" x="30.64" y="20.97" maskUnits="userSpaceOnUse"><g class="cls-84"><g><g class="cls-3"><path d="M516,287.25l-.07,0a4.29,4.29,0,0,1-1.74.39H514c-.89,0-1.76,0-2.62-.08l-.22,1.16c.94.05,1.89.08,2.85.08s1.85,0,2.76-.08a2.52,2.52,0,0,0,1.12-.24,1,1,0,0,0,.27-.2,22.54,22.54,0,0,0,1.9-3l.15-.28-1.67-1A6.24,6.24,0,0,1,516,287.25Z" class="cls-4" transform="translate(-480.48 -263.12)"/></g></g></g></mask><linearGradient id="linear-gradient-28" x1="517.36" x2="514.12" y1="284.36" y2="288.8" gradientUnits="userSpaceOnUse"><stop offset="0" stop-color="#828b8a"/><stop offset=".51" stop-color="#f4fafc"/><stop offset=".81" stop-color="#f8fcfd"/><stop offset="1" stop-color="#fff"/></linearGradient><linearGradient id="linear-gradient-29" x1="498.46" x2="504.63" y1="283.68" y2="269.12" gradientUnits="userSpaceOnUse"><stop offset="0" stop-color="#697070"/><stop offset=".53" stop-color="#828b8a"/><stop offset="1" stop-color="#b2bcbc"/></linearGradient><filter id="luminosity-noclip-19" width="3.83" height="3.35" x="494.38" y="282.09" color-interpolation-filters="sRGB" filterUnits="userSpaceOnUse"><feFlood flood-color="#fff" result="bg"/><feBlend in="SourceGraphic" in2="bg"/></filter><mask id="mask-19" width="3.83" height="3.35" x="13.91" y="18.97" maskUnits="userSpaceOnUse"><g class="cls-83"><g><g class="cls-5"><path d="M496.56,282.09l-.28.65c-.08.16-.15.32-.21.42a.64.64,0,0,1-.27.27l-.17,0a1,1,0,0,1-.53-.18c-.25-.15-.49-.3-.72-.46l.11,1.37c.5.31,1,.61,1.59.89l.61.3a.46.46,0,0,0,.36,0,.33.33,0,0,0,.17-.16l1-2.08Z" class="cls-6" transform="translate(-480.48 -263.12)"/></g></g></g></mask><linearGradient id="linear-gradient-30" x1="496.87" x2="495.06" y1="283.28" y2="284.61" gradientUnits="userSpaceOnUse"><stop offset="0" stop-color="#697070"/><stop offset=".08" stop-color="#8b9191"/><stop offset=".2" stop-color="#bdc0c0"/><stop offset=".31" stop-color="#e1e2e2"/><stop offset=".4" stop-color="#f7f7f7"/><stop offset=".45" stop-color="#fff"/><stop offset=".63" stop-color="#fff"/><stop offset=".64" stop-color="#fff"/><stop offset=".98" stop-color="#fff"/><stop offset="1" stop-color="#fff"/></linearGradient><filter id="luminosity-noclip-20" width="5.26" height="2.69" x="504" y="264.54" color-interpolation-filters="sRGB" filterUnits="userSpaceOnUse"><feFlood flood-color="#fff" result="bg"/><feBlend in="SourceGraphic" in2="bg"/></filter><mask id="mask-20" width="5.26" height="2.69" x="23.53" y="1.41" maskUnits="userSpaceOnUse"><g class="cls-82"><g><g class="cls-7"><path d="M509.25,264.63c0-.06-.11-.09-.24-.09-1.4.14-2.77.34-4.1.6l-.91,1.33.47-.09c.55-.11,1-.11,1.09,0l0,.06a.38.38,0,0,1,0,.35l-.22.31-.08.09h2.29c.56-.79,1.13-1.58,1.66-2.4A.21.21,0,0,0,509.25,264.63Z" class="cls-8" transform="translate(-480.48 -263.12)"/></g></g></g></mask><linearGradient id="linear-gradient-31" x1="506.51" x2="507.1" y1="265.32" y2="266.48" gradientUnits="userSpaceOnUse"><stop offset="0" stop-color="#404444"/><stop offset=".16" stop-color="#444848"/><stop offset=".33" stop-color="#4f5454"/><stop offset=".47" stop-color="#5f6666"/><stop offset=".52" stop-color="#737b7a"/><stop offset=".57" stop-color="#828b8a"/><stop offset=".78" stop-color="#a3acac"/><stop offset=".91" stop-color="#b2bcbc"/></linearGradient><linearGradient id="linear-gradient-32" x1="513.07" x2="514.92" y1="264.36" y2="289.92" gradientUnits="userSpaceOnUse"><stop offset="0" stop-color="#fff"/><stop offset=".08" stop-color="#f8fafa"/><stop offset=".18" stop-color="#e6eced"/><stop offset=".26" stop-color="#d3dee0"/><stop offset=".29" stop-color="#c9d4d6"/><stop offset=".35" stop-color="#afb9ba"/><stop offset=".42" stop-color="#858d8e"/><stop offset=".5" stop-color="#4b5050"/><stop offset=".69" stop-color="#3e4344"/><stop offset=".73" stop-color="#2f3435"/><stop offset=".82" stop-color="#0d1112"/><stop offset="1" stop-color="#0d1112"/></linearGradient><filter id="luminosity-noclip-21" width="9.24" height="5.16" x="505.59" y="272.02" color-interpolation-filters="sRGB" filterUnits="userSpaceOnUse"><feFlood flood-color="#fff" result="bg"/><feBlend in="SourceGraphic" in2="bg"/></filter><mask id="mask-21" width="9.24" height="5.16" x="25.11" y="8.9" maskUnits="userSpaceOnUse"><g class="cls-81"><g><g class="cls-9"><path d="M513.24,274.65l-.46.11c-.71.15-2.44.43-3.49-.26a2.27,2.27,0,0,1-.82-2.48l-2.68,1a6.83,6.83,0,0,0-.17,1c-.13,1.31.18,2.52,1.6,2.95l.34.1c.83.2,2.42.36,6-.6l1.18-.34.09-1.86Q514.05,274.47,513.24,274.65Z" class="cls-10" transform="translate(-480.48 -263.12)"/></g></g></g></mask><linearGradient id="linear-gradient-33" x1="507.36" x2="512.14" y1="272.44" y2="276.75" gradientUnits="userSpaceOnUse"><stop offset=".07" stop-color="#b6bcbd"/><stop offset=".12" stop-color="#c9cece"/><stop offset=".2" stop-color="#e1e3e4"/><stop offset=".29" stop-color="#f2f3f3"/><stop offset=".38" stop-color="#fcfcfc"/><stop offset=".5" stop-color="#fff"/><stop offset=".61" stop-color="#fcfcfc"/><stop offset=".7" stop-color="#f2f3f3"/><stop offset=".79" stop-color="#e1e4e4"/><stop offset=".86" stop-color="#c9cece"/><stop offset=".94" stop-color="#abb3b3"/></linearGradient><filter id="luminosity-noclip-22" width="11.12" height="6.39" x="511.23" y="275.96" color-interpolation-filters="sRGB" filterUnits="userSpaceOnUse"><feFlood flood-color="#fff" result="bg"/><feBlend in="SourceGraphic" in2="bg"/></filter><mask id="mask-22" width="11.12" height="6.39" x="30.75" y="12.83" maskUnits="userSpaceOnUse"><g class="cls-80"><g><g class="cls-11"><path d="M522.32,279.15c.13-1.3-.18-2.52-1.6-2.95-.89-.27-2.9-.78-9.49,1.49l.2,1.76a29.79,29.79,0,0,1,3.78-1.09c1.25-.26,5.65-.93,4,4l2.43-.49A11.09,11.09,0,0,0,522.32,279.15Z" class="cls-12" transform="translate(-480.48 -263.12)"/></g></g></g></mask><linearGradient id="linear-gradient-34" x1="519.34" x2="514.93" y1="281.65" y2="276.01" gradientUnits="userSpaceOnUse"><stop offset="0" stop-color="#828b8a"/><stop offset=".12" stop-color="#7a8182"/><stop offset=".17" stop-color="#6b7272"/><stop offset=".28" stop-color="#545959"/><stop offset=".37" stop-color="#454949"/><stop offset=".44" stop-color="#404444"/><stop offset=".71" stop-color="#404444"/><stop offset="1" stop-color="#333737"/></linearGradient><filter id="luminosity-noclip-23" width="3.64" height="3.13" x="518.55" y="276.48" color-interpolation-filters="sRGB" filterUnits="userSpaceOnUse"><feFlood flood-color="#fff" result="bg"/><feBlend in="SourceGraphic" in2="bg"/></filter><mask id="mask-23" width="3.64" height="3.13" x="38.07" y="13.35" maskUnits="userSpaceOnUse"><g class="cls-79"><g><g class="cls-15"><path d="M521.33,276.48l-2.78,2a1.82,1.82,0,0,1,.9,1.08l2.74-2A2,2,0,0,0,521.33,276.48Z" class="cls-16" transform="translate(-480.48 -263.12)"/></g></g></g></mask><linearGradient id="linear-gradient-35" x1="520.01" x2="520.81" y1="277.47" y2="278.58" gradientUnits="userSpaceOnUse"><stop offset="0" stop-color="#3e4344"/><stop offset=".02" stop-color="#555a5a"/><stop offset=".05" stop-color="#7d8081"/><stop offset=".09" stop-color="#a0a3a3"/><stop offset=".13" stop-color="#bebfc0"/><stop offset=".17" stop-color="#d6d7d7"/><stop offset=".22" stop-color="#e8e9e9"/><stop offset=".28" stop-color="#f5f6f6"/><stop offset=".36" stop-color="#fdfdfd"/><stop offset=".52" stop-color="#fff"/><stop offset=".65" stop-color="#fdfdfd"/><stop offset=".73" stop-color="#f4f5f5"/><stop offset=".8" stop-color="#e7e8e8"/><stop offset=".85" stop-color="#d3d5d5"/><stop offset=".9" stop-color="#b9bdbd"/><stop offset=".95" stop-color="#9a9f9f"/><stop offset=".99" stop-color="#757c7c"/><stop offset="1" stop-color="#6a7171"/></linearGradient><filter id="luminosity-noclip-24" width="5.22" height="3.49" x="518.68" y="285.11" color-interpolation-filters="sRGB" filterUnits="userSpaceOnUse"><feFlood flood-color="#fff" result="bg"/><feBlend in="SourceGraphic" in2="bg"/></filter><mask id="mask-24" width="5.22" height="3.49" x="38.2" y="21.98" maskUnits="userSpaceOnUse"><g class="cls-78"><g><g class="cls-17"><path d="M523.45,286.76c-.54.11-.9.11-1,0l0,0a.32.32,0,0,1,0-.37,1.51,1.51,0,0,1,.22-.31l.51-.62-2.2-.28c-.75,1.06-1.52,2.11-2.23,3.2-.07.11-.07.18,0,.23a.34.34,0,0,0,.22.06,47.78,47.78,0,0,0,5-.78v-1.16Z" class="cls-18" transform="translate(-480.48 -263.12)"/></g></g></g></mask><linearGradient id="linear-gradient-36" x1="520.98" x2="521.46" y1="286.94" y2="287.92" gradientUnits="userSpaceOnUse"><stop offset="0" stop-color="#333737"/><stop offset=".06" stop-color="#5a5f5e"/><stop offset=".14" stop-color="#8b9191"/><stop offset=".22" stop-color="#b2bab9"/><stop offset=".29" stop-color="#ced6d5"/><stop offset=".35" stop-color="#dfe8e7"/><stop offset=".39" stop-color="#e5eeed"/><stop offset=".54" stop-color="#e9f1f0"/><stop offset=".68" stop-color="#f5f8f8"/><stop offset=".76" stop-color="#fff"/></linearGradient><linearGradient id="linear-gradient-37" x1="517.54" x2="518.82" y1="273.58" y2="263.75" gradientUnits="userSpaceOnUse"><stop offset="0" stop-color="#fff"/><stop offset=".25" stop-color="#f2f6f6"/><stop offset=".57" stop-color="#e8f0ef"/><stop offset="1" stop-color="#e5eeed"/></linearGradient><linearGradient id="linear-gradient-38" x1="509.22" x2="498.08" y1="264.88" y2="282.92" gradientUnits="userSpaceOnUse"><stop offset="0" stop-color="#fff"/><stop offset=".13" stop-color="#fcfcfc"/><stop offset=".23" stop-color="#f3f4f4"/><stop offset=".32" stop-color="#e3e5e5"/><stop offset=".39" stop-color="#cdd0d0"/><stop offset=".47" stop-color="#b0b5b5"/><stop offset=".52" stop-color="#969d9d"/><stop offset="1" stop-color="#8b9394"/></linearGradient><linearGradient id="linear-gradient-39" x1="530.52" x2="519.54" y1="268.94" y2="287.56" gradientUnits="userSpaceOnUse"><stop offset="0" stop-color="#d7e0e0"/><stop offset=".04" stop-color="#c5cdce"/><stop offset=".1" stop-color="#b4bcbe"/><stop offset=".17" stop-color="#a9b1b2"/><stop offset=".27" stop-color="#a2aaac"/><stop offset=".55" stop-color="#a0a8aa"/><stop offset=".94" stop-color="#a0a8aa"/><stop offset="1" stop-color="#a0a8aa"/></linearGradient><linearGradient id="linear-gradient-40" x1="497.65" x2="521.37" y1="282.41" y2="282.41" gradientUnits="userSpaceOnUse"><stop offset="0" stop-color="#8b9394"/><stop offset=".24" stop-color="#8b9394"/><stop offset=".36" stop-color="#858c8d"/><stop offset=".53" stop-color="#737a7b"/><stop offset=".6" stop-color="#6a7171"/><stop offset="1" stop-color="#a0a8aa"/></linearGradient><linearGradient id="linear-gradient-41" x1="500.64" x2="493.93" y1="266.31" y2="282.76" gradientUnits="userSpaceOnUse"><stop offset="0" stop-color="#fff"/><stop offset=".24" stop-color="#f8fafa"/><stop offset=".58" stop-color="#e6ebeb"/><stop offset=".78" stop-color="#d7e0e0"/><stop offset="1" stop-color="#8b9394"/></linearGradient><linearGradient id="linear-gradient-42" x1="535.57" x2="525.93" y1="270.58" y2="288.71" gradientUnits="userSpaceOnUse"><stop offset="0" stop-color="#d7e0e0"/><stop offset=".16" stop-color="#d1dad9"/><stop offset=".26" stop-color="#ccd4d3"/><stop offset="1" stop-color="#a0a8aa"/></linearGradient></defs><g id="Hyundai"><polygon points="6.43 31.69 6.43 35.35 2.29 35.35 2.29 31.69 0 31.69 0 41.29 2.29 41.29 2.29 37.43 6.43 37.43 6.43 41.29 8.72 41.29 8.72 31.69 8.6 31.69 6.43 31.69" class="cls-26"/><polygon points="17.1 31.69 14.71 35.49 12.32 31.69 9.62 31.69 13.57 37.97 13.57 41.29 15.85 41.29 15.85 37.97 19.8 31.69 19.59 31.69 17.1 31.69" class="cls-26"/><path d="M507.63,294.81v7a.48.48,0,0,1-.49.49h-3.66v-7.53h-2.29v9.61H508a2,2,0,0,0,1.44-.53,2,2,0,0,0,.52-1.44v-7.64h-2.28Z" class="cls-26" transform="translate(-480.48 -263.12)"/><path d="M518.79,294.81H512v9.61h2.29v-7.53H518a.48.48,0,0,1,.49.48v7.05h2.28v-7.64a2,2,0,0,0-.53-1.44A1.94,1.94,0,0,0,518.79,294.81Z" class="cls-26" transform="translate(-480.48 -263.12)"/><path d="M529.62,294.81h-6.75v9.61h6.75a1.83,1.83,0,0,0,2-2v-5.67a1.83,1.83,0,0,0-2-2Zm-.32,2.58v4.45a.49.49,0,0,1-.49.5h-3.66v-5.45h3.65A.48.48,0,0,1,529.3,297.39Z" class="cls-26" transform="translate(-480.48 -263.12)"/><path d="M535.57,294.81a1.82,1.82,0,0,0-2,2v7.64h2.28v-3H540v3h2.28v-9.61Zm4.47,2.08v2.48h-4.15v-2a.48.48,0,0,1,.48-.49Z" class="cls-26" transform="translate(-480.48 -263.12)"/><rect width="2.28" height="9.6" x="64.07" y="31.69" class="cls-26"/><path d="M511.14,275.13a8.65,8.65,0,0,0,1.68-.19,39.4,39.4,0,0,0,6.12-1.95,29.64,29.64,0,0,0,8.37-4.47,1.6,1.6,0,0,0,.25-.22.78.78,0,0,0,.28-.56c0-.47-.56-.62-.89-.71l-.1,0A45.25,45.25,0,0,0,514,265.25h-.27a4.42,4.42,0,0,0-1.8.41c-1.61.8-2.38,2.65-2.84,3.76l-.13.31c-.86,2-1,3.44-.39,4.35A2.82,2.82,0,0,0,511.14,275.13Zm-1.81-5.25.14-.32c.44-1.06,1.17-2.83,2.65-3.57a4.27,4.27,0,0,1,1.65-.37H514a45.2,45.2,0,0,1,12.71,1.73l.11,0c.23.07.61.17.61.36s0,.18-.17.3a1.52,1.52,0,0,1-.21.19,29.66,29.66,0,0,1-8.27,4.41,40.21,40.21,0,0,1-6.07,1.94,8.61,8.61,0,0,1-1.6.18,2.51,2.51,0,0,1-2.23-.88C508.39,273.08,508.53,271.73,509.33,269.88Z" class="cls-27" transform="translate(-480.48 -263.12)"/><path d="M514,263.12c-14.4,0-26.12,6-26.12,13.45S499.55,290,514,290s26.13-6,26.13-13.44S528.36,263.12,514,263.12Zm0,26.49c-14.18,0-25.72-5.85-25.72-13s11.54-13,25.72-13,25.72,5.85,25.72,13S528.14,289.61,514,289.61Z" class="cls-28" transform="translate(-480.48 -263.12)"/><path d="M505.72,266.91a.49.49,0,0,0,0-.62c-.17-.2-.6-.23-1.26-.1C495.66,268,490,272.05,490,276.57c0,2.49,1.73,4.87,5,6.88a1.22,1.22,0,0,0,.64.2h0a.73.73,0,0,0,.59-.4,2.66,2.66,0,0,0,.17-.34l.05-.1c2.85-6.59,6-12,9-15.57A2.69,2.69,0,0,0,505.72,266.91Zm-.32-.19a2.86,2.86,0,0,1-.21.29c-3.08,3.61-6.22,9-9.08,15.65l0,.09c-.06.13-.12.24-.16.31s-.17.21-.28.22a.92.92,0,0,1-.44-.15c-3.16-1.94-4.83-4.21-4.83-6.56,0-4.34,5.56-8.27,14.15-10a3.37,3.37,0,0,1,.63-.08c.22,0,.27,0,.28.06S505.45,266.64,505.4,266.72Z" class="cls-29" transform="translate(-480.48 -263.12)"/><path d="M516.85,278a7.94,7.94,0,0,0-1.68.19,42.31,42.31,0,0,0-6.07,1.92l-.05,0a29.53,29.53,0,0,0-8.39,4.49l-.11.09-.13.12a.78.78,0,0,0-.26.55c0,.48.61.65.94.75l.06,0a45.85,45.85,0,0,0,12.8,1.73h.26a4.76,4.76,0,0,0,1.81-.41c1.62-.81,2.39-2.67,2.85-3.79,0-.1.08-.2.12-.28.85-2,1-3.45.39-4.35A2.82,2.82,0,0,0,516.85,278Zm1.81,5.25c0,.09-.08.19-.13.29-.43,1.06-1.17,2.85-2.66,3.59a4.08,4.08,0,0,1-1.91.37,45.39,45.39,0,0,1-12.69-1.71l-.07,0c-.2-.06-.67-.19-.67-.39a.38.38,0,0,1,.16-.29.45.45,0,0,1,.1-.09l.12-.1a29.27,29.27,0,0,1,8.28-4.42l0,0a42,42,0,0,1,6-1.91,7.84,7.84,0,0,1,1.6-.18,2.48,2.48,0,0,1,2.22.88C519.6,280,519.46,281.38,518.66,283.24Z" class="cls-30" transform="translate(-480.48 -263.12)"/><path d="M533,269.68a1.22,1.22,0,0,0-.58-.2h-.06a.68.68,0,0,0-.58.4,3.06,3.06,0,0,0-.23.43c-1.6,3.73-4.89,10.7-9,15.58a1.5,1.5,0,0,0-.24.33.51.51,0,0,0,0,.63.65.65,0,0,0,.53.17,3.22,3.22,0,0,0,.67-.08c8.77-1.79,14.43-5.86,14.43-10.38C537.92,274.05,536.22,271.67,533,269.68Zm-9.58,16.9a3,3,0,0,1-.59.07c-.21,0-.25,0-.25,0s0-.14,0-.2a2,2,0,0,1,.2-.27c4.18-4.91,7.49-11.93,9.09-15.66a3.54,3.54,0,0,1,.21-.4.29.29,0,0,1,.29-.21h0a.78.78,0,0,1,.38.15c3.12,1.92,4.76,4.19,4.76,6.56C537.55,280.9,532,284.83,523.41,286.58Z" class="cls-31" transform="translate(-480.48 -263.12)"/><g class="cls-32"><g class="cls-33"><g class="cls-34"><path d="M514,289.78c14.3,0,25.88-5.92,25.88-13.21S528.25,263.36,514,263.36s-25.87,5.91-25.87,13.21S499.67,289.78,514,289.78Zm4.87-6.48c-.42,1-1.17,3.13-2.87,4a4.5,4.5,0,0,1-1.74.38H514A45.17,45.17,0,0,1,501,285.88l-.11-.05c-.37-.11-.55-.27-.55-.47a.59.59,0,0,1,.21-.42l.23-.21a30.16,30.16,0,0,1,8.32-4.44,41,41,0,0,1,6.09-1.93C516.53,278.08,521.4,277.34,518.82,283.3ZM531.9,270a.49.49,0,0,1,.43-.31.83.83,0,0,1,.54.17c3,1.87,4.84,4.19,4.84,6.71,0,4.56-5.87,8.47-14.27,10.19-.55.1-.9.1-1,0a.34.34,0,0,1,0-.42,1.49,1.49,0,0,1,.22-.3c4.57-5.38,8.06-13.31,9.05-15.61C531.76,270.25,531.84,270.09,531.9,270Zm-22.73-.18c.42-1,1.16-3.12,2.87-4a4.32,4.32,0,0,1,1.73-.39H514A45.15,45.15,0,0,1,527,267.24a.58.58,0,0,1,.14.05c.35.11.52.27.52.46a.61.61,0,0,1-.21.43,2.07,2.07,0,0,1-.24.2,29.86,29.86,0,0,1-8.31,4.44,40.14,40.14,0,0,1-6.09,1.94C511.46,275,506.59,275.78,509.17,269.81Zm-4.68-3.42c.54-.11,1-.11,1.08,0a.32.32,0,0,1,0,.41c-.06.09-.12.18-.22.31-4.58,5.37-8.06,13.31-9.05,15.59-.08.16-.15.32-.21.42a.54.54,0,0,1-.44.31,1,1,0,0,1-.53-.18c-3-1.86-4.91-4.19-4.91-6.71C490.21,272,496.09,268.09,504.49,266.39Z" class="cls-35" transform="translate(-480.48 -263.12)"/><path d="M514,289.78c14.3,0,25.88-5.92,25.88-13.21S528.25,263.36,514,263.36s-25.87,5.91-25.87,13.21S499.67,289.78,514,289.78Zm4.87-6.48c-.42,1-1.17,3.13-2.87,4a4.5,4.5,0,0,1-1.74.38H514A45.17,45.17,0,0,1,501,285.88l-.11-.05c-.37-.11-.55-.27-.55-.47a.59.59,0,0,1,.21-.42l.23-.21a30.16,30.16,0,0,1,8.32-4.44,41,41,0,0,1,6.09-1.93C516.53,278.08,521.4,277.34,518.82,283.3ZM531.9,270a.49.49,0,0,1,.43-.31.83.83,0,0,1,.54.17c3,1.87,4.84,4.19,4.84,6.71,0,4.56-5.87,8.47-14.27,10.19-.55.1-.9.1-1,0a.34.34,0,0,1,0-.42,1.49,1.49,0,0,1,.22-.3c4.57-5.38,8.06-13.31,9.05-15.61C531.76,270.25,531.84,270.09,531.9,270Zm-22.73-.18c.42-1,1.16-3.12,2.87-4a4.32,4.32,0,0,1,1.73-.39H514A45.15,45.15,0,0,1,527,267.24a.58.58,0,0,1,.14.05c.35.11.52.27.52.46a.61.61,0,0,1-.21.43,2.07,2.07,0,0,1-.24.2,29.86,29.86,0,0,1-8.31,4.44,40.14,40.14,0,0,1-6.09,1.94C511.46,275,506.59,275.78,509.17,269.81Zm-4.68-3.42c.54-.11,1-.11,1.08,0a.32.32,0,0,1,0,.41c-.06.09-.12.18-.22.31-4.58,5.37-8.06,13.31-9.05,15.59-.08.16-.15.32-.21.42a.54.54,0,0,1-.44.31,1,1,0,0,1-.53-.18c-3-1.86-4.91-4.19-4.91-6.71C490.21,272,496.09,268.09,504.49,266.39Z" class="cls-36" transform="translate(-480.48 -263.12)"/><path d="M514,289.78c14.3,0,25.88-5.92,25.88-13.21S528.25,263.36,514,263.36s-25.87,5.91-25.87,13.21S499.67,289.78,514,289.78Zm4.87-6.48c-.42,1-1.17,3.13-2.87,4a4.5,4.5,0,0,1-1.74.38H514A45.76,45.76,0,0,1,501.23,286c-.27-.08-.87-.23-.87-.59a.56.56,0,0,1,.21-.42l.23-.21a30.46,30.46,0,0,1,8.32-4.44,41.34,41.34,0,0,1,6.09-1.93C516.53,278.08,521.4,277.34,518.82,283.3ZM531.9,270a.49.49,0,0,1,.43-.31.83.83,0,0,1,.54.17c3,1.87,4.84,4.19,4.84,6.71,0,4.56-5.87,8.47-14.27,10.19-.55.1-.9.1-1,0a.34.34,0,0,1,0-.42,1.49,1.49,0,0,1,.22-.3c4.57-5.38,8.06-13.31,9.05-15.61C531.76,270.25,531.84,270.09,531.9,270Zm-22.73-.18c.42-1,1.16-3.12,2.87-4a4.32,4.32,0,0,1,1.73-.39H514a44.82,44.82,0,0,1,12.75,1.74c.27.08.85.19.85.57a.61.61,0,0,1-.21.42,2.07,2.07,0,0,1-.24.2,29.86,29.86,0,0,1-8.31,4.44,40.14,40.14,0,0,1-6.09,1.94C511.46,275,506.59,275.78,509.17,269.81Zm-4.68-3.42c.54-.11.95-.11,1.08,0a.32.32,0,0,1,0,.41c-.06.09-.12.18-.22.31-4.58,5.37-8.06,13.31-9.05,15.59-.08.16-.15.32-.21.42a.54.54,0,0,1-.44.31,1,1,0,0,1-.53-.18c-3-1.86-4.91-4.19-4.91-6.71C490.21,272,496.09,268.09,504.49,266.39Z" class="cls-25" transform="translate(-480.48 -263.12)"/></g></g><g class="cls-37"><path d="M521.59,286.05a64.43,64.43,0,0,0,5.71-9.17l-6.67,2.24a10.62,10.62,0,0,1-4,8.72,13.27,13.27,0,0,1-3.72.44l-.62,1A44.16,44.16,0,0,0,525,288.13h0l.59-1.36C523.81,287.49,519.36,288.76,521.59,286.05Z" class="cls-38" transform="translate(-480.48 -263.12)"/></g><path d="M513.25,274.65l-.47.11c-.71.15-2.44.43-3.49-.26s-1.33-1.93-.13-4.7c.4-.92,1.08-2.86,2.58-3.8l-1.65-1.39a1,1,0,0,0-.27.21,24,24,0,0,0-1.9,3,22.22,22.22,0,0,0-1.42,3,12.67,12.67,0,0,0-.88,3.2c-.13,1.31.18,2.52,1.6,2.95l.34.1c.83.2,2.42.36,6-.6Z" class="cls-39" transform="translate(-480.48 -263.12)"/><path d="M530.21,267.45l-2.56.27v0a.59.59,0,0,1-.22.43,1.81,1.81,0,0,1-.23.2,30,30,0,0,1-8.32,4.44c-1.18.46-2.57,1-4,1.43h0c-.52.16-1.05.3-1.58.42l-.47.11a5.58,5.58,0,0,1-3.28-.14L507.27,277l.29.08c.83.2,2.42.36,6-.6a60.1,60.1,0,0,0,6.23-2.12c4.38-1.71,9.51-4.65,10.4-6.7A.31.31,0,0,0,530.21,267.45Z" class="cls-40" transform="translate(-480.48 -263.12)"/><path d="M495.63,283.47a1,1,0,0,1-.53-.18c-3-1.87-4.92-4.2-4.92-6.72,0-4.56,5.89-8.49,14.29-10.19.55-.11,1-.11,1.09,0l0,.06,3.65-1.84c0-.06-.11-.09-.24-.09a37.11,37.11,0,0,0-12.93,3.51c-4.58,2.32-7.11,5.35-7.11,8.52s2.53,6.2,7.11,8.52l.61.3a.46.46,0,0,0,.36,0l-1.25-2Z" class="cls-41" transform="translate(-480.48 -263.12)"/><path d="M520.72,276.2c-1-.3-3.49-.94-12.56,2.63-4.39,1.71-9.52,4.65-10.41,6.7a.23.23,0,0,0,0,.2l2.6-.3s0,0,0-.06a.59.59,0,0,1,.21-.42l.24-.21a29.78,29.78,0,0,1,8.33-4.44,40.92,40.92,0,0,1,6.09-1.94c1.32-.28,6.2-1,3.62,4.95-.42,1-1.16,3.07-2.81,3.94l1.83,1.27a1,1,0,0,0,.27-.2,22.54,22.54,0,0,0,1.9-3,23.62,23.62,0,0,0,1.42-3,12.44,12.44,0,0,0,.88-3.2C522.45,277.85,522.14,276.63,520.72,276.2Z" class="cls-42" transform="translate(-480.48 -263.12)"/><path d="M516,287.29a4.29,4.29,0,0,1-1.74.39H514a45.24,45.24,0,0,1-13-1.79l-.11-.05c-.33-.1-.5-.24-.54-.41l-2.6.3a.67.67,0,0,0,.36.28A42.61,42.61,0,0,0,514,288.84c.93,0,1.85,0,2.76-.08a2.52,2.52,0,0,0,1.12-.24L516,287.25Z" class="cls-43" transform="translate(-480.48 -263.12)"/><path d="M522.43,286.32a1.51,1.51,0,0,1,.22-.31c4.58-5.39,8.08-13.32,9.06-15.62.07-.15.15-.31.21-.41a.55.55,0,0,1,.31-.29l-1.34-2a.37.37,0,0,0-.17.16,115.33,115.33,0,0,1-9.3,16.57c-.88,1.29-1.83,2.55-2.69,3.86-.07.11-.07.18,0,.23l3.69-1.85A.32.32,0,0,1,522.43,286.32Z" class="cls-44" transform="translate(-480.48 -263.12)"/><path d="M512,265.83a4.33,4.33,0,0,1,1.73-.4H514a44.86,44.86,0,0,1,13,1.8.46.46,0,0,1,.14,0c.34.11.51.26.53.44l2.56-.27c0-.13-.18-.24-.38-.33A42.62,42.62,0,0,0,514,264.3c-.93,0-1.85,0-2.76.07a2.71,2.71,0,0,0-1.12.24l1.65,1.39Z" class="cls-45" transform="translate(-480.48 -263.12)"/><path d="M539,276.57c0-3.17-2.52-6.2-7.1-8.53l-.61-.3a.46.46,0,0,0-.36,0l1.34,2,.12,0a.83.83,0,0,1,.54.17c3,1.87,4.85,4.2,4.85,6.72a2.44,2.44,0,0,1,0,.27H539Z" class="cls-46" transform="translate(-480.48 -263.12)"/><path d="M537.73,276.81c-.22,4.45-6,8.27-14.28,9.95-.54.11-.9.11-1,0l0,0-3.69,1.85a.34.34,0,0,0,.22.06,37.11,37.11,0,0,0,12.93-3.51c4.46-2.26,7-5.21,7.1-8.28Z" class="cls-47" transform="translate(-480.48 -263.12)"/><g class="cls-48"><path d="M530.21,267.45c0-.13-.18-.24-.38-.33-.61-.25-1.23-.48-1.87-.69l-1.1.77.12,0a.46.46,0,0,1,.14,0c.34.11.51.26.53.44v0a.59.59,0,0,1-.22.43,1.81,1.81,0,0,1-.23.2l-.23.19,2.19.39a4.54,4.54,0,0,0,1-1.34A.31.31,0,0,0,530.21,267.45Z" class="cls-49" transform="translate(-480.48 -263.12)"/></g><g class="cls-50"><path d="M501,285.89c-.22-.08-.59-.18-.65-.46,0,0,0,0,0-.06a.59.59,0,0,1,.21-.42l.24-.21.27-.22L499,284a4.76,4.76,0,0,0-1.2,1.51.23.23,0,0,0,0,.2.67.67,0,0,0,.36.28c.56.23,1.14.45,1.73.65l1.35-.71Z" class="cls-51" transform="translate(-480.48 -263.12)"/></g><g class="cls-52"><path d="M531.86,268l-.61-.3a.46.46,0,0,0-.36,0,.37.37,0,0,0-.17.16l-.66,1.41,1.55,1.32.1-.22c.07-.15.15-.31.21-.41a.55.55,0,0,1,.31-.29l.12,0a.83.83,0,0,1,.54.17l.29.19.13-1.19C532.85,268.57,532.37,268.3,531.86,268Z" class="cls-53" transform="translate(-480.48 -263.12)"/></g><g class="cls-54"><path d="M511.21,264.37a2.71,2.71,0,0,0-1.12.24,1,1,0,0,0-.27.21c-.3.4-.6.81-.87,1.23l1.57,1.11a4.36,4.36,0,0,1,1.22-1.16l.3-.17a3.88,3.88,0,0,1,1.08-.33v-1.2C512.48,264.31,511.84,264.34,511.21,264.37Z" class="cls-55" transform="translate(-480.48 -263.12)"/></g><g class="cls-56"><path d="M516,287.25l-.07,0a4.29,4.29,0,0,1-1.74.39H514c-.89,0-1.76,0-2.62-.08l-.22,1.16c.94.05,1.89.08,2.85.08s1.85,0,2.76-.08a2.52,2.52,0,0,0,1.12-.24,1,1,0,0,0,.27-.2,22.54,22.54,0,0,0,1.9-3l.15-.28-1.67-1A6.24,6.24,0,0,1,516,287.25Z" class="cls-57" transform="translate(-480.48 -263.12)"/></g><path d="M505.6,266.47a.38.38,0,0,1,0,.35l-.22.31c-4.59,5.38-8.07,13.32-9.06,15.61-.08.16-.15.32-.21.42a.64.64,0,0,1-.27.27l1.25,2a.33.33,0,0,0,.17-.16,116.74,116.74,0,0,1,9.3-16.56c.88-1.3,1.84-2.56,2.69-3.87a.21.21,0,0,0,0-.19Z" class="cls-58" transform="translate(-480.48 -263.12)"/><g class="cls-59"><path d="M496.56,282.09l-.28.65c-.08.16-.15.32-.21.42a.64.64,0,0,1-.27.27l-.17,0a1,1,0,0,1-.53-.18c-.25-.15-.49-.3-.72-.46l.11,1.37c.5.31,1,.61,1.59.89l.61.3a.46.46,0,0,0,.36,0,.33.33,0,0,0,.17-.16l1-2.08Z" class="cls-60" transform="translate(-480.48 -263.12)"/></g><g class="cls-61"><path d="M509.25,264.63c0-.06-.11-.09-.24-.09-1.4.14-2.77.34-4.1.6l-.91,1.33.47-.09c.55-.11,1-.11,1.09,0l0,.06a.38.38,0,0,1,0,.35l-.22.31-.08.09h2.29c.56-.79,1.13-1.58,1.66-2.4A.21.21,0,0,0,509.25,264.63Z" class="cls-62" transform="translate(-480.48 -263.12)"/></g><path d="M514,263.34c-14.31,0-25.9,5.93-25.9,13.23s11.59,13.22,25.9,13.22,25.91-5.92,25.91-13.22S528.26,263.34,514,263.34Zm17.94,21.81c-4.77,2.44-11.13,3.78-17.92,3.78s-13.14-1.34-17.91-3.78c-4.59-2.34-7.11-5.39-7.11-8.58s2.52-6.23,7.11-8.57c4.77-2.44,11.13-3.78,17.91-3.78s13.15,1.34,17.92,3.78c4.58,2.34,7.11,5.38,7.11,8.57S536.47,282.81,531.89,285.15Z" class="cls-63" transform="translate(-480.48 -263.12)"/><g class="cls-64"><path d="M513.24,274.65l-.46.11c-.71.15-2.44.43-3.49-.26a2.27,2.27,0,0,1-.82-2.48l-2.68,1a6.83,6.83,0,0,0-.17,1c-.13,1.31.18,2.52,1.6,2.95l.34.1c.83.2,2.42.36,6-.6l1.18-.34.09-1.86Q514.05,274.47,513.24,274.65Z" class="cls-65" transform="translate(-480.48 -263.12)"/></g><g class="cls-66"><path d="M522.32,279.15c.13-1.3-.18-2.52-1.6-2.95-.89-.27-2.9-.78-9.49,1.49l.2,1.76a29.79,29.79,0,0,1,3.78-1.09c1.25-.26,5.65-.93,4,4l2.43-.49A11.09,11.09,0,0,0,522.32,279.15Z" class="cls-67" transform="translate(-480.48 -263.12)"/></g><g class="cls-68"><path d="M521.33,276.48l-2.78,2a1.82,1.82,0,0,1,.9,1.08l2.74-2A2,2,0,0,0,521.33,276.48Z" class="cls-69" transform="translate(-480.48 -263.12)"/></g><g class="cls-70"><path d="M523.45,286.76c-.54.11-.9.11-1,0l0,0a.32.32,0,0,1,0-.37,1.51,1.51,0,0,1,.22-.31l.51-.62-2.2-.28c-.75,1.06-1.52,2.11-2.23,3.2-.07.11-.07.18,0,.23a.34.34,0,0,0,.22.06,47.78,47.78,0,0,0,5-.78v-1.16Z" class="cls-71" transform="translate(-480.48 -263.12)"/></g><path d="M504.47,266.38c-8.4,1.7-14.29,5.63-14.29,10.19,0,2.52,1.88,4.85,4.92,6.72a1,1,0,0,0,.53.18.56.56,0,0,0,.44-.31c.06-.1.13-.26.21-.42,1-2.29,4.47-10.23,9.06-15.61l.22-.31a.32.32,0,0,0,0-.41C505.43,266.27,505,266.27,504.47,266.38Z" class="cls-25" transform="translate(-480.48 -263.12)"/><path d="M527.12,267.28a.46.46,0,0,0-.14,0,44.86,44.86,0,0,0-13-1.8h-.26a4.33,4.33,0,0,0-1.73.4c-1.71.85-2.45,3-2.88,4-2.58,6,2.3,5.24,3.62,5a39.5,39.5,0,0,0,6.1-1.95,30,30,0,0,0,8.32-4.44,1.81,1.81,0,0,0,.23-.2.59.59,0,0,0,.22-.43C527.64,267.55,527.47,267.39,527.12,267.28Z" class="cls-25" transform="translate(-480.48 -263.12)"/><path d="M509,277.26h0a5.88,5.88,0,0,1-1.78-.25c-1.26-.39-1.82-1.41-1.66-3a13,13,0,0,1,.89-3.22,23.78,23.78,0,0,1,1.42-3,23,23,0,0,1,1.92-3,1.92,1.92,0,0,1,1.44-.47c.93-.06,1.85-.08,2.76-.08a42.53,42.53,0,0,1,15.89,2.83c.13.06.54.25.4.59-.9,2.08-6.06,5-10.45,6.74C515,276.29,511.31,277.26,509,277.26Zm5-12.89c-.9,0-1.83,0-2.76.08a1.83,1.83,0,0,0-1.33.42,22.88,22.88,0,0,0-1.9,2.94,23.56,23.56,0,0,0-1.41,3,12.7,12.7,0,0,0-.88,3.18c-.15,1.55.37,2.51,1.56,2.87a5.32,5.32,0,0,0,1.73.24c2.31,0,5.93-1,10.78-2.86,4.36-1.7,9.48-4.62,10.36-6.66,0-.1,0-.23-.32-.39A42.41,42.41,0,0,0,514,264.37Z" class="cls-72" transform="translate(-480.48 -263.12)"/><path d="M507.59,267c-.37.53-.76,1.07-1.13,1.61a115.17,115.17,0,0,0-8.95,15.82l.14.06a114.72,114.72,0,0,1,8.93-15.79c.37-.54.76-1.08,1.13-1.61s.75-1.05,1.12-1.59l-.17,0C508.31,266,507.94,266.53,507.59,267Z" class="cls-73" transform="translate(-480.48 -263.12)"/><path d="M520.35,286.12c.37-.53.76-1.07,1.13-1.62a115,115,0,0,0,8.88-15.65l-.16,0a115.3,115.3,0,0,1-8.84,15.59c-.37.54-.76,1.08-1.13,1.61s-.68,1-1,1.44h.19C519.71,287,520,286.56,520.35,286.12Z" class="cls-74" transform="translate(-480.48 -263.12)"/><path d="M514,288.93a42.53,42.53,0,0,1-15.89-2.83c-.13-.07-.54-.25-.4-.59.9-2.08,6.06-5,10.45-6.74,4.86-1.91,8.5-2.88,10.83-2.88a5.88,5.88,0,0,1,1.78.25c1.26.38,1.82,1.4,1.66,3a12.9,12.9,0,0,1-.89,3.22,23.78,23.78,0,0,1-1.42,3,24.14,24.14,0,0,1-1.91,3,2,2,0,0,1-1.45.47C515.82,288.9,514.89,288.93,514,288.93ZM519,276c-2.31,0-5.93,1-10.78,2.87-4.36,1.7-9.47,4.62-10.36,6.66,0,.1,0,.22.32.39A42.41,42.41,0,0,0,514,288.78c.91,0,1.84,0,2.76-.08a1.83,1.83,0,0,0,1.33-.42,22.38,22.38,0,0,0,1.9-2.95,23.55,23.55,0,0,0,1.41-3,12.7,12.7,0,0,0,.88-3.18c.15-1.55-.37-2.52-1.56-2.87A5.22,5.22,0,0,0,519,276Z" class="cls-75" transform="translate(-480.48 -263.12)"/><path d="M509.32,264.59c0-.06-.11-.13-.29-.13h0a37.07,37.07,0,0,0-13,3.52c-4.61,2.34-7.15,5.39-7.15,8.59s2.54,6.25,7.15,8.59l.61.3a.57.57,0,0,0,.25.06.41.41,0,0,0,.38-.24l.36-.76-.14-.06-.36.76a.29.29,0,0,1-.42.1c-.21-.09-.42-.19-.62-.3-4.55-2.31-7.06-5.31-7.06-8.45s2.51-6.14,7.06-8.46a37.06,37.06,0,0,1,12.92-3.5c.1,0,.14,0,.15.05a.16.16,0,0,1,0,.12c-.16.24-.32.49-.49.73l.17,0c.15-.22.3-.44.44-.67A.27.27,0,0,0,509.32,264.59Z" class="cls-76" transform="translate(-480.48 -263.12)"/><path d="M531.89,268l-.61-.3a.46.46,0,0,0-.63.17l-.45,1,.16,0c.14-.31.29-.61.43-.92a.26.26,0,0,1,.24-.15.41.41,0,0,1,.18.05l.62.29c4.55,2.32,7.06,5.32,7.06,8.46s-2.51,6.14-7.06,8.45a36.85,36.85,0,0,1-12.85,3.5c-.11,0-.29,0-.19-.16l.61-.9h-.19c-.18.27-.37.54-.54.81a.29.29,0,0,0,0,.28c.08.14.27.13.4.11a37,37,0,0,0,12.88-3.5c4.6-2.34,7.14-5.39,7.14-8.59S536.5,270.33,531.89,268Z" class="cls-77" transform="translate(-480.48 -263.12)"/></g></g></svg>