<svg xmlns="http://www.w3.org/2000/svg" id="Sponsors" viewBox="0 0 42.66 52.74"><defs><style>.cls-1{fill:#fefefe}.cls-2{fill:#02164f}.cls-3{fill:#f37022}</style></defs><g id="Indian_Oil" data-name="Indian Oil"><path d="M230.06,363a21.32,21.32,0,0,1,4.07.2,20.2,20.2,0,0,1,7.59,2.7,20.5,20.5,0,0,1,7.29,7.45,20.2,20.2,0,0,1-.67,21,20.47,20.47,0,0,1-37.14-6.89,19.87,19.87,0,0,1-.24-7.13,20.45,20.45,0,0,1,11.82-15.57,21.53,21.53,0,0,1,3.21-1.15,23.17,23.17,0,0,1,4.07-.65m-.85.89a19.17,19.17,0,0,0-2.27.37,16.31,16.31,0,0,0-2.07.59,18.61,18.61,0,0,0-4.14,2,19.59,19.59,0,0,0-8.43,11.38,17,17,0,0,0-.53,2.63,19.73,19.73,0,0,0,0,5.15,19.82,19.82,0,0,0,11.35,15.17,20,20,0,0,0,9.28,1.73c.42-.09.86-.05,1.29-.13a19.7,19.7,0,0,0,16.23-13.32c.18-.55.41-1.09.55-1.66a18.66,18.66,0,0,0,.38-2.58,13.06,13.06,0,0,1,.07-1.53c0-.66-.09-1.31-.07-2a19.52,19.52,0,0,0-1.14-5.07,19.67,19.67,0,0,0-20.52-12.76Z" class="cls-1" transform="translate(-209.86 -362.04)"/><path d="M215.84,379.26c.49-.2,1.06.5.65.9a.59.59,0,0,1-1-.12C215.28,379.73,215.57,379.4,215.84,379.26Z" class="cls-1" transform="translate(-209.86 -362.04)"/><path d="M218.48,379.58a2.71,2.71,0,0,1,2.39,0,1.89,1.89,0,0,1,1.12,1.25c3.12,0,6.24,0,9.36,0,0,.23,0,.46,0,.7l-.45,0c0,1.49,0,3-.05,4.47-.35,0-.71,0-1.07,0,0-.79,0-1.58,0-2.37h-1.08c-.21.23-.38.54-.7.63-.48.21-1-.28-1-.76s.35-.74.73-.74a16.36,16.36,0,0,0,2.1,0c0-.4,0-.8,0-1.21-1.1,0-2.2,0-3.3,0,0,1.5-.08,3,0,4.51-.37,0-.73,0-1.09,0,0-.4,0-.8,0-1.2a1.88,1.88,0,0,1-1.74,0,2.54,2.54,0,0,1-1.18-1.64c.41-.13.87-.39.94-.85a.75.75,0,0,0-.25-.7c-.29-.33-.77-.13-1.15-.18a8.66,8.66,0,0,1,0,1.44c-.45,0-.9,0-1.35,0a1.48,1.48,0,0,0-.81.13c0,.1,0,.21,0,.32a9.2,9.2,0,0,1,2.2.48.78.78,0,0,1,.4.4,1.56,1.56,0,0,1-.93,1.6,2.77,2.77,0,0,1-2.67-.41c.16-.21.34-.4.51-.61a2.07,2.07,0,0,0,1.86.11c.2-.07.12-.31.12-.47a8.29,8.29,0,0,1-2-.54.87.87,0,0,1-.47-1,1,1,0,0,1,.62-.83,2.64,2.64,0,0,1,1.31-.15c0-.16,0-.33,0-.49h-2.57c0,1.51,0,3,0,4.52-.32,0-.65,0-1,0,0-1.5,0-3,0-4.5a4,4,0,0,0-.85-.05c0,.45,0,.91,0,1.36a12.37,12.37,0,0,0-2.36.1c0,.15-.09.42.14.45.64.08,1.35-.15,2,.18s.52.82.51,1.29a1.37,1.37,0,0,1-.39.89c-.27.32-.82.19-1,.56,0,.21.23.33.38.46-.2.22-.37.46-.58.68a3,3,0,0,1-1-1.15,1.23,1.23,0,0,1-1-.64c-.06-.28-.11-.65.15-.85a.84.84,0,0,1,.89-.1c.29.09.43.39.71.51a.84.84,0,0,0,.84-.63c-.49-.51-1.25-.35-1.88-.51a.93.93,0,0,1-.71-.85c0-.29,0-.64.23-.84a2.74,2.74,0,0,1,2-.48,1.18,1.18,0,0,0,0-.42h-2.1v-.72c1.41,0,2.82,0,4.23,0a2,2,0,0,1,1.08-1.26m0,1.29c.82,0,1.65,0,2.48,0a1.1,1.1,0,0,0-1.17-.8,1.15,1.15,0,0,0-1.31.81m6,.72a2.35,2.35,0,0,1,0,1.46,2.38,2.38,0,0,1-.62.72c.13.19.29.42.55.42a1,1,0,0,0,1-.65,7.48,7.48,0,0,0,.13-2Z" class="cls-1" transform="translate(-209.86 -362.04)"/><path d="M238,379.42a3.78,3.78,0,0,0,.59.34,1.87,1.87,0,0,1-1.12.82,1.44,1.44,0,0,1-1.74-.86,1.3,1.3,0,0,1,.59-.23,1.28,1.28,0,0,0,.63.33A1.2,1.2,0,0,0,238,379.42Z" class="cls-1" transform="translate(-209.86 -362.04)"/><path d="M232.5,380.85a1.66,1.66,0,0,1,2.19,1.35,1.83,1.83,0,0,1-.45,1.28c.18.18.42.35.46.62a1.34,1.34,0,0,1-.14,1.19,1.88,1.88,0,0,1-2.93,0,1.75,1.75,0,0,1-.26-.7l.64-.41a1.28,1.28,0,0,0,.55.77.64.64,0,0,0,.83-.09c.28-.26.19-.67.18-1s-.69-.23-1-.28c0-.2,0-.39,0-.59a1,1,0,0,0,1-.8.49.49,0,0,0-.56-.42c-.37-.08-.51.4-.85.41a4.3,4.3,0,0,1-.51-.36,1.12,1.12,0,0,1,.84-1Z" class="cls-1" transform="translate(-209.86 -362.04)"/><path d="M234.92,380.85c4.84,0,9.68,0,14.51,0,0,.24,0,.49,0,.73h-.84c0,1.5,0,3,0,4.51a7.34,7.34,0,0,1-1,0c0-.76,0-1.52,0-2.29a1.82,1.82,0,0,0-.3.11c-.5.28-1,.46-1.52.76-.16-.26-.28-.54-.42-.81a2.09,2.09,0,0,0,.53-.34.56.56,0,0,0-.6-.26.85.85,0,0,0-.63.86c0,.53.5.85.83,1.19-.13.27-.27.54-.41.8a3,3,0,0,1-1.39-1.69,1.91,1.91,0,0,1,.22-1.5,1.55,1.55,0,0,1,1.45-.73,2.91,2.91,0,0,1,1.63.67l.56-.23c0-.34,0-.68,0-1-1.52,0-3,0-4.55,0,0,1.5,0,3,0,4.5-.34,0-.68,0-1,0,0-.42,0-.85,0-1.27a2.52,2.52,0,0,1-2.18-.11c-.5-.32-.56-1-.65-1.51a.87.87,0,0,0,.65-1.4c-.34-.39-.9-.17-1.34-.25q0,2.26,0,4.53c-.33,0-.67,0-1,0,0-1.49,0-3,0-4.48h-.78c0,1.5,0,3,0,4.5a9.93,9.93,0,0,1-1.09,0c0-.82,0-1.65,0-2.48a6.89,6.89,0,0,1-.79,0c0-.32,0-.65,0-1h.79c0-.35,0-.71,0-1.07h-.69c0-.24,0-.48,0-.73m5.89.72a3.56,3.56,0,0,1,.07,1.22,1.34,1.34,0,0,1-.67.89.89.89,0,0,0,1.57,0,6.53,6.53,0,0,0,.16-2.12Z" class="cls-1" transform="translate(-209.86 -362.04)"/><path d="M229.29,362.14c.64-.05,1.29,0,1.93-.1s1.55,0,2.32.16A21,21,0,0,1,242,365a22.5,22.5,0,0,1,3.75,2.76,23.82,23.82,0,0,1,4.27,5.5,13.69,13.69,0,0,1,.64,1.34,20.53,20.53,0,0,1,1.25,3.5,27.77,27.77,0,0,1,.58,3.5q.08,1.69,0,3.39a26.62,26.62,0,0,1-.62,3.64c-.22.6-.33,1.23-.57,1.81a21,21,0,0,1-5.68,8.47c-.52.48-1.07.93-1.62,1.37a22.32,22.32,0,0,1-1.88,1.22,20.64,20.64,0,0,1-3.83,1.81l-1.69.53a20.75,20.75,0,0,1-3.92.6,14.66,14.66,0,0,1-2.48.05c-.46-.08-.94,0-1.4-.12-.29-.05-.6,0-.89-.1-.92-.21-1.87-.33-2.76-.63a19.11,19.11,0,0,1-2.92-1.12,22.15,22.15,0,0,1-2.26-1.19,23.16,23.16,0,0,1-3.47-2.69,21,21,0,0,1-5.5-8.56,5.37,5.37,0,0,1-.29-.91,21,21,0,0,1-.82-6.79,24.66,24.66,0,0,1,.4-3.32,21.57,21.57,0,0,1,2.28-6.08c.22-.48.56-.89.8-1.35a21.17,21.17,0,0,1,4.43-4.82,20.78,20.78,0,0,1,2.52-1.77c.41-.18.75-.47,1.17-.63a20.33,20.33,0,0,1,4.22-1.62,24.12,24.12,0,0,1,3.59-.65m.77.83a23.17,23.17,0,0,0-4.07.65,21.53,21.53,0,0,0-3.21,1.15A20.45,20.45,0,0,0,211,380.34a19.87,19.87,0,0,0,.24,7.13,20.48,20.48,0,0,0,37.14,6.89,20.2,20.2,0,0,0,.67-21,20.5,20.5,0,0,0-7.29-7.45,20.2,20.2,0,0,0-7.59-2.7A21.32,21.32,0,0,0,230.06,363Z" class="cls-2" transform="translate(-209.86 -362.04)"/><path d="M229.21,363.86a19.68,19.68,0,0,1,21.66,17.83c0,.66.11,1.31.07,2a13.06,13.06,0,0,0-.07,1.53,18.66,18.66,0,0,1-.38,2.58c-.14.57-.37,1.11-.55,1.66a19.7,19.7,0,0,1-16.23,13.32c-.43.08-.87,0-1.29.13a20,20,0,0,1-9.28-1.73A19.82,19.82,0,0,1,211.79,386a19.73,19.73,0,0,1,0-5.15,17,17,0,0,1,.53-2.63,19.59,19.59,0,0,1,8.43-11.38,18.61,18.61,0,0,1,4.14-2,16.31,16.31,0,0,1,2.07-.59,19.17,19.17,0,0,1,2.27-.37m-2.1.8a19.35,19.35,0,0,0-13.52,11.23c-.31.67-.51,1.39-.78,2.08q14.22,0,28.43-.06c2.8,0,5.61,0,8.41,0a19,19,0,0,0-5.05-8.31,19.35,19.35,0,0,0-8.65-4.8,19.55,19.55,0,0,0-8.84-.13m-11.27,14.6c-.27.14-.56.47-.36.78a.59.59,0,0,0,1,.12c.41-.4-.16-1.1-.65-.9m2.64.32a2,2,0,0,0-1.08,1.26c-1.41,0-2.82,0-4.23,0v.72h2.1a1.18,1.18,0,0,1,0,.42,2.74,2.74,0,0,0-2,.48c-.27.2-.23.55-.23.84a.93.93,0,0,0,.71.85c.63.16,1.39,0,1.88.51a.84.84,0,0,1-.84.63c-.28-.12-.42-.42-.71-.51a.84.84,0,0,0-.89.1c-.26.2-.21.57-.15.85a1.23,1.23,0,0,0,1,.64,3,3,0,0,0,1,1.15c.21-.22.38-.46.58-.68-.15-.13-.35-.25-.38-.46.21-.37.76-.24,1-.56a1.37,1.37,0,0,0,.39-.89c0-.47-.05-1.05-.51-1.29s-1.32-.1-2-.18c-.23,0-.16-.3-.14-.45a12.37,12.37,0,0,1,2.36-.1c0-.45,0-.91,0-1.36a4,4,0,0,1,.85.05c0,1.5,0,3,0,4.5.32,0,.65,0,1,0,0-1.51,0-3,0-4.52h2.57c0,.16,0,.33,0,.49a2.64,2.64,0,0,0-1.31.15,1,1,0,0,0-.62.83.87.87,0,0,0,.47,1,8.29,8.29,0,0,0,2,.54c0,.16.08.4-.12.47a2.07,2.07,0,0,1-1.86-.11c-.17.21-.35.4-.51.61a2.77,2.77,0,0,0,2.67.41,1.56,1.56,0,0,0,.93-1.6.78.78,0,0,0-.4-.4,9.2,9.2,0,0,0-2.2-.48c0-.11,0-.22,0-.32a1.48,1.48,0,0,1,.81-.13c.45,0,.9,0,1.35,0a8.66,8.66,0,0,0,0-1.44c.38.05.86-.15,1.15.18a.75.75,0,0,1,.25.7c-.07.46-.53.72-.94.85a2.54,2.54,0,0,0,1.18,1.64,1.88,1.88,0,0,0,1.74,0c0,.4,0,.8,0,1.2.36,0,.72,0,1.09,0,0-1.51,0-3,0-4.51,1.1,0,2.2,0,3.3,0,0,.41,0,.81,0,1.21a16.36,16.36,0,0,1-2.1,0c-.38,0-.8.34-.73.74s.49,1,1,.76c.32-.09.49-.4.7-.63h1.08c0,.79,0,1.58,0,2.37.36,0,.72,0,1.07,0,0-1.49.07-3,.05-4.47l.45,0c0-.24,0-.47,0-.7-3.12,0-6.24,0-9.36,0a1.89,1.89,0,0,0-1.12-1.25,2.71,2.71,0,0,0-2.39,0m19.53-.16a1.2,1.2,0,0,1-1,.4,1.28,1.28,0,0,1-.63-.33,1.3,1.3,0,0,0-.59.23,1.44,1.44,0,0,0,1.74.86,1.87,1.87,0,0,0,1.12-.82,3.78,3.78,0,0,1-.59-.34m-5.51,1.43a1.12,1.12,0,0,0-.84,1,4.3,4.3,0,0,0,.51.36c.34,0,.48-.49.85-.41a.49.49,0,0,1,.56.42,1,1,0,0,1-1,.8c0,.2,0,.39,0,.59.34.05.87-.14,1,.28s.1.75-.18,1a.64.64,0,0,1-.83.09,1.28,1.28,0,0,1-.55-.77l-.64.41a1.75,1.75,0,0,0,.26.7,1.88,1.88,0,0,0,2.93,0,1.34,1.34,0,0,0,.14-1.19c0-.27-.28-.44-.46-.62a1.83,1.83,0,0,0,.45-1.28,1.66,1.66,0,0,0-2.19-1.35m2.42,0c0,.25,0,.49,0,.73h.69c0,.36,0,.72,0,1.07h-.79c0,.32,0,.65,0,1a6.89,6.89,0,0,0,.79,0c0,.83,0,1.66,0,2.48a9.93,9.93,0,0,0,1.09,0c0-1.5,0-3,0-4.5h.78c0,1.5,0,3,0,4.48.33,0,.67,0,1,0q0-2.26,0-4.53c.44.08,1-.14,1.34.25a.87.87,0,0,1-.65,1.4c.09.54.15,1.19.65,1.51a2.52,2.52,0,0,0,2.18.11c0,.42,0,.85,0,1.27.35,0,.69,0,1,0,0-1.5,0-3,0-4.5,1.51,0,3,0,4.55,0,0,.34,0,.68,0,1l-.56.23a2.91,2.91,0,0,0-1.63-.67,1.55,1.55,0,0,0-1.45.73,1.91,1.91,0,0,0-.22,1.5,3,3,0,0,0,1.39,1.69c.14-.26.28-.53.41-.8-.33-.34-.83-.66-.83-1.19a.85.85,0,0,1,.63-.86.56.56,0,0,1,.6.26,2.09,2.09,0,0,1-.53.34c.14.27.26.55.42.81.48-.3,1-.48,1.52-.76a1.82,1.82,0,0,1,.3-.11c0,.77.06,1.53,0,2.29a7.34,7.34,0,0,0,1,0c0-1.5,0-3,0-4.51h.84c0-.24,0-.49,0-.73-4.83,0-9.67,0-14.51,0m-22.08,7.8A19.27,19.27,0,0,0,225,401.38a25.82,25.82,0,0,0,2.84.75,23.24,23.24,0,0,0,2.63.29,20.48,20.48,0,0,0,2.35-.05,18,18,0,0,0,4.82-1,19.24,19.24,0,0,0,12-12.45H246c-.63,0-1.26,0-1.89,0-3.06,0-6.11,0-9.17-.05-1.57,0-3.14,0-4.71-.05-3.31-.06-6.63,0-9.94-.07-2.47,0-4.94,0-7.41-.05Z" class="cls-2" transform="translate(-209.86 -362.04)"/><path d="M218.43,380.87a1.15,1.15,0,0,1,1.31-.81,1.1,1.1,0,0,1,1.17.8C220.08,380.86,219.25,380.89,218.43,380.87Z" class="cls-2" transform="translate(-209.86 -362.04)"/><path d="M224.44,381.59h1.05a7.48,7.48,0,0,1-.13,2,1,1,0,0,1-1,.65c-.26,0-.42-.23-.55-.42a2.38,2.38,0,0,0,.62-.72A2.35,2.35,0,0,0,224.44,381.59Z" class="cls-2" transform="translate(-209.86 -362.04)"/><path d="M240.81,381.57h1.13a6.53,6.53,0,0,1-.16,2.12.89.89,0,0,1-1.57,0,1.34,1.34,0,0,0,.67-.89A3.56,3.56,0,0,0,240.81,381.57Z" class="cls-2" transform="translate(-209.86 -362.04)"/><path d="M243.08,407.52a4.15,4.15,0,0,1,2.48.33,3.16,3.16,0,0,1,1.56,2,5.28,5.28,0,0,1,0,2.62,3.1,3.1,0,0,1-1.76,2,4.34,4.34,0,0,1-2,.24,3.07,3.07,0,0,1-2.35-1.44,4.58,4.58,0,0,1-.44-3.25,3.11,3.11,0,0,1,2.57-2.55m.17,1.27A1.81,1.81,0,0,0,242,410.1a3.89,3.89,0,0,0,.06,2.19,1.89,1.89,0,0,0,3.3.48,3.09,3.09,0,0,0,.41-1.81,2.49,2.49,0,0,0-.59-1.72,2,2,0,0,0-1.94-.45Z" class="cls-2" transform="translate(-209.86 -362.04)"/><path d="M212,407.6h1.41v7H212C212,412.3,212,410,212,407.6Z" class="cls-2" transform="translate(-209.86 -362.04)"/><path d="M224,407.6c.46,0,.91,0,1.37,0v7h-1.26c0-.23,0-.46,0-.69a2,2,0,0,1-3.4-.28,3.68,3.68,0,0,1-.31-2.17,2.32,2.32,0,0,1,.83-1.64,2.11,2.11,0,0,1,1.74-.39,2.27,2.27,0,0,1,1,.62c0-.83,0-1.66,0-2.5m-1.49,3a1.16,1.16,0,0,0-.66.79,3.5,3.5,0,0,0,0,1.33,1.2,1.2,0,0,0,.66.93,1,1,0,0,0,1.09-.18A1.87,1.87,0,0,0,224,412a1.75,1.75,0,0,0-.41-1.21,1,1,0,0,0-1.1-.22Z" class="cls-2" transform="translate(-209.86 -362.04)"/><path d="M226.62,407.6H228v1.24h-1.36C226.61,408.43,226.61,408,226.62,407.6Z" class="cls-2" transform="translate(-209.86 -362.04)"/><path d="M248.27,407.61h1.37v1.23c-.46,0-.91,0-1.37,0Z" class="cls-2" transform="translate(-209.86 -362.04)"/><path d="M250.94,407.61h1.37q0,3.52,0,7h-1.38C251,412.3,251,410,250.94,407.61Z" class="cls-2" transform="translate(-209.86 -362.04)"/><path d="M217.07,409.5a2.07,2.07,0,0,1,1.86.39,2.12,2.12,0,0,1,.44,1.51c0,1.08,0,2.16,0,3.24H218c0-1.17.06-2.34-.05-3.51a.86.86,0,0,0-1.36-.49,1.27,1.27,0,0,0-.51,1.17c0,.94,0,1.88,0,2.83H214.7c0-1.71,0-3.41,0-5.12H216c0,.22,0,.45,0,.67A2.5,2.5,0,0,1,217.07,409.5Z" class="cls-2" transform="translate(-209.86 -362.04)"/><path d="M230,409.67a4.19,4.19,0,0,1,2-.21,1.57,1.57,0,0,1,1.41.89c.35,1.41-.24,2.94.39,4.3-.47,0-.93,0-1.4,0,0-.17-.09-.33-.14-.49a2.42,2.42,0,0,1-1.27.62,2,2,0,0,1-1.49-.35,1.52,1.52,0,0,1-.17-2.12,2.35,2.35,0,0,1,1.27-.6,14.08,14.08,0,0,0,1.56-.36.74.74,0,0,0-.22-.72,1.54,1.54,0,0,0-.95-.11c-.33,0-.5.34-.63.61-.42-.06-.83-.14-1.24-.21a1.94,1.94,0,0,1,.92-1.24m.7,2.93a.59.59,0,0,0-.29.88.94.94,0,0,0,1.4.06c.4-.31.31-.86.32-1.3a13.59,13.59,0,0,0-1.43.36Z" class="cls-2" transform="translate(-209.86 -362.04)"/><path d="M237.05,409.51a2.05,2.05,0,0,1,1.91.4,2.16,2.16,0,0,1,.42,1.49v3.25H238c0-1.18.06-2.37-.06-3.54-.09-.66-1-.8-1.43-.41a1.48,1.48,0,0,0-.44,1.21c0,.91,0,1.82,0,2.73-.46,0-.91,0-1.37,0,0-1.71,0-3.42,0-5.12H236c0,.22,0,.44,0,.65a2.78,2.78,0,0,1,1.05-.67Z" class="cls-2" transform="translate(-209.86 -362.04)"/><path d="M226.61,409.53H228c0,1.7,0,3.41,0,5.12h-1.37C226.62,412.94,226.61,411.23,226.61,409.53Z" class="cls-2" transform="translate(-209.86 -362.04)"/><path d="M248.27,409.53h1.36c0,1.7,0,3.41,0,5.12h-1.37c0-1.71,0-3.42,0-5.12Z" class="cls-2" transform="translate(-209.86 -362.04)"/><path d="M227.11,364.66a19.55,19.55,0,0,1,8.84.13,19.35,19.35,0,0,1,8.65,4.8,19,19,0,0,1,5.05,8.31c-2.8,0-5.61,0-8.41,0Q227,378,212.81,378c.27-.69.47-1.41.78-2.08a19.35,19.35,0,0,1,13.52-11.23Z" class="cls-3" transform="translate(-209.86 -362.04)"/><path d="M212.84,388.65c2.47,0,4.94,0,7.41.05,3.31,0,6.63,0,9.94.07,1.57,0,3.14.07,4.71.05,3.06,0,6.11.05,9.17.05.63,0,1.26,0,1.89,0h3.67a19.24,19.24,0,0,1-12,12.45,18,18,0,0,1-4.82,1,20.48,20.48,0,0,1-2.35.05,23.24,23.24,0,0,1-2.63-.29,25.82,25.82,0,0,1-2.84-.75,19.27,19.27,0,0,1-12.13-12.73Z" class="cls-3" transform="translate(-209.86 -362.04)"/></g></svg>