<svg xmlns="http://www.w3.org/2000/svg" id="Sponsors" viewBox="0 0 83.32 45.31"><defs><style>.cls-1{fill:#f58220}.cls-1,.cls-2,.cls-3,.cls-4,.cls-5{fill-rule:evenodd}.cls-2{fill:#ed1c24}.cls-3{fill:#fff200}.cls-4{fill:#fdb913}.cls-5{fill:#373435}</style></defs><g id="Jagran"><path d="M250.62,89.19m0,0-19.12,9h21.62a21.73,21.73,0,0,0-2.5-9" class="cls-1" transform="translate(-189.24 -75.39)"/><path d="M221.75,77.58a22.84,22.84,0,0,0-13.07,20.65h2.72a20,20,0,0,1,33.27-15l-13.39,15h.22l20.65-9.77a22.83,22.83,0,0,0-30.4-10.88" class="cls-2" transform="translate(-189.24 -75.39)"/><path d="M217.73,93.33a14.52,14.52,0,0,1,18-9.79L231.48,98l13.19-14.81a20,20,0,0,0-33.26,15h5.76a14.51,14.51,0,0,1,.56-4.9" class="cls-1" transform="translate(-189.24 -75.39)"/><path d="M231.51,87.87a10.38,10.38,0,0,0-10.38,10.38h20.7a10.29,10.29,0,0,0-10.32-10.38" class="cls-3" transform="translate(-189.24 -75.39)"/><path d="M231.51,87.87m0,0a10.79,10.79,0,0,1,2.86.4l1.4-4.73a14.47,14.47,0,0,0-18.6,14.69h4a10.38,10.38,0,0,1,10.38-10.36" class="cls-4" transform="translate(-189.24 -75.39)"/><path d="M196.24,112.75l-2.29,0-.36.07-.32.09-.31.15-.2.13-.17.1-.18.16-.13.19-.16.23-.11.28,0,.24-.05.37v.47l0,.26.07.28.08.24.14.2.12.21.19.21.23.17.3.21.15.09.27.12.27.09.19,0,.28,0,.31,0-.06-.21,0-.24v-.42l0-.23.09-.28.14-.29.2-.27.22-.21.25-.14.26-.07.31-.07h.27l.23,0,.22,0,.18.07.23.07.17.13.19.19.09.12.1.12.12.16.08.24,0,.21,0,.2v.61l0,.19v.16l-.11.15-.09.2-.06.14,0,.12.19.21.2.21.4.29.62.37-1.55,1.54-.25-.14-.2-.12-.23-.16-.22-.18-.19-.15-.18-.18-.16-.14-.1-.14-.19.07-.26,0-.25.05-.25.07-.36,0h-.28l-.24,0-.55,0-.51-.08-.48-.14-.43-.16-.41-.19-.35-.23-.34-.26-.3-.26-.26-.32-.23-.31-.21-.33-.17-.35-.15-.37-.11-.39-.09-.36-.07-.39,0-.38v-.77l0-.37.06-.36.08-.35.09-.33.13-.32.13-.31.16-.27.17-.26.19-.22.2-.2.22-.15.23-.13.23-.08.47-.21.31-.14.38-.11.34,0,.35,0h1.28v-.87l-.8,0h-4.44v-2.13h3.56l-1.1-1.78,2-1.17,1.5,2.62-.46.26,1.39.06h.1l-1.27-2.16,1.92-1,1.53,2.58-.66.6h1.44L199,107l-.05-.31,0-.35.09-.47.14-.37.2-.33.2-.28.28-.21.27-.25.32-.17.3-.18.45-.19.34-.12.32-.09.27-.1.35-.07.42-.09.31-.07.27,0h.21l.31,0,.5,0,.53,0h.52l.42,0h.39l.39.05h.32l.45.07.39.09.34.07.31.07.34.1.33.14.25.11.29.17.33.21.21.18.3.24.22.3.15.28.12.22.1.3.09.35,0,.26v.25l0,.24,0,.19,0,.28h12.41v2.13h-4.5V111l.2,0,.22,0,.43-.08h.64l.31.06.3.08.29.11.26.14.27.16.25.15.23.2.2.2.19.23.17.23.15.23.13.24.09.26.06.25.09.36.1.39.07.31,0,.21,0,.54,0,.51V116l0,.23,0,.23-.07.21,0,.21-.08.21-.06.19-.08.18-.17.33-.19.29-.2.28-.22.23-.21.21-.24.17-.24.14-.24.14-.24.11-.25.07-.25.07-.25.05-.25,0-.23,0-.51-2.28.2-.06.2-.07.19-.11.18-.12.25-.11.19-.17.17-.19.15-.3.11-.23.08-.26v-.89l0-.21-.06-.24-.08-.21-.12-.16-.11-.19-.17-.2-.17-.15-.21-.07-.2-.06h-.62l-.14.06-.14,0-.1.09-.08,0-2.41.3-.07-.12,0-.06,0-.12-.07-.12-.11-.09-.18-.12-.23-.07-.25,0-.23,0-.22,0-.22.07-.25.08-.14.13-.14.14-.09.12-.11.1-.08.14-.06.16-.07.18,0,.24v.3l0,.22,0,.25,0,.21.08.31.11.25.12.21.11.15.12.13.16.14.2.08.19.07.24,0,.16,0h.18l.3-.06.25-.1.26-.16.09-.21v-.26l0-2.27,2.39-.3,0,6.73h-2.37V119l-.45.24-.34.06-.34,0-.42,0-.34,0-.39-.09-.37-.09-.31-.16-.2-.15-.36-.26-.19-.2-.24-.24-.21-.23-.2-.23-.14-.29-.15-.26-.14-.32-.11-.49,0-.31v-.88l0-.36,0-.32,0-.22,0-.3.05-.4.09-.32.17-.43.16-.28.12-.27.25-.31.22-.21.28-.26.29-.19.26-.11.28-.14.31-.12.27,0,.35,0,.38,0,.34,0,.32,0,.34.08.19,0,.17.07,0-1.34h-5.62v10.62l-2.51,0v-6h-3.29l-.23,0-.15.07-.1.12-.11.12V115l.11.23.14.15.22.13.25,0,.23-.05.22-.07.2-.14.12-.18.17-.28,1.46,1.68,0,.07-.11.12,0,.09-.08.12-.23.25-.08.09,0,.05-.09.07-.11.09-.11.1-.14.09-.09,0-.19.09-.15.07-.16.05-.14,0-.15,0-.14,0h-.47l-.29,0-.23,0-.24,0-.23-.09-.15-.12-.21-.07-.17-.12-.2-.18-.17-.14-.2-.22-.19-.27-.12-.19-.14-.26-.14-.33-.06-.3-.05-.21,0-.3v-.92l0-.3.08-.28,0-.17.06-.16.17-.3.11-.14.15-.26.28-.28.25-.19L204,112l.17-.1.23-.07.28-.07.28,0h3.78v-2.07h-6.6l0,10.68-2.43,0V109.61h-2.79v3.14Zm12.39-6.39.13.19.07.23,0,.28v.15l0,.09,0,.12,0,.07h-7.17v-.13l0-.14,0-.24v-.25l.06-.15,0-.09,0-.09.09-.14.14-.14L202,106l0,0,.05,0,0,0,0,0,.14-.09.18-.11.3-.12.31-.07.34-.07.4-.05.31,0,.37,0,.49,0,.49,0h.37l.33,0,.33,0,.38.07.31.07.27.11.26.07.28.14.17.12.25.16Z" class="cls-5" transform="translate(-189.24 -75.39)"/><path d="M238.15,120.23h-2.34V114h-1l.14.21.09.24.08.24.09.3.06.26.05.2,0,.22v1l0,.17V117l-.08.2,0,.19-.1.19-.07.19-.1.21-.07.18-.07.1-.06.12-.11.18-.11.14-.12.14-.15.15-.16.13-.14.08-.11.07-.2.11-.19.1-.18.11-.2.1-.24.09-.2.07-.29.07-.3,0-.23,0-.4-.07-.39-.11-.34-.1-.33-.11-.28-.12-.26-.12-.25-.14-.21-.14-.19-.16-.19-.16-.15-.17-.14-.16-.14-.19-.12-.18-.11-.19-.11-.19-.39-.79-.43-.82-.13-.21-.14-.19-.15-.21-.17-.21-.2-.19-.21-.21-.23-.19-.26-.19.26-.13.31-.15.31-.16.33-.18.32-.15.31-.14.27-.14.23-.09.42.54.43.58,1.3,2.41.19.14.17.12.16.11.17.08.17.07.15,0,.2,0,.19,0,.17,0,.19-.09.18-.07.16-.11.17-.14.14-.21.12-.26.09-.26,0-.23v-.22l0-.21-.05-.23-.06-.26-.08-.21-.07-.25-.07-.22-.06-.18v-.12l-.07-.12h-1.86v-2.48h5.26l0-1.86-8.16,0,0-2.11,44.84,0,0,2.18-1.57,0v10.62l-2.71,0V110.06l0-.42-.83,0v5.76l-.08.28-.08.25-.19.36-.17.32-.28.33-.32.25-.26.21-.31.19-.33.08-.28.09-.31,0-.36,0-.29,0-.25,0-.35-.09-.32-.09-.27-.07-.17-.1-.21-.13-.17-.1-.2-.14-.2-.19-.11-.14-.14-.19-.14-.18-.09-.23-.11-.22-.06-.25-.05-.31,0-5.68-1.86,0,.28.45.21.34.17.31.11.26.13.28.09.39.09.43v.35l-.06.33V113l-.05.28,0,.3-.1.33-.15.38-.26.39-.27.26-.23.28-.43.24-.52.21-.74.13H257l.38.63.34.33.31.37.32.35.34.3.41.38.46.3.44.33-1.66,1.38-.61-.3-.43-.33-.25-.19-.23-.21-.39-.44-.23-.24-.27-.25-.26-.31-.23-.37-.3-.47-.34-.51-.2-.42-.31-.57-.16-.39-.14-.31-.15-.32-.09-.33-.11-.31-.14-.37-.05-.26-.11-.31-.09-.37-.09-.33-.06-.34-.07-.36,2.52,0,.23,1.52.08.12.12.26.23.18.28.12h.34l.31,0,.33-.13.28-.15.2-.25.14-.29,0-.39,0-.31,0-.34-.11-.33-.17-.35-.09-.24-.16-.23-.15-.24-.2-.32L257,110l-.36-.19-.36-.21h-4.35v10.62h-2.47l0-10.63H247.7l.21.28.14.29.1.25.11.26.1.31.1.28.08.3.08.26,0,.28,0,.28,0,.21v.25l0,.29,0,.25v.33l0,.31,0,.28-.05.21,0,.26-.08.23-.06.21-.08.23-.05.23-.09.19-.08.21-.07.19-.11.19-.13.21-.17.25-.12.19-.2.21-.16.15-.2.18-.28.16-.28.15-.32.14-.39.13h-.82l-.22-.06-.23,0-.24-.11L244,118l-.17-.12-.17-.11-.15-.1-.11-.11-.12-.1-.07-.09-.14-.15L243,117l-.08-.16-.07-.15-.1-.21-.07-.21,0-.79,0-.3.08-.26.1-.44.15-.34.19-.32.14-.19.14-.23.21-.19.2-.14,2.28.72L246,114l-.2.18-.26.24-.22.23-.12.24-.1.21-.06.23.06.26.22.09.25,0,.22-.14.12-.12.08-.14L246,115l.09-.26.1-.21.07-.26.07-.28,0-.18,0-.33v-.3l0-.35,0-.38-.08-.4-.14-.37-.17-.3-.17-.36-.24-.37-.17-.24-.18-.23-.16-.18-.15-.08-.09-.07-.14-.07-.08-.06-.13-.05-.12-.09h-2.4v10.62h-2.42l0-10.62h-1.4Zm26.9-10.61h-1.36v5.23l.05.12.06.12.08.07.09.07.09,0,.09.06h.08l.1,0,.1,0,.13,0,.12,0,.11-.07.08-.07L265,115l0-.05,0-.09,0-.09Z" class="cls-5" transform="translate(-189.24 -75.39)"/></g></svg>