<svg xmlns="http://www.w3.org/2000/svg" id="Sponsors" viewBox="0 0 70.64 46.79"><defs><style>.cls-1{fill:#231f20}.cls-2{fill:#fff200}.cls-3{fill:#ed1c24}.cls-4{fill:#fff}.cls-5{fill:none;stroke:#231f20;stroke-width:.84px}</style></defs><g id="Pran"><path d="M263.31,282.51a10.09,10.09,0,0,1-2-2.71,21,21,0,0,1-1-2.64,15.71,15.71,0,0,0-1.17-2.75,7.25,7.25,0,0,0-1.08-1.79,6,6,0,0,0-2.37-1.81,7.58,7.58,0,0,0-2.79-.46,7.81,7.81,0,0,0-1.71.2,6.27,6.27,0,0,0-.37-2.79,6.13,6.13,0,0,0-1.46-2.18,8.44,8.44,0,0,0-3.06-1.67,11.46,11.46,0,0,0-2.47-.57,7.85,7.85,0,0,1-1.29-.16,4.3,4.3,0,0,1-1.94-.9,2.9,2.9,0,0,1-.8-1.39,2.29,2.29,0,0,1-1,1.44,5.76,5.76,0,0,1-1.74.57c-.53.07-1.66.06-1.66.06-.75,0-2.59.25-2.59.25a3.09,3.09,0,0,0-2.36,1.35c-.73-1.34-3.2-1.46-3.2-1.46-.65-.07-2.55-.18-2.55-.18a4.81,4.81,0,0,1-2.12-.42,2.2,2.2,0,0,1-1.45-1.62,2.59,2.59,0,0,1-1.2,1.67,6,6,0,0,1-2,.72c-.75.07-2.49.42-2.49.42a8.76,8.76,0,0,0-2.58.95,6.82,6.82,0,0,0-1.85,1.56A5.23,5.23,0,0,0,210,268a7.13,7.13,0,0,0-.28,2.53l-1.15-.15a7.14,7.14,0,0,0-3,.35,6,6,0,0,0-2.49,1.58,9.87,9.87,0,0,0-1.38,2.11,18.12,18.12,0,0,0-1,2.3c-.26.9-.52,1.56-.52,1.56a12.17,12.17,0,0,1-1.1,2.34,7,7,0,0,1-1.43,1.82,7.71,7.71,0,0,1-2.42,1.52,9.27,9.27,0,0,1,2,1.19,10.41,10.41,0,0,1,2.13,2.8,12.14,12.14,0,0,1,1.05,2.43l.61,1.73c.1.38,1.08,2.25,1.08,2.25a6,6,0,0,0,1.51,1.84,6.9,6.9,0,0,0,4.29,1.48,5.45,5.45,0,0,0,1.8-.19,6.34,6.34,0,0,0,.82,3.74,7,7,0,0,0,2.4,2.19,12.89,12.89,0,0,0,3.86,1.19,11.1,11.1,0,0,1,1.94.3,3.07,3.07,0,0,1,2.38,2.24,2.7,2.7,0,0,1,1.47-1.66,5.67,5.67,0,0,1,2.34-.42c.86,0,2.3-.13,2.3-.13,2.68-.22,3.21-1.53,3.21-1.53.39,1.16,3.07,1.51,3.07,1.51.86.13,3.43.2,3.43.2,2.62.28,2.88,2,2.88,2,.26-1.77,2.63-2.28,2.63-2.28a16.57,16.57,0,0,1,1.66-.27,10.23,10.23,0,0,0,4.07-1.3,6.25,6.25,0,0,0,2.42-2.55,6.62,6.62,0,0,0,.61-3.26,10.81,10.81,0,0,0,1.71.17,6.15,6.15,0,0,0,2.61-.4,6.22,6.22,0,0,0,2.86-2.27,14.05,14.05,0,0,0,1.48-2.79c.2-.4.85-2.39.85-2.39a9.33,9.33,0,0,1,.87-2,8.88,8.88,0,0,1,1.75-2.34,6,6,0,0,1,2.51-1.49,8.29,8.29,0,0,1-2.51-1.48" class="cls-1" transform="translate(-195.17 -260.37)"/><path d="M263.29,282a10.09,10.09,0,0,1-2-2.71,21,21,0,0,1-1-2.64,15.71,15.71,0,0,0-1.16-2.75,7.69,7.69,0,0,0-1.09-1.8,6.07,6.07,0,0,0-2.37-1.8,7.68,7.68,0,0,0-2.79-.47,8.17,8.17,0,0,0-1.71.21,6.23,6.23,0,0,0-.37-2.79,6,6,0,0,0-1.46-2.18,8.44,8.44,0,0,0-3.06-1.67,11.46,11.46,0,0,0-2.47-.57,7.85,7.85,0,0,1-1.29-.16,4.3,4.3,0,0,1-1.94-.9,2.9,2.9,0,0,1-.8-1.39,2.25,2.25,0,0,1-1,1.43,5.59,5.59,0,0,1-1.74.58c-.53.07-1.66.06-1.66.06-.75,0-2.59.25-2.59.25a3.09,3.09,0,0,0-2.36,1.35c-.73-1.34-3.2-1.46-3.2-1.46-.65-.07-2.55-.18-2.55-.18a4.64,4.64,0,0,1-2.11-.43,2.18,2.18,0,0,1-1.46-1.61,2.59,2.59,0,0,1-1.2,1.67,5.87,5.87,0,0,1-2.05.71c-.75.08-2.48.43-2.48.43a8.75,8.75,0,0,0-2.59.95,6.82,6.82,0,0,0-1.85,1.56,5.23,5.23,0,0,0-1,1.82,7.13,7.13,0,0,0-.28,2.53l-1.15-.15a7.14,7.14,0,0,0-3,.35,6.13,6.13,0,0,0-2.49,1.58,10.31,10.31,0,0,0-1.38,2.11,17.68,17.68,0,0,0-1,2.29c-.26.91-.52,1.57-.52,1.57a11.86,11.86,0,0,1-1.1,2.33,6.94,6.94,0,0,1-1.43,1.83,7.71,7.71,0,0,1-2.42,1.52,9.29,9.29,0,0,1,2,1.19,10.51,10.51,0,0,1,2.12,2.8,11.89,11.89,0,0,1,1,2.43l.61,1.73c.1.37,1.08,2.25,1.08,2.25a6,6,0,0,0,1.51,1.84,6.9,6.9,0,0,0,4.29,1.48,5.45,5.45,0,0,0,1.8-.19,6.34,6.34,0,0,0,.82,3.74,7,7,0,0,0,2.4,2.19,12.89,12.89,0,0,0,3.86,1.19,11.1,11.1,0,0,1,1.94.3,3.07,3.07,0,0,1,2.38,2.24,2.7,2.7,0,0,1,1.47-1.66,5.67,5.67,0,0,1,2.34-.42c.86,0,2.3-.13,2.3-.13,2.68-.22,3.21-1.53,3.21-1.53.39,1.16,3.07,1.51,3.07,1.51.86.13,3.42.2,3.42.2,2.63.28,2.89,2,2.89,2,.27-1.77,2.63-2.28,2.63-2.28a13.67,13.67,0,0,1,1.66-.27,10.42,10.42,0,0,0,4.07-1.3,6.25,6.25,0,0,0,2.42-2.55,6.62,6.62,0,0,0,.61-3.26,10.81,10.81,0,0,0,1.71.17,6.33,6.33,0,0,0,2.61-.4,6.22,6.22,0,0,0,2.86-2.27,14.35,14.35,0,0,0,1.48-2.79c.2-.4.85-2.39.85-2.39a9.33,9.33,0,0,1,.87-2,8.68,8.68,0,0,1,1.75-2.34,6.09,6.09,0,0,1,2.51-1.5,8.36,8.36,0,0,1-2.51-1.47" class="cls-2" transform="translate(-195.17 -260.37)"/><path d="M259.09,286.63a21.26,21.26,0,0,0-2.31,4.2,14.1,14.1,0,0,1-1.06,2A6.08,6.08,0,0,1,250,295.7a6,6,0,0,1-3.18,5,17.2,17.2,0,0,1-2.78,1s-3.69.58-4.22,2.67c0,0-.64-1.84-4.93-2.09,0,0-3.51.18-4.45-1.59,0,0-.43,1.68-4.5,1.56,0,0-4.07.15-4.82,2.12a5.29,5.29,0,0,0-4.17-2.63,10.48,10.48,0,0,1-3.58-1.42,6.13,6.13,0,0,1-2.49-4.67,6.27,6.27,0,0,1-5.53-2.56,9.77,9.77,0,0,1-1.32-2.36s-2-5.58-6.39-7.31a9.32,9.32,0,0,0,4.36-3.53,14.31,14.31,0,0,0,1.68-2.94,16,16,0,0,1,1.62-3.09,6.37,6.37,0,0,1,5.58-2.58,6.06,6.06,0,0,1,3.18-5.1,18.32,18.32,0,0,1,2.25-.83,11.22,11.22,0,0,0,3-1,3.7,3.7,0,0,0,1.79-1.85s.2,1.34,3.35,1.93a12.87,12.87,0,0,0,2.3.24s2.85-.06,3.69,1.53c0,0,.7-1.47,3.51-1.53,0,0,5,0,5.87-2.12,0,0,.56,2,4.64,2.74,0,0,3.67.75,4.8,3.3a6.35,6.35,0,0,1,.74,2.68s3.41-.24,5,1.91a14.4,14.4,0,0,1,2.07,3.49,23.83,23.83,0,0,0,2.12,3.66,9.08,9.08,0,0,0,4.11,3.08,10.07,10.07,0,0,0-4.2,3.16" class="cls-3" transform="translate(-195.17 -260.37)"/><path d="M214.57,283.21h-5v-3.93h5.21a.78.78,0,0,1,.8.82v2.23s.21.89-1,.89m2.71-3.76c0-1.57-1.92-1.63-1.92-1.63h-7.49V289h1.69v-4.33h5.82c2.21,0,1.9-1.73,1.9-1.73Z" class="cls-4" transform="translate(-195.17 -260.37)"/><path d="M226.22,283.21H221v-3.93h5.29s.94-.06.94.67v2.51s.24.76-1,.76m1.64.85c1.23,0,1-1.26,1-1.26v-3.1c0-2-2.2-1.87-2.2-1.87h-7.44V289H221v-4.33h5.1c1.06,0,1.13.79,1.13.79V289h1.74l0-3.65A1.26,1.26,0,0,0,227.86,284.06Z" class="cls-4" transform="translate(-195.17 -260.37)"/><path d="M233.6,284.36l1.78-4.75a.48.48,0,0,1,.52-.35.57.57,0,0,1,.55.35l2,4.75H233.6m2.9-6.54h-1.11c-1.21,0-1.63,1.44-1.63,1.44l-3.7,9.71h1.87l1.18-3.23H239l1.36,3.22h1.88l-4.06-9.71A1.76,1.76,0,0,0,236.5,277.82Z" class="cls-4" transform="translate(-195.17 -260.37)"/><polyline points="55.98 17.46 55.98 25.93 50.25 17.45 48.15 17.46 48.15 28.61 49.89 28.61 49.89 20.18 55.52 28.61 57.7 28.61 57.7 17.46 55.98 17.46" class="cls-4"/><path d="M255.53,300a1.76,1.76,0,1,1-1.76-1.76A1.76,1.76,0,0,1,255.53,300Z" class="cls-5" transform="translate(-195.17 -260.37)"/><path d="M253,300.9h.39v-.81h.07c.26,0,.29,0,.52.39l.28.42h.46l-.23-.38c-.2-.31-.27-.38-.43-.47h0a.65.65,0,0,0,.21-.06.5.5,0,0,0,.3-.48.53.53,0,0,0-.32-.49,1.37,1.37,0,0,0-.44,0H253v1.92m.39-1.6h.3c.26,0,.3,0,.38,0a.22.22,0,0,1,.1.2.22.22,0,0,1-.15.22,1.2,1.2,0,0,1-.35,0h-.28Z" class="cls-1" transform="translate(-195.17 -260.37)"/></g></svg>