<svg xmlns="http://www.w3.org/2000/svg" id="Sponsors" viewBox="0 0 78.76 59.5"><defs><style>.cls-1{fill:#231f20}.cls-1,.cls-2,.cls-4{fill-rule:evenodd}.cls-2,.cls-3{fill:#a6a8ab}.cls-4{fill:#44c7f4}.cls-5{fill:#2e3191}</style></defs><g id="_94.3_Radio_Misty_FM" data-name="94.3 Radio Misty FM"><path d="M516.89,180.62l0-3.53a17.59,17.59,0,0,1-5.36-1.06c-.41,4.9-.56,9.8-.51,14.7l-.69.19c-2-4.12-2.48-9.51-.59-16.75.23-.73.33-.63,1.19-.49l6.56,1c.35.06.75.06,1.09.15a.84.84,0,0,1,.72.76,7.48,7.48,0,0,1,0,.82l0,4.9,4.37,1.66-.29-5.8-3.12,0a8.26,8.26,0,0,1-.08-1.79c0-.38.21-.61.7-.6l2.6,0c.35,0,.43-.19.23-.4a1.08,1.08,0,0,0-.55-.26,9.35,9.35,0,0,1-6.15-4.49,4,4,0,0,1,.54-4.21,11.41,11.41,0,0,1,1.92-2.14c-4.53-1.54-9.08-2.19-13.48-.08a9.86,9.86,0,0,0-3.76,2.8,2.6,2.6,0,0,0-.61,1.36,1.9,1.9,0,0,0,.77,1.72,6.05,6.05,0,0,0,1.21.7l5,2.48c.47.22.83.26,1,.78a1.83,1.83,0,0,1-.7,1.83,1.5,1.5,0,0,1-.92.36l-5.07.94-1-1.61,2.49-1.46c-3.27-1.64-5.47-3.53-5.37-5.91.13-3,3.94-5.37,6.35-6.38a17.29,17.29,0,0,1,6.16-1.25,18.8,18.8,0,0,1,9.89,2.33c5.38-2.93,10.56-2.46,15.88-.29,3.19,1.3,5.75,3.7,8,5.79-9.07-4.87-16.44-6.53-21.62-4a22.63,22.63,0,0,1,3.57,3.21l-5.15-2.3c-2.06,1.68-3.08,3.16-2.68,4.48.29,1,1.45,1.78,3.25,2.58l2.12,1a17,17,0,0,1,1.78.84c.92.56.79,1.15-.25,1.77-.54.32-.42.37-.42,1v7.37c0,1.68,0,3.35.06,5,.11,3.11-.5,3-1.15,1.38a13.67,13.67,0,0,1-.58-2.37c-.23-1.2-.41-2.41-.65-3.61a37.81,37.81,0,0,1-4.58-.53l0,2.67a9.94,9.94,0,0,1-.19,2c-.26,1.44-1,2.59-3.49,1.17a5.24,5.24,0,0,1-2.91-5.27c.38-2.39,2.05-3.2,4.46-3Zm0,2.41-.06,3.69c0,.21-.21.24-.33.08l-1.53-2.4a1.14,1.14,0,0,1-.29-.84.6.6,0,0,1,.42-.56,1.32,1.32,0,0,1,.56,0l1.23.07Z" class="cls-1" transform="translate(-471.86 -155.68)"/><path d="M527.75,174.06l1.78.14a84.45,84.45,0,0,0,.3,14.74,9.62,9.62,0,0,1,.19,1.5c0,.34-.28.51-.67.25a3.1,3.1,0,0,1-.91-1.45c-1.66-4-1.79-9.75-.69-15.18Z" class="cls-1" transform="translate(-471.86 -155.68)"/><path d="M542.1,183.08l.26,2.24,1.43-.31c-1.16,2-2.36,3.05-3.6,3.13a1.6,1.6,0,0,1-1-.49c-.81-.86-.4-1.85-.06-2.83,1.19-3.4,3.78-6.74,1.38-10.31l-2.53-.07c.56,1.43,1.95,3.07.58,5.08a2,2,0,0,1-1.1.88,5.86,5.86,0,0,1-4.3,0,1.28,1.28,0,0,1-.65-1.62,3.77,3.77,0,0,0,.39-1.77c-.13-.82.23-.73.59-.5a10,10,0,0,0,4.59,2.15c.68,0,1-.55.32-1a18.75,18.75,0,0,1-4-3.22c-.24-.37-.35-.42-1-.41l-1.15.09a1.2,1.2,0,0,0-1.52-.51,1.29,1.29,0,0,0-.53.39c-.41.5-.31,1.15.1,1.89a2.18,2.18,0,0,1-.05,2.63,2.35,2.35,0,0,0,.67,3.27,6.62,6.62,0,0,0,6.06,1.65,6.68,6.68,0,0,0-.14,5.32,4.09,4.09,0,0,0,5.75,1.29,10.26,10.26,0,0,0,3.3-5.59c.53-1.95.18-2.79-.82-2.83A1.94,1.94,0,0,0,544,182l-1.88,1.06Z" class="cls-1" transform="translate(-471.86 -155.68)"/><path d="M542,174.53a.24.24,0,0,1,.12-.22,1.67,1.67,0,0,1,.45-.13,20.47,20.47,0,0,1,5.93-.82c.42,0,.64.2.72.46,1,.18,1.22.45.83.79a.56.56,0,0,1-.39.15L542.42,176c-.25.05-.37,0-.38-.29v-1.19Z" class="cls-1" transform="translate(-471.86 -155.68)"/><path d="M496.37,171l.92,2.2.78-.13.75,1.75c-2.56-.12-2.82-2.53-2.45-3.82Z" class="cls-2" transform="translate(-471.86 -155.68)"/><path d="M498.71,168.4l2.64,5.63a1,1,0,0,1-1.89.89l-2.64-5.62a1,1,0,0,1,1.89-.9Z" class="cls-1" transform="translate(-471.86 -155.68)"/><path d="M509.31,162.84l2.64,5.63a1,1,0,0,1-1.89.89l-2.64-5.62a1,1,0,0,1,1.89-.9Z" class="cls-1" transform="translate(-471.86 -155.68)"/><path d="M510.92,163.35,512,165.5l-.62.5.81,1.71c1.61-2,0-3.78-1.24-4.36Z" class="cls-2" transform="translate(-471.86 -155.68)"/><path d="M495.32,164.81l1.29-.5c.34-5.82,5.4-7.68,9.09-4.94l1.05-.52a5.64,5.64,0,0,0-4.64-2.14,6.22,6.22,0,0,0-1.87.27,6.9,6.9,0,0,0-4.05,3.4,6.07,6.07,0,0,0-.54,1.29,8.74,8.74,0,0,0-.33,3.14Z" class="cls-1" transform="translate(-471.86 -155.68)"/><path d="M497.82,172.48a.23.23,0,0,1-.11.31.24.24,0,0,1-.31-.12c-.48-1.14-.83-2.22-1.26-3.16a18.43,18.43,0,0,1-1.63-5.17,8.65,8.65,0,0,1,.36-3.36,8.07,8.07,0,0,1,3.71-4.33c3.34-1.58,5.7-1.1,7.7.49s3.27,4.41,5,7.92a.23.23,0,1,1-.41.2c-1.62-3.46-3.11-6.17-5-7.69-1.87-1.29-3.9-1.74-7.12-.44a8.88,8.88,0,0,0-3.4,4.12c-.93,2.58-.21,5.62,2.44,11.23Z" class="cls-3" transform="translate(-471.86 -155.68)"/><path d="M517.24,180.38l0-3.53a17.53,17.53,0,0,1-5.35-1.06c-.41,4.9-.56,9.8-.51,14.7l-.69.19c-2-4.12-2.48-9.51-.59-16.75.23-.73.33-.63,1.18-.49l6.57,1c.35.06.74.07,1.09.15a.84.84,0,0,1,.72.76,7.48,7.48,0,0,1,0,.82l0,4.9,4.37,1.66-.3-5.8-3.11,0a8.2,8.2,0,0,1-.08-1.78c0-.39.21-.62.7-.61l2.59,0c.36,0,.44-.19.23-.4a1.08,1.08,0,0,0-.55-.26,9.33,9.33,0,0,1-6.14-4.49,4,4,0,0,1,.53-4.2,11.56,11.56,0,0,1,1.93-2.15c-4.53-1.54-9.08-2.18-13.48-.08a9.8,9.8,0,0,0-3.76,2.8,2.6,2.6,0,0,0-.61,1.36,1.9,1.9,0,0,0,.77,1.72,5.79,5.79,0,0,0,1.2.7l5,2.48c.47.23.83.26,1,.78a1.82,1.82,0,0,1-.71,1.83c-.29.29-.52.28-.92.36l-5.06.94-1-1.61,2.49-1.46c-3.27-1.64-5.46-3.53-5.36-5.91.13-3,3.93-5.37,6.35-6.38a17.73,17.73,0,0,1,6.15-1.25,18.8,18.8,0,0,1,9.9,2.33c5.38-2.93,10.55-2.46,15.88-.29,3.19,1.3,5.75,3.7,8,5.79-9.07-4.86-16.44-6.53-21.62-4a22.63,22.63,0,0,1,3.57,3.21l-5.16-2.3c-2.06,1.68-3.07,3.16-2.67,4.48.29.95,1.45,1.78,3.24,2.58l2.13,1a15.93,15.93,0,0,1,1.77.84c.93.56.8,1.15-.24,1.77-.54.32-.43.37-.43,1V183c0,1.68,0,3.35.06,5,.12,3.11-.49,3-1.14,1.38a12.81,12.81,0,0,1-.58-2.37c-.24-1.2-.41-2.41-.65-3.61a35.91,35.91,0,0,1-4.58-.53l0,2.68a10.74,10.74,0,0,1-.19,1.95c-.26,1.44-1,2.59-3.49,1.17a5.23,5.23,0,0,1-2.91-5.27c.38-2.39,2.05-3.2,4.45-3.05Zm0,2.42-.06,3.68c0,.21-.21.24-.34.08l-1.53-2.4a1.16,1.16,0,0,1-.28-.84.62.62,0,0,1,.42-.56,1.32,1.32,0,0,1,.56,0l1.23.08Z" class="cls-4" transform="translate(-471.86 -155.68)"/><path d="M528.11,173.82l1.78.14a84.45,84.45,0,0,0,.3,14.74,9.62,9.62,0,0,1,.19,1.5c0,.34-.28.51-.67.25a3,3,0,0,1-.91-1.45c-1.66-3.95-1.79-9.75-.69-15.18Z" class="cls-4" transform="translate(-471.86 -155.68)"/><path d="M542.45,182.84l.27,2.25,1.43-.31c-1.16,1.94-2.36,3-3.61,3.12a1.6,1.6,0,0,1-1-.49c-.81-.86-.4-1.85-.06-2.83,1.18-3.4,3.77-6.74,1.38-10.31l-2.53-.07c.55,1.43,1.94,3.07.58,5.08a2,2,0,0,1-1.1.88,5.86,5.86,0,0,1-4.3,0,1.28,1.28,0,0,1-.65-1.62,3.62,3.62,0,0,0,.38-1.77c-.12-.82.23-.73.6-.5a9.92,9.92,0,0,0,4.59,2.15c.67,0,1-.55.32-1a18.75,18.75,0,0,1-4-3.22c-.24-.37-.36-.42-1-.41l-1.15.1a1.21,1.21,0,0,0-1.53-.52,1.26,1.26,0,0,0-.52.39c-.41.5-.31,1.15.09,1.89a2.16,2.16,0,0,1,0,2.63,2.36,2.36,0,0,0,.66,3.27,6.61,6.61,0,0,0,6.07,1.65,6.68,6.68,0,0,0-.14,5.32,4.09,4.09,0,0,0,5.75,1.29,10.32,10.32,0,0,0,3.3-5.59c.53-1.94.18-2.79-.82-2.83a1.88,1.88,0,0,0-1.12.35l-1.89,1.05Z" class="cls-4" transform="translate(-471.86 -155.68)"/><path d="M542.39,174.29a.27.27,0,0,1,.13-.22,1.67,1.67,0,0,1,.45-.13,20.47,20.47,0,0,1,5.93-.82c.42,0,.64.2.71.46.95.18,1.23.45.83.79a.54.54,0,0,1-.38.15l-7.29,1.25c-.24,0-.37,0-.37-.29v-1.19Z" class="cls-4" transform="translate(-471.86 -155.68)"/><path d="M472.69,178.74h2.1a8.18,8.18,0,0,1,2.86.33,2.72,2.72,0,0,1,1.21,1.71,14.58,14.58,0,0,1,.47,4.39,13.31,13.31,0,0,1-.33,3.69,1.62,1.62,0,0,1-1.31,1.13,2.38,2.38,0,0,1,1.19,1.22,5.54,5.54,0,0,1,.38,1.38c.05.42.07,1.58.07,3.49v6.21h-2.76v-7.83a10.35,10.35,0,0,0-.15-2.34c-.09-.3-.35-.45-.76-.45v10.62h-3V178.74Zm3,4V188a.81.81,0,0,0,.71-.28,4.63,4.63,0,0,0,.2-1.84v-1.29a3.34,3.34,0,0,0-.2-1.47.72.72,0,0,0-.71-.35Z" class="cls-5" transform="translate(-471.86 -155.68)"/><path d="M485.63,178.74l1.7,23.55h-3.05l-.14-4.24h-1.07l-.18,4.24h-3.08l1.51-23.55Zm-1.58,15.14c-.15-2.66-.3-6-.45-9.88-.3,4.5-.49,7.8-.57,9.88Z" class="cls-5" transform="translate(-471.86 -155.68)"/><path d="M487.84,178.74h2.23a6.85,6.85,0,0,1,2.92.41,2.58,2.58,0,0,1,1.15,1.33,6.75,6.75,0,0,1,.5,2.08c.07.76.1,2.25.1,4.49v8.24a37.62,37.62,0,0,1-.15,4.24,4.46,4.46,0,0,1-.5,1.68,2,2,0,0,1-.89.84,4.1,4.1,0,0,1-1.6.24h-3.76V178.74Zm3,4v15.49a.72.72,0,0,0,.79-.53,15.54,15.54,0,0,0,.15-2.89v-9.15c0-1.07,0-1.75-.05-2.05a1.28,1.28,0,0,0-.22-.66.85.85,0,0,0-.67-.21Z" class="cls-5" transform="translate(-471.86 -155.68)"/><polygon points="26.97 23.06 26.97 46.61 23.99 46.61 23.99 23.06 26.97 23.06 26.97 23.06" class="cls-5"/><path d="M506.83,192.53c0,2.36,0,4-.08,5a10.12,10.12,0,0,1-.51,2.7,4.45,4.45,0,0,1-1.16,1.88,2.43,2.43,0,0,1-1.7.65,2.46,2.46,0,0,1-1.65-.62,4.2,4.2,0,0,1-1.18-1.85,9.88,9.88,0,0,1-.53-2.69c0-1-.08-2.67-.08-5.09v-4c0-2.37,0-4,.08-5a9.52,9.52,0,0,1,.51-2.7,4.41,4.41,0,0,1,1.16-1.87,2.43,2.43,0,0,1,1.69-.66,2.52,2.52,0,0,1,1.66.62,4.25,4.25,0,0,1,1.17,1.85,9.31,9.31,0,0,1,.53,2.7c.06,1,.09,2.66.09,5.09v4Zm-3-7.74a14.39,14.39,0,0,0-.09-2.1c-.06-.31-.18-.46-.36-.46s-.28.12-.36.37a10.71,10.71,0,0,0-.12,2.19v11a21,21,0,0,0,.08,2.54c.05.32.18.48.38.48s.33-.19.39-.55.08-1.25.08-2.64V184.79Z" class="cls-5" transform="translate(-471.86 -155.68)"/><path d="M511.25,200h2.07c0,.44,0,.71,0,.82a.49.49,0,0,0,.13.29.37.37,0,0,0,.3.11.35.35,0,0,0,.26-.1.42.42,0,0,0,.11-.29c0-.11,0-.35,0-.69v-1.49a1.18,1.18,0,0,1-.46.56,1.42,1.42,0,0,1-.77.19,1.58,1.58,0,0,1-1-.35,1.48,1.48,0,0,1-.55-.83,5.66,5.66,0,0,1-.12-1.31v-.74a12.42,12.42,0,0,1,.07-1.46,2.11,2.11,0,0,1,.36-.88,1.85,1.85,0,0,1,.79-.63,2.89,2.89,0,0,1,1.18-.23,3.09,3.09,0,0,1,1.35.26,2,2,0,0,1,.83.75,2.42,2.42,0,0,1,.34,1c0,.36,0,1,0,2.08v1.29c0,1.11,0,1.85,0,2.23a2.3,2.3,0,0,1-.35,1.06,1.9,1.9,0,0,1-.86.75,2.83,2.83,0,0,1-1.24.26,2.88,2.88,0,0,1-1.43-.32,1.8,1.8,0,0,1-.79-.89,3.64,3.64,0,0,1-.25-1.46Zm2.07-2.91c0,.4,0,.64.13.73a.42.42,0,0,0,.28.14.34.34,0,0,0,.32-.18,1.68,1.68,0,0,0,.1-.69v-1.69a2.17,2.17,0,0,0-.1-.8.32.32,0,0,0-.31-.19.44.44,0,0,0-.28.14,1.42,1.42,0,0,0-.14.8v1.74Z" class="cls-5" transform="translate(-471.86 -155.68)"/><path d="M521.14,193.17v6.1h.58v1.59h-.58v1.64h-2.07v-1.64h-2.45v-1.59l1.78-6.1Zm-2.07,6.1v-4l-.91,4Z" class="cls-5" transform="translate(-471.86 -155.68)"/><polygon points="51.67 44.92 51.67 46.82 50.11 46.82 50.11 44.92 51.67 44.92 51.67 44.92" class="cls-5"/><path d="M528,197.22a1.34,1.34,0,0,1,.7.58,4.88,4.88,0,0,1,.23,1.91,5.16,5.16,0,0,1-.23,1.72,1.71,1.71,0,0,1-.78.93,3.25,3.25,0,0,1-2.95-.05,1.7,1.7,0,0,1-.74-.91,6.65,6.65,0,0,1-.18-1.87v-.73h2.07v1.51a3,3,0,0,0,.06.77c0,.11.14.16.29.16a.29.29,0,0,0,.31-.2,4.38,4.38,0,0,0,.08-1.09v-.64a2.08,2.08,0,0,0-.11-.78.56.56,0,0,0-.31-.33,3.1,3.1,0,0,0-.82-.09v-1.35a3.65,3.65,0,0,0,.91-.07.4.4,0,0,0,.25-.27,2.21,2.21,0,0,0,.08-.67v-.52a1.53,1.53,0,0,0-.09-.65.3.3,0,0,0-.28-.15.29.29,0,0,0-.29.16,2,2,0,0,0-.08.7v.77H524v-.8a2.33,2.33,0,0,1,.54-1.8,2.59,2.59,0,0,1,1.73-.47,2.46,2.46,0,0,1,2,.65,2.79,2.79,0,0,1,.53,1.81,2.44,2.44,0,0,1-.19,1.13,1.85,1.85,0,0,1-.66.64Z" class="cls-5" transform="translate(-471.86 -155.68)"/><polygon points="59.69 37.49 63.33 37.49 63.33 39.36 61.84 39.36 61.84 41.13 63.17 41.13 63.17 42.9 61.84 42.9 61.84 46.82 59.69 46.82 59.69 37.49 59.69 37.49" class="cls-5"/><path d="M542.35,193.17v9.33h-1.88v-6.3l-.75,6.3h-1.34l-.79-6.15v6.15h-1.88v-9.33h2.79c.08.56.17,1.22.26,2l.3,2.38.49-4.36Z" class="cls-5" transform="translate(-471.86 -155.68)"/><path d="M477.05,207l.15,1.92h-.15a2.73,2.73,0,0,0-.6-1.08,1.88,1.88,0,0,0-1.37-.53,1.92,1.92,0,0,0-1.72.92,3.4,3.4,0,0,0-.5,1.86,3.77,3.77,0,0,0,.33,1.59,2.39,2.39,0,0,0,.86,1.06,2.08,2.08,0,0,0,1.1.34,2.18,2.18,0,0,0,.63-.09,2.55,2.55,0,0,0,.59-.25v-1.77a1.59,1.59,0,0,0-.07-.6.45.45,0,0,0-.21-.22,1.17,1.17,0,0,0-.5-.07v-.17h2.3V210h-.11a.5.5,0,0,0-.47.23,1.7,1.7,0,0,0-.08.66v1.87a4.4,4.4,0,0,1-1,.41,4.12,4.12,0,0,1-1.09.13,3,3,0,0,1-3.28-3.1,3.36,3.36,0,0,1,.37-1.54,3.23,3.23,0,0,1,1.23-1.35A2.94,2.94,0,0,1,475,207a2.71,2.71,0,0,1,.59.05,6,6,0,0,1,.75.24,1.17,1.17,0,0,0,.33.09.15.15,0,0,0,.14-.08.59.59,0,0,0,.07-.3Z" class="cls-3" transform="translate(-471.86 -155.68)"/><path d="M481.82,209.07v2.5a6.94,6.94,0,0,0,0,.87.35.35,0,0,0,.1.22.23.23,0,0,0,.17.07.83.83,0,0,0,.31-.08l.06.16-1.2.51h-.2v-.88a3.54,3.54,0,0,1-.79.73,1.16,1.16,0,0,1-.57.15.91.91,0,0,1-.58-.2,1.1,1.1,0,0,1-.35-.52,3.42,3.42,0,0,1-.09-.89v-1.84a.81.81,0,0,0-.07-.41.42.42,0,0,0-.18-.17,1.05,1.05,0,0,0-.43-.06v-.16h1.4v2.76a1,1,0,0,0,.2.75.67.67,0,0,0,.47.18,1,1,0,0,0,.43-.12,2.4,2.4,0,0,0,.56-.46v-2.34a.68.68,0,0,0-.12-.47.79.79,0,0,0-.52-.14v-.16Z" class="cls-3" transform="translate(-471.86 -155.68)"/><path d="M484,209.82a1.91,1.91,0,0,1,1.35-.88,1,1,0,0,1,.56.17,1.14,1.14,0,0,1,.38.56,2.84,2.84,0,0,1,.09.83v1.76a1.27,1.27,0,0,0,.07.53.38.38,0,0,0,.15.18.89.89,0,0,0,.4.06v.16h-2V213h.09a.66.66,0,0,0,.39-.09.42.42,0,0,0,.15-.26,1.75,1.75,0,0,0,0-.42v-1.69a1.86,1.86,0,0,0-.14-.82.51.51,0,0,0-.48-.25,1.43,1.43,0,0,0-1,.58v2.18a1.67,1.67,0,0,0,.05.52.45.45,0,0,0,.17.19,1,1,0,0,0,.43.06v.16h-2V213h.09a.45.45,0,0,0,.41-.16,1.21,1.21,0,0,0,.11-.61v-1.53a7.56,7.56,0,0,0,0-.91.41.41,0,0,0-.1-.22.29.29,0,0,0-.19-.06.93.93,0,0,0-.29.07l-.07-.16,1.21-.51H484v.88Z" class="cls-3" transform="translate(-471.86 -155.68)"/><path d="M488.34,211.69a1.44,1.44,0,0,1-.57-.52,1.47,1.47,0,0,1,.26-1.78,1.55,1.55,0,0,1,1.15-.45,1.72,1.72,0,0,1,1,.29h1.07a.08.08,0,0,1,0,0,.28.28,0,0,1,0,.15.51.51,0,0,1,0,.16l-.05,0h-.74a1.34,1.34,0,0,1,.24.83,1.32,1.32,0,0,1-.42,1,1.6,1.6,0,0,1-1.16.41,2.2,2.2,0,0,1-.61-.09,1.93,1.93,0,0,0-.26.3.56.56,0,0,0-.06.22.21.21,0,0,0,.07.15.5.5,0,0,0,.28.1c.08,0,.29,0,.61,0a9.92,9.92,0,0,1,1.17.06,1.08,1.08,0,0,1,.65.31.87.87,0,0,1,.25.62,1.3,1.3,0,0,1-.47,1,2.45,2.45,0,0,1-1.78.66,2.53,2.53,0,0,1-1.43-.39.61.61,0,0,1-.33-.47.54.54,0,0,1,.05-.21,2.16,2.16,0,0,1,.31-.47l.45-.48a1.83,1.83,0,0,1-.33-.25.41.41,0,0,1-.09-.26.76.76,0,0,1,.12-.36,2.76,2.76,0,0,1,.58-.6Zm.76-2.53a.67.67,0,0,0-.54.27,1.22,1.22,0,0,0-.22.81,1.81,1.81,0,0,0,.3,1.11.71.71,0,0,0,.58.29.66.66,0,0,0,.54-.25,1.22,1.22,0,0,0,.22-.81,1.84,1.84,0,0,0-.3-1.12.7.7,0,0,0-.58-.3Zm-.8,4a2.07,2.07,0,0,0-.31.43.68.68,0,0,0-.11.36.45.45,0,0,0,.25.38,2.37,2.37,0,0,0,1.27.28,1.83,1.83,0,0,0,1.16-.29.79.79,0,0,0,.38-.61.35.35,0,0,0-.23-.33,3.28,3.28,0,0,0-.9-.12,12.36,12.36,0,0,1-1.51-.1Z" class="cls-3" transform="translate(-471.86 -155.68)"/><path d="M495.27,209.07v2.5a6.94,6.94,0,0,0,0,.87.41.41,0,0,0,.1.22.23.23,0,0,0,.17.07.79.79,0,0,0,.31-.08l.06.16-1.2.51h-.19v-.88a3.77,3.77,0,0,1-.79.73,1.19,1.19,0,0,1-.58.15.91.91,0,0,1-.58-.2,1.1,1.1,0,0,1-.35-.52,3.42,3.42,0,0,1-.09-.89v-1.84a1,1,0,0,0-.06-.41.4.4,0,0,0-.19-.17,1,1,0,0,0-.43-.06v-.16h1.4v2.76a1,1,0,0,0,.2.75.67.67,0,0,0,.47.18,1,1,0,0,0,.43-.12,2.23,2.23,0,0,0,.57-.46v-2.34a.68.68,0,0,0-.13-.47.77.77,0,0,0-.52-.14v-.16Z" class="cls-3" transform="translate(-471.86 -155.68)"/><path d="M497.4,209.82a1.91,1.91,0,0,1,1.35-.88.93.93,0,0,1,.56.17,1.14,1.14,0,0,1,.38.56,2.77,2.77,0,0,1,.1.83v1.76a1.54,1.54,0,0,0,.06.53.38.38,0,0,0,.15.18.92.92,0,0,0,.4.06v.16h-2V213h.08a.62.62,0,0,0,.39-.09.43.43,0,0,0,.16-.26,3.48,3.48,0,0,0,0-.42v-1.69a1.72,1.72,0,0,0-.14-.82.49.49,0,0,0-.48-.25,1.45,1.45,0,0,0-1,.58v2.18a1.67,1.67,0,0,0,.05.52.45.45,0,0,0,.17.19,1,1,0,0,0,.44.06v.16h-2V213h.09a.48.48,0,0,0,.42-.16,1.24,1.24,0,0,0,.1-.61v-1.53a7.56,7.56,0,0,0,0-.91.41.41,0,0,0-.1-.22.28.28,0,0,0-.18-.06,1.05,1.05,0,0,0-.3.07l-.06-.16,1.21-.51h.18v.88Z" class="cls-3" transform="translate(-471.86 -155.68)"/><path d="M503,212.6a7.52,7.52,0,0,1-.77.56,1.13,1.13,0,0,1-.51.12.88.88,0,0,1-.68-.3,1.08,1.08,0,0,1-.27-.77,1,1,0,0,1,.13-.52,2,2,0,0,1,.62-.58,10.1,10.1,0,0,1,1.48-.65v-.16a1.36,1.36,0,0,0-.19-.85.67.67,0,0,0-.55-.23.62.62,0,0,0-.44.15.47.47,0,0,0-.17.35V210a.43.43,0,0,1-.1.31.36.36,0,0,1-.54,0,.51.51,0,0,1-.1-.32.93.93,0,0,1,.39-.71,1.59,1.59,0,0,1,1.08-.33,1.91,1.91,0,0,1,.88.19.87.87,0,0,1,.38.44,2.68,2.68,0,0,1,.07.79v1.4a4.82,4.82,0,0,0,0,.72.3.3,0,0,0,.07.18.16.16,0,0,0,.11.05.28.28,0,0,0,.13,0,2.71,2.71,0,0,0,.35-.33v.26c-.32.45-.64.67-.94.67a.43.43,0,0,1-.34-.15.86.86,0,0,1-.13-.52Zm0-.3v-1.57c-.44.18-.72.31-.85.38a1.69,1.69,0,0,0-.5.42.8.8,0,0,0-.15.47.81.81,0,0,0,.19.54.58.58,0,0,0,.44.21,1.56,1.56,0,0,0,.87-.45Z" class="cls-3" transform="translate(-471.86 -155.68)"/><path d="M505.86,207.71v1.36h.94v.31h-.94v2.68a.89.89,0,0,0,.12.54.35.35,0,0,0,.28.14.44.44,0,0,0,.28-.1.58.58,0,0,0,.21-.27h.17a1.37,1.37,0,0,1-.43.67.92.92,0,0,1-.58.22.74.74,0,0,1-.39-.12.67.67,0,0,1-.29-.33,1.76,1.76,0,0,1-.09-.65v-2.78h-.63v-.15a1.51,1.51,0,0,0,.49-.33,2.76,2.76,0,0,0,.45-.56c.06-.12.16-.33.28-.63Z" class="cls-3" transform="translate(-471.86 -155.68)"/><path d="M507.87,210.62a2.14,2.14,0,0,0,.43,1.44,1.29,1.29,0,0,0,1,.52,1.07,1.07,0,0,0,.68-.22,1.59,1.59,0,0,0,.49-.76l.14.09a2.13,2.13,0,0,1-.54,1.12,1.39,1.39,0,0,1-1.1.51,1.58,1.58,0,0,1-1.24-.58,2.25,2.25,0,0,1-.52-1.56,2.42,2.42,0,0,1,.53-1.65,1.71,1.71,0,0,1,1.33-.59,1.41,1.41,0,0,1,1.1.46,1.69,1.69,0,0,1,.44,1.22Zm0-.26h1.85a1.6,1.6,0,0,0-.09-.56.86.86,0,0,0-.33-.4.82.82,0,0,0-.45-.14.91.91,0,0,0-.65.29,1.26,1.26,0,0,0-.33.81Z" class="cls-3" transform="translate(-471.86 -155.68)"/><path d="M519.19,213.19h-1.58l-2-2.85H515v1.77a1.34,1.34,0,0,0,.12.72.63.63,0,0,0,.5.2h.23v.16h-2.54V213h.22a.6.6,0,0,0,.54-.26,1.46,1.46,0,0,0,.09-.66v-3.94a1.3,1.3,0,0,0-.12-.72.66.66,0,0,0-.51-.2h-.22v-.17h2.16a4.67,4.67,0,0,1,1.39.15,1.61,1.61,0,0,1,.77.52,1.49,1.49,0,0,1-.05,1.88,2,2,0,0,1-1.1.59l1.22,1.75a3.11,3.11,0,0,0,.73.8,1.84,1.84,0,0,0,.78.26v.16ZM515,210.05h.24a1.88,1.88,0,0,0,1.28-.38,1.21,1.21,0,0,0,.43-1,1.2,1.2,0,0,0-1.27-1.29,4.44,4.44,0,0,0-.68.08v2.54Z" class="cls-3" transform="translate(-471.86 -155.68)"/><path d="M521.67,212.6a6.26,6.26,0,0,1-.78.56,1.06,1.06,0,0,1-.5.12.89.89,0,0,1-.69-.3,1.07,1.07,0,0,1-.26-.77,1,1,0,0,1,.13-.52,1.85,1.85,0,0,1,.62-.58,10.1,10.1,0,0,1,1.48-.65v-.16a1.36,1.36,0,0,0-.19-.85.69.69,0,0,0-.56-.23.59.59,0,0,0-.43.15.47.47,0,0,0-.17.35V210a.48.48,0,0,1-.1.31.36.36,0,0,1-.54,0,.46.46,0,0,1-.1-.32.94.94,0,0,1,.38-.71,1.63,1.63,0,0,1,1.09-.33,1.87,1.87,0,0,1,.87.19.83.83,0,0,1,.38.44,2.58,2.58,0,0,1,.08.79v1.4c0,.39,0,.63,0,.72a.39.39,0,0,0,.07.18.21.21,0,0,0,.12.05.21.21,0,0,0,.12,0,3.32,3.32,0,0,0,.36-.33v.26c-.33.45-.64.67-.94.67a.42.42,0,0,1-.34-.15.79.79,0,0,1-.13-.52Zm0-.3v-1.57c-.44.18-.73.31-.86.38a1.64,1.64,0,0,0-.49.42.8.8,0,0,0-.15.47.76.76,0,0,0,.19.54.56.56,0,0,0,.43.21,1.58,1.58,0,0,0,.88-.45Z" class="cls-3" transform="translate(-471.86 -155.68)"/><path d="M524.55,206.79v3a3.4,3.4,0,0,1,.77-.71,1.23,1.23,0,0,1,.57-.16.92.92,0,0,1,.59.2,1.11,1.11,0,0,1,.36.61,4.06,4.06,0,0,1,.09,1.05v1.46a1.54,1.54,0,0,0,.06.53.38.38,0,0,0,.15.18.85.85,0,0,0,.38.06v.16h-2V213h.09a.62.62,0,0,0,.39-.09.43.43,0,0,0,.16-.26,3.7,3.7,0,0,0,0-.42V210.8a3.36,3.36,0,0,0-.07-.89.59.59,0,0,0-.21-.31.61.61,0,0,0-.36-.11,1,1,0,0,0-.45.12,2.25,2.25,0,0,0-.56.47v2.18a1.76,1.76,0,0,0,.05.53.46.46,0,0,0,.17.17.9.9,0,0,0,.43.07v.16h-2V213a.82.82,0,0,0,.42-.09.27.27,0,0,0,.14-.17,1.37,1.37,0,0,0,.06-.51v-3.73a4.85,4.85,0,0,0,0-.87.32.32,0,0,0-.1-.22.24.24,0,0,0-.18-.06,1,1,0,0,0-.3.07l-.06-.16,1.2-.5Z" class="cls-3" transform="translate(-471.86 -155.68)"/><path d="M529.82,208.94a1.76,1.76,0,0,1,1.47.72,2.21,2.21,0,0,1,.46,1.39,2.54,2.54,0,0,1-.26,1.12,1.91,1.91,0,0,1-.71.86,1.86,1.86,0,0,1-1,.29,1.7,1.7,0,0,1-1.44-.74,2.37,2.37,0,0,1-.45-1.41,2.48,2.48,0,0,1,.28-1.13,1.91,1.91,0,0,1,.72-.83,1.77,1.77,0,0,1,.94-.27Zm-.13.3a.85.85,0,0,0-.47.14,1,1,0,0,0-.38.5,2.35,2.35,0,0,0-.14.91,3.25,3.25,0,0,0,.34,1.55,1,1,0,0,0,.92.66.85.85,0,0,0,.7-.36,2.06,2.06,0,0,0,.28-1.24,2.86,2.86,0,0,0-.46-1.73.93.93,0,0,0-.79-.43Z" class="cls-3" transform="translate(-471.86 -155.68)"/><path d="M537.67,212.32a.46.46,0,0,1,.34.14.48.48,0,0,1,.14.36.46.46,0,0,1-.14.35.45.45,0,0,1-.34.15.43.43,0,0,1-.34-.15.47.47,0,0,1-.15-.35.49.49,0,0,1,.15-.36.46.46,0,0,1,.34-.14Z" class="cls-3" transform="translate(-471.86 -155.68)"/><path d="M539.91,212.32a.5.5,0,0,1,.35.14.52.52,0,0,1,.14.36.47.47,0,0,1-.15.35.43.43,0,0,1-.34.15.45.45,0,0,1-.34-.15.46.46,0,0,1-.14-.35.48.48,0,0,1,.14-.36.48.48,0,0,1,.34-.14Z" class="cls-3" transform="translate(-471.86 -155.68)"/><path d="M542.15,212.32a.48.48,0,0,1,.35.14.52.52,0,0,1,.14.36.5.5,0,0,1-.14.35.47.47,0,0,1-.35.15.45.45,0,0,1-.34-.15.5.5,0,0,1-.14-.35.52.52,0,0,1,.14-.36.48.48,0,0,1,.34-.14Z" class="cls-3" transform="translate(-471.86 -155.68)"/></g></svg>