<svg xmlns="http://www.w3.org/2000/svg" id="Sponsors" viewBox="0 0 73.69 25.25"><defs><style>.cls-1{fill:#292075}.cls-2{fill:#16d}</style></defs><g id="SBI"><path id="_path_" d="M545.55,494.57H551V470.15h-5.47Z" class="cls-1" data-name="&lt;path&gt;" transform="translate(-477.33 -469.71)"/><path id="_path_2" d="M534.86,490H530.7V474.72h3.67a2.33,2.33,0,0,1,2.59,2.53,2.2,2.2,0,0,1-2.53,2.44h-1.26v4.49h1.69a3,3,0,0,1,2.23.84,2.54,2.54,0,0,1,.78,2,2.8,2.8,0,0,1-3,3m7.26-6.4a5.55,5.55,0,0,0-2.16-2,6.18,6.18,0,0,0,2.23-4.9,6.07,6.07,0,0,0-2.23-4.89,8.76,8.76,0,0,0-5.53-1.68h-8.9v24.42h9a9.85,9.85,0,0,0,6-1.74,7.15,7.15,0,0,0,1.62-9.23" class="cls-1" data-name="&lt;path&gt;" transform="translate(-477.33 -469.71)"/><path id="_path_3" d="M520.88,482.52a18.3,18.3,0,0,0-4.63-2.47c-2.12-.88-4-1.63-4-3a2,2,0,0,1,.81-1.58,3.52,3.52,0,0,1,2.16-.67,8.11,8.11,0,0,1,4.78,1.89l.52.47,2.34-4.4-.26-.28a10.39,10.39,0,0,0-7.35-2.67,9.07,9.07,0,0,0-5.93,2.06,6.85,6.85,0,0,0-2.42,5.24A6,6,0,0,0,509.3,482a18.49,18.49,0,0,0,4.58,2.51c2.17.93,4.06,1.75,4.06,3.19,0,1.1-.75,2.28-2.84,2.28a8.83,8.83,0,0,1-5.42-2.31l-.45-.43-2.92,4,.29.33a10.22,10.22,0,0,0,2.2,1.69,12.35,12.35,0,0,0,6.24,1.67,8.57,8.57,0,0,0,6-2.17,7.07,7.07,0,0,0,2.18-5.2,6.21,6.21,0,0,0-2.37-5.05" class="cls-1" data-name="&lt;path&gt;" transform="translate(-477.33 -469.71)"/><path id="_path_4" d="M490,469.71A12.66,12.66,0,0,0,488.66,495v-9.2a3.64,3.64,0,1,1,2.58,0V495A12.66,12.66,0,0,0,490,469.71" class="cls-2" data-name="&lt;path&gt;" transform="translate(-477.33 -469.71)"/></g></svg>